<svg width="60" height="60" viewBox="0 0 60 60" fill="none" xmlns="http://www.w3.org/2000/svg">
<g opacity="0.6">
<path d="M43.27 9.58008H38.23H21.76H16.72C16.27 9.58008 15.9 9.95008 15.9 10.4001C15.9 10.8501 16.27 11.2201 16.72 11.2201H20.94V13.6701C20.94 14.1201 21.31 14.4901 21.76 14.4901H26.83V25.4501H25.54C25.09 25.4501 24.72 25.8201 24.72 26.2701V29.5001L23.35 30.1501C21.9 30.8401 20.82 32.1201 20.4 33.6701C19.98 35.2201 20.25 36.8701 21.15 38.2001L22.4 40.0401V49.6201C22.4 50.0701 22.77 50.4401 23.22 50.4401H36.76C37.21 50.4401 37.58 50.0701 37.58 49.6201V40.0401L38.83 38.2001C39.73 36.8701 40.01 35.2201 39.58 33.6701C39.16 32.1201 38.08 30.8401 36.63 30.1501L35.26 29.5001V26.2701C35.26 25.8201 34.89 25.4501 34.44 25.4501H33.15V14.4801H38.22C38.67 14.4801 39.04 14.1101 39.04 13.6601V11.2101H43.26C43.71 11.2101 44.08 10.8401 44.08 10.3901C44.08 9.94008 43.72 9.58008 43.27 9.58008ZM35.95 48.7901H24.05V37.7601H26.82V42.6001C26.82 42.9201 27.01 43.2201 27.31 43.3501C27.42 43.4001 27.53 43.4201 27.64 43.4201C27.84 43.4201 28.04 43.3501 28.19 43.2001L30 41.5301L31.82 43.2001C32.06 43.4201 32.41 43.4801 32.7 43.3501C33 43.2201 33.19 42.9301 33.19 42.6001V37.7601H35.96V48.7901H35.95ZM28.45 37.7601H31.55V40.7401L30.55 39.8201C30.4 39.6801 30.2 39.6001 30 39.6001C29.8 39.6001 29.6 39.6701 29.45 39.8201L28.45 40.7401V37.7601ZM38.02 34.0801C38.3 35.1001 38.13 36.1801 37.59 37.0801V36.9501C37.59 36.5001 37.22 36.1301 36.77 36.1301H32.37H27.63H23.23C22.78 36.1301 22.41 36.5001 22.41 36.9501V37.0801C21.87 36.1801 21.7 35.1001 21.98 34.0801C22.28 32.9901 23.03 32.0901 24.05 31.6101L25.72 30.8201H34.27L35.94 31.6101C36.97 32.0901 37.72 32.9901 38.02 34.0801ZM33.64 29.1801H26.36V27.0701H27.65H32.35H33.64V29.1801ZM31.53 25.4401H28.47V14.4801H31.53V25.4401ZM37.42 12.8501H32.35H27.65H22.58V11.2201H37.42V12.8501Z" fill="white"/>
</g>
</svg>
