<svg width="33" height="33" viewBox="0 0 33 33" fill="none" xmlns="http://www.w3.org/2000/svg">
<path d="M21.4967 10.2095C20.8823 9.96419 20.1217 10.1022 19.6745 10.6099C19.091 11.2715 19.1548 12.2846 19.8159 12.8676C20.1085 13.1256 20.4841 13.268 20.8741 13.268C21.3333 13.268 21.7706 13.0711 22.0742 12.7268C22.5422 12.1966 22.5873 11.4437 22.2485 10.8634L26.9697 5.51249C27.1672 5.59719 27.38 5.64614 27.5984 5.64614C28.0571 5.64614 28.4954 5.44924 28.799 5.10494C29.3826 4.44329 29.3182 3.43019 28.6577 2.84719C28.0208 2.28564 26.9604 2.35164 26.3999 2.98854C26.1167 3.30919 25.9759 3.72059 26.0023 4.14629C26.0182 4.40039 26.0991 4.63909 26.2239 4.85194L21.4967 10.2095ZM21.3267 12.0668C21.1144 12.3066 20.7157 12.3319 20.4748 12.1202C20.2256 11.9007 20.202 11.5185 20.4214 11.2693C20.5358 11.1395 20.7014 11.0653 20.8741 11.0653C21.0215 11.0653 21.1617 11.1186 21.2728 11.2154C21.5225 11.436 21.5467 11.8177 21.3267 12.0668ZM27.1468 3.64689C27.2607 3.51764 27.4262 3.44339 27.5989 3.44339C27.7458 3.44339 27.8866 3.49674 27.9977 3.59409C28.2468 3.81354 28.2705 4.19579 28.0516 4.44494C27.8393 4.68474 27.4405 4.71004 27.1996 4.49829C27.0792 4.39214 27.0071 4.24474 26.9967 4.08359C26.9868 3.92299 27.0401 3.76844 27.1468 3.64689Z" fill="white"/>
<path d="M32.1992 28.5823C31.6921 28.1351 30.9199 28.0917 30.3418 28.4123L18.6356 18.085L17.9762 18.8319H17.9767L12.7319 24.7768L13.4794 25.4357L13.4821 25.4324L16.5456 28.1346L17.2051 27.3871L18.9585 25.3994C19.1559 25.4841 19.3682 25.5336 19.5871 25.5336C20.0458 25.5336 20.4842 25.3367 20.7872 24.9919C21.3708 24.3308 21.307 23.3177 20.6464 22.7341C20.0095 22.1726 18.9491 22.2397 18.3887 22.8755C18.1049 23.1961 17.9646 23.6075 17.991 24.0338C18.007 24.2879 18.0878 24.526 18.2127 24.7389L16.4582 26.7277L14.1421 24.685L18.7242 19.4919L29.6763 29.1543C29.5784 29.382 29.5289 29.6273 29.5443 29.8814C29.5713 30.3076 29.7621 30.6987 30.0828 30.9814C30.3754 31.2399 30.751 31.3818 31.1404 31.3818C31.5997 31.3818 32.0375 31.1849 32.3405 30.8411C32.6243 30.5199 32.7646 30.1091 32.7382 29.6828C32.7118 29.2566 32.5193 28.8644 32.1992 28.5823ZM19.135 23.5344C19.2494 23.4051 19.415 23.3303 19.5877 23.3303C19.734 23.3303 19.8753 23.3842 19.9864 23.481C20.2356 23.701 20.2592 24.0827 20.0403 24.3319C19.828 24.5717 19.4287 24.597 19.1884 24.3858C19.0674 24.2791 18.9953 24.1322 18.9854 23.9711C18.9755 23.8105 19.0283 23.6559 19.135 23.5344ZM31.5931 30.1806C31.3813 30.4204 30.982 30.4457 30.7417 30.2345C30.6207 30.1278 30.5486 29.9804 30.5387 29.8192C30.5283 29.6586 30.5816 29.5041 30.6883 29.3831C30.8022 29.2538 30.9677 29.179 31.1404 29.179C31.2873 29.179 31.4286 29.2329 31.5392 29.3297C31.6607 29.4359 31.7328 29.5833 31.7421 29.7444C31.7526 29.905 31.6998 30.0596 31.5931 30.1806Z" fill="white"/>
<path d="M20.4967 27.3938C20.2129 27.7144 20.0727 28.1258 20.0991 28.5521C20.1255 28.9783 20.3169 29.3688 20.6375 29.6521C20.9296 29.91 21.3058 30.0525 21.6957 30.0525C22.1544 30.0525 22.5922 29.8556 22.8958 29.5107C23.4794 28.8496 23.4156 27.8365 22.755 27.253C22.1165 26.6903 21.0561 26.7574 20.4967 27.3938ZM22.1484 28.8507C21.9361 29.0911 21.5373 29.1164 21.297 28.9046C21.1754 28.7979 21.1034 28.6511 21.094 28.4899C21.0836 28.3293 21.1369 28.1748 21.2431 28.0532C21.358 27.924 21.523 27.8492 21.6963 27.8492C21.8426 27.8492 21.9839 27.9031 22.095 27.9999C22.3442 28.2204 22.3678 28.6016 22.1484 28.8507Z" fill="white"/>
<path d="M16.9773 16.2921C17.1748 16.3768 17.3871 16.4257 17.6054 16.4257C18.0647 16.4257 18.5019 16.2288 18.805 15.8851C19.3896 15.2234 19.3258 14.2103 18.6642 13.6268C18.0273 13.0647 16.9674 13.1318 16.4064 13.7681C16.1237 14.0888 15.9824 14.5002 16.0088 14.9259C16.0247 15.18 16.1056 15.4187 16.231 15.6315L5.89811 27.3443C5.28376 27.0985 4.52311 27.2371 4.07651 27.7442C3.79326 28.0648 3.65246 28.4762 3.67941 28.9019C3.70581 29.3282 3.89721 29.7192 4.21786 30.0019C4.51046 30.2604 4.88611 30.4023 5.27551 30.4023C5.73476 30.4023 6.17201 30.2054 6.47561 29.8617C6.75886 29.5405 6.89966 29.1296 6.87271 28.7034C6.85676 28.4493 6.77646 28.2111 6.65106 27.9977L16.9773 16.2921ZM17.1533 14.427C17.2677 14.2978 17.4333 14.223 17.6065 14.223C17.7534 14.223 17.8947 14.2769 18.0047 14.3737C18.2539 14.5931 18.2781 14.9754 18.0586 15.2251C17.8469 15.4643 17.4476 15.4896 17.2072 15.2779C17.0862 15.1717 17.0147 15.0243 17.0043 14.8632C16.9938 14.7026 17.0472 14.548 17.1533 14.427ZM5.72871 29.2011C5.51696 29.4409 5.11766 29.4668 4.87731 29.2545C4.75631 29.1483 4.68426 29.0009 4.67436 28.8398C4.66391 28.6792 4.71781 28.5246 4.82396 28.4036C4.93836 28.2738 5.10336 28.1996 5.27606 28.1996C5.42291 28.1996 5.56426 28.2535 5.67481 28.3503C5.79581 28.4564 5.86786 28.6038 5.87776 28.765C5.88821 28.9256 5.83486 29.0801 5.72871 29.2011Z" fill="white"/>
<path d="M27.7645 9.13487C27.7794 9.38897 27.8603 9.62712 27.9857 9.83997L26.2262 11.8348C25.6118 11.5895 24.8512 11.7276 24.404 12.2352C23.8205 12.8969 23.8843 13.9094 24.5448 14.493C24.838 14.7509 25.2142 14.8934 25.6031 14.8934C26.0628 14.8934 26.5001 14.6965 26.8031 14.3522C27.0869 14.0315 27.2272 13.6201 27.2008 13.1939C27.1848 12.9398 27.104 12.7022 26.9797 12.4888L28.7331 10.5016C28.93 10.5863 29.1423 10.6358 29.3612 10.6358C29.8204 10.6358 30.2577 10.4389 30.5618 10.0941C31.1454 9.43242 31.0816 8.41987 30.4205 7.83632C29.783 7.27477 28.7226 7.34187 28.1622 7.97767C27.8784 8.29722 27.7381 8.70862 27.7645 9.13487ZM26.0562 13.6927C25.845 13.9325 25.4458 13.9573 25.2049 13.7461C24.9557 13.5261 24.9321 13.1444 25.1515 12.8952C25.2659 12.7654 25.4314 12.6906 25.6041 12.6906C25.7515 12.6906 25.8918 12.7445 26.0029 12.8413C26.1239 12.948 26.196 13.0949 26.2059 13.256C26.2158 13.4166 26.1629 13.5717 26.0562 13.6927ZM28.9091 8.63602C29.0235 8.50677 29.1885 8.43197 29.3617 8.43197C29.5086 8.43197 29.6499 8.48587 29.7605 8.58267C30.0096 8.80267 30.0338 9.18437 29.8138 9.43352C29.6021 9.67387 29.2028 9.69862 28.963 9.48742C28.8415 9.38072 28.7694 9.23387 28.76 9.07272C28.749 8.91212 28.8024 8.75702 28.9091 8.63602Z" fill="white"/>
<path d="M16.7479 29.7318L12.0311 25.571L11.3717 26.3185L10.1595 27.6924C9.54515 27.4471 8.7845 27.5857 8.33735 28.0933C7.7538 28.755 7.8176 29.7681 8.4787 30.3511C8.7713 30.609 9.14695 30.7515 9.5369 30.7515C9.9956 30.7515 10.4334 30.5546 10.7364 30.2103C11.0197 29.8896 11.1605 29.4782 11.1335 29.0525C11.1176 28.7984 11.0373 28.5603 10.9119 28.3474L12.1186 26.979L16.0813 30.4748C15.9834 30.702 15.9328 30.9478 15.9493 31.2019C15.9763 31.6282 16.1671 32.0192 16.4878 32.3019C16.7804 32.5599 17.1555 32.7023 17.5454 32.7023C18.0041 32.7023 18.4419 32.5054 18.7455 32.1611C19.3296 31.5 19.2664 30.4869 18.6047 29.9034C18.0965 29.4546 17.3249 29.4122 16.7479 29.7318ZM9.98954 29.5503C9.77779 29.7895 9.3785 29.8148 9.1387 29.6036C8.88955 29.3842 8.86535 29.0019 9.08535 28.7528C9.19975 28.623 9.36474 28.5487 9.53854 28.5487C9.68539 28.5487 9.8262 28.6021 9.93675 28.6989C10.0577 28.8056 10.1298 28.953 10.1397 29.1141C10.1496 29.2747 10.0957 29.4293 9.98954 29.5503ZM17.9986 31.5C17.7863 31.7398 17.3881 31.7646 17.1472 31.5534C17.0268 31.4472 16.9547 31.2998 16.9443 31.1387C16.9344 30.9781 16.9872 30.8235 17.0939 30.702C17.2083 30.5727 17.3738 30.4985 17.5465 30.4985C17.6934 30.4985 17.8342 30.5518 17.9453 30.6492C18.1944 30.8692 18.2181 31.2509 17.9986 31.5Z" fill="white"/>
<path d="M27.3179 22.9492C27.6099 23.2071 27.9861 23.3496 28.3761 23.3496C28.8348 23.3496 29.272 23.1527 29.5756 22.8084C30.1597 22.1473 30.0959 21.1342 29.4348 20.5501C28.9272 20.1029 28.1555 20.06 27.5769 20.3801L23.7137 16.9718C23.8116 16.7446 23.8617 16.4988 23.8452 16.2447C23.8193 15.819 23.6274 15.4279 23.3067 15.1447C22.6698 14.5831 21.61 14.6502 21.049 15.286C20.7663 15.6067 20.6255 16.0181 20.6524 16.4443C20.6783 16.8706 20.8697 17.2611 21.1909 17.5443C21.4829 17.8023 21.8591 17.9447 22.2485 17.9447C22.5356 17.9447 22.8101 17.86 23.0526 17.7176L26.912 21.1226C26.8141 21.3498 26.764 21.5956 26.78 21.8497C26.8053 22.2754 26.9967 22.6659 27.3179 22.9492ZM28.3772 21.1457C28.5235 21.1457 28.6648 21.1996 28.7754 21.2964C29.0245 21.5164 29.0487 21.8981 28.8287 22.1478C28.617 22.3871 28.2177 22.4124 27.9779 22.2012C27.8563 22.095 27.7843 21.9476 27.7749 21.7865C27.7639 21.6259 27.8178 21.4713 27.924 21.3503C28.0384 21.2205 28.2028 21.1457 28.3772 21.1457ZM22.7006 16.7419C22.4889 16.9822 22.0896 17.0075 21.8498 16.7958C21.7282 16.6891 21.6562 16.5422 21.6468 16.3811C21.6358 16.2205 21.6897 16.0659 21.7959 15.9444C21.9103 15.8151 22.0753 15.7403 22.248 15.7403C22.3954 15.7403 22.5367 15.7942 22.6467 15.891C22.7683 15.9977 22.8403 16.1446 22.8497 16.3057C22.8607 16.4663 22.8073 16.622 22.7006 16.7419Z" fill="white"/>
<path d="M14.3643 14.8973L15.0237 14.1498L20.268 8.20485L19.5205 7.54595L19.5178 7.54925L16.4548 4.8471L15.7954 5.59455L14.0354 7.58995C13.421 7.34465 12.6604 7.4827 12.2132 7.99035C11.6297 8.652 11.6935 9.6651 12.3546 10.2481C12.6472 10.5061 13.0228 10.6485 13.4128 10.6485C13.8715 10.6485 14.3082 10.4516 14.6123 10.1073C15.0798 9.5771 15.1249 8.8247 14.7872 8.2439L16.5423 6.25455L18.8572 8.29725L14.2752 13.4904L3.32304 3.82685C3.58649 3.20975 3.44789 2.46835 2.91769 2.0003C2.28024 1.4382 1.22039 1.5053 0.659394 2.14165C0.376144 2.4623 0.235344 2.8737 0.262294 3.29995C0.288694 3.72565 0.480094 4.1167 0.800744 4.3994C1.09334 4.6579 1.46899 4.7998 1.85894 4.7998C2.14549 4.7998 2.41994 4.71565 2.66249 4.57375L14.3643 14.8973ZM13.8649 9.4473C13.6526 9.68765 13.2544 9.71185 13.0135 9.50065C12.7643 9.2812 12.7401 8.89895 12.9601 8.6498C13.0745 8.52 13.2401 8.44575 13.4133 8.44575C13.5602 8.44575 13.7015 8.4991 13.8121 8.59645C14.0612 8.8159 14.0849 9.19815 13.8649 9.4473ZM2.31104 3.59915C2.09929 3.8384 1.69999 3.86425 1.46019 3.6525C1.33919 3.5458 1.26714 3.3984 1.25724 3.2378C1.24679 3.07665 1.30014 2.9221 1.40629 2.80165C1.52069 2.67185 1.68624 2.59705 1.85949 2.59705C2.00634 2.59705 2.14769 2.65095 2.25824 2.74775C2.50739 2.96775 2.53159 3.34945 2.31104 3.59915Z" fill="white"/>
<path d="M11.304 6.12976C11.7627 6.12976 12.2 5.93286 12.5041 5.58856C13.0877 4.92746 13.0239 3.91381 12.3628 3.33081C11.7264 2.76871 10.666 2.83526 10.105 3.47216C9.5215 4.13381 9.5853 5.14691 10.2464 5.72991C10.5384 5.98731 10.9141 6.12976 11.304 6.12976ZM10.8514 4.13106C10.9658 4.00126 11.1308 3.92701 11.3046 3.92701C11.4514 3.92701 11.5922 3.98036 11.7028 4.07771C11.9519 4.29716 11.9761 4.67996 11.7561 4.92856C11.5438 5.16946 11.1451 5.19311 10.9047 4.98191C10.6556 4.76191 10.6319 4.38021 10.8514 4.13106Z" fill="white"/>
<path d="M5.01321 23.1428L6.76661 21.1546C6.96407 21.2387 7.17636 21.2882 7.39471 21.2882C7.85396 21.2882 8.29176 21.0908 8.59536 20.7465C9.17891 20.0854 9.11511 19.0723 8.45401 18.4893C7.81656 17.9272 6.75671 17.9937 6.19571 18.6306C5.72766 19.1608 5.68256 19.9138 6.02136 20.4935L4.26081 22.4889C3.64646 22.243 2.88581 22.3816 2.43866 22.8893C1.85511 23.5509 1.91891 24.564 2.58001 25.147C2.87261 25.4055 3.24826 25.5474 3.63821 25.5474C4.09691 25.5474 4.53416 25.3505 4.83776 25.0062C5.30636 24.4755 5.35146 23.7225 5.01321 23.1428ZM6.94371 19.289C7.05811 19.1597 7.22312 19.0855 7.39637 19.0855C7.54322 19.0855 7.68456 19.1388 7.79511 19.2362C8.04426 19.4556 8.06846 19.8379 7.84846 20.087C7.63671 20.3257 7.23741 20.3521 6.99761 20.1404C6.74736 19.9209 6.72371 19.5387 6.94371 19.289ZM4.09086 24.3462C3.87856 24.586 3.48036 24.6108 3.23946 24.399C2.99031 24.1796 2.96611 23.7973 3.18611 23.5482C3.30051 23.4184 3.46551 23.3441 3.63931 23.3441C3.78616 23.3441 3.92696 23.3975 4.03751 23.4948C4.28721 23.7143 4.31086 24.0971 4.09086 24.3462Z" fill="white"/>
<path d="M15.4532 3.48036C15.7398 3.48036 16.0142 3.39566 16.2568 3.25376L20.9681 7.41121L21.6275 6.66376L22.8331 5.29756C23.0306 5.38171 23.2429 5.43121 23.4618 5.43121C23.921 5.43121 24.3583 5.23431 24.6624 4.88946C25.246 4.22836 25.1822 3.21526 24.5211 2.63171C23.8836 2.07016 22.8232 2.13726 22.2628 2.77306C21.9801 3.09371 21.8393 3.50511 21.8662 3.93136C21.8811 4.18546 21.9619 4.42361 22.0873 4.63646L20.8806 6.00431L16.9179 2.50796C17.0158 2.28081 17.0653 2.03496 17.0499 1.78086C17.024 1.35516 16.8326 0.964108 16.512 0.680858C15.8756 0.119308 14.8152 0.186958 14.2542 0.822208C13.971 1.14286 13.8302 1.55426 13.8571 1.98051C13.8841 2.40676 14.0749 2.79726 14.3956 3.08051C14.6876 3.33791 15.0633 3.48036 15.4532 3.48036ZM23.0102 3.43141C23.1246 3.30216 23.2896 3.22736 23.4629 3.22736C23.6097 3.22736 23.7511 3.28126 23.8616 3.37806C24.1108 3.59806 24.135 3.97976 23.915 4.22891C23.7032 4.46926 23.3039 4.49456 23.0641 4.28281C22.9426 4.17666 22.8705 4.02926 22.8612 3.86811C22.8502 3.70751 22.9041 3.55296 23.0102 3.43141ZM15.0011 1.48166C15.1161 1.35186 15.2805 1.27706 15.4543 1.27706C15.6006 1.27706 15.742 1.33096 15.8525 1.42776C15.9735 1.53446 16.0456 1.68131 16.0555 1.84246C16.0659 2.00306 16.012 2.15761 15.9059 2.27916C15.6941 2.51841 15.2948 2.54426 15.055 2.33251C14.9335 2.22581 14.8614 2.07896 14.8521 1.91781C14.8416 1.75721 14.895 1.60266 15.0011 1.48166Z" fill="white"/>
<path d="M9.69313 17.838C9.98573 18.096 10.3614 18.2384 10.7513 18.2384C11.21 18.2384 11.6478 18.0415 11.9509 17.6972C12.2336 17.3766 12.3749 16.9652 12.3485 16.5395C12.3216 16.1132 12.1307 15.7222 11.8101 15.4395C11.3024 14.9918 10.5308 14.9489 9.95273 15.269L6.08897 11.8606C6.18687 11.6335 6.23693 11.3882 6.22098 11.1341C6.19458 10.7078 6.00318 10.3168 5.68253 10.0341C5.04563 9.47252 3.98577 9.53907 3.42477 10.1749C3.14152 10.4961 3.00072 10.9069 3.02767 11.3332C3.05462 11.7594 3.24547 12.1505 3.56612 12.4332C3.85872 12.6911 4.23437 12.8336 4.62377 12.8336C4.91032 12.8336 5.18532 12.7489 5.42733 12.607L9.28778 16.0126C9.02378 16.6286 9.16238 17.37 9.69313 17.838ZM10.2987 16.2392C10.4131 16.1094 10.5786 16.0351 10.7519 16.0351C10.8987 16.0351 11.0401 16.0885 11.1506 16.1858C11.2711 16.292 11.3431 16.4394 11.3536 16.6005C11.364 16.7611 11.3101 16.9157 11.204 17.0367C10.9922 17.2759 10.5929 17.3012 10.3531 17.09C10.1029 16.8706 10.0792 16.4883 10.2987 16.2392ZM4.22502 11.6846C4.10402 11.5785 4.03197 11.4311 4.02207 11.2699C4.01162 11.1093 4.06497 10.9548 4.17167 10.8332C4.28607 10.704 4.45108 10.6297 4.62433 10.6297C4.77118 10.6297 4.91252 10.6831 5.02307 10.7799C5.14407 10.8866 5.21613 11.034 5.22603 11.1951C5.23648 11.3557 5.18257 11.5103 5.07642 11.6307C4.86412 11.8705 4.46537 11.8964 4.22502 11.6846Z" fill="white"/>
</svg>
