<svg width="55" height="55" viewBox="0 0 55 55" fill="none" xmlns="http://www.w3.org/2000/svg">
<g opacity="0.6">
<path d="M32.4967 21.2095C31.8823 20.9642 31.1217 21.1022 30.6745 21.6099C30.091 22.2715 30.1548 23.2846 30.8159 23.8676C31.1085 24.1256 31.4841 24.268 31.8741 24.268C32.3333 24.268 32.7706 24.0711 33.0742 23.7268C33.5422 23.1966 33.5873 22.4437 33.2485 21.8634L37.9697 16.5125C38.1672 16.5972 38.38 16.6461 38.5984 16.6461C39.0571 16.6461 39.4954 16.4492 39.799 16.1049C40.3826 15.4433 40.3182 14.4302 39.6577 13.8472C39.0208 13.2856 37.9604 13.3516 37.3999 13.9885C37.1167 14.3092 36.9759 14.7206 37.0023 15.1463C37.0182 15.4004 37.0991 15.6391 37.2239 15.8519L32.4967 21.2095ZM32.3267 23.0668C32.1144 23.3066 31.7157 23.3319 31.4748 23.1202C31.2256 22.9007 31.202 22.5185 31.4214 22.2693C31.5358 22.1395 31.7014 22.0653 31.8741 22.0653C32.0215 22.0653 32.1617 22.1186 32.2728 22.2154C32.5225 22.436 32.5467 22.8177 32.3267 23.0668ZM38.1468 14.6469C38.2607 14.5176 38.4262 14.4434 38.5989 14.4434C38.7458 14.4434 38.8866 14.4967 38.9977 14.5941C39.2468 14.8135 39.2705 15.1958 39.0516 15.4449C38.8393 15.6847 38.4405 15.71 38.1996 15.4983C38.0792 15.3921 38.0071 15.2447 37.9967 15.0836C37.9868 14.923 38.0401 14.7684 38.1468 14.6469Z" fill="white"/>
<path d="M43.1992 39.5823C42.6921 39.1351 41.9199 39.0917 41.3418 39.4123L29.6356 29.085L28.9762 29.8319H28.9767L23.7319 35.7768L24.4794 36.4357L24.4821 36.4324L27.5456 39.1346L28.2051 38.3871L29.9585 36.3994C30.1559 36.4841 30.3682 36.5336 30.5871 36.5336C31.0458 36.5336 31.4842 36.3367 31.7872 35.9919C32.3708 35.3308 32.307 34.3177 31.6464 33.7341C31.0095 33.1726 29.9491 33.2397 29.3887 33.8755C29.1049 34.1961 28.9646 34.6075 28.991 35.0338C29.007 35.2879 29.0878 35.526 29.2127 35.7389L27.4582 37.7277L25.1421 35.685L29.7242 30.4919L40.6763 40.1543C40.5784 40.382 40.5289 40.6273 40.5443 40.8814C40.5713 41.3076 40.7621 41.6987 41.0828 41.9814C41.3754 42.2399 41.751 42.3818 42.1404 42.3818C42.5997 42.3818 43.0375 42.1849 43.3405 41.8411C43.6243 41.5199 43.7646 41.1091 43.7382 40.6828C43.7118 40.2566 43.5193 39.8644 43.1992 39.5823ZM30.135 34.5344C30.2494 34.4051 30.415 34.3303 30.5877 34.3303C30.734 34.3303 30.8753 34.3842 30.9864 34.481C31.2356 34.701 31.2592 35.0827 31.0403 35.3319C30.828 35.5717 30.4287 35.597 30.1884 35.3858C30.0674 35.2791 29.9953 35.1322 29.9854 34.9711C29.9755 34.8105 30.0283 34.6559 30.135 34.5344ZM42.5931 41.1806C42.3813 41.4204 41.982 41.4457 41.7417 41.2345C41.6207 41.1278 41.5486 40.9804 41.5387 40.8192C41.5283 40.6586 41.5816 40.5041 41.6883 40.3831C41.8022 40.2538 41.9677 40.179 42.1404 40.179C42.2873 40.179 42.4286 40.2329 42.5392 40.3297C42.6607 40.4359 42.7328 40.5833 42.7421 40.7444C42.7526 40.905 42.6998 41.0596 42.5931 41.1806Z" fill="white"/>
<path d="M31.4967 38.3938C31.2129 38.7144 31.0727 39.1258 31.0991 39.5521C31.1255 39.9783 31.3169 40.3688 31.6375 40.6521C31.9296 40.91 32.3058 41.0525 32.6957 41.0525C33.1544 41.0525 33.5922 40.8556 33.8958 40.5107C34.4794 39.8496 34.4156 38.8365 33.755 38.253C33.1165 37.6903 32.0561 37.7574 31.4967 38.3938ZM33.1484 39.8507C32.9361 40.0911 32.5373 40.1164 32.297 39.9046C32.1754 39.7979 32.1034 39.6511 32.094 39.4899C32.0836 39.3293 32.1369 39.1748 32.2431 39.0532C32.358 38.924 32.523 38.8492 32.6963 38.8492C32.8426 38.8492 32.9839 38.9031 33.095 38.9999C33.3442 39.2204 33.3678 39.6016 33.1484 39.8507Z" fill="white"/>
<path d="M27.9773 27.2921C28.1748 27.3768 28.3871 27.4257 28.6054 27.4257C29.0647 27.4257 29.5019 27.2288 29.805 26.8851C30.3896 26.2234 30.3258 25.2103 29.6642 24.6268C29.0273 24.0647 27.9674 24.1318 27.4064 24.7681C27.1237 25.0888 26.9824 25.5002 27.0088 25.9259C27.0247 26.18 27.1056 26.4187 27.231 26.6315L16.8981 38.3443C16.2838 38.0985 15.5231 38.2371 15.0765 38.7442C14.7933 39.0648 14.6525 39.4762 14.6794 39.9019C14.7058 40.3282 14.8972 40.7192 15.2179 41.0019C15.5105 41.2604 15.8861 41.4023 16.2755 41.4023C16.7348 41.4023 17.172 41.2054 17.4756 40.8617C17.7589 40.5405 17.8997 40.1296 17.8727 39.7034C17.8568 39.4493 17.7765 39.2111 17.6511 38.9977L27.9773 27.2921ZM28.1533 25.427C28.2677 25.2978 28.4333 25.223 28.6065 25.223C28.7534 25.223 28.8947 25.2769 29.0047 25.3737C29.2539 25.5931 29.2781 25.9754 29.0586 26.2251C28.8469 26.4643 28.4476 26.4896 28.2072 26.2779C28.0862 26.1717 28.0147 26.0243 28.0043 25.8632C27.9938 25.7026 28.0472 25.548 28.1533 25.427ZM16.7287 40.2011C16.517 40.4409 16.1177 40.4668 15.8773 40.2545C15.7563 40.1483 15.6843 40.0009 15.6744 39.8398C15.6639 39.6792 15.7178 39.5246 15.824 39.4036C15.9384 39.2738 16.1034 39.1996 16.2761 39.1996C16.4229 39.1996 16.5643 39.2535 16.6748 39.3503C16.7958 39.4564 16.8679 39.6038 16.8778 39.765C16.8882 39.9256 16.8349 40.0801 16.7287 40.2011Z" fill="white"/>
<path d="M38.7645 20.1349C38.7794 20.389 38.8603 20.6271 38.9857 20.84L37.2262 22.8348C36.6118 22.5895 35.8512 22.7276 35.404 23.2352C34.8205 23.8969 34.8843 24.9094 35.5448 25.493C35.838 25.7509 36.2142 25.8934 36.6031 25.8934C37.0628 25.8934 37.5001 25.6965 37.8031 25.3522C38.0869 25.0315 38.2272 24.6201 38.2008 24.1939C38.1848 23.9398 38.104 23.7022 37.9797 23.4888L39.7331 21.5016C39.93 21.5863 40.1423 21.6358 40.3612 21.6358C40.8204 21.6358 41.2577 21.4389 41.5618 21.0941C42.1454 20.4324 42.0816 19.4199 41.4205 18.8363C40.783 18.2748 39.7226 18.3419 39.1622 18.9777C38.8784 19.2972 38.7381 19.7086 38.7645 20.1349ZM37.0562 24.6927C36.845 24.9325 36.4458 24.9573 36.2049 24.7461C35.9557 24.5261 35.9321 24.1444 36.1515 23.8952C36.2659 23.7654 36.4314 23.6906 36.6041 23.6906C36.7515 23.6906 36.8918 23.7445 37.0029 23.8413C37.1239 23.948 37.196 24.0949 37.2059 24.256C37.2158 24.4166 37.1629 24.5717 37.0562 24.6927ZM39.9091 19.636C40.0235 19.5068 40.1885 19.432 40.3617 19.432C40.5086 19.432 40.6499 19.4859 40.7605 19.5827C41.0096 19.8027 41.0338 20.1844 40.8138 20.4335C40.6021 20.6739 40.2028 20.6986 39.963 20.4874C39.8415 20.3807 39.7694 20.2339 39.76 20.0727C39.749 19.9121 39.8024 19.757 39.9091 19.636Z" fill="white"/>
<path d="M27.7479 40.7318L23.0311 36.571L22.3717 37.3185L21.1595 38.6924C20.5451 38.4471 19.7845 38.5857 19.3373 39.0933C18.7538 39.755 18.8176 40.7681 19.4787 41.3511C19.7713 41.609 20.1469 41.7515 20.5369 41.7515C20.9956 41.7515 21.4334 41.5546 21.7364 41.2103C22.0197 40.8896 22.1605 40.4782 22.1335 40.0525C22.1176 39.7984 22.0373 39.5603 21.9119 39.3474L23.1186 37.979L27.0813 41.4748C26.9834 41.702 26.9328 41.9478 26.9493 42.2019C26.9763 42.6282 27.1671 43.0192 27.4878 43.3019C27.7804 43.5599 28.1555 43.7023 28.5454 43.7023C29.0041 43.7023 29.4419 43.5054 29.7455 43.1611C30.3296 42.5 30.2664 41.4869 29.6047 40.9034C29.0965 40.4546 28.3249 40.4122 27.7479 40.7318ZM20.9895 40.5503C20.7778 40.7895 20.3785 40.8148 20.1387 40.6036C19.8895 40.3842 19.8653 40.0019 20.0853 39.7528C20.1997 39.623 20.3647 39.5487 20.5385 39.5487C20.6854 39.5487 20.8262 39.6021 20.9367 39.6989C21.0577 39.8056 21.1298 39.953 21.1397 40.1141C21.1496 40.2747 21.0957 40.4293 20.9895 40.5503ZM28.9986 42.5C28.7863 42.7398 28.3881 42.7646 28.1472 42.5534C28.0268 42.4472 27.9547 42.2998 27.9443 42.1387C27.9344 41.9781 27.9872 41.8235 28.0939 41.702C28.2083 41.5727 28.3738 41.4985 28.5465 41.4985C28.6934 41.4985 28.8342 41.5518 28.9453 41.6492C29.1944 41.8692 29.2181 42.2509 28.9986 42.5Z" fill="white"/>
<path d="M38.3179 33.9492C38.6099 34.2071 38.9861 34.3496 39.3761 34.3496C39.8348 34.3496 40.272 34.1527 40.5756 33.8084C41.1597 33.1473 41.0959 32.1342 40.4348 31.5501C39.9272 31.1029 39.1555 31.06 38.5769 31.3801L34.7137 27.9718C34.8116 27.7446 34.8617 27.4988 34.8452 27.2447C34.8193 26.819 34.6274 26.4279 34.3067 26.1447C33.6698 25.5831 32.61 25.6502 32.049 26.286C31.7663 26.6067 31.6255 27.0181 31.6524 27.4443C31.6783 27.8706 31.8697 28.2611 32.1909 28.5443C32.4829 28.8023 32.8591 28.9447 33.2485 28.9447C33.5356 28.9447 33.8101 28.86 34.0526 28.7176L37.912 32.1226C37.8141 32.3498 37.764 32.5956 37.78 32.8497C37.8053 33.2754 37.9967 33.6659 38.3179 33.9492ZM39.3772 32.1457C39.5235 32.1457 39.6648 32.1996 39.7754 32.2964C40.0245 32.5164 40.0487 32.8981 39.8287 33.1478C39.617 33.3871 39.2177 33.4124 38.9779 33.2012C38.8563 33.095 38.7843 32.9476 38.7749 32.7865C38.7639 32.6259 38.8178 32.4713 38.924 32.3503C39.0384 32.2205 39.2028 32.1457 39.3772 32.1457ZM33.7006 27.7419C33.4889 27.9822 33.0896 28.0075 32.8498 27.7958C32.7282 27.6891 32.6562 27.5422 32.6468 27.3811C32.6358 27.2205 32.6897 27.0659 32.7959 26.9444C32.9103 26.8151 33.0753 26.7403 33.248 26.7403C33.3954 26.7403 33.5367 26.7942 33.6467 26.891C33.7683 26.9977 33.8403 27.1446 33.8497 27.3057C33.8607 27.4663 33.8073 27.622 33.7006 27.7419Z" fill="white"/>
<path d="M25.3643 25.8973L26.0237 25.1498L31.268 19.2049L30.5205 18.546L30.5178 18.5493L27.4548 15.8471L26.7954 16.5946L25.0354 18.59C24.421 18.3447 23.6604 18.4827 23.2132 18.9904C22.6297 19.652 22.6935 20.6651 23.3546 21.2481C23.6472 21.5061 24.0228 21.6485 24.4128 21.6485C24.8715 21.6485 25.3082 21.4516 25.6123 21.1073C26.0798 20.5771 26.1249 19.8247 25.7872 19.2439L27.5423 17.2546L29.8572 19.2973L25.2752 24.4904L14.323 14.8269C14.5865 14.2098 14.4479 13.4684 13.9177 13.0003C13.2802 12.4382 12.2204 12.5053 11.6594 13.1417C11.3761 13.4623 11.2353 13.8737 11.2623 14.3C11.2887 14.7257 11.4801 15.1167 11.8007 15.3994C12.0933 15.6579 12.469 15.7998 12.8589 15.7998C13.1455 15.7998 13.4199 15.7157 13.6625 15.5738L25.3643 25.8973ZM24.8649 20.4473C24.6526 20.6877 24.2544 20.7119 24.0135 20.5007C23.7643 20.2812 23.7401 19.899 23.9601 19.6498C24.0745 19.52 24.2401 19.4458 24.4133 19.4458C24.5602 19.4458 24.7015 19.4991 24.8121 19.5965C25.0612 19.8159 25.0849 20.1982 24.8649 20.4473ZM13.311 14.5992C13.0993 14.8384 12.7 14.8643 12.4602 14.6525C12.3392 14.5458 12.2671 14.3984 12.2572 14.2378C12.2468 14.0767 12.3001 13.9221 12.4063 13.8017C12.5207 13.6719 12.6862 13.5971 12.8595 13.5971C13.0063 13.5971 13.1477 13.651 13.2582 13.7478C13.5074 13.9678 13.5316 14.3495 13.311 14.5992Z" fill="white"/>
<path d="M22.304 17.1298C22.7627 17.1298 23.2 16.9329 23.5041 16.5886C24.0877 15.9275 24.0239 14.9138 23.3628 14.3308C22.7264 13.7687 21.666 13.8353 21.105 14.4722C20.5215 15.1338 20.5853 16.1469 21.2464 16.7299C21.5384 16.9873 21.9141 17.1298 22.304 17.1298ZM21.8514 15.1311C21.9658 15.0013 22.1308 14.927 22.3046 14.927C22.4514 14.927 22.5922 14.9804 22.7028 15.0777C22.9519 15.2972 22.9761 15.68 22.7561 15.9286C22.5438 16.1695 22.1451 16.1931 21.9047 15.9819C21.6556 15.7619 21.6319 15.3802 21.8514 15.1311Z" fill="white"/>
<path d="M16.0132 34.1428L17.7666 32.1546C17.9641 32.2387 18.1764 32.2882 18.3947 32.2882C18.854 32.2882 19.2918 32.0908 19.5954 31.7465C20.1789 31.0854 20.1151 30.0723 19.454 29.4893C18.8166 28.9272 17.7567 28.9937 17.1957 29.6306C16.7277 30.1608 16.6826 30.9138 17.0214 31.4935L15.2608 33.4889C14.6465 33.243 13.8858 33.3816 13.4387 33.8893C12.8551 34.5509 12.9189 35.564 13.58 36.147C13.8726 36.4055 14.2483 36.5474 14.6382 36.5474C15.0969 36.5474 15.5342 36.3505 15.8378 36.0062C16.3064 35.4755 16.3515 34.7225 16.0132 34.1428ZM17.9437 30.289C18.0581 30.1597 18.2231 30.0855 18.3964 30.0855C18.5432 30.0855 18.6846 30.1388 18.7951 30.2362C19.0443 30.4556 19.0685 30.8379 18.8485 31.087C18.6367 31.3257 18.2374 31.3521 17.9976 31.1404C17.7474 30.9209 17.7237 30.5387 17.9437 30.289ZM15.0909 35.3462C14.8786 35.586 14.4804 35.6108 14.2395 35.399C13.9903 35.1796 13.9661 34.7973 14.1861 34.5482C14.3005 34.4184 14.4655 34.3441 14.6393 34.3441C14.7862 34.3441 14.927 34.3975 15.0375 34.4948C15.2872 34.7143 15.3109 35.0971 15.0909 35.3462Z" fill="white"/>
<path d="M26.4532 14.4804C26.7398 14.4804 27.0142 14.3957 27.2568 14.2538L31.9681 18.4112L32.6275 17.6638L33.8331 16.2976C34.0306 16.3817 34.2429 16.4312 34.4618 16.4312C34.921 16.4312 35.3583 16.2343 35.6624 15.8895C36.246 15.2284 36.1822 14.2153 35.5211 13.6317C34.8836 13.0702 33.8232 13.1373 33.2628 13.7731C32.9801 14.0937 32.8393 14.5051 32.8662 14.9314C32.8811 15.1855 32.9619 15.4236 33.0873 15.6365L31.8806 17.0043L27.9179 13.508C28.0158 13.2808 28.0653 13.035 28.0499 12.7809C28.024 12.3552 27.8326 11.9641 27.512 11.6809C26.8756 11.1193 25.8152 11.187 25.2542 11.8222C24.971 12.1429 24.8302 12.5543 24.8571 12.9805C24.8841 13.4068 25.0749 13.7973 25.3956 14.0805C25.6876 14.3379 26.0633 14.4804 26.4532 14.4804ZM34.0102 14.4314C34.1246 14.3022 34.2896 14.2274 34.4629 14.2274C34.6097 14.2274 34.7511 14.2813 34.8616 14.3781C35.1108 14.5981 35.135 14.9798 34.915 15.2289C34.7032 15.4693 34.3039 15.4946 34.0641 15.2828C33.9426 15.1767 33.8705 15.0293 33.8612 14.8681C33.8502 14.7075 33.9041 14.553 34.0102 14.4314ZM26.0011 12.4817C26.1161 12.3519 26.2805 12.2771 26.4543 12.2771C26.6006 12.2771 26.742 12.331 26.8525 12.4278C26.9735 12.5345 27.0456 12.6813 27.0555 12.8425C27.0659 13.0031 27.012 13.1576 26.9059 13.2792C26.6941 13.5184 26.2948 13.5443 26.055 13.3325C25.9335 13.2258 25.8614 13.079 25.8521 12.9178C25.8416 12.7572 25.895 12.6027 26.0011 12.4817Z" fill="white"/>
<path d="M20.6931 28.838C20.9857 29.096 21.3614 29.2384 21.7513 29.2384C22.21 29.2384 22.6478 29.0415 22.9509 28.6972C23.2336 28.3766 23.3749 27.9652 23.3485 27.5395C23.3216 27.1132 23.1307 26.7222 22.8101 26.4395C22.3024 25.9918 21.5308 25.9489 20.9527 26.269L17.089 22.8606C17.1869 22.6335 17.2369 22.3882 17.221 22.1341C17.1946 21.7078 17.0032 21.3168 16.6825 21.0341C16.0456 20.4725 14.9858 20.5391 14.4248 21.1749C14.1415 21.4961 14.0007 21.9069 14.0277 22.3332C14.0546 22.7594 14.2455 23.1505 14.5661 23.4332C14.8587 23.6911 15.2344 23.8336 15.6238 23.8336C15.9103 23.8336 16.1853 23.7489 16.4273 23.607L20.2878 27.0126C20.0238 27.6286 20.1624 28.37 20.6931 28.838ZM21.2987 27.2392C21.4131 27.1094 21.5786 27.0351 21.7519 27.0351C21.8987 27.0351 22.0401 27.0885 22.1506 27.1858C22.2711 27.292 22.3431 27.4394 22.3536 27.6005C22.364 27.7611 22.3101 27.9157 22.204 28.0367C21.9922 28.2759 21.5929 28.3012 21.3531 28.09C21.1029 27.8706 21.0792 27.4883 21.2987 27.2392ZM15.225 22.6846C15.104 22.5785 15.032 22.4311 15.0221 22.2699C15.0116 22.1093 15.065 21.9548 15.1717 21.8332C15.2861 21.704 15.4511 21.6297 15.6243 21.6297C15.7712 21.6297 15.9125 21.6831 16.0231 21.7799C16.1441 21.8866 16.2161 22.034 16.226 22.1951C16.2365 22.3557 16.1826 22.5103 16.0764 22.6307C15.8641 22.8705 15.4654 22.8964 15.225 22.6846Z" fill="white"/>
</g>
</svg>
