<svg width="59" height="59" viewBox="0 0 59 59" fill="none" xmlns="http://www.w3.org/2000/svg">
<g opacity="0.6">
<path d="M47.9965 28.9101L43.66 21.4348C43.5566 21.2556 43.4078 21.1068 43.2287 21.0032C43.0495 20.8997 42.8463 20.845 42.6393 20.8448H34.0253C33.8184 20.845 33.6152 20.8997 33.436 21.0032C33.2569 21.1068 33.1081 21.2556 33.0046 21.4348L28.6917 28.9101C28.5882 29.0895 28.5337 29.293 28.5337 29.5001C28.5337 29.7072 28.5882 29.9107 28.6917 30.0901L33.0046 37.5654C33.1081 37.7446 33.2569 37.8935 33.436 37.997C33.6152 38.1006 33.8184 38.1552 34.0253 38.1554H42.657C42.864 38.1552 43.0672 38.1006 43.2464 37.997C43.4255 37.8935 43.5743 37.7446 43.6777 37.5654L47.9965 30.0901C48.1001 29.9107 48.1546 29.7072 48.1546 29.5001C48.1546 29.293 48.1001 29.0895 47.9965 28.9101ZM41.9785 35.7954H34.7097L31.0753 29.5001L34.7097 23.2048H41.9785L45.6071 29.5001L41.9785 35.7954ZM15.34 27.3348C15.4435 27.514 15.5923 27.6629 15.7714 27.7664C15.9506 27.87 16.1538 27.9246 16.3607 27.9248H24.9747C25.1817 27.9246 25.3849 27.87 25.5641 27.7664C25.7432 27.6629 25.892 27.514 25.9954 27.3348L30.3083 19.8654C30.4119 19.686 30.4664 19.4825 30.4664 19.2754C30.4664 19.0683 30.4119 18.8648 30.3083 18.6854L25.9954 11.2101C25.892 11.0309 25.7432 10.8821 25.5641 10.7785C25.3849 10.675 25.1817 10.6203 24.9747 10.6201H16.343C16.1391 10.6234 15.9395 10.6795 15.7638 10.7829C15.588 10.8863 15.442 11.0335 15.34 11.2101L11.0035 18.6854C10.9 18.8648 10.8455 19.0683 10.8455 19.2754C10.8455 19.4825 10.9 19.686 11.0035 19.8654L15.34 27.3348ZM17.0215 12.9801H24.2903L27.9247 19.2754L24.2903 25.5648H17.0215L13.393 19.2754L17.0215 12.9801ZM25.9954 31.6654C25.892 31.4862 25.7432 31.3374 25.5641 31.2338C25.3849 31.1303 25.1817 31.0756 24.9747 31.0754H16.343C16.1361 31.0756 15.9329 31.1303 15.7537 31.2338C15.5746 31.3374 15.4258 31.4862 15.3223 31.6654L11.0035 39.1348C10.9 39.3142 10.8455 39.5177 10.8455 39.7248C10.8455 39.9319 10.9 40.1354 11.0035 40.3148L15.34 47.7901C15.4435 47.9693 15.5923 48.1182 15.7714 48.2217C15.9506 48.3253 16.1538 48.3799 16.3607 48.3801H24.9747C25.1817 48.3799 25.3849 48.3253 25.5641 48.2217C25.7432 48.1182 25.892 47.9693 25.9954 47.7901L30.3083 40.3148C30.4119 40.1354 30.4664 39.9319 30.4664 39.7248C30.4664 39.5177 30.4119 39.3142 30.3083 39.1348L25.9954 31.6654ZM24.2903 46.0201H17.0215L13.393 39.7248L17.0215 33.4354H24.2903L27.9247 39.7248L24.2903 46.0201Z" fill="white"/>
</g>
</svg>
