<svg width="39" height="39" viewBox="0 0 39 39" fill="none" xmlns="http://www.w3.org/2000/svg">
<path d="M37.9965 18.9101L33.66 11.4348C33.5566 11.2556 33.4078 11.1068 33.2287 11.0032C33.0495 10.8997 32.8463 10.845 32.6393 10.8448H24.0253C23.8184 10.845 23.6152 10.8997 23.436 11.0032C23.2569 11.1068 23.1081 11.2556 23.0046 11.4348L18.6917 18.9101C18.5882 19.0895 18.5337 19.293 18.5337 19.5001C18.5337 19.7072 18.5882 19.9107 18.6917 20.0901L23.0046 27.5654C23.1081 27.7446 23.2569 27.8935 23.436 27.997C23.6152 28.1006 23.8184 28.1552 24.0253 28.1554H32.6571C32.864 28.1552 33.0672 28.1006 33.2464 27.997C33.4255 27.8935 33.5743 27.7446 33.6777 27.5654L37.9965 20.0901C38.1001 19.9107 38.1546 19.7072 38.1546 19.5001C38.1546 19.293 38.1001 19.0895 37.9965 18.9101V18.9101ZM31.9785 25.7954H24.7097L21.0753 19.5001L24.7097 13.2048H31.9785L35.607 19.5001L31.9785 25.7954ZM5.34005 17.3348C5.44351 17.514 5.59228 17.6629 5.77143 17.7664C5.95059 17.87 6.15382 17.9246 6.36075 17.9248H14.9747C15.1817 17.9246 15.3849 17.87 15.5641 17.7664C15.7432 17.6629 15.892 17.514 15.9954 17.3348L20.3083 9.86542C20.4119 9.68603 20.4664 9.48255 20.4664 9.27542C20.4664 9.06828 20.4119 8.8648 20.3083 8.68542L15.9954 1.21012C15.892 1.03091 15.7432 0.882065 15.5641 0.778509C15.3849 0.674953 15.1817 0.620329 14.9747 0.620117H6.34305C6.13913 0.623401 5.93955 0.679479 5.76376 0.782882C5.58798 0.886285 5.44199 1.03348 5.34005 1.21012L1.00355 8.68542C0.899982 8.8648 0.845459 9.06828 0.845459 9.27542C0.845459 9.48255 0.899982 9.68603 1.00355 9.86542L5.34005 17.3348ZM7.02155 2.98012H14.2903L17.9247 9.27542L14.2903 15.5648H7.02155L3.39305 9.27542L7.02155 2.98012ZM15.9954 21.6654C15.892 21.4862 15.7432 21.3374 15.5641 21.2338C15.3849 21.1303 15.1817 21.0756 14.9747 21.0754H6.34305C6.13612 21.0756 5.93289 21.1303 5.75373 21.2338C5.57458 21.3374 5.42581 21.4862 5.32235 21.6654L1.00355 29.1348C0.899982 29.3142 0.845459 29.5177 0.845459 29.7248C0.845459 29.932 0.899982 30.1354 1.00355 30.3148L5.34005 37.7901C5.44351 37.9693 5.59228 38.1182 5.77143 38.2217C5.95059 38.3253 6.15382 38.3799 6.36075 38.3801H14.9747C15.1817 38.3799 15.3849 38.3253 15.5641 38.2217C15.7432 38.1182 15.892 37.9693 15.9954 37.7901L20.3083 30.3148C20.4119 30.1354 20.4664 29.932 20.4664 29.7248C20.4664 29.5177 20.4119 29.3142 20.3083 29.1348L15.9954 21.6654ZM14.2903 36.0201H7.02155L3.39305 29.7248L7.02155 23.4354H14.2903L17.9247 29.7248L14.2903 36.0201Z" fill="white"/>
</svg>
