<svg width="44" height="44" viewBox="0 0 44 44" fill="none" xmlns="http://www.w3.org/2000/svg">
<g opacity="0.6">
<path d="M37.62 41.1401H36.52V31.9001H37.62C37.972 31.9001 38.28 31.5921 38.28 31.2401C38.28 30.8881 37.972 30.5801 37.62 30.5801H6.37997C6.02797 30.5801 5.71997 30.8881 5.71997 31.2401C5.71997 31.5921 6.02797 31.9001 6.37997 31.9001H7.47997V41.0961H6.37997C6.02797 41.0961 5.71997 41.4041 5.71997 41.7561C5.71997 42.1081 6.02797 42.4161 6.37997 42.4161H37.62C37.972 42.4161 38.28 42.1081 38.28 41.7561C38.28 41.4041 37.972 41.1401 37.62 41.1401ZM35.2 41.1401H31.9V31.9001H35.2V41.1401ZM18.04 31.9001H21.34V41.0961H18.04V31.9001ZM16.72 41.1401H13.42V31.9001H16.72V41.1401ZM22.66 31.9001H25.96V41.0961H22.66V31.9001ZM27.28 31.9001H30.58V41.0961H27.28V31.9001ZM8.79997 31.9001H12.1V41.0961H8.79997V31.9001Z" fill="white"/>
<path d="M9.19601 27.3681C8.84401 27.3681 8.53601 27.6761 8.53601 28.0281C8.53601 28.3801 8.84401 28.6881 9.19601 28.6881H34.804C35.156 28.6881 35.464 28.3801 35.464 28.0281C35.464 27.6761 35.156 27.3681 34.804 27.3681H33.44V24.7721H34.804C35.156 24.7721 35.464 24.4641 35.464 24.1121C35.464 23.7601 35.156 23.4521 34.804 23.4521H9.19601C8.84401 23.4521 8.53601 23.7601 8.53601 24.1121C8.53601 24.4641 8.84401 24.7721 9.19601 24.7721H10.56V27.3681H9.19601ZM21.34 27.3681H17.292V24.7721H21.34V27.3681ZM22.66 24.7721H26.708V27.3681H22.66V24.7721ZM32.12 27.3681H28.072V24.7721H32.12V27.3681ZM11.88 24.7721H15.928V27.3681H11.88V24.7721Z" fill="white"/>
<path d="M9.19596 21.56H34.804C35.156 21.56 35.464 21.252 35.464 20.9C35.464 20.548 35.156 20.24 34.804 20.24H33.924C33.572 14.212 28.732 9.32804 22.704 9.02004V7.30404H27.676C28.028 7.30404 28.336 6.99604 28.336 6.64404V3.30004C28.336 2.94804 28.028 2.64004 27.676 2.64004H22.66V2.20004C22.66 1.84804 22.352 1.54004 22 1.54004C21.648 1.54004 21.34 1.84804 21.34 2.20004V3.25604V6.60004V8.97604C15.312 9.32804 10.428 14.168 10.12 20.24H9.23996C8.88796 20.24 8.57996 20.548 8.57996 20.9C8.57996 21.252 8.84396 21.56 9.19596 21.56ZM26.972 3.96004V5.98404H22.66V3.96004H26.972ZM22 10.296C27.632 10.296 32.252 14.696 32.56 20.24H11.44C11.748 14.696 16.368 10.296 22 10.296Z" fill="white"/>
</g>
</svg>
