<svg width="36" height="36" viewBox="0 0 36 36" fill="none" xmlns="http://www.w3.org/2000/svg">
<g opacity="0.6">
<path d="M15.2663 24.3563C15.3725 24.4805 15.5045 24.5801 15.6532 24.6481C15.8018 24.7161 15.9634 24.7509 16.1269 24.7501C16.2939 24.7455 16.4578 24.7037 16.6067 24.6278C16.7556 24.5519 16.8856 24.4438 16.9875 24.3113L25.6444 13.0613C25.7345 12.9443 25.8007 12.8106 25.8391 12.6679C25.8776 12.5253 25.8876 12.3764 25.8685 12.2299C25.8494 12.0834 25.8017 11.9421 25.728 11.814C25.6543 11.6859 25.5562 11.5736 25.4391 11.4835C25.322 11.3934 25.1883 11.3272 25.0457 11.2888C24.903 11.2503 24.7542 11.2403 24.6076 11.2594C24.4611 11.2785 24.3198 11.3262 24.1917 11.3999C24.0637 11.4736 23.9514 11.5718 23.8613 11.6888L16.0538 21.8138L12.0488 17.1057C11.9612 16.9711 11.8459 16.8568 11.7105 16.7705C11.5751 16.6842 11.4227 16.6278 11.2638 16.6053C11.1048 16.5827 10.9428 16.5945 10.7887 16.6397C10.6347 16.6849 10.4921 16.7626 10.3705 16.8676C10.249 16.9725 10.1513 17.1022 10.0841 17.2481C10.0168 17.3939 9.98161 17.5524 9.98073 17.713C9.97985 17.8735 10.0134 18.0324 10.079 18.179C10.1446 18.3255 10.2409 18.4563 10.3613 18.5626L15.2663 24.3563Z" fill="white"/>
<path d="M18 33.75C21.1151 33.75 24.1602 32.8263 26.7502 31.0957C29.3403 29.365 31.359 26.9052 32.5511 24.0273C33.7432 21.1493 34.0551 17.9825 33.4474 14.9273C32.8397 11.8721 31.3396 9.06575 29.1369 6.86307C26.9343 4.6604 24.1279 3.16036 21.0727 2.55264C18.0175 1.94492 14.8507 2.25682 11.9727 3.4489C9.0948 4.64098 6.63499 6.6597 4.90435 9.24978C3.17372 11.8398 2.25 14.885 2.25 18C2.25 22.1772 3.90937 26.1832 6.86307 29.1369C9.81677 32.0906 13.8228 33.75 18 33.75ZM18 4.50001C20.67 4.50001 23.2801 5.29177 25.5002 6.77517C27.7203 8.25857 29.4506 10.367 30.4724 12.8338C31.4942 15.3006 31.7615 18.015 31.2406 20.6337C30.7197 23.2525 29.434 25.6579 27.5459 27.5459C25.6579 29.434 23.2525 30.7197 20.6337 31.2406C18.015 31.7615 15.3006 31.4942 12.8338 30.4724C10.367 29.4506 8.25856 27.7203 6.77516 25.5002C5.29176 23.2801 4.5 20.6701 4.5 18C4.5 14.4196 5.92232 10.9858 8.45406 8.45407C10.9858 5.92232 14.4196 4.50001 18 4.50001V4.50001Z" fill="white"/>
</g>
</svg>
