<svg width="37" height="37" viewBox="0 0 37 37" fill="none" xmlns="http://www.w3.org/2000/svg">
<path d="M14.879 28.0849C14.098 27.5169 13.175 27.2329 12.181 27.3039L8.70203 6.64292C8.41803 4.86792 7.42403 3.30592 5.93303 2.24092C4.44203 1.17592 2.66703 0.749921 0.892032 1.10492C0.608032 1.17592 0.395031 1.45992 0.466031 1.74392C0.537031 2.02792 0.821031 2.24092 1.10503 2.16992C2.59603 1.95692 4.08703 2.24092 5.29403 3.16392C6.50103 4.01592 7.35303 5.36492 7.56603 6.85592L11.045 27.5169C8.98603 28.1559 7.63703 30.2149 7.99203 32.4159C8.20503 33.5519 8.84403 34.5459 9.76703 35.2559C10.548 35.8239 11.4 36.0369 12.323 36.0369C12.536 36.0369 12.82 36.0369 13.033 35.9659C15.234 35.6109 16.725 33.6939 16.654 31.4929L36.037 28.2269C36.321 28.1559 36.534 27.8719 36.463 27.5879C36.392 27.3039 36.108 27.0909 35.824 27.1619L16.441 30.4279C16.228 29.4339 15.66 28.6529 14.879 28.0849ZM14.95 33.5519C14.453 34.2619 13.672 34.7589 12.82 34.9009C11.968 35.0429 11.116 34.8299 10.406 34.3329C9.69603 33.8359 9.19903 33.0549 9.05703 32.2029C8.77303 30.4279 9.98003 28.7239 11.755 28.4399C11.968 28.4399 12.11 28.3689 12.323 28.3689C12.962 28.3689 13.672 28.5819 14.169 29.0079C14.879 29.5049 15.376 30.2859 15.518 31.1379C15.66 31.9899 15.447 32.8419 14.95 33.5519Z" fill="white"/>
<path d="M29.86 6.43002L14.169 9.05702C14.027 9.05702 13.885 9.12802 13.814 9.27002C13.743 9.41202 13.672 9.55402 13.743 9.69602L16.37 25.316C16.441 25.6 16.654 25.813 16.938 25.813H17.009L32.7 23.186C32.842 23.186 32.984 23.115 33.055 22.973C33.126 22.831 33.197 22.689 33.126 22.547L30.499 6.85602C30.428 6.57202 30.144 6.35902 29.86 6.43002ZM21.624 8.91502L24.109 23.47L17.364 24.606L14.95 10.051L21.624 8.91502ZM25.174 23.328L22.76 8.70202L29.505 7.56602L31.919 22.121L25.174 23.328Z" fill="white"/>
</svg>
