<svg width="71" height="71" viewBox="0 0 71 71" fill="none" xmlns="http://www.w3.org/2000/svg">
<g opacity="0.6">
<path d="M31.879 45.0849C31.098 44.5169 30.175 44.2329 29.181 44.3039L25.702 23.6429C25.418 21.8679 24.424 20.3059 22.933 19.2409C21.442 18.1759 19.667 17.7499 17.892 18.1049C17.608 18.1759 17.395 18.4599 17.466 18.7439C17.537 19.0279 17.821 19.2409 18.105 19.1699C19.596 18.9569 21.087 19.2409 22.294 20.1639C23.501 21.0159 24.353 22.3649 24.566 23.8559L28.045 44.5169C25.986 45.1559 24.637 47.2149 24.992 49.4159C25.205 50.5519 25.844 51.5459 26.767 52.2559C27.548 52.8239 28.4 53.0369 29.323 53.0369C29.536 53.0369 29.82 53.0369 30.033 52.9659C32.234 52.6109 33.725 50.6939 33.654 48.4929L53.037 45.2269C53.321 45.1559 53.534 44.8719 53.463 44.5879C53.392 44.3039 53.108 44.0909 52.824 44.1619L33.441 47.4279C33.228 46.4339 32.66 45.6529 31.879 45.0849ZM31.95 50.5519C31.453 51.2619 30.672 51.7589 29.82 51.9009C28.968 52.0429 28.116 51.8299 27.406 51.3329C26.696 50.8359 26.199 50.0549 26.057 49.2029C25.773 47.4279 26.98 45.7239 28.755 45.4399C28.968 45.4399 29.11 45.3689 29.323 45.3689C29.962 45.3689 30.672 45.5819 31.169 46.0079C31.879 46.5049 32.376 47.2859 32.518 48.1379C32.66 48.9899 32.447 49.8419 31.95 50.5519Z" fill="white"/>
<path d="M46.86 23.43L31.169 26.057C31.027 26.057 30.885 26.128 30.814 26.27C30.743 26.412 30.672 26.554 30.743 26.696L33.37 42.316C33.441 42.6 33.654 42.813 33.938 42.813H34.009L49.7 40.186C49.842 40.186 49.984 40.115 50.055 39.973C50.126 39.831 50.197 39.689 50.126 39.547L47.499 23.856C47.428 23.572 47.144 23.359 46.86 23.43ZM38.624 25.915L41.109 40.47L34.364 41.606L31.95 27.051L38.624 25.915ZM42.174 40.328L39.76 25.702L46.505 24.566L48.919 39.121L42.174 40.328Z" fill="white"/>
</g>
</svg>
