<svg width="36" height="36" viewBox="0 0 36 36" fill="none" xmlns="http://www.w3.org/2000/svg">
<g opacity="0.6" clip-path="url(#clip0_53_228)">
<path d="M33.75 5.625H25.875V2.25C25.875 1.65326 25.6379 1.08097 25.216 0.65901C24.794 0.237053 24.2217 0 23.625 0L12.375 0C11.7783 0 11.206 0.237053 10.784 0.65901C10.3621 1.08097 10.125 1.65326 10.125 2.25V5.625H2.25C1.65326 5.625 1.08097 5.86205 0.65901 6.28401C0.237053 6.70597 0 7.27826 0 7.875L0 19.125C0 19.7217 0.237053 20.294 0.65901 20.716C1.08097 21.1379 1.65326 21.375 2.25 21.375V34.875C2.25 35.1734 2.36853 35.4595 2.5795 35.6705C2.79048 35.8815 3.07663 36 3.375 36H12.375V33.75H4.5V21.375H13.5V22.5C13.5 22.7984 13.6185 23.0845 13.8295 23.2955C14.0405 23.5065 14.3266 23.625 14.625 23.625H21.375C21.6734 23.625 21.9595 23.5065 22.1705 23.2955C22.3815 23.0845 22.5 22.7984 22.5 22.5V18C22.5 17.7016 22.3815 17.4155 22.1705 17.2045C21.9595 16.9935 21.6734 16.875 21.375 16.875H14.625C14.3266 16.875 14.0405 16.9935 13.8295 17.2045C13.6185 17.4155 13.5 17.7016 13.5 18V19.125H2.25V7.875H33.75V16.875H36V7.875C36 7.27826 35.7629 6.70597 35.341 6.28401C34.919 5.86205 34.3467 5.625 33.75 5.625V5.625ZM15.75 19.125H20.25V21.375H15.75V19.125ZM23.625 5.625H12.375V2.25H23.625V5.625Z" fill="white"/>
<path d="M34.875 20.25H25.875C25.5766 20.25 25.2905 20.3685 25.0795 20.5795C24.8685 20.7905 24.75 21.0766 24.75 21.375V24.75H16.875C16.5766 24.75 16.2905 24.8685 16.0795 25.0795C15.8685 25.2905 15.75 25.5766 15.75 25.875V34.875C15.75 35.1734 15.8685 35.4595 16.0795 35.6705C16.2905 35.8815 16.5766 36 16.875 36H34.875C35.1734 36 35.4595 35.8815 35.6705 35.6705C35.8815 35.4595 36 35.1734 36 34.875V21.375C36 21.0766 35.8815 20.7905 35.6705 20.5795C35.4595 20.3685 35.1734 20.25 34.875 20.25ZM24.75 33.75H18V31.5H24.75V33.75ZM24.75 29.25H18V27H24.75V29.25ZM33.75 33.75H27V31.5H33.75V33.75ZM33.75 29.25H27V27H33.75V29.25ZM33.75 24.75H27V22.5H33.75V24.75Z" fill="white"/>
</g>
<defs>
<clipPath id="clip0_53_228">
<rect width="36" height="36" fill="white"/>
</clipPath>
</defs>
</svg>
