<svg width="50" height="50" viewBox="0 0 50 50" fill="none" xmlns="http://www.w3.org/2000/svg">
<g opacity="0.6">
<path d="M12.5063 33.7503C13.4204 35.0602 11.4273 36.4515 10.5131 35.1423C8.43083 32.1688 7.31055 28.6308 7.31055 25.0001C7.31055 15.2299 15.2305 7.31055 25.0006 7.31055C34.7702 7.31055 42.6896 15.2299 42.6896 25.0001C42.6896 34.7696 34.7702 42.6896 25.0006 42.6896C24.1195 42.6896 23.5384 41.7854 23.8768 40.9911L27.3463 30.6162H21.0445C20.0447 30.6162 19.4831 29.4836 20.0494 28.6898L27.3127 16.1086C28.1076 14.725 30.2153 15.9344 29.4198 17.3193L23.1522 28.1755H29.0365C29.8645 28.2009 30.4597 28.9757 30.1905 29.7824L26.7233 40.152C34.4177 39.2856 40.2488 32.7546 40.2488 25.0001C40.2488 16.5787 33.4214 9.75191 25.0006 9.75191C16.5793 9.75191 9.75191 16.5787 9.75191 25.0001C9.75191 28.1294 10.711 31.1861 12.5063 33.7503V33.7503Z" fill="white"/>
</g>
</svg>
