<svg width="43" height="43" viewBox="0 0 43 43" fill="none" xmlns="http://www.w3.org/2000/svg">
<g opacity="0.6">
<path d="M39.8119 10.8087L21.7323 1.03597C21.6609 0.997457 21.5811 0.977295 21.4999 0.977295C21.4188 0.977295 21.339 0.997457 21.2675 1.03597L3.188 10.8087C3.1114 10.8517 3.04743 10.914 3.00246 10.9895C2.9575 11.0649 2.93312 11.1509 2.93176 11.2387V31.7614C2.93173 31.8495 2.95553 31.936 3.00064 32.0117C3.04575 32.0874 3.11049 32.1495 3.188 32.1914L21.2675 41.9641C21.339 42.0027 21.4188 42.0228 21.4999 42.0228C21.5807 42.0203 21.66 42.0003 21.7323 41.9641L39.8119 32.1914C39.8894 32.1495 39.9541 32.0874 39.9992 32.0117C40.0444 31.936 40.0682 31.8495 40.0681 31.7614V11.2387C40.0666 11.1509 40.0421 11.065 39.9972 10.9896C39.9523 10.9142 39.8884 10.8518 39.8119 10.8087V10.8087ZM10.5887 15.6691C11.4377 16.1279 10.7211 15.7405 14.3316 17.6921V23.9906L12.8595 21.9034C12.7988 21.8174 12.712 21.7532 12.6119 21.7205C12.5119 21.6878 12.4039 21.6882 12.3041 21.7218L10.5887 22.3003V15.6691ZM38.5518 11.2387L21.4999 20.4559L15.8482 17.4009L32.9003 8.18374L38.5518 11.2387ZM31.8725 7.62831L14.821 16.8452C12.3568 15.5137 13.1908 15.9644 11.1274 14.8491L28.1793 5.63203L31.8725 7.62831ZM21.4999 2.0214L27.1518 5.07645L10.0997 14.2936L4.4481 11.2387L21.4999 2.0214ZM3.90904 12.0584L9.61142 15.1407V22.9806C9.61142 23.0582 9.62988 23.1346 9.66527 23.2037C9.70067 23.2727 9.752 23.3323 9.81499 23.3775C9.87799 23.4228 9.95086 23.4524 10.0276 23.4639C10.1043 23.4754 10.1826 23.4685 10.2561 23.4437L12.271 22.7645L14.421 25.8128C14.4808 25.8975 14.5661 25.9611 14.6644 25.9942C14.7627 26.0273 14.869 26.0282 14.9679 25.9969C15.0668 25.9655 15.1532 25.9035 15.2145 25.8198C15.2758 25.7361 15.3089 25.6351 15.3089 25.5313V18.2205L21.0113 21.3028V40.7146L3.90904 31.4701V12.0584ZM21.9886 40.7146V21.3028L39.0909 12.0584V31.4701L21.9886 40.7146ZM12.1934 32.6154C12.1317 32.7293 12.0273 32.8141 11.9031 32.8512C11.7789 32.8882 11.6451 32.8745 11.5311 32.8129L5.14255 29.3598C5.02851 29.2981 4.94362 29.1937 4.90656 29.0695C4.8695 28.9453 4.88331 28.8114 4.94494 28.6974C5.00658 28.5833 5.11099 28.4984 5.23522 28.4614C5.35944 28.4243 5.4933 28.4381 5.60734 28.4998L11.996 31.953C12.1099 32.0147 12.1947 32.1191 12.2318 32.2433C12.2688 32.3675 12.255 32.5013 12.1934 32.6154V32.6154ZM8.12308 32.0816C8.06139 32.1956 7.95699 32.2804 7.83281 32.3174C7.70863 32.3545 7.57483 32.3407 7.46079 32.2792L5.1426 31.0261C5.08613 30.9956 5.03623 30.9542 4.99573 30.9044C4.95524 30.8546 4.92496 30.7973 4.90661 30.7358C4.88826 30.6743 4.88221 30.6098 4.88879 30.5459C4.89538 30.4821 4.91447 30.4201 4.94499 30.3637C4.97551 30.3072 5.01685 30.2573 5.06666 30.2168C5.11646 30.1763 5.17376 30.146 5.23527 30.1277C5.29677 30.1093 5.3613 30.1033 5.42514 30.1099C5.48899 30.1165 5.55092 30.1356 5.60739 30.1661L7.92563 31.4194C8.03956 31.4811 8.12434 31.5855 8.16135 31.7097C8.19837 31.8338 8.18459 31.9676 8.12304 32.0816H8.12308Z" fill="white"/>
</g>
</svg>
