<svg width="46" height="46" viewBox="0 0 46 46" fill="none" xmlns="http://www.w3.org/2000/svg">
<g opacity="0.6">
<path d="M40.5238 22.9999C40.5238 13.4713 32.7476 5.69512 23.3286 5.47607C23.2191 5.47607 23.1095 5.47607 23 5.47607C22.8905 5.47607 22.781 5.47607 22.6714 5.47607C13.2524 5.69512 5.4762 13.4713 5.4762 22.9999C5.4762 23.438 5.69524 23.7665 5.91429 23.9856C6.13334 24.0951 6.57143 24.0951 6.90001 23.9856C7.11905 23.8761 7.44763 23.657 7.44763 23.5475C7.44763 23.5475 9.41905 20.6999 12.0476 20.6999C14.6762 20.6999 16.6476 23.438 16.6476 23.5475C16.7571 23.657 16.9762 23.8761 17.1952 23.9856C17.3048 24.0951 17.5238 24.0951 17.5238 24.0951C17.6333 24.0951 17.7429 24.0951 17.8524 23.9856C18.0714 23.8761 18.2905 23.7666 18.4 23.5475C18.4 23.5475 20.2619 20.8094 23 20.8094C25.5191 20.8094 27.6 23.5475 27.6 23.657C27.8191 23.8761 28.1476 24.0951 28.4762 24.0951C28.8048 24.0951 29.1333 23.8761 29.3524 23.657C29.3524 23.657 31.3238 20.8094 33.9524 20.8094C36.581 20.8094 38.4429 23.5475 38.5524 23.657C38.7714 23.9856 39.1 24.0951 39.4286 24.0951C39.6476 24.0951 39.8667 23.9856 40.0857 23.7666C40.4143 23.5475 40.5238 23.2189 40.5238 22.9999ZM12.0476 18.6189C10.4048 18.6189 8.98096 19.2761 7.99524 20.0427C9.20001 14.238 13.581 9.63798 19.1667 8.21417C17.5238 11.0618 16.7571 15.6618 16.5381 20.3713C15.4429 19.4951 13.9095 18.6189 12.0476 18.6189ZM23 18.6189C21.2476 18.6189 19.8238 19.3856 18.7286 20.2618C19.0571 12.5951 21.0286 7.99512 22.8905 7.77607C23 7.77607 23 7.77607 23.1095 7.77607C23.2191 7.77607 23.2191 7.77607 23.3286 7.77607C25.1905 7.99512 27.0524 12.5951 27.4905 20.3713C26.1762 19.3856 24.7524 18.6189 23 18.6189ZM33.9524 18.6189C32.0905 18.6189 30.5571 19.4951 29.4619 20.3713C29.2429 15.5523 28.4762 10.9523 26.8333 8.21417C32.4191 9.7475 36.8 14.3475 38.0048 20.0427C37.0191 19.2761 35.5952 18.6189 33.9524 18.6189Z" fill="white"/>
<path d="M23 21.9048C22.3429 21.9048 21.9048 22.3429 21.9048 23V33.9524C21.9048 35.1572 20.9191 36.1429 19.7143 36.1429C18.5096 36.1429 17.5239 35.1572 17.5239 33.9524C17.5239 33.2953 17.0858 32.8572 16.4286 32.8572C15.7715 32.8572 15.3334 33.2953 15.3334 33.9524C15.3334 36.3619 17.3048 38.3334 19.7143 38.3334C22.1239 38.3334 24.0953 36.3619 24.0953 33.9524V23C24.0953 22.3429 23.6572 21.9048 23 21.9048Z" fill="white"/>
</g>
</svg>
