<svg width="38" height="30" viewBox="0 0 38 30" fill="none" xmlns="http://www.w3.org/2000/svg">
<path d="M30.0826 0.439921C29.8894 0.451673 29.7336 0.488489 29.6113 0.521171L18.2688 3.55992H4.7813C3.4501 3.55992 2.36005 4.63372 2.36005 5.96492V7.84992C1.21758 8.26634 0.560496 9.48142 0.881302 10.6774L2.3438 16.1699C2.34842 16.1864 2.35384 16.2027 2.36005 16.2187V24.0187C2.36005 25.3499 3.4501 26.4399 4.7813 26.4399H5.09005L5.4638 27.7887C5.76242 28.9019 6.80582 29.6114 7.91755 29.5437C8.11232 29.5322 8.26733 29.4948 8.3888 29.4624L19.6663 26.4399H33.2188C34.55 26.4399 35.6401 25.3499 35.6401 24.0187V22.1499C36.7844 21.7345 37.4399 20.5032 37.1188 19.3062L35.6563 13.8137C35.6517 13.7972 35.6463 13.7809 35.6401 13.7649V5.96492C35.6401 4.63372 34.55 3.55992 33.2188 3.55992H32.9101L32.5363 2.21117C32.2377 1.09788 31.1943 0.372144 30.0826 0.439921ZM30.1476 1.47992C30.7716 1.44186 31.3591 1.83839 31.5288 2.47117L31.8213 3.55992H22.2988L29.8876 1.52867C30.0149 1.49461 30.0928 1.48325 30.1476 1.47992ZM4.7813 4.59992H33.2188C33.9918 4.59992 34.6001 5.19189 34.6001 5.96492V8.23992H3.40005V5.96492C3.40005 5.19189 4.00827 4.59992 4.7813 4.59992ZM2.36005 9.00367V12.1724L1.8888 10.4012C1.73967 9.84517 1.93408 9.31511 2.36005 9.00367ZM3.40005 9.27992H34.6001V12.9199H3.40005V9.27992ZM3.40005 13.9599H34.6001V24.0187C34.6001 24.7917 33.9918 25.3999 33.2188 25.3999H19.6826H19.5526H4.7813C4.00827 25.3999 3.40005 24.7917 3.40005 24.0187V13.9599ZM6.94255 17.5999C6.80464 17.6129 6.67751 17.68 6.58914 17.7867C6.50076 17.8934 6.45837 18.0308 6.4713 18.1687C6.48423 18.3066 6.55142 18.4337 6.65808 18.5221C6.76474 18.6105 6.90214 18.6528 7.04005 18.6399H19.5201C19.589 18.6409 19.6574 18.6282 19.7213 18.6025C19.7853 18.5768 19.8435 18.5386 19.8925 18.4902C19.9416 18.4419 19.9806 18.3842 20.0072 18.3206C20.0338 18.2571 20.0474 18.1888 20.0474 18.1199C20.0474 18.051 20.0338 17.9828 20.0072 17.9192C19.9806 17.8556 19.9416 17.798 19.8925 17.7496C19.8435 17.7012 19.7853 17.6631 19.7213 17.6374C19.6574 17.6117 19.589 17.5989 19.5201 17.5999H7.04005C7.00762 17.5969 6.97498 17.5969 6.94255 17.5999ZM35.6401 17.8112L36.1113 19.5824C36.2605 20.1385 36.0663 20.6847 35.6401 20.9962V17.8112ZM6.94255 20.7199C6.80464 20.7328 6.67751 20.8 6.58914 20.9067C6.50076 21.0134 6.45837 21.1508 6.4713 21.2887C6.48423 21.4266 6.55142 21.5537 6.65808 21.6421C6.76474 21.7305 6.90214 21.7729 7.04005 21.7599H13.2801C13.349 21.7609 13.4174 21.7482 13.4813 21.7225C13.5453 21.6968 13.6035 21.6586 13.6525 21.6102C13.7016 21.5619 13.7406 21.5042 13.7672 21.4406C13.7938 21.3771 13.8074 21.3088 13.8074 21.2399C13.8074 21.171 13.7938 21.1028 13.7672 21.0392C13.7406 20.9756 13.7016 20.918 13.6525 20.8696C13.6035 20.8212 13.5453 20.7831 13.4813 20.7574C13.4174 20.7317 13.349 20.7189 13.2801 20.7199H7.04005C7.00762 20.7169 6.97498 20.7169 6.94255 20.7199ZM6.1788 26.4399H15.6363L8.11255 28.4549C7.98433 28.4892 7.90576 28.5005 7.85255 28.5037C7.22844 28.5416 6.64103 28.1452 6.4713 27.5124L6.1788 26.4399Z" fill="white"/>
</svg>
