<svg width="52" height="52" viewBox="0 0 52 52" fill="none" xmlns="http://www.w3.org/2000/svg">
<g opacity="0.6">
<path d="M37.0826 11.4399C36.8894 11.4517 36.7336 11.4885 36.6113 11.5212L25.2688 14.5599H11.7813C10.4501 14.5599 9.36005 15.6337 9.36005 16.9649V18.8499C8.21758 19.2663 7.5605 20.4814 7.8813 21.6774L9.3438 27.1699C9.34842 27.1864 9.35384 27.2027 9.36005 27.2187V35.0187C9.36005 36.3499 10.4501 37.4399 11.7813 37.4399H12.0901L12.4638 38.7887C12.7624 39.9019 13.8058 40.6114 14.9176 40.5437C15.1123 40.5322 15.2673 40.4948 15.3888 40.4624L26.6663 37.4399H40.2188C41.55 37.4399 42.6401 36.3499 42.6401 35.0187V33.1499C43.7844 32.7345 44.4399 31.5032 44.1188 30.3062L42.6563 24.8137C42.6517 24.7972 42.6463 24.7809 42.6401 24.7649V16.9649C42.6401 15.6337 41.55 14.5599 40.2188 14.5599H39.9101L39.5363 13.2112C39.2377 12.0979 38.1943 11.3721 37.0826 11.4399ZM37.1476 12.4799C37.7716 12.4419 38.3591 12.8384 38.5288 13.4712L38.8213 14.5599H29.2988L36.8876 12.5287C37.0149 12.4946 37.0928 12.4832 37.1476 12.4799ZM11.7813 15.5999H40.2188C40.9918 15.5999 41.6001 16.1919 41.6001 16.9649V19.2399H10.4001V16.9649C10.4001 16.1919 11.0083 15.5999 11.7813 15.5999ZM9.36005 20.0037V23.1724L8.8888 21.4012C8.73967 20.8452 8.93408 20.3151 9.36005 20.0037ZM10.4001 20.2799H41.6001V23.9199H10.4001V20.2799ZM10.4001 24.9599H41.6001V35.0187C41.6001 35.7917 40.9918 36.3999 40.2188 36.3999H26.6826H26.5526H11.7813C11.0083 36.3999 10.4001 35.7917 10.4001 35.0187V24.9599ZM13.9426 28.5999C13.8046 28.6128 13.6775 28.68 13.5891 28.7867C13.5008 28.8934 13.4584 29.0308 13.4713 29.1687C13.4842 29.3066 13.5514 29.4337 13.6581 29.5221C13.7647 29.6105 13.9021 29.6528 14.0401 29.6399H26.5201C26.589 29.6409 26.6574 29.6282 26.7213 29.6025C26.7853 29.5768 26.8435 29.5386 26.8925 29.4902C26.9416 29.4419 26.9806 29.3842 27.0072 29.3206C27.0338 29.2571 27.0474 29.1888 27.0474 29.1199C27.0474 29.051 27.0338 28.9828 27.0072 28.9192C26.9806 28.8556 26.9416 28.798 26.8925 28.7496C26.8435 28.7012 26.7853 28.6631 26.7213 28.6374C26.6574 28.6117 26.589 28.5989 26.5201 28.5999H14.0401C14.0076 28.5969 13.975 28.5969 13.9426 28.5999V28.5999ZM42.6401 28.8112L43.1113 30.5824C43.2605 31.1385 43.0663 31.6848 42.6401 31.9962V28.8112ZM13.9426 31.7199C13.8046 31.7328 13.6775 31.8 13.5891 31.9067C13.5008 32.0134 13.4584 32.1508 13.4713 32.2887C13.4842 32.4266 13.5514 32.5537 13.6581 32.6421C13.7647 32.7305 13.9021 32.7728 14.0401 32.7599H20.2801C20.349 32.7609 20.4174 32.7482 20.4813 32.7225C20.5453 32.6968 20.6035 32.6586 20.6525 32.6102C20.7016 32.5619 20.7406 32.5042 20.7672 32.4406C20.7938 32.3771 20.8074 32.3088 20.8074 32.2399C20.8074 32.171 20.7938 32.1028 20.7672 32.0392C20.7406 31.9756 20.7016 31.918 20.6525 31.8696C20.6035 31.8212 20.5453 31.7831 20.4813 31.7574C20.4174 31.7317 20.349 31.7189 20.2801 31.7199H14.0401C14.0076 31.7169 13.975 31.7169 13.9426 31.7199V31.7199ZM13.1788 37.4399H22.6363L15.1126 39.4549C14.9843 39.4892 14.9058 39.5005 14.8526 39.5037C14.2284 39.5416 13.641 39.1452 13.4713 38.5124L13.1788 37.4399Z" fill="white"/>
</g>
</svg>
