<svg width="52" height="52" viewBox="0 0 52 52" fill="none" xmlns="http://www.w3.org/2000/svg">
<path d="M37.804 26.312L38.168 25.948C44.096 19.968 42.016 11.076 42.016 11.076C41.964 10.66 41.652 10.296 41.184 10.244C41.184 10.244 31.824 7.74797 25.74 13.936L25.532 14.144L19.916 12.896C19.604 12.844 19.292 12.896 19.084 13.156L12.376 19.812C11.856 20.384 12.168 21.008 12.532 21.268L16.224 23.452L15.392 24.284C15.028 24.648 15.028 25.22 15.392 25.584L16.484 26.676L14.092 30.056C13.832 30.42 13.884 30.94 14.196 31.252L20.696 37.752C21.112 38.168 21.632 38.064 21.892 37.856L25.272 35.464L26.364 36.556C26.832 37.024 27.352 36.816 27.664 36.556L28.496 35.724L30.68 39.416C30.836 39.676 31.096 39.832 31.356 39.832C31.408 39.832 31.408 39.832 31.46 39.832C31.72 39.832 31.928 39.728 32.084 39.572L38.792 32.864C39 32.656 39.104 32.344 39.052 32.032L37.804 26.312ZM21.424 35.828L16.016 30.472L17.732 28.028L23.816 34.112L21.424 35.828ZM17.472 22.048L14.508 20.28L20.02 14.768L24.024 15.652L23.192 16.484C21.58 18.044 19.292 20.332 17.472 22.048ZM26.988 34.528L22.828 30.368L28.912 24.284C29.276 23.92 29.276 23.348 28.912 22.984C28.548 22.62 27.976 22.62 27.612 22.984L21.528 29.068L17.368 24.908L27.04 15.184C32.292 9.82797 40.248 11.96 40.248 11.96C40.248 11.96 42.068 19.344 36.868 24.648L26.988 34.528ZM31.616 37.388L29.848 34.424C31.928 32.292 34.736 29.38 36.244 27.872L37.128 31.876L31.616 37.388Z" fill="white"/>
<path d="M13.8321 32.7601C13.4681 32.3961 12.8961 32.3961 12.5321 32.7601L9.88006 35.3601C9.51606 35.7241 9.51606 36.2961 9.88006 36.6601C10.4001 37.1801 11.0241 36.8161 11.1801 36.6601L13.8321 34.0081C14.1961 33.6961 14.1961 33.0721 13.8321 32.7601Z" fill="white"/>
<path d="M16.536 35.4119C16.172 35.0479 15.6 35.0479 15.236 35.4119L12.584 38.0639C12.22 38.4279 12.22 38.9999 12.584 39.3639C13.104 39.8319 13.728 39.5199 13.884 39.3639L16.536 36.7119C16.848 36.3479 16.848 35.7759 16.536 35.4119Z" fill="white"/>
<path d="M17.888 38.116L15.236 40.768C14.872 41.132 14.872 41.704 15.236 42.068C15.756 42.588 16.38 42.224 16.536 42.068L19.188 39.416C19.552 39.052 19.552 38.48 19.188 38.116C18.824 37.752 18.252 37.752 17.888 38.116Z" fill="white"/>
<path d="M32.292 16.0161C30.316 16.0161 28.756 17.6281 28.756 19.5521C28.756 21.5281 30.368 23.0881 32.292 23.0881C34.216 23.0881 35.828 21.4761 35.828 19.5521C35.828 17.6281 34.268 16.0161 32.292 16.0161ZM32.292 21.2681C31.356 21.2681 30.576 20.4881 30.576 19.5521C30.576 18.6161 31.356 17.8361 32.292 17.8361C33.228 17.8361 34.008 18.6161 34.008 19.5521C34.008 20.4881 33.228 21.2681 32.292 21.2681Z" fill="white"/>
</svg>
