<svg width="35" height="33" viewBox="0 0 35 33" fill="none" xmlns="http://www.w3.org/2000/svg">
<path d="M33.7855 31.6212H31.6113V12.1591C32.7992 11.5917 33.6265 10.3826 33.6265 8.97726V6.54847C33.6265 6.53786 33.6212 6.52726 33.6212 6.51665C33.6212 6.49544 33.6159 6.47423 33.6105 6.45301C33.5999 6.41059 33.584 6.37877 33.5628 6.34165C33.5575 6.33105 33.5522 6.31514 33.5416 6.30453L29.4742 1.03862C29.3999 0.943167 29.2886 0.890137 29.1666 0.890137H24.7015C24.4893 0.890137 24.3143 1.06514 24.3143 1.27726C24.3143 1.48938 24.4893 1.66438 24.7015 1.66438H28.9757L32.4439 6.15605H2.556L6.02419 1.66438H19.6848C19.8969 1.66438 20.0719 1.48938 20.0719 1.27726C20.0719 1.06514 19.8969 0.890137 19.6848 0.890137H5.83858C5.71661 0.890137 5.60525 0.943167 5.531 1.03862L1.46358 6.30453C1.45297 6.32044 1.44237 6.33635 1.43706 6.35226C1.42646 6.37347 1.41585 6.38938 1.41055 6.41059C1.39994 6.44771 1.38934 6.47953 1.38934 6.51665C1.38934 6.52726 1.38403 6.53256 1.38403 6.53786V8.96665C1.38403 10.372 2.21661 11.581 3.40979 12.1485C3.40979 12.1644 3.39919 12.1803 3.39919 12.1962V17.4939C3.39919 17.706 3.57419 17.881 3.78631 17.881C3.99843 17.881 4.17343 17.706 4.17343 17.4939V14.9803H30.8371V31.6212H22.034V19.6841C22.034 19.472 21.859 19.297 21.6469 19.297H13.3583C13.1462 19.297 12.9712 19.472 12.9712 19.6841V31.6212H4.16813V20.2674C4.16813 20.0553 3.99313 19.8803 3.781 19.8803C3.56888 19.8803 3.39388 20.05 3.39388 20.2674V31.6212H1.21964C1.00752 31.6212 0.83252 31.7962 0.83252 32.0083C0.83252 32.2204 1.00752 32.3954 1.21964 32.3954H33.7855C33.9977 32.3954 34.1727 32.2204 34.1727 32.0083C34.1727 31.7962 33.9977 31.6212 33.7855 31.6212ZM30.0999 11.7295C28.578 11.7295 27.3371 10.4992 27.3318 8.98256C27.3318 8.98256 27.3318 8.98256 27.3318 8.97726V6.94089H32.8469V8.97726C32.8469 10.4939 31.6166 11.7295 30.0999 11.7295ZM8.44767 8.97726V6.94089H13.9628V8.97726C13.9628 10.4939 12.7272 11.7295 11.2105 11.7295C9.68858 11.7295 8.44767 10.4939 8.44767 8.97726ZM14.7424 6.94089H20.2575V8.97726C20.2575 10.4939 19.0219 11.7295 17.5052 11.7295C15.978 11.7295 14.7371 10.4939 14.7371 8.97726V6.94089H14.7424ZM21.0371 6.94089H26.5522V8.97726C26.5522 8.97726 26.5522 8.97726 26.5522 8.98256C26.5522 10.4992 25.3166 11.7295 23.7999 11.7295C22.2727 11.7295 21.0318 10.4939 21.0318 8.97726V6.94089H21.0371ZM2.15297 8.97726V6.94089H7.66813V8.97726C7.66813 8.97726 7.66813 8.97726 7.66813 8.98256C7.66813 10.4992 6.43252 11.7295 4.91585 11.7295C3.39388 11.7295 2.15297 10.4939 2.15297 8.97726ZM4.16813 14.222V12.4242C4.41206 12.4773 4.66131 12.5038 4.92116 12.5038C6.28934 12.5038 7.47722 11.7189 8.06055 10.5735C8.64919 11.7136 9.83706 12.5038 11.2159 12.5038C12.584 12.5038 13.7719 11.7189 14.3552 10.5735C14.9439 11.7136 16.1318 12.5038 17.5105 12.5038C18.8787 12.5038 20.0666 11.7189 20.6499 10.5735C21.2386 11.7136 22.4265 12.5038 23.8052 12.5038C25.1734 12.5038 26.3613 11.7189 26.9446 10.5735C27.5333 11.7136 28.7212 12.5038 30.0999 12.5038C30.3492 12.5038 30.5984 12.4773 30.8318 12.4242V14.2167H4.16813V14.222ZM13.7454 20.0712H21.2492V31.6212H13.7454V20.0712Z" fill="white"/>
</svg>
