<svg width="35" height="35" viewBox="0 0 35 35" fill="none" xmlns="http://www.w3.org/2000/svg">
<g opacity="0.6" clip-path="url(#clip0_53_185)">
<path d="M21.1007 3.66975H22.9038C23.1159 3.66975 23.2909 3.49475 23.2909 3.28263C23.2909 3.07051 23.1159 2.89551 22.9038 2.89551H21.1007C20.8886 2.89551 20.7136 3.07051 20.7136 3.28263C20.7136 3.49475 20.8833 3.66975 21.1007 3.66975Z" fill="white"/>
<path d="M3.50534 21.1643C3.57958 21.2439 3.67504 21.281 3.7811 21.281C3.88185 21.281 3.98261 21.2386 4.05685 21.1643C4.09398 21.1272 4.12579 21.0848 4.14701 21.0424C4.16291 20.9946 4.17352 20.9469 4.17352 20.8992C4.17352 20.8462 4.16291 20.7984 4.1417 20.7507C4.12579 20.703 4.09398 20.6605 4.05685 20.6234C3.91898 20.4855 3.65382 20.4855 3.50534 20.6234C3.46822 20.6659 3.4417 20.7083 3.42049 20.7507C3.39928 20.7878 3.38867 20.8409 3.38867 20.8939C3.38867 20.9469 3.39928 20.9946 3.42049 21.0371C3.4417 21.0795 3.46822 21.1272 3.50534 21.1643Z" fill="white"/>
<path d="M33.7855 33.6212H31.6113V14.1591C32.7992 13.5917 33.6265 12.3826 33.6265 10.9773V8.54847C33.6265 8.53786 33.6212 8.52726 33.6212 8.51665C33.6212 8.49544 33.6159 8.47423 33.6105 8.45302C33.5999 8.41059 33.584 8.37877 33.5628 8.34165C33.5575 8.33105 33.5522 8.31514 33.5416 8.30453L29.4742 3.03862C29.3999 2.94317 29.2886 2.89014 29.1666 2.89014H24.7015C24.4893 2.89014 24.3143 3.06514 24.3143 3.27726C24.3143 3.48938 24.4893 3.66438 24.7015 3.66438H28.9757L32.4439 8.15605H2.556L6.02419 3.66438H19.6848C19.8969 3.66438 20.0719 3.48938 20.0719 3.27726C20.0719 3.06514 19.8969 2.89014 19.6848 2.89014H5.83858C5.71661 2.89014 5.60525 2.94317 5.531 3.03862L1.46358 8.30453C1.45297 8.32044 1.44237 8.33635 1.43706 8.35226C1.42646 8.37347 1.41585 8.38938 1.41055 8.41059C1.39994 8.44771 1.38934 8.47953 1.38934 8.51665C1.38934 8.52726 1.38403 8.53256 1.38403 8.53786V10.9667C1.38403 12.372 2.21661 13.581 3.40979 14.1485C3.40979 14.1644 3.39919 14.1803 3.39919 14.1962V19.4939C3.39919 19.706 3.57419 19.881 3.78631 19.881C3.99843 19.881 4.17343 19.706 4.17343 19.4939V16.9803H30.8371V33.6212H22.034V21.6841C22.034 21.472 21.859 21.297 21.6469 21.297H13.3583C13.1462 21.297 12.9712 21.472 12.9712 21.6841V33.6212H4.16813V22.2674C4.16813 22.0553 3.99313 21.8803 3.781 21.8803C3.56888 21.8803 3.39388 22.05 3.39388 22.2674V33.6212H1.21964C1.00752 33.6212 0.83252 33.7962 0.83252 34.0083C0.83252 34.2204 1.00752 34.3954 1.21964 34.3954H33.7855C33.9977 34.3954 34.1727 34.2204 34.1727 34.0083C34.1727 33.7962 33.9977 33.6212 33.7855 33.6212ZM30.0999 13.7295C28.578 13.7295 27.3371 12.4992 27.3318 10.9826C27.3318 10.9826 27.3318 10.9826 27.3318 10.9773V8.94089H32.8469V10.9773C32.8469 12.4939 31.6166 13.7295 30.0999 13.7295ZM8.44767 10.9773V8.94089H13.9628V10.9773C13.9628 12.4939 12.7272 13.7295 11.2105 13.7295C9.68858 13.7295 8.44767 12.4939 8.44767 10.9773ZM14.7424 8.94089H20.2575V10.9773C20.2575 12.4939 19.0219 13.7295 17.5052 13.7295C15.978 13.7295 14.7371 12.4939 14.7371 10.9773V8.94089H14.7424ZM21.0371 8.94089H26.5522V10.9773C26.5522 10.9773 26.5522 10.9773 26.5522 10.9826C26.5522 12.4992 25.3166 13.7295 23.7999 13.7295C22.2727 13.7295 21.0318 12.4939 21.0318 10.9773V8.94089H21.0371ZM2.15297 10.9773V8.94089H7.66813V10.9773C7.66813 10.9773 7.66813 10.9773 7.66813 10.9826C7.66813 12.4992 6.43252 13.7295 4.91585 13.7295C3.39388 13.7295 2.15297 12.4939 2.15297 10.9773ZM4.16813 16.222V14.4242C4.41206 14.4773 4.66131 14.5038 4.92116 14.5038C6.28934 14.5038 7.47722 13.7189 8.06055 12.5735C8.64919 13.7136 9.83706 14.5038 11.2159 14.5038C12.584 14.5038 13.7719 13.7189 14.3552 12.5735C14.9439 13.7136 16.1318 14.5038 17.5105 14.5038C18.8787 14.5038 20.0666 13.7189 20.6499 12.5735C21.2386 13.7136 22.4265 14.5038 23.8052 14.5038C25.1734 14.5038 26.3613 13.7189 26.9446 12.5735C27.5333 13.7136 28.7212 14.5038 30.0999 14.5038C30.3492 14.5038 30.5984 14.4773 30.8318 14.4242V16.2167H4.16813V16.222ZM13.7454 22.0712H21.2492V33.6212H13.7454V22.0712Z" fill="white"/>
<path d="M6.2045 25.8734H10.9189C11.131 25.8734 11.306 25.6984 11.306 25.4863V21.684C11.306 21.4719 11.131 21.2969 10.9189 21.2969H6.2045C5.99238 21.2969 5.81738 21.4719 5.81738 21.684V25.4863C5.81738 25.6984 5.99238 25.8734 6.2045 25.8734ZM6.59163 22.0711H10.5318V25.0991H6.59163V22.0711Z" fill="white"/>
<path d="M5.81738 31.6484C5.81738 31.8605 5.99238 32.0355 6.2045 32.0355H10.9189C11.131 32.0355 11.306 31.8605 11.306 31.6484V27.8461C11.306 27.634 11.131 27.459 10.9189 27.459H6.2045C5.99238 27.459 5.81738 27.634 5.81738 27.8461V31.6484V31.6484ZM6.59163 28.2332H10.5318V31.2613H6.59163V28.2332Z" fill="white"/>
<path d="M24.0651 25.8734H28.7795C28.9916 25.8734 29.1666 25.6984 29.1666 25.4863V21.684C29.1666 21.4719 28.9916 21.2969 28.7795 21.2969H24.0651C23.853 21.2969 23.678 21.4719 23.678 21.684V25.4863C23.6727 25.6984 23.8477 25.8734 24.0651 25.8734ZM24.4522 22.0711H28.3871V25.0938H24.4522V22.0711Z" fill="white"/>
<path d="M23.6727 31.6484C23.6727 31.8605 23.8477 32.0355 24.0599 32.0355H28.7742C28.9864 32.0355 29.1614 31.8605 29.1614 31.6484V27.8461C29.1614 27.634 28.9864 27.459 28.7742 27.459H24.0599C23.8477 27.459 23.6727 27.634 23.6727 27.8461V31.6484ZM24.4523 28.2332H28.3924V31.2613H24.4523V28.2332Z" fill="white"/>
<path d="M15.1349 27.9523C15.4512 27.9523 15.7076 27.6959 15.7076 27.3796C15.7076 27.0633 15.4512 26.8069 15.1349 26.8069C14.8186 26.8069 14.5621 27.0633 14.5621 27.3796C14.5621 27.6959 14.8186 27.9523 15.1349 27.9523Z" fill="white"/>
<path d="M2.33858 3.19763C2.86358 3.19763 3.29312 2.77338 3.29312 2.25369C3.29312 1.72869 2.86358 1.30444 2.33858 1.30444C1.81358 1.30444 1.38403 1.72869 1.38403 2.25369C1.38934 2.77338 1.81358 3.19763 2.33858 3.19763ZM2.33858 1.82414C2.58252 1.82414 2.77873 2.01505 2.77873 2.25369C2.77873 2.48702 2.58252 2.67793 2.33858 2.67793C2.09994 2.67793 1.90373 2.48702 1.90373 2.25369C1.90373 2.02035 2.09994 1.82414 2.33858 1.82414Z" fill="white"/>
<path d="M32.1682 30.2857C32.1682 30.7948 32.5872 31.2137 33.1068 31.2137C33.6212 31.2137 34.0402 30.8001 34.0402 30.2857C34.0402 29.7766 33.6212 29.3577 33.1068 29.3577C32.5872 29.3577 32.1682 29.7766 32.1682 30.2857ZM33.5258 30.2857C33.5258 30.5137 33.3402 30.694 33.1068 30.694C32.8682 30.694 32.6826 30.5137 32.6826 30.2857C32.6826 30.0577 32.8682 29.8774 33.1068 29.8774C33.3349 29.8774 33.5258 30.063 33.5258 30.2857Z" fill="white"/>
<path d="M31.8234 2.52953H32.5712C32.7144 2.52953 32.831 2.41286 32.831 2.26968C32.831 2.1265 32.7144 2.01514 32.5712 2.01514H31.8234C31.6803 2.01514 31.5636 2.1318 31.5636 2.27499C31.5636 2.41817 31.6803 2.52953 31.8234 2.52953Z" fill="white"/>
<path d="M29.7393 2.52946H30.4871C30.6303 2.52946 30.7469 2.4128 30.7469 2.26961C30.7469 2.12643 30.6303 2.00977 30.4871 2.00977H29.7393C29.5962 2.00977 29.4795 2.12643 29.4795 2.26961C29.4795 2.4181 29.5962 2.52946 29.7393 2.52946Z" fill="white"/>
<path d="M31.1554 3.9454C31.2985 3.9454 31.4152 3.82874 31.4152 3.68555V2.93783C31.4152 2.79465 31.2985 2.67798 31.1554 2.67798C31.0122 2.67798 30.8955 2.79465 30.8955 2.93783V3.68555C30.8955 3.82874 31.0122 3.9454 31.1554 3.9454Z" fill="white"/>
<path d="M31.1554 1.86655C31.2985 1.86655 31.4152 1.74988 31.4152 1.6067V0.85897C31.4152 0.715788 31.2985 0.599121 31.1554 0.599121C31.0122 0.599121 30.8955 0.715788 30.8955 0.85897V1.6067C30.8955 1.74988 31.0122 1.86655 31.1554 1.86655Z" fill="white"/>
<path d="M1.95158 18.4916C2.46597 18.4916 2.88491 18.0779 2.88491 17.5635C2.88491 17.0544 2.46597 16.6355 1.95158 16.6355C1.43188 16.6355 1.01294 17.0491 1.01294 17.5635C1.01294 18.0779 1.43718 18.4916 1.95158 18.4916ZM1.95158 17.1552C2.17961 17.1552 2.37052 17.3408 2.37052 17.5635C2.37052 17.7863 2.18491 17.9772 1.95158 17.9772C1.71294 17.9772 1.52733 17.7969 1.52733 17.5688C1.53264 17.3355 1.71824 17.1552 1.95158 17.1552Z" fill="white"/>
</g>
<defs>
<clipPath id="clip0_53_185">
<rect width="35" height="35" fill="white"/>
</clipPath>
</defs>
</svg>
