<svg width="43" height="43" viewBox="0 0 43 43" fill="none" xmlns="http://www.w3.org/2000/svg">
<g opacity="0.6">
<path d="M33.7263 10.105C33.7263 10.0907 33.7263 10.0907 33.7263 10.0764C33.7263 10.0477 33.7263 10.019 33.712 9.99036C33.712 9.97603 33.6976 9.94737 33.6976 9.93303C33.6833 9.90437 33.6833 9.89003 33.669 9.86137C33.6546 9.84703 33.6546 9.81837 33.6403 9.80403C33.626 9.77537 33.6116 9.76103 33.5973 9.73237C33.583 9.71803 33.5686 9.7037 33.5686 9.68936C33.5543 9.6607 33.5256 9.64636 33.5113 9.63203C33.497 9.6177 33.497 9.60337 33.4826 9.60337C33.4826 9.60337 33.4826 9.60337 33.4683 9.60337C33.4396 9.58903 33.4253 9.5747 33.3966 9.56036C33.3823 9.54603 33.368 9.54603 33.3536 9.5317C33.325 9.51737 33.3106 9.51737 33.282 9.50303C33.2676 9.4887 33.239 9.4887 33.2246 9.47436C33.2246 9.47436 33.2246 9.47436 33.2103 9.47436L30.8453 8.82936C31.089 7.2527 31.132 5.90537 30.358 4.95937C29.7416 4.21403 28.6953 3.84137 27.1616 3.84137C25.413 3.84137 23.7933 4.3717 22.3743 5.24603C21.457 3.9847 20.3246 2.8667 18.5616 2.8667C16.8846 2.8667 15.3796 3.61203 14.2903 4.94503C13.287 6.16337 12.7566 7.78303 12.8283 9.24503L9.14463 9.63203C9.11597 9.63203 9.10163 9.64637 9.0873 9.64637C9.07297 9.64637 9.0443 9.64637 9.02997 9.6607C9.0013 9.6607 8.98697 9.67503 8.97263 9.68936C8.9583 9.7037 8.92963 9.7037 8.9153 9.71803C8.90097 9.73237 8.8723 9.7467 8.85797 9.7467C8.84363 9.76103 8.8293 9.76103 8.80063 9.77536C8.7863 9.7897 8.77197 9.80403 8.7433 9.81837C8.72897 9.8327 8.71463 9.84703 8.7003 9.86137C8.68597 9.8757 8.67163 9.90436 8.6573 9.9187C8.64297 9.93303 8.62863 9.94737 8.62863 9.9617C8.6143 9.97603 8.59997 10.0047 8.59997 10.019C8.58563 10.0334 8.58563 10.0477 8.5713 10.0764C8.55697 10.105 8.55697 10.1194 8.54263 10.148C8.54263 10.1624 8.5283 10.191 8.5283 10.2054C8.5283 10.234 8.5283 10.2627 8.51397 10.277C8.51397 10.2914 8.51397 10.3057 8.51397 10.3344L7.8833 37.3814C7.8833 37.6824 8.0553 37.9547 8.32763 38.055L13.287 40.0904C13.287 40.0904 13.287 40.0904 13.3013 40.0904C13.33 40.1047 13.3586 40.1047 13.3873 40.119C13.4016 40.119 13.416 40.1334 13.4303 40.1334C13.459 40.1334 13.502 40.1477 13.5306 40.1477C13.545 40.1477 13.545 40.1477 13.5593 40.1477C13.5736 40.1477 13.588 40.1477 13.6023 40.1477C13.6166 40.1477 13.6453 40.1477 13.6596 40.1477L34.529 37.2237C34.9016 37.1664 35.1596 36.851 35.1453 36.4784L33.7263 10.105ZM19.1493 11.051C19.3213 10.6784 19.522 10.32 19.737 9.9617L23.8793 9.5317C24.0513 9.5747 24.2376 9.56036 24.3953 9.47436L28.122 9.08737C28.122 9.11603 28.1363 9.1447 28.1363 9.15903C28.208 9.4027 28.3943 9.60337 28.638 9.6607L29.2113 9.81837C29.2113 9.8327 29.2113 9.8327 29.2113 9.84703L19.1493 11.051ZM15.7666 10.965C15.695 10.6927 15.4513 10.492 15.179 10.449L15.1216 10.4347L18.0026 10.1337C17.8163 10.492 17.6586 10.8647 17.5153 11.2374L15.7236 11.4524C15.7953 11.309 15.8096 11.137 15.7666 10.965ZM22.016 7.28137C22.2166 7.5967 22.4316 7.92637 22.6466 8.22737L20.8693 8.4137C21.2276 7.99803 21.6146 7.62537 22.016 7.28137ZM29.2543 5.86237C29.541 6.2207 29.6126 6.79403 29.5696 7.52503C29.5553 7.52503 29.5266 7.52503 29.5123 7.52503L24.3236 8.05537C23.9223 7.58237 23.564 7.02337 23.177 6.4357C24.424 5.67603 25.7856 5.26037 27.1616 5.26037C28.2223 5.26037 28.9246 5.46103 29.2543 5.86237ZM15.394 5.84803C15.9673 5.1457 16.985 4.30003 18.5616 4.30003C19.7083 4.30003 20.4823 5.04537 21.2133 6.07737C20.339 6.79403 19.565 7.66837 18.92 8.61436L14.276 9.08737C14.233 7.99803 14.6486 6.76537 15.394 5.84803ZM9.91863 11.1657L13.373 11.653L13.0863 11.8824C13.072 11.8967 13.072 11.8967 13.0576 11.911C13.029 11.9254 13.0146 11.954 13.0003 11.9684C12.986 11.9827 12.9716 11.997 12.9716 12.0114C12.9573 12.0257 12.943 12.0544 12.9286 12.0687C12.9143 12.083 12.9143 12.0974 12.9 12.126C12.8856 12.1547 12.8856 12.169 12.8713 12.1977C12.8713 12.212 12.857 12.2407 12.857 12.255C12.857 12.2837 12.8426 12.298 12.8426 12.3267C12.8426 12.341 12.7996 12.3697 12.7996 12.384C12.7996 12.3984 12.7566 12.4127 12.7566 12.4127V38.3274L9.27363 36.8797L9.91863 11.1657ZM14.19 38.5854V13.072L16.985 12.7424C16.7413 13.6884 16.6266 14.663 16.6266 15.609C16.6266 16.0104 16.9563 16.3257 17.3576 16.3257C17.759 16.3257 18.0743 16.0104 18.0743 15.609C18.0743 14.5914 18.2463 13.5594 18.5473 12.556L21.5573 12.1977L22.7613 15.2937L20.554 16.1537L20.1526 17.0854L23.349 25.3127L24.2806 25.714L29.9996 23.4924L30.401 22.5607L27.2046 14.3334L26.273 13.932L24.1086 14.7777L23.0336 12.04L28.939 11.352C28.767 12.4127 28.6093 13.545 28.6093 14.7347C28.6093 15.136 28.9246 15.4514 29.326 15.4514C29.7273 15.4514 30.0426 15.136 30.0426 14.7347C30.0426 13.5164 30.2146 12.298 30.4153 11.18L32.336 10.9507L33.626 35.8764L14.19 38.5854ZM23.865 18.146C23.9796 18.4327 24.252 18.6047 24.5386 18.6047C24.6246 18.6047 24.7106 18.5904 24.7966 18.5617C25.1693 18.4184 25.3413 18.0027 25.198 17.63L24.6103 16.125L26.1153 15.5374L28.7956 22.4174L24.4096 24.123L21.7293 17.243L23.2773 16.641L23.865 18.146Z" fill="white"/>
</g>
</svg>
