<svg width="90" height="90" viewBox="0 0 90 90" fill="none" xmlns="http://www.w3.org/2000/svg">
<path d="M28.8438 20.0312C30.8717 20.0312 32.5156 18.3873 32.5156 16.3594C32.5156 14.3315 30.8717 12.6875 28.8438 12.6875C26.8158 12.6875 25.1719 14.3315 25.1719 16.3594C25.1719 18.3873 26.8158 20.0312 28.8438 20.0312Z" fill="white"/>
<path d="M58.2188 8.28125C60.2467 8.28125 61.8906 6.6373 61.8906 4.60938C61.8906 2.58145 60.2467 0.9375 58.2188 0.9375C56.1908 0.9375 54.5469 2.58145 54.5469 4.60938C54.5469 6.6373 56.1908 8.28125 58.2188 8.28125Z" fill="white"/>
<path d="M5.34375 2.40625C4.95421 2.40625 4.58063 2.56099 4.30519 2.83644C4.02974 3.11188 3.875 3.48546 3.875 3.875V5.34375H2.40625C2.01671 5.34375 1.64313 5.49849 1.36769 5.77394C1.09224 6.04938 0.9375 6.42296 0.9375 6.8125C0.9375 7.20204 1.09224 7.57562 1.36769 7.85106C1.64313 8.12651 2.01671 8.28125 2.40625 8.28125H3.875V9.75C3.875 10.1395 4.02974 10.5131 4.30519 10.7886C4.58063 11.064 4.95421 11.2188 5.34375 11.2188C5.73329 11.2188 6.10687 11.064 6.38231 10.7886C6.65776 10.5131 6.8125 10.1395 6.8125 9.75V8.28125H8.28125C8.67079 8.28125 9.04437 8.12651 9.31981 7.85106C9.59526 7.57562 9.75 7.20204 9.75 6.8125C9.75 6.42296 9.59526 6.04938 9.31981 5.77394C9.04437 5.49849 8.67079 5.34375 8.28125 5.34375H6.8125V3.875C6.8125 3.48546 6.65776 3.11188 6.38231 2.83644C6.10687 2.56099 5.73329 2.40625 5.34375 2.40625Z" fill="white"/>
<path d="M87.5938 15.625H86.125V14.1562C86.125 13.7667 85.9703 13.3931 85.6948 13.1177C85.4194 12.8422 85.0458 12.6875 84.6562 12.6875C84.2667 12.6875 83.8931 12.8422 83.6177 13.1177C83.3422 13.3931 83.1875 13.7667 83.1875 14.1562V15.625H81.7188C81.3292 15.625 80.9556 15.7797 80.6802 16.0552C80.4047 16.3306 80.25 16.7042 80.25 17.0938C80.25 17.4833 80.4047 17.8569 80.6802 18.1323C80.9556 18.4078 81.3292 18.5625 81.7188 18.5625H83.1875V20.0312C83.1875 20.4208 83.3422 20.7944 83.6177 21.0698C83.8931 21.3453 84.2667 21.5 84.6562 21.5C85.0458 21.5 85.4194 21.3453 85.6948 21.0698C85.9703 20.7944 86.125 20.4208 86.125 20.0312V18.5625H87.5938C87.9833 18.5625 88.3569 18.4078 88.6323 18.1323C88.9078 17.8569 89.0625 17.4833 89.0625 17.0938C89.0625 16.7042 88.9078 16.3306 88.6323 16.0552C88.3569 15.7797 87.9833 15.625 87.5938 15.625Z" fill="white"/>
<path d="M75.8438 33.25C75.4542 33.25 75.0806 33.4047 74.8052 33.6802C74.5297 33.9556 74.375 34.3292 74.375 34.7188V45C74.375 45.3895 74.5297 45.7631 74.8052 46.0386C75.0806 46.314 75.4542 46.4688 75.8438 46.4688C76.2333 46.4688 76.6069 46.314 76.8823 46.0386C77.1578 45.7631 77.3125 45.3895 77.3125 45V34.7188C77.3125 34.3292 77.1578 33.9556 76.8823 33.6802C76.6069 33.4047 76.2333 33.25 75.8438 33.25Z" fill="white"/>
<path d="M75.8438 52.3438C76.6549 52.3438 77.3125 51.6862 77.3125 50.875C77.3125 50.0638 76.6549 49.4062 75.8438 49.4062C75.0326 49.4062 74.375 50.0638 74.375 50.875C74.375 51.6862 75.0326 52.3438 75.8438 52.3438Z" fill="white"/>
<path d="M87.5938 77.3125H83.1875V30.3125C83.1875 29.1439 82.7233 28.0231 81.8969 27.1968C81.0706 26.3705 79.9499 25.9063 78.7812 25.9062H11.2188C10.0501 25.9063 8.92939 26.3705 8.10306 27.1968C7.27673 28.0231 6.8125 29.1439 6.8125 30.3125V77.3125H2.40625C2.01671 77.3125 1.64313 77.4672 1.36769 77.7427C1.09224 78.0181 0.9375 78.3917 0.9375 78.7812C0.94061 81.5071 2.02481 84.1203 3.95224 86.0478C5.87968 87.9752 8.49295 89.0594 11.2188 89.0625H78.7812C81.507 89.0594 84.1203 87.9752 86.0478 86.0478C87.9752 84.1203 89.0594 81.5071 89.0625 78.7812C89.0625 78.3917 88.9078 78.0181 88.6323 77.7427C88.3569 77.4672 87.9833 77.3125 87.5938 77.3125ZM53.8125 83.1875H36.1875C34.9376 83.1875 33.8522 81.9391 33.4365 80.25H56.5635C56.1478 81.9391 55.0624 83.1875 53.8125 83.1875ZM80.25 77.3125H9.75V30.3125C9.75 29.923 9.90474 29.5494 10.1802 29.2739C10.4556 28.9985 10.8292 28.8438 11.2188 28.8438H78.7812C79.1708 28.8438 79.5444 28.9985 79.8198 29.2739C80.0953 29.5494 80.25 29.923 80.25 30.3125V77.3125Z" fill="white"/>
<path d="M75.8438 71.4375H72.1719V61.1562C72.1719 60.7667 72.0171 60.3931 71.7417 60.1177C71.4662 59.8422 71.0927 59.6875 70.7031 59.6875H63.3594C62.9698 59.6875 62.5963 59.8422 62.3208 60.1177C62.0454 60.3931 61.8906 60.7667 61.8906 61.1562V71.4375H57.4844V55.2812C57.4844 54.8917 57.3296 54.5181 57.0542 54.2427C56.7787 53.9672 56.4052 53.8125 56.0156 53.8125H48.6719C48.2823 53.8125 47.9088 53.9672 47.6333 54.2427C47.3579 54.5181 47.2031 54.8917 47.2031 55.2812V71.4375H42.7969V46.4688C42.7969 46.0792 42.6421 45.7056 42.3667 45.4302C42.0912 45.1547 41.7177 45 41.3281 45H33.9844C33.5948 45 33.2213 45.1547 32.9458 45.4302C32.6704 45.7056 32.5156 46.0792 32.5156 46.4688V71.4375H28.1094V36.1875C28.1094 35.798 27.9546 35.4244 27.6792 35.1489C27.4037 34.8735 27.0302 34.7188 26.6406 34.7188H19.2969C18.9073 34.7188 18.5338 34.8735 18.2583 35.1489C17.9829 35.4244 17.8281 35.798 17.8281 36.1875V71.4375H14.1562C13.7667 71.4375 13.3931 71.5922 13.1177 71.8677C12.8422 72.1431 12.6875 72.5167 12.6875 72.9062C12.6875 73.2958 12.8422 73.6694 13.1177 73.9448C13.3931 74.2203 13.7667 74.375 14.1562 74.375H75.8438C76.2333 74.375 76.6069 74.2203 76.8823 73.9448C77.1578 73.6694 77.3125 73.2958 77.3125 72.9062C77.3125 72.5167 77.1578 72.1431 76.8823 71.8677C76.6069 71.5922 76.2333 71.4375 75.8438 71.4375Z" fill="white"/>
<path d="M47.9377 43.5312C48.3272 43.5312 48.7007 43.3764 48.9761 43.1009L51.4832 40.5938H67.0314C67.421 40.5938 67.7945 40.439 68.07 40.1636C68.3454 39.8881 68.5002 39.5145 68.5002 39.125C68.5002 38.7355 68.3454 38.3619 68.07 38.0864C67.7945 37.811 67.421 37.6562 67.0314 37.6562H50.8752C50.4857 37.6563 50.1121 37.8111 49.8368 38.0866L46.8993 41.0241C46.6939 41.2295 46.5541 41.4912 46.4974 41.776C46.4408 42.0609 46.4699 42.3562 46.581 42.6245C46.6922 42.8929 46.8804 43.1222 47.1218 43.2836C47.3633 43.445 47.6472 43.5312 47.9377 43.5312Z" fill="white"/>
<path d="M58.2188 34.7188H67.0312C67.4208 34.7188 67.7944 34.564 68.0698 34.2886C68.3453 34.0131 68.5 33.6395 68.5 33.25C68.5 32.8605 68.3453 32.4869 68.0698 32.2114C67.7944 31.936 67.4208 31.7812 67.0312 31.7812H58.2188C57.8292 31.7812 57.4556 31.936 57.1802 32.2114C56.9047 32.4869 56.75 32.8605 56.75 33.25C56.75 33.6395 56.9047 34.0131 57.1802 34.2886C57.4556 34.564 57.8292 34.7188 58.2188 34.7188Z" fill="white"/>
</svg>
