<svg width="103" height="65" viewBox="0 0 103 65" fill="none" xmlns="http://www.w3.org/2000/svg">
<path d="M27.0862 30.2744H0.00146484V34.123H27.0862V30.2744Z" fill="white"/>
<path d="M102.998 0H68.8657V3.84862H102.998V0Z" fill="white"/>
<path d="M102.997 7.56915H50.3091V11.4178H102.997V7.56915Z" fill="white"/>
<path d="M102.997 22.7071H49.959V26.5557H102.997V22.7071Z" fill="white"/>
<path d="M102.997 15.1382H42.4565V18.9869H102.997V15.1382Z" fill="white"/>
<path d="M102.997 30.2744H75.9121V34.123H102.997V30.2744Z" fill="white"/>
<path d="M54.0272 52.9799H0V56.8282H54.0272V52.9799Z" fill="white"/>
<path d="M54.0272 37.8424H0V41.6908H54.0272V37.8424Z" fill="white"/>
<path d="M60.5401 45.4107H0V49.2591H60.5401V45.4107Z" fill="white"/>
<path d="M34.1308 60.5487H0V64.397H34.1308V60.5487Z" fill="white"/>
</svg>
