<svg width="93" height="70" viewBox="0 0 93 70" fill="none" xmlns="http://www.w3.org/2000/svg">
<path d="M87.0782 0.313965H5.01623C2.29023 0.313965 0.0341797 2.57001 0.0341797 5.29601V64.61C0.0341797 67.336 2.29023 69.592 5.01623 69.592H87.0782C89.8042 69.592 92.0602 67.336 92.0602 64.61V5.29601C92.0602 2.57001 89.8042 0.313965 87.0782 0.313965ZM29.4562 5.48396H62.6382C63.3902 5.48396 63.9542 6.04799 63.9542 6.79999C63.9542 7.55199 63.3902 8.11601 62.6382 8.11601H29.4562C28.7042 8.11601 28.1402 7.55199 28.1402 6.79999C28.1402 6.04799 28.7042 5.48396 29.4562 5.48396ZM15.0742 5.48396C15.8262 5.48396 16.3902 6.04799 16.3902 6.79999C16.3902 7.55199 15.8262 8.11601 15.0742 8.11601C14.3222 8.11601 13.7582 7.55199 13.7582 6.79999C13.7582 6.04799 14.3222 5.48396 15.0742 5.48396ZM10.6562 5.48396C11.4082 5.48396 11.9722 6.04799 11.9722 6.79999C11.9722 7.55199 11.4082 8.11601 10.6562 8.11601C9.90423 8.11601 9.3402 7.55199 9.3402 6.79999C9.3402 6.04799 9.99823 5.48396 10.6562 5.48396ZM6.33219 5.48396C7.08419 5.48396 7.64821 6.04799 7.64821 6.79999C7.64821 7.55199 7.08419 8.11601 6.33219 8.11601C5.58019 8.11601 5.01623 7.55199 5.01623 6.79999C5.01623 6.04799 5.58019 5.48396 6.33219 5.48396ZM89.4282 64.704C89.4282 66.02 88.3942 67.054 87.0782 67.054H5.01623C3.70023 67.054 2.66623 66.02 2.66623 64.704V13.286H89.5222V64.704H89.4282Z" fill="white"/>
<path d="M34.8143 45.622L27.9523 40.828L34.8143 36.034L32.4643 32.744L20.9023 40.828L32.4643 48.912L34.8143 45.622Z" fill="white"/>
<path d="M53.8965 25.6H49.2905L38.1045 54.74H42.6165L53.8965 25.6Z" fill="white"/>
<path d="M59.5365 48.912L71.0985 40.828L59.5365 32.744L57.1865 36.034L64.0485 40.828L57.1865 45.622L59.5365 48.912Z" fill="white"/>
</svg>
