<svg width="9" height="9" viewBox="0 0 9 9" fill="none" xmlns="http://www.w3.org/2000/svg">
<path fill-rule="evenodd" clip-rule="evenodd" d="M1.74378 1.78918C1.74389 2.34513 2.1941 2.79535 2.74995 2.79535L5.05267 2.79524L1.07772 6.7702C0.684363 7.16355 0.684896 7.80065 1.07772 8.19347C1.47054 8.58629 2.10763 8.58682 2.50099 8.19347L6.47584 4.21862L6.47573 6.52134C6.47584 7.0773 6.92605 7.52751 7.4819 7.52751C8.03743 7.52783 8.4886 7.07666 8.48807 6.52134L8.48807 1.79088C8.48797 1.65916 8.46145 1.52723 8.40981 1.40232C8.40789 1.39742 8.40459 1.39327 8.40225 1.38794C8.35326 1.27528 8.28554 1.16965 8.19354 1.07765C8.10154 0.985646 7.9958 0.917815 7.88335 0.868833C7.87813 0.866596 7.8743 0.863614 7.86908 0.861379C7.74524 0.80952 7.6133 0.783006 7.48041 0.783006L2.74995 0.783008C2.19442 0.782476 1.74378 1.23312 1.74378 1.78918Z" fill="#0873BA"/>
</svg>
