<svg width="42" height="42" viewBox="0 0 42 42" fill="none" xmlns="http://www.w3.org/2000/svg">
<path d="M31.1818 20.3636C31.5333 20.3636 31.8182 20.6485 31.8182 21V31.1818C31.8182 31.5333 31.5333 31.8182 31.1818 31.8182H10.8182C10.4667 31.8182 10.1818 31.5333 10.1818 31.1818V10.8182C10.1818 10.4667 10.4667 10.1818 10.8182 10.1818H21C21.3515 10.1818 21.6364 10.4667 21.6364 10.8182V20.3636H31.1818ZM11.4545 30.5455H20.3636V21.6364H11.4545V30.5455ZM11.4545 20.3636H20.3636V11.4545H11.4545V20.3636ZM21.6364 30.5455H30.5455V21.6364H21.6364V30.5455ZM31.1818 0H41.3636C41.7151 0 42 0.28491 42 0.636364V10.8182C42 11.1696 41.7151 11.4545 41.3636 11.4545H31.1818C30.8304 11.4545 30.5455 11.1696 30.5455 10.8182V0.636364C30.5455 0.28491 30.8304 0 31.1818 0ZM31.8182 1.27273V10.1818H40.7273V1.27273H31.8182ZM40.7273 18.4545C40.7273 18.1031 41.0122 17.8182 41.3636 17.8182C41.7151 17.8182 42 18.1031 42 18.4545V37.5455C42 40.0056 40.0056 42 37.5455 42H4.45455C1.99437 42 0 40.0056 0 37.5455V4.45455C0 1.99437 1.99437 0 4.45455 0H23.5455C23.8969 0 24.1818 0.28491 24.1818 0.636364C24.1818 0.987818 23.8969 1.27273 23.5455 1.27273H4.45455C2.69728 1.27273 1.27273 2.69728 1.27273 4.45455V37.5455C1.27273 39.3027 2.69728 40.7273 4.45455 40.7273H37.5455C39.3027 40.7273 40.7273 39.3027 40.7273 37.5455V18.4545Z" fill="white"/>
</svg>
