<svg width="58" height="38" viewBox="0 0 58 38" fill="none" xmlns="http://www.w3.org/2000/svg">
<path d="M53.266 34.6807H3.86987V4.51236C3.86987 2.02025 5.89013 0 8.38223 0H48.7536C51.2457 0 53.266 2.02025 53.266 4.51236V34.6807ZM51.461 32.8758V4.51236C51.461 3.0171 50.2489 1.80494 48.7536 1.80494H8.38223C6.88697 1.80494 5.67482 3.0171 5.67482 4.51236V32.8758H51.461Z" fill="#B1B1B1"/>
<path d="M1.89058 34.6807C2.13918 35.5014 2.90152 36.0988 3.8034 36.0988H53.3323C54.2342 36.0988 54.9965 35.5014 55.2451 34.6807H1.89058ZM57.1124 33.679C57.1278 33.8184 57.1356 33.9591 57.1356 34.1005C57.1356 36.201 55.4328 37.9038 53.3323 37.9038H3.8034C1.70291 37.9038 0.00012207 36.201 0.00012207 34.1005C0.00012207 33.9591 0.00787986 33.8184 0.0232903 33.679C0.073838 33.2218 0.460251 32.8757 0.920298 32.8757H56.2154C56.6754 32.8757 57.0618 33.2218 57.1124 33.679Z" fill="#B1B1B1"/>
<path d="M27.4686 20.0547L24.2479 16.4778L22.9066 17.6855L26.1272 21.2624L27.4686 20.0547Z" fill="#B1B1B1"/>
<path d="M25.1318 20.0693L32.506 13.8816L33.6662 15.2643L26.292 21.452L25.1318 20.0693Z" fill="#B1B1B1"/>
</svg>
