<svg width="222" height="182" viewBox="0 0 222 182" fill="none" xmlns="http://www.w3.org/2000/svg">
<g opacity="0.03" clip-path="url(#clip0_61_1170)">
<path d="M6.25833 182C9.71471 182 12.5167 179.191 12.5167 175.725C12.5167 172.26 9.71471 169.45 6.25833 169.45C2.80195 169.45 0 172.26 0 175.725C0 179.191 2.80195 182 6.25833 182Z" fill="white"/>
<path d="M48.1607 182C51.6171 182 54.419 179.191 54.419 175.725C54.419 172.26 51.6171 169.45 48.1607 169.45C44.7043 169.45 41.9023 172.26 41.9023 175.725C41.9023 179.191 44.7043 182 48.1607 182Z" fill="white"/>
<path d="M90.063 182C93.5194 182 96.3213 179.191 96.3213 175.725C96.3213 172.26 93.5194 169.45 90.063 169.45C86.6066 169.45 83.8047 172.26 83.8047 175.725C83.8047 179.191 86.6066 182 90.063 182Z" fill="white"/>
<path d="M131.937 169.45C130.7 169.456 129.493 169.829 128.468 170.522C127.442 171.215 126.645 172.196 126.175 173.344C125.706 174.491 125.586 175.751 125.831 176.967C126.075 178.182 126.674 179.297 127.55 180.172C128.426 181.047 129.542 181.642 130.755 181.881C131.968 182.121 133.225 181.995 134.367 181.52C135.509 181.044 136.484 180.24 137.171 179.208C137.857 178.177 138.224 176.965 138.224 175.725C138.224 174.899 138.061 174.08 137.745 173.317C137.428 172.554 136.965 171.861 136.381 171.278C135.796 170.695 135.103 170.233 134.341 169.92C133.578 169.606 132.761 169.447 131.937 169.45Z" fill="white"/>
<path d="M173.839 169.45C172.602 169.45 171.392 169.818 170.362 170.508C169.333 171.197 168.531 172.177 168.057 173.324C167.584 174.47 167.46 175.732 167.701 176.949C167.943 178.167 168.539 179.285 169.414 180.162C170.289 181.04 171.404 181.637 172.618 181.879C173.832 182.122 175.091 181.997 176.234 181.522C177.378 181.047 178.355 180.243 179.043 179.211C179.731 178.179 180.098 176.966 180.098 175.725C180.101 174.9 179.942 174.082 179.629 173.319C179.316 172.556 178.855 171.863 178.273 171.28C177.691 170.696 177 170.234 176.239 169.92C175.478 169.606 174.662 169.446 173.839 169.45Z" fill="white"/>
<path d="M215.742 182C219.198 182 222 179.191 222 175.725C222 172.26 219.198 169.45 215.742 169.45C212.285 169.45 209.483 172.26 209.483 175.725C209.483 179.191 212.285 182 215.742 182Z" fill="white"/>
<path d="M6.25833 148.116C9.71471 148.116 12.5167 145.306 12.5167 141.841C12.5167 138.375 9.71471 135.566 6.25833 135.566C2.80195 135.566 0 138.375 0 141.841C0 145.306 2.80195 148.116 6.25833 148.116Z" fill="white"/>
<path d="M48.1607 148.116C51.6171 148.116 54.419 145.306 54.419 141.841C54.419 138.375 51.6171 135.566 48.1607 135.566C44.7043 135.566 41.9023 138.375 41.9023 141.841C41.9023 145.306 44.7043 148.116 48.1607 148.116Z" fill="white"/>
<path d="M90.063 148.116C93.5194 148.116 96.3213 145.306 96.3213 141.841C96.3213 138.375 93.5194 135.566 90.063 135.566C86.6066 135.566 83.8047 138.375 83.8047 141.841C83.8047 145.306 86.6066 148.116 90.063 148.116Z" fill="white"/>
<path d="M131.937 135.566C130.7 135.572 129.493 135.944 128.468 136.637C127.442 137.33 126.645 138.312 126.175 139.459C125.706 140.606 125.586 141.867 125.831 143.082C126.075 144.298 126.674 145.413 127.55 146.288C128.426 147.163 129.542 147.757 130.755 147.997C131.968 148.237 133.225 148.111 134.367 147.635C135.509 147.16 136.484 146.355 137.171 145.324C137.857 144.293 138.224 143.081 138.224 141.841C138.224 141.014 138.061 140.196 137.745 139.433C137.428 138.67 136.965 137.977 136.381 137.394C135.796 136.811 135.103 136.349 134.341 136.035C133.578 135.722 132.761 135.562 131.937 135.566Z" fill="white"/>
<path d="M173.839 135.566C172.602 135.566 171.392 135.934 170.362 136.623C169.333 137.313 168.531 138.293 168.057 139.44C167.584 140.586 167.46 141.848 167.701 143.065C167.943 144.282 168.539 145.4 169.414 146.278C170.289 147.155 171.404 147.753 172.618 147.995C173.832 148.237 175.091 148.113 176.234 147.638C177.378 147.163 178.355 146.359 179.043 145.327C179.731 144.295 180.098 143.082 180.098 141.841C180.101 141.016 179.942 140.198 179.629 139.435C179.316 138.672 178.855 137.979 178.273 137.395C177.691 136.812 177 136.35 176.239 136.036C175.478 135.722 174.662 135.562 173.839 135.566Z" fill="white"/>
<path d="M215.742 148.116C219.198 148.116 222 145.306 222 141.841C222 138.375 219.198 135.566 215.742 135.566C212.285 135.566 209.483 138.375 209.483 141.841C209.483 145.306 212.285 148.116 215.742 148.116Z" fill="white"/>
<path d="M6.2581 101.653C5.01349 101.647 3.79523 102.012 2.75763 102.702C1.72004 103.391 0.909827 104.373 0.429631 105.525C-0.0505655 106.676 -0.17913 107.944 0.0602241 109.169C0.299579 110.393 0.896081 111.519 1.77416 112.404C2.65224 113.288 3.77238 113.891 4.99266 114.137C6.21295 114.382 7.47846 114.259 8.62888 113.783C9.77929 113.307 10.7628 112.499 11.4549 111.461C12.147 110.424 12.5164 109.204 12.5164 107.957C12.5164 106.29 11.858 104.691 10.6851 103.509C9.51229 102.328 7.92052 101.661 6.2581 101.653Z" fill="white"/>
<path d="M48.1609 101.653C46.9163 101.647 45.6981 102.012 44.6605 102.702C43.6229 103.391 42.8127 104.373 42.3325 105.525C41.8523 106.676 41.7237 107.944 41.9631 109.169C42.2024 110.393 42.7989 111.519 43.677 112.404C44.5551 113.288 45.6752 113.891 46.8955 114.137C48.1158 114.382 49.3813 114.259 50.5317 113.783C51.6821 113.307 52.6657 112.499 53.3577 111.461C54.0498 110.424 54.4192 109.204 54.4193 107.957C54.423 107.13 54.2639 106.311 53.9511 105.546C53.6382 104.782 53.1778 104.087 52.5963 103.501C52.0148 102.915 51.3236 102.451 50.5625 102.134C49.8013 101.816 48.9852 101.653 48.1609 101.653Z" fill="white"/>
<path d="M90.0633 101.653C88.8187 101.647 87.6004 102.012 86.5628 102.702C85.5252 103.391 84.715 104.373 84.2348 105.525C83.7546 106.676 83.626 107.944 83.8654 109.169C84.1048 110.393 84.7013 111.519 85.5793 112.404C86.4574 113.288 87.5775 113.891 88.7978 114.137C90.0181 114.382 91.2836 114.259 92.4341 113.783C93.5845 113.307 94.568 112.499 95.2601 111.461C95.9521 110.424 96.3216 109.204 96.3216 107.957C96.3216 106.29 95.6632 104.691 94.4903 103.509C93.3175 102.328 91.7257 101.661 90.0633 101.653Z" fill="white"/>
<path d="M131.937 101.653C130.694 101.653 129.478 102.023 128.444 102.715C127.411 103.408 126.605 104.392 126.129 105.544C125.653 106.696 125.529 107.963 125.771 109.186C126.014 110.409 126.613 111.532 127.492 112.414C128.371 113.295 129.491 113.896 130.711 114.139C131.93 114.382 133.194 114.257 134.343 113.78C135.492 113.303 136.474 112.495 137.164 111.458C137.855 110.422 138.224 109.203 138.224 107.956C138.224 106.285 137.562 104.681 136.383 103.499C135.204 102.317 133.605 101.653 131.937 101.653Z" fill="white"/>
<path d="M173.839 101.653C172.595 101.647 171.376 102.012 170.339 102.702C169.301 103.391 168.491 104.373 168.011 105.525C167.53 106.676 167.402 107.944 167.641 109.169C167.881 110.393 168.477 111.519 169.355 112.404C170.233 113.288 171.353 113.891 172.574 114.137C173.794 114.382 175.06 114.259 176.21 113.783C177.36 113.307 178.344 112.499 179.036 111.461C179.728 110.424 180.097 109.204 180.097 107.957C180.101 107.13 179.942 106.311 179.629 105.546C179.316 104.782 178.856 104.087 178.275 103.501C177.693 102.915 177.002 102.451 176.241 102.134C175.48 101.816 174.663 101.653 173.839 101.653Z" fill="white"/>
<path d="M215.742 101.653C214.492 101.625 213.263 101.97 212.211 102.645C211.158 103.32 210.331 104.295 209.833 105.444C209.335 106.593 209.19 107.864 209.416 109.096C209.643 110.328 210.23 111.465 211.103 112.361C211.977 113.257 213.096 113.871 214.32 114.126C215.543 114.381 216.814 114.265 217.971 113.792C219.128 113.32 220.119 112.512 220.816 111.473C221.513 110.433 221.886 109.209 221.886 107.956C221.886 106.309 221.244 104.727 220.095 103.549C218.947 102.371 217.384 101.69 215.742 101.653Z" fill="white"/>
<path d="M6.25833 80.3469C9.71471 80.3469 12.5167 77.5375 12.5167 74.072C12.5167 70.6065 9.71471 67.7971 6.25833 67.7971C2.80195 67.7971 0 70.6065 0 74.072C0 77.5375 2.80195 80.3469 6.25833 80.3469Z" fill="white"/>
<path d="M48.1607 80.3469C51.6171 80.3469 54.419 77.5375 54.419 74.072C54.419 70.6065 51.6171 67.7971 48.1607 67.7971C44.7043 67.7971 41.9023 70.6065 41.9023 74.072C41.9023 77.5375 44.7043 80.3469 48.1607 80.3469Z" fill="white"/>
<path d="M90.063 80.3469C93.5194 80.3469 96.3213 77.5375 96.3213 74.072C96.3213 70.6065 93.5194 67.7971 90.063 67.7971C86.6066 67.7971 83.8047 70.6065 83.8047 74.072C83.8047 77.5375 86.6066 80.3469 90.063 80.3469Z" fill="white"/>
<path d="M131.937 67.7688C130.697 67.7689 129.485 68.1365 128.453 68.8255C127.421 69.5144 126.616 70.4938 126.137 71.6406C125.659 72.7875 125.53 74.0505 125.766 75.2708C126.001 76.4911 126.592 77.6144 127.462 78.4992C128.333 79.3841 129.445 79.9911 130.659 80.2439C131.873 80.4967 133.134 80.384 134.284 79.92C135.435 79.456 136.422 78.6614 137.123 77.6361C137.824 76.6109 138.207 75.4007 138.224 74.1578C138.235 73.3228 138.081 72.4939 137.77 71.7193C137.459 70.9446 136.998 70.2396 136.413 69.6452C135.828 69.0508 135.131 68.5788 134.363 68.2567C133.594 67.9346 132.77 67.7687 131.937 67.7688Z" fill="white"/>
<path d="M173.839 67.7686C172.598 67.7631 171.383 68.1259 170.348 68.8114C169.312 69.4969 168.502 70.4744 168.019 71.6207C167.537 72.767 167.403 74.0308 167.636 75.253C167.868 76.4752 168.456 77.6011 169.326 78.4888C170.195 79.3765 171.308 79.9863 172.522 80.2414C173.737 80.4965 174.999 80.3855 176.151 79.9224C177.303 79.4593 178.292 78.6647 178.995 77.6389C179.697 76.613 180.081 75.4017 180.097 74.1576C180.113 73.324 179.962 72.4958 179.654 71.7212C179.346 70.9467 178.888 70.2414 178.305 69.6466C177.722 69.0518 177.027 68.5794 176.261 68.2569C175.494 67.9345 174.671 67.7685 173.839 67.7686Z" fill="white"/>
<path d="M215.742 80.3469C219.198 80.3469 222 77.5375 222 74.072C222 70.6065 219.198 67.7971 215.742 67.7971C212.285 67.7971 209.483 70.6065 209.483 74.072C209.483 77.5375 212.285 80.3469 215.742 80.3469Z" fill="white"/>
<path d="M6.25833 46.434C9.71471 46.434 12.5167 43.6247 12.5167 40.1592C12.5167 36.6936 9.71471 33.8843 6.25833 33.8843C2.80195 33.8843 0 36.6936 0 40.1592C0 43.6247 2.80195 46.434 6.25833 46.434Z" fill="white"/>
<path d="M48.1607 46.434C51.6171 46.434 54.419 43.6247 54.419 40.1592C54.419 36.6936 51.6171 33.8843 48.1607 33.8843C44.7043 33.8843 41.9023 36.6936 41.9023 40.1592C41.9023 43.6247 44.7043 46.434 48.1607 46.434Z" fill="white"/>
<path d="M90.063 46.434C93.5194 46.434 96.3213 43.6247 96.3213 40.1592C96.3213 36.6936 93.5194 33.8843 90.063 33.8843C86.6066 33.8843 83.8047 36.6936 83.8047 40.1592C83.8047 43.6247 86.6066 46.434 90.063 46.434Z" fill="white"/>
<path d="M131.937 33.8843C130.692 33.8843 129.476 34.2547 128.441 34.9486C127.407 35.6425 126.601 36.6286 126.126 37.7821C125.651 38.9356 125.528 40.2044 125.773 41.4279C126.018 42.6514 126.62 43.7745 127.502 44.6549C128.384 45.5353 129.507 46.1334 130.728 46.3734C131.95 46.6134 133.214 46.4845 134.363 46.003C135.511 45.5216 136.491 44.7092 137.178 43.6689C137.866 42.6285 138.23 41.407 138.224 40.1592C138.216 38.4923 137.551 36.8964 136.372 35.7204C135.194 34.5444 133.6 33.8843 131.937 33.8843Z" fill="white"/>
<path d="M173.839 33.8843C172.593 33.8787 171.374 34.2443 170.336 34.9348C169.297 35.6252 168.487 36.6094 168.008 37.7623C167.529 38.9153 167.402 40.185 167.643 41.4104C167.885 42.6358 168.484 43.7616 169.365 44.6449C170.246 45.5281 171.369 46.129 172.591 46.3713C173.813 46.6136 175.08 46.4864 176.23 46.0058C177.38 45.5252 178.361 44.7128 179.05 43.6719C179.738 42.6309 180.103 41.4083 180.097 40.1592C180.097 38.495 179.438 36.899 178.264 35.7222C177.091 34.5454 175.499 33.8843 173.839 33.8843Z" fill="white"/>
<path d="M215.742 46.434C219.198 46.434 222 43.6247 222 40.1592C222 36.6936 219.198 33.8843 215.742 33.8843C212.285 33.8843 209.483 36.6936 209.483 40.1592C209.483 43.6247 212.285 46.434 215.742 46.434Z" fill="white"/>
<path d="M6.25833 0C5.02055 0 3.81057 0.368015 2.78139 1.05751C1.75221 1.747 0.950068 2.727 0.47639 3.87359C0.00271164 5.02017 -0.121224 6.28184 0.120255 7.49905C0.361734 8.71625 0.957782 9.83433 1.83303 10.7119C2.70827 11.5894 3.8234 12.1871 5.03739 12.4292C6.25139 12.6713 7.50973 12.547 8.65329 12.0721C9.79685 11.5972 10.7743 10.7929 11.4619 9.76101C12.1496 8.72912 12.5167 7.51593 12.5167 6.27488C12.5092 4.61299 11.8474 3.0213 10.6754 1.84616C9.50332 0.671014 7.91584 0.007503 6.25833 0V0Z" fill="white"/>
<path d="M48.1607 0C46.9229 0 45.7129 0.368015 44.6837 1.05751C43.6546 1.747 42.8524 2.727 42.3787 3.87359C41.9051 5.02017 41.7811 6.28184 42.0226 7.49905C42.2641 8.71625 42.8601 9.83433 43.7354 10.7119C44.6106 11.5894 45.7257 12.1871 46.9397 12.4292C48.1537 12.6713 49.4121 12.547 50.5556 12.0721C51.6992 11.5972 52.6766 10.7929 53.3643 9.76101C54.052 8.72912 54.419 7.51593 54.419 6.27488C54.419 4.61068 53.7597 3.01464 52.586 1.83787C51.4123 0.661101 49.8205 0 48.1607 0V0Z" fill="white"/>
<path d="M90.063 0C88.8252 0 87.6153 0.368015 86.5861 1.05751C85.5569 1.747 84.7548 2.727 84.2811 3.87359C83.8074 5.02017 83.6835 6.28184 83.9249 7.49905C84.1664 8.71625 84.7625 9.83433 85.6377 10.7119C86.513 11.5894 87.6281 12.1871 88.8421 12.4292C90.0561 12.6713 91.3144 12.547 92.458 12.0721C93.6015 11.5972 94.579 10.7929 95.2666 9.76101C95.9543 8.72912 96.3214 7.51593 96.3214 6.27488C96.3139 4.61299 95.6521 3.0213 94.4801 1.84616C93.308 0.671014 91.7205 0.007503 90.063 0Z" fill="white"/>
<path d="M131.937 3.30782e-10C130.7 0.00563562 129.493 0.378435 128.468 1.07134C127.442 1.76425 126.645 2.74622 126.175 3.89328C125.706 5.04035 125.586 6.30112 125.831 7.51644C126.075 8.73176 126.674 9.84717 127.55 10.7219C128.426 11.5966 129.542 12.1914 130.755 12.4312C131.968 12.671 133.225 12.5451 134.367 12.0693C135.509 11.5936 136.484 10.7893 137.171 9.75803C137.857 8.72676 138.224 7.51472 138.224 6.27488C138.216 4.60806 137.55 3.01208 136.372 1.83613C135.194 0.660173 133.599 -1.70637e-05 131.937 3.30783e-10V3.30782e-10Z" fill="white"/>
<path d="M173.839 0C172.602 0 171.392 0.368015 170.362 1.05751C169.333 1.747 168.531 2.727 168.057 3.87359C167.584 5.02017 167.46 6.28184 167.701 7.49905C167.943 8.71625 168.539 9.83433 169.414 10.7119C170.289 11.5894 171.404 12.1871 172.618 12.4292C173.832 12.6713 175.091 12.547 176.234 12.0721C177.378 11.5972 178.355 10.7929 179.043 9.76101C179.731 8.72912 180.098 7.51593 180.098 6.27488C180.098 4.61068 179.438 3.01464 178.265 1.83787C177.091 0.661101 175.499 0 173.839 0V0Z" fill="white"/>
<path d="M215.742 6.10967e-05C214.499 -0.022591 213.278 0.326082 212.234 1.00166C211.19 1.67724 210.37 2.64914 209.879 3.79354C209.388 4.93794 209.248 6.20304 209.476 7.42767C209.705 8.6523 210.292 9.78101 211.162 10.67C212.033 11.559 213.148 12.1681 214.365 12.4196C215.582 12.6711 216.846 12.5537 217.996 12.0823C219.146 11.6109 220.13 10.8069 220.823 9.77264C221.516 8.73841 221.886 7.52081 221.886 6.27494C221.879 4.63253 221.233 3.05772 220.086 1.88575C218.938 0.713777 217.379 0.037205 215.742 6.10967e-05Z" fill="white"/>
</g>
<defs>
<clipPath id="clip0_61_1170">
<rect width="222" height="182" fill="white"/>
</clipPath>
</defs>
</svg>
