<svg width="36" height="36" viewBox="0 0 36 36" fill="none" xmlns="http://www.w3.org/2000/svg">
<path d="M27.6065 20.4709C28.1344 19.9352 28.1344 19.0673 27.6065 18.5315C27.0792 17.9958 26.2227 17.9958 25.6954 18.5315L19.3448 24.9763V1.37148C19.3448 0.614079 18.7397 0 17.9934 0C17.247 0 16.6419 0.614079 16.6419 1.37148V24.9763L10.3048 18.5452C9.77756 18.0095 8.92105 18.0095 8.39376 18.5452C7.86586 19.081 7.86586 19.9488 8.39376 20.4846L17.0368 29.2558C17.0997 29.3198 17.1692 29.377 17.2435 29.4274C17.277 29.4502 17.3133 29.4656 17.3482 29.485C17.3907 29.5085 17.4314 29.5346 17.4762 29.5535C17.5209 29.5723 17.5673 29.583 17.6133 29.5966C17.6518 29.6082 17.6887 29.6232 17.7285 29.6312C17.8159 29.6489 17.9045 29.6582 17.9932 29.6582C18.0818 29.6582 18.1704 29.6489 18.2578 29.6312C18.2976 29.6232 18.3345 29.608 18.373 29.5966C18.419 29.583 18.4654 29.5723 18.5101 29.5535C18.5549 29.5346 18.5958 29.5087 18.6381 29.485C18.673 29.4656 18.7091 29.45 18.7428 29.4274C18.8171 29.377 18.8866 29.3196 18.9495 29.2558L27.6065 20.4709ZM1.35199 33.257H34.6486C35.3949 33.257 36 33.8711 36 34.6285C36 35.3859 35.3949 36 34.6486 36H1.35144C0.605106 36 0 35.3859 0 34.6285C0 33.8711 0.605106 33.257 1.35144 33.257H1.35199Z" fill="#A0A0A0"/>
</svg>
