<svg width="41" height="41" viewBox="0 0 41 41" fill="none" xmlns="http://www.w3.org/2000/svg">
<path d="M2.2187 17.5191H2.53035C3.79461 9.83759 9.83852 3.79414 17.5186 2.53082V2.21916C17.5186 0.99526 18.5139 0 19.7378 0H21.2613C22.4852 0 23.4804 0.99526 23.4804 2.21916V2.53082C31.1615 3.7946 37.2054 9.83805 38.4692 17.5191H38.7808C40.0047 17.5191 41 18.5143 41 19.7382V21.2617C41 22.4856 40.0047 23.4809 38.7808 23.4809H38.4692C37.2054 31.1624 31.1619 37.2063 23.4809 38.4692V38.7808C23.4809 40.0047 22.4857 41 21.2618 41H19.7383C18.5144 41 17.5191 40.0047 17.5191 38.7808V38.4692C9.84408 37.2063 3.79553 31.1601 2.53128 23.4809H2.21916C0.995262 23.4809 0 22.4856 0 21.2617V19.7382C-0.000465393 18.5148 0.994797 17.5191 2.2187 17.5191ZM3.94069 17.5191H8.51305C9.60477 12.5567 12.5586 9.60292 17.5186 8.51351V3.94069C10.6088 5.17433 5.17572 10.6075 3.94069 17.5191ZM9.92756 23.4508C10.9219 27.6312 13.3678 30.0776 17.5492 31.0724C17.6981 29.9923 18.6178 29.1547 19.7383 29.1547H21.2618C22.3822 29.1547 23.301 29.9918 23.4503 31.072C27.6247 30.0795 30.0688 27.6326 31.0701 23.4503C29.9914 23.3 29.1557 22.3808 29.1557 21.2617V19.7382C29.1557 18.6192 29.9914 17.7 31.0697 17.5497C30.0674 13.3678 27.6238 10.921 23.4503 9.92849C23.3014 11.0082 22.3818 11.8453 21.2618 11.8453H19.7383C18.6178 11.8453 17.6986 11.0077 17.5497 9.92802C13.3697 10.9214 10.9242 13.3678 9.92895 17.5497C11.0082 17.6986 11.8453 18.6182 11.8453 19.7382V21.2617C11.8453 22.3827 11.0077 23.3019 9.92756 23.4508ZM22.0896 2.21916C22.0896 1.76281 21.7181 1.39132 21.2618 1.39132H19.7383C19.2819 1.39132 18.9104 1.76281 18.9104 2.21916V9.05056C18.9113 9.0719 18.9118 9.09323 18.9104 9.1141V9.62611C18.9104 10.0825 19.2819 10.4539 19.7383 10.4539H21.2618C21.7181 10.4539 22.0896 10.0825 22.0896 9.62611V2.21916ZM23.4809 3.94116V8.51398C28.434 9.60292 31.3869 12.5562 32.4865 17.5191H37.0588C35.8243 10.6079 30.3912 5.1748 23.4809 3.94116ZM39.6087 21.2622V19.7387C39.6087 19.2824 39.2372 18.9109 38.7808 18.9109H31.3744C30.918 18.9109 30.5465 19.2824 30.5465 19.7387V21.2622C30.5465 21.7186 30.918 22.09 31.3744 22.09H37.8185C37.8245 22.0896 37.8301 22.0905 37.8361 22.09H38.7808C39.2372 22.09 39.6087 21.7186 39.6087 21.2622ZM37.0588 23.4814H32.487C31.3887 28.4447 28.4354 31.3985 23.4809 32.487V37.0598C30.3921 35.8261 35.8252 30.393 37.0588 23.4814ZM18.91 38.7813C18.91 39.2377 19.2814 39.6091 19.7378 39.6091H21.2613C21.7176 39.6091 22.0891 39.2377 22.0891 38.7813V31.3739C22.0891 30.9175 21.7176 30.5461 21.2613 30.5461H19.7378C19.2814 30.5461 18.91 30.9175 18.91 31.3739V38.7813ZM17.5186 37.0593V32.4874C12.5567 31.3962 9.60292 28.4424 8.51258 23.4814H3.94023C5.17434 30.3907 10.613 35.8261 17.5186 37.0593ZM1.39086 21.2622C1.39086 21.7186 1.76234 22.09 2.2187 22.09H9.08024C9.08535 22.09 9.08998 22.09 9.09462 22.09H9.62611C10.0825 22.09 10.4539 21.7186 10.4539 21.2622V19.7387C10.4539 19.2824 10.0825 18.9109 9.62611 18.9109H2.2187C1.76234 18.9109 1.39086 19.2824 1.39086 19.7387V21.2622Z" fill="#A0A0A0"/>
</svg>
