<svg width="217" height="198" viewBox="0 0 217 198" fill="none" xmlns="http://www.w3.org/2000/svg">
<g opacity="0.9">
<path d="M202.19 121.972C202.131 122.105 202.059 122.232 201.975 122.351C201.3 123.329 200.489 124.206 199.566 124.955C197.36 126.612 194.802 127.74 192.09 128.252C189.953 128.708 187.774 128.94 185.588 128.944C170.521 129.092 151.378 120.703 137.929 109.082C134.773 106.355 131.889 103.33 129.314 100.05L128.852 99.4564C127.634 97.8266 126.531 96.1137 125.552 94.3303L126.08 94.0831L127.516 93.4897C127.651 93.4591 127.78 93.4032 127.895 93.3249C128.93 92.8372 129.849 92.1353 130.592 91.2658C131.334 90.3962 131.883 89.3788 132.202 88.2812C132.417 87.7043 132.598 87.0779 132.78 86.4186C132.778 86.3802 132.778 86.3417 132.78 86.3032C132.912 85.6934 133.044 85.067 133.159 84.3748C133.324 83.3693 133.423 82.298 133.506 81.0782C133.644 78.1458 133.533 75.2069 133.176 72.293C132.757 68.5487 132.084 64.8371 131.163 61.1836C130.585 58.8596 129.925 56.4861 129.182 54.0961C126.102 44.2445 121.77 34.8277 116.294 26.0756C115.139 24.3119 113.967 22.6142 112.762 21.0154C112.449 20.5868 112.152 20.1912 111.838 19.8121C109.945 17.4044 107.823 15.1854 105.501 13.1861C103.27 11.062 100.494 9.59584 97.4809 8.95006C96.7367 8.84184 95.9807 8.84184 95.2365 8.95006L93.3882 9.67529L93.6853 9.49399L93.9493 9.4775L93.7018 9.5764L90.4012 10.9445L89.7742 11.2247C87.6618 12.1477 84.9224 13.4993 82.8101 14.5212C83.1463 14.3623 83.5111 14.2726 83.8827 14.2575C84.4974 14.2382 85.111 14.3217 85.698 14.5047C88.5017 15.6901 91.0009 17.4932 93.0087 19.7792C95.3166 22.1142 97.4562 24.6093 99.4117 27.2458C99.5437 27.4107 99.6592 27.6084 99.7912 27.7733C101.243 29.7182 102.679 31.7786 104.082 33.9213C108.826 41.2827 112.997 48.9973 116.558 56.9971C117.647 59.4695 118.67 61.9419 119.611 64.3813C121.131 68.27 122.442 72.237 123.538 76.2653C124.294 79.0957 124.845 81.9766 125.189 84.8857C125.321 85.9736 125.403 86.9625 125.436 87.8856C125.48 89.0474 125.425 90.2109 125.271 91.3634C125.271 92.1987 125.066 93.0213 124.675 93.7595C124.284 94.4978 123.718 95.1295 123.027 95.5995L122.862 95.6984C124.107 98.0073 125.536 100.212 127.136 102.291L127.78 103.132C140.388 119.285 163.92 134.054 180.918 136.378C182.507 136.613 184.114 136.718 185.72 136.691C187.997 136.711 190.25 136.232 192.321 135.29C193.352 134.797 194.277 134.109 195.044 133.262L195.49 132.702L196.084 131.845C196.178 131.726 196.261 131.599 196.331 131.466C196.826 130.757 197.354 129.949 197.883 129.158C198.411 128.367 199.17 127.164 199.78 126.125L200.308 125.301C200.308 125.153 200.49 125.021 200.556 124.889L200.82 124.477L201.513 123.257C201.728 122.911 201.909 122.565 202.107 122.235L202.701 121.214C202.741 121.11 202.79 121.011 202.85 120.917C202.795 120.975 202.75 121.042 202.718 121.115C202.718 121.247 202.569 121.378 202.487 121.494L202.949 120.686L202.388 121.659C202.371 121.659 202.272 121.807 202.19 121.972Z" fill="#0873BA"/>
<path d="M183.79 147.075C183.036 147.658 182.118 147.992 181.166 148.031C179.491 148.103 177.816 147.885 176.215 147.388C175.096 147.078 173.994 146.71 172.914 146.284C165.067 142.809 157.724 138.297 151.081 132.867C146.442 129.271 142.007 125.419 137.797 121.329C132.828 116.59 128.237 111.47 124.067 106.016C122.257 103.677 120.603 101.221 119.116 98.6652C118.951 98.4179 118.819 98.1542 118.67 97.907C118.522 97.6597 118.67 97.907 118.67 97.907L117.169 98.8135H117.07C116.756 99.0113 116.442 99.2421 116.079 99.4563H115.898C116.145 99.308 116.277 98.9454 116.277 98.4179C116.255 97.7591 116.149 97.1057 115.964 96.473C115.749 95.7148 115.452 94.8247 115.04 93.7039C114.743 92.9457 114.396 92.0556 114 91.1326C112.944 88.7426 111.607 85.9735 110.039 82.8913C107.894 78.7706 105.32 74.2049 102.498 69.4414C97.2995 60.6891 91.21 51.3105 85.3516 43.0691C83.9324 41.0747 82.5132 39.1462 81.1435 37.3002C79.7737 35.4541 78.272 33.5421 76.9848 31.9928C74.8247 29.2098 72.4285 26.6179 69.8227 24.2459C69.3217 23.8274 68.7667 23.4781 68.1724 23.2075C67.8961 23.0381 67.5699 22.9682 67.2483 23.0097C67.1551 23.0623 67.0668 23.123 66.9842 23.191L66.5882 23.4547C65.5815 24.0976 64.5749 24.7404 63.6672 25.3503C63.5517 25.4491 63.4197 25.5151 63.3042 25.5975L63.1721 25.6964C62.116 26.4216 60.8948 27.3447 59.6736 28.1688C59.5634 28.2377 59.4586 28.3148 59.36 28.3995C59.2445 28.4984 59.129 28.5644 59.0135 28.6468C58.5844 28.927 58.1884 29.2237 57.7923 29.5039L57.4292 29.7676C57.3604 29.8332 57.2826 29.8887 57.1982 29.9324C57.1731 29.9784 57.132 30.0136 57.0827 30.0313H56.9672C56.9151 30.0858 56.8536 30.1305 56.7856 30.1632L57.5448 31.1027L59.0135 33.0147C60.6638 35.2399 63.3867 38.7671 66.9347 43.4482L68.717 46.1514L79.4602 60.4419L86.6388 70.0348C91.6886 76.8092 96.5404 83.3528 100.65 88.8415L106.376 96.5719C106.97 97.3631 107.52 98.0883 108.026 98.7476C108.686 99.6377 109.247 100.396 109.676 100.989C110.634 102.324 111.096 102.967 111.096 103C110.353 103.561 109.445 104.22 108.769 104.797C108.667 104.895 108.557 104.983 108.439 105.06C109.297 106.082 110.221 107.203 111.228 108.456C112.449 109.989 113.786 111.752 115.238 113.631C116.773 115.692 118.373 117.851 119.974 120.093C125.651 128.004 131.526 136.888 136.757 145.196C139.645 149.811 142.302 154.245 144.563 158.25C146.345 161.398 147.863 164.266 149.085 166.739L149.349 166.557L149.085 166.739C149.514 167.612 149.893 168.387 150.207 169.145C150.677 170.158 151.085 171.198 151.428 172.26C151.824 173.48 151.907 174.255 151.676 174.568L152.6 173.975L153.26 173.529C155.488 171.997 158.211 169.953 160.636 168.222L161.874 167.299C161.411 166.9 160.985 166.458 160.603 165.98C160.042 165.321 159.3 164.431 158.409 163.343C157.88 162.733 157.336 162.041 156.758 161.299L156.494 161.497L156.758 161.299C154.844 158.926 152.534 156.041 149.976 152.811C144.596 146.02 138.094 137.68 131.691 129.356L131.575 129.191C126.889 123.109 122.251 117.027 118.142 111.588C117.598 110.846 117.053 110.154 116.492 109.478C114.396 106.709 112.762 104.533 111.442 102.703C111.805 102.44 112.168 102.143 112.548 101.879L113.604 101.121L114.231 100.693C114.231 100.693 114.231 100.693 114.314 100.693L114.462 100.594C114.606 100.51 114.744 100.416 114.875 100.313L115.766 99.7201C117.605 102.741 119.61 105.657 121.773 108.456C123.176 110.351 124.694 112.28 126.295 114.208C135.042 124.846 144.628 134.767 154.96 143.877C158.611 147.128 162.47 150.14 166.511 152.893C167.402 153.487 168.244 153.981 169.003 154.41C170.188 155.106 171.451 155.659 172.766 156.058C173.495 156.358 174.314 156.358 175.043 156.058L175.142 155.975L175.258 155.877L176.446 154.756L177.073 154.162C177.898 153.371 178.723 152.514 179.614 151.608L180.192 151.014L181.611 149.514L181.71 149.415L183.014 147.998L182.882 148.13L182.997 147.998L183.36 147.602C183.397 147.574 183.431 147.54 183.459 147.503L183.69 147.24C183.627 147.286 183.572 147.341 183.525 147.404L183.79 147.075Z" fill="#0873BA"/>
<path d="M184.35 146.531V146.416C184.21 146.562 184.077 146.716 183.954 146.877L184.35 146.531Z" fill="#0873BA"/>
<path d="M6.30397 157.443C6.40298 157.657 6.502 157.855 6.58451 158.069L6.94757 158.778C6.58451 157.987 6.20495 157.129 5.8584 156.388L6.30397 157.443Z" fill="#0873BA"/>
<path d="M216.448 67.7932V67.5789C216.448 67.3976 216.448 67.1998 216.448 67.035C216.448 66.6064 216.448 66.1449 216.349 65.6834C216.25 65.2219 216.349 64.8098 216.217 64.3813V65.1559C216.316 66.4581 216.382 67.5459 216.431 68.4525C216.431 67.513 216.316 66.4251 216.217 65.1559C216.761 75.0455 213.114 88.4789 193.575 98.863C193.575 99.1267 193.575 99.3905 193.575 99.6542C193.575 99.3905 193.575 99.1267 193.575 98.863C190.4 100.402 187.085 101.633 183.674 102.539C178.828 103.825 173.836 104.478 168.821 104.484C155.454 104.484 142.632 99.8355 134.414 91.2975C134.777 91.1986 135.156 91.1162 135.503 91.0502L135.981 90.9513H136.328C145.817 98.7971 159.696 101.55 173.442 98.6982C177.561 97.8648 181.57 96.5595 185.39 94.8083C187.539 93.7994 189.628 92.6657 191.645 91.4128C209.896 79.875 217.587 60.2936 211.151 44.5196L209.764 41.2066C209.714 41.1222 209.67 41.034 209.632 40.9429C209.253 40.1023 208.857 39.2946 208.477 38.6024C208.098 37.9101 207.57 36.8552 207.008 35.9157L206.348 34.7949C205.969 34.2015 205.589 33.5751 205.144 32.8994C207.942 37.7668 209.432 43.2748 209.467 48.8876C209.53 53.3677 208.832 57.8261 207.404 62.0737C203.983 71.9568 197.585 80.541 189.087 86.6494C187.421 87.8505 185.685 88.9513 183.888 89.9459C180.718 91.779 177.366 93.2813 173.888 94.4292C160.867 98.6652 147.352 97.3136 137.582 90.6217L138.803 90.3744C148.358 95.2039 160.372 94.9401 171.61 89.5998C176.136 87.4318 180.317 84.6105 184.02 81.2266C188.819 76.8647 192.803 71.6855 195.787 65.9306C202.817 52.4973 203.691 37.0695 197.437 25.3338C196.674 23.8993 195.79 22.5319 194.797 21.2461C193.111 18.9696 191.104 16.9487 188.839 15.2464C186.892 13.8124 184.169 12.0653 182.123 10.7466C181.413 10.3181 180.687 9.90603 179.994 9.54341C179.697 9.3621 179.4 9.21375 179.103 9.06541L178.773 8.90058L177.238 8.24128L177.073 8.14238H176.941H176.776L176.33 7.92811L175.934 7.73031H176.033L175.67 7.56549L174.597 7.10397L176.545 7.97755L177.601 8.52148C180.629 10.2217 183.324 12.4554 185.555 15.1146C186.034 15.642 186.496 16.2024 186.925 16.7628C196.562 29.5699 196.612 49.1018 188.344 65.4691C185.922 70.2388 182.833 74.6399 179.169 78.5399C177.993 79.7895 176.754 80.9778 175.455 82.1001C173.304 83.9594 170.983 85.6148 168.524 87.0449C158.804 92.7479 148.193 93.9017 139.216 90.4239C142.9 89.224 146.114 86.9009 148.408 83.7814C149.517 82.3899 150.505 80.9066 151.362 79.3475C151.972 78.2102 152.533 77.0235 153.012 75.7378H152.847H153.012C154.266 72.6818 155.206 69.5063 155.817 66.2603C156.599 62.3508 157.024 58.3788 157.088 54.3928C157.123 51.7573 157.018 49.1219 156.775 46.4976C155.915 36.2519 152.895 26.3038 147.913 17.3067C146.905 15.5989 145.803 13.9481 144.612 12.3619L143.457 10.7796C141.431 8.27149 139.039 6.08223 136.361 4.28544C133.642 2.40717 130.479 1.27081 127.185 0.988901C126.411 0.931271 125.633 0.931271 124.859 0.988901H124.116L118.967 1.86248H118.819H118.522H118.192C116.228 2.27455 113.835 2.85144 111.904 3.29648C112.771 3.15035 113.65 3.09511 114.528 3.13165C117.763 3.40191 120.851 4.59797 123.423 6.57653C125.825 8.33885 127.994 10.3992 129.875 12.7081C130.42 13.3344 130.948 14.0102 131.526 14.7025C132.301 15.7244 133.06 16.8123 133.77 17.999C139.759 27.5964 143.781 38.2861 145.602 49.448C146.031 51.9863 146.361 54.5246 146.559 57.0135C146.848 60.722 146.848 64.4473 146.559 68.1558C146.343 71.196 145.84 74.2092 145.058 77.1553C144.734 78.3362 144.343 79.4974 143.886 80.6332C143.313 82.1256 142.601 83.5605 141.757 84.9187C140.075 87.8718 137.332 90.0756 134.084 91.0832H133.935L132.961 91.3469C139.562 99.2751 149.596 104.698 160.768 107.055C166.73 108.33 172.85 108.697 178.921 108.143C184.007 107.674 189.005 106.509 193.773 104.681C207.322 98.9949 214.715 90.5063 216.431 78.7871V78.375C216.416 78.3212 216.416 78.2641 216.431 78.2102C216.431 77.5839 216.431 76.9411 216.431 76.2488C216.431 76.051 216.431 75.8862 216.431 75.7213V75.5895C216.431 74.4522 216.514 73.5291 216.53 72.6885C216.53 73.5621 216.53 74.5346 216.53 75.7049C216.53 74.6005 216.629 73.5127 216.646 72.5567C216.629 71.3534 216.547 69.4085 216.448 67.7932Z" fill="#0873BA"/>
<path d="M137.796 173.381C137.297 170.491 136.619 167.634 135.767 164.827C134.628 161.102 133.159 157.047 131.443 152.877C130.156 149.762 128.736 146.613 127.218 143.449C124.091 136.975 120.586 130.69 116.723 124.625C115.188 122.235 113.62 119.928 112.052 117.752L110.897 116.104C109.005 113.54 106.949 111.101 104.742 108.802L104.379 108.439L104.544 108.258C104.032 108.736 102.893 108.637 101.375 107.912C100.445 107.464 99.5415 106.963 98.6688 106.412C97.9426 105.951 97.1505 105.423 96.3089 104.764C92.7452 102.129 89.3243 99.3062 86.0608 96.3082C75.193 86.3526 65.0871 75.5978 55.8281 64.1341C54.6234 62.6341 53.4682 61.1342 52.3625 59.6837C49.6351 56.1687 47.1486 52.4737 44.9198 48.6239C44.2835 47.4903 43.7319 46.3113 43.2696 45.0966C42.7085 43.6131 42.6095 42.5582 42.956 42.0143L43.1211 41.866L42.8405 42.0967L41.5863 43.3L39.9361 44.9482L39.276 45.5911L37.8567 47.025C36.8831 48.014 35.8929 49.0359 35.0183 49.959C34.8038 50.2062 34.5727 50.437 34.3582 50.6677C34.2635 50.7434 34.1801 50.8322 34.1107 50.9314C34.0567 50.9822 34.007 51.0373 33.9621 51.0963C33.9621 51.0963 33.9621 51.0963 33.9621 51.1787C33.0875 52.3984 33.0875 54.3928 33.9621 57.063C34.5612 58.7748 35.3123 60.4296 36.2065 62.0078C37.8529 64.9361 39.7116 67.7402 41.7679 70.3975C45.0662 74.7514 48.6321 78.8966 52.445 82.8089C58.1301 88.7375 64.2235 94.2617 70.6804 99.3411C76.529 104.096 82.915 108.151 89.7079 111.423C90.8465 111.917 91.8532 112.329 92.8269 112.643C94.018 113.057 95.2527 113.333 96.5069 113.467C97.1886 113.603 97.8924 113.582 98.5647 113.405C99.2369 113.228 99.8596 112.899 100.385 112.445C100.433 112.405 100.477 112.361 100.517 112.313L100.748 112.099L101.293 111.522L101.887 110.912C103.766 112.723 105.525 114.656 107.151 116.697L107.861 117.637C109.082 119.285 110.287 120.933 111.458 122.812C116.882 131.396 121.27 140.592 124.528 150.207C125.32 152.564 126.047 154.904 126.674 157.212C127.711 160.949 128.51 164.747 129.067 168.585C129.486 171.444 129.673 174.332 129.628 177.222C129.615 178.23 129.549 179.237 129.43 180.238C129.289 181.622 129.002 182.986 128.571 184.309C128.078 186.184 126.901 187.807 125.271 188.858H125.089L124.198 189.221L124.726 189.056L126.839 188.133C129.281 187.045 132.351 185.545 134.941 184.26L136.179 183.683L136.559 183.436C137.567 182.492 138.16 181.188 138.209 179.809C138.325 178.587 138.325 177.356 138.209 176.134C138.088 175.31 137.95 174.392 137.796 173.381Z" fill="#0873BA"/>
<path d="M117.895 153.52C115.897 142.736 111.931 132.411 106.194 123.06C105.336 121.692 104.429 120.389 103.504 119.153H103.372H103.24H103.504C103.026 118.527 102.564 117.933 102.085 117.357C101.119 116.207 100.094 115.106 99.0157 114.06L98.5041 114.653V114.752V114.835L97.5635 116.005C98.1576 116.631 98.7517 117.291 99.3458 117.999C99.9399 118.708 100.27 119.137 100.732 119.747H100.996H100.55H100.369C101.405 121.119 102.369 122.544 103.257 124.016C108.606 133.28 111.904 143.583 112.927 154.228C113.175 156.651 113.323 159.058 113.356 161.448C113.418 165.489 113.115 169.527 112.449 173.513C111.91 176.754 111.053 179.934 109.891 183.007H110.221H109.891C109.412 184.227 108.884 185.381 108.34 186.468C107.488 188.158 106.471 189.759 105.303 191.248C103.035 194.316 99.8056 196.538 96.1278 197.561H95.7812L93.9824 197.874L95.0221 197.743L97.6625 197.265H97.8605H97.9595H98.1411L99.1312 197.067L101.838 196.506C102.927 196.259 104.016 195.995 105.006 195.732L105.633 195.55L106.772 195.221H107.019L108.257 194.891L108.637 194.759C111.271 193.624 113.454 191.647 114.842 189.139C115.71 187.69 116.423 186.154 116.971 184.556C117.317 183.551 117.647 182.48 117.928 181.26H117.581H117.928C118.623 178.272 119.043 175.226 119.182 172.161C119.369 168.245 119.231 164.32 118.769 160.426C118.703 158.234 118.34 155.844 117.895 153.52Z" fill="#0873BA"/>
<path d="M7.24481 159.387V159.486L7.11279 159.223L7.24481 159.387Z" fill="#0873BA"/>
<path d="M203.791 30.806C204.269 31.4983 204.715 32.1906 205.144 32.9158L203.791 30.806Z" fill="#0873BA"/>
<path d="M207.503 106.132C203.154 110.247 197.761 113.097 191.908 114.373V114.489C191.901 114.45 191.901 114.411 191.908 114.373C183.078 116.389 173.901 116.344 165.092 114.241C158.183 112.7 151.561 110.08 145.47 106.478C139.962 103.253 135.127 99.0005 131.228 93.9512C130.849 93.4567 130.502 92.9623 130.156 92.4513L128.786 92.9458L127.961 93.2754C128.669 94.4124 129.434 95.5127 130.255 96.572V96.4236C130.248 96.4729 130.248 96.5227 130.255 96.572C132.142 99.0501 134.252 101.351 136.559 103.445C140.476 106.987 144.796 110.058 149.431 112.593C161.907 119.499 176.792 123.109 189.301 121.411L189.73 120.389L189.301 121.411C192.858 121.021 196.326 120.047 199.565 118.527C202.785 116.982 205.507 114.567 207.421 111.555L207.569 111.34C207.734 111.027 207.899 110.731 208.048 110.417C208.098 110.339 208.142 110.256 208.18 110.17L208.427 109.626C208.724 108.868 209.038 107.978 209.351 107.22C209.416 107.07 209.471 106.915 209.516 106.758C210.507 104.138 211.546 101.237 212.404 98.6817V98.5829C211.324 101.417 209.653 103.99 207.503 106.132Z" fill="#0873BA"/>
<path d="M43.4348 167.398C48.4633 167.327 53.4592 166.579 58.2871 165.173C61.6073 164.217 64.8288 162.948 67.9081 161.382C83.2225 153.652 91.4243 140.317 90.6487 127.362C90.6487 126.95 90.6487 126.537 90.5332 126.125C90.5332 126.439 90.5332 126.719 90.5332 127.23C88.6293 130.838 85.6472 133.765 82.0013 135.603C78.7093 137.274 75.1626 138.388 71.5057 138.9C59.5248 140.811 45.4481 137.927 33.3187 131.878C27.7063 129.136 22.5158 125.606 17.9053 121.395C15.7736 119.439 13.8188 117.299 12.0634 115C6.28748 107.319 4.60422 99.7532 6.53502 93.5722C6.53502 93.5722 6.53502 93.3744 6.63404 93.2755C6.73305 93.1766 6.63404 93.2755 6.63404 93.2755C6.76606 92.9129 6.89808 92.5667 7.06311 92.2206C6.94759 92.4678 6.84857 92.748 6.73305 92.9953L6.10596 94.6435V94.7424C6.09539 94.7802 6.09539 94.8201 6.10596 94.8578C5.94093 95.3358 5.7594 95.8138 5.57787 96.3083C5.39634 96.8028 5.29733 97.1324 5.1323 97.561C4.96728 97.9895 4.88476 98.2697 4.76925 98.5994C4.17515 100.248 3.51505 102.555 3.01997 104.401C3.01997 104.599 2.92096 104.78 2.88795 104.962C2.85495 105.143 2.88795 105.061 2.88795 105.094C0.0165026 118.675 9.47248 131.697 24.0113 139.674C30.2477 143.081 36.9973 145.453 43.9959 146.696C52.3457 148.223 60.9193 148.038 69.1953 146.152C78.2387 143.679 83.4371 139.559 86.4405 135.685C88.2999 133.299 89.6989 130.588 90.5662 127.691C90.3771 132.4 88.8862 136.964 86.259 140.877C82.9585 145.822 77.3311 151.064 67.7596 155.382C57.5511 159.23 46.501 160.294 35.7446 158.464C16.3871 155.102 1.07267 142.427 0 125.268C0 124.972 0 124.642 0 124.329V124.691C0 124.691 0 124.873 0 124.972V125.136C0 125.384 0 125.631 0 125.878V126.587C0 126.702 0 126.801 0 126.9C0 127.279 0 127.658 0 128.037C0 128.417 -6.14769e-09 129.274 0.0825129 129.9C0.0825129 130.081 0.0825129 130.263 0.0825129 130.444C0.0825129 130.625 0.0825129 130.872 0.0825129 131.087V131.35C0.0742964 131.482 0.0742964 131.614 0.0825129 131.746V131.861C0.0825129 132.092 0.0825129 132.306 0.0825129 132.537C0.0825129 132.768 0.0825129 133.015 0.0825129 133.279C0.0900841 133.427 0.0900841 133.576 0.0825129 133.724C0.0825129 133.889 0.0825129 134.07 0.0825129 134.235V134.762V135.339C0.0853471 135.372 0.0853471 135.405 0.0825129 135.438C0.0825129 135.669 0.0825129 135.883 0.165026 136.114C0.247539 136.345 0.165026 136.477 0.165026 136.658C0.155862 136.806 0.155862 136.955 0.165026 137.103C0.165026 137.103 0.165026 137.235 0.165026 137.317V137.795C0.898359 142.653 2.85136 147.246 5.84191 151.146C14.3407 162.008 28.566 167.629 43.4348 167.398Z" fill="#0873BA"/>
<path d="M144.596 0.115379H144.992C148.481 0.59484 151.809 1.88172 154.712 3.87343C157.624 5.88621 160.178 8.37085 162.27 11.2247L163.128 12.4115C164.629 14.5733 165.927 16.8686 167.006 19.2682C170.046 26.1858 171.727 33.6225 171.957 41.1737C172.097 44.2854 172.014 47.403 171.709 50.5029C171.259 55.2858 170.268 60.0024 168.755 64.5626C167.505 68.2371 165.845 71.7592 163.805 75.0621C163.043 76.3326 162.211 77.5598 161.313 78.7377C160.045 80.4041 158.643 81.9642 157.121 83.4023C152.606 87.8774 146.517 90.4096 140.156 90.4569H139.909H140.14C144.108 91.0659 148.161 90.83 152.032 89.7648C155.902 88.6996 159.504 86.829 162.6 84.2759C164.496 82.8208 166.258 81.199 167.864 79.43C168.904 78.2927 169.894 77.0895 170.884 75.8038C173.512 72.2383 175.7 68.37 177.403 64.2824C179.599 59.017 181.038 53.4678 181.677 47.7998C183.06 37.5599 181.42 27.1396 176.957 17.8178C175.972 15.8743 174.818 14.021 173.508 12.2796C171.852 10.0514 169.904 8.05564 167.716 6.34583C164.607 3.89434 160.968 2.2012 157.088 1.40103H156.89L155.784 1.31861C154.877 1.15379 153.986 0.98896 153.094 0.857099L151.807 0.692272H151.147C149.926 0.477998 148.705 0.362619 147.467 0.24724L146.758 0.214275C146.411 0.214275 146.064 0.214275 145.701 0.214275H145.239H144.299L143.457 0H142.021H143.457L144.596 0.115379Z" fill="#0873BA"/>
</g>
</svg>
