<svg width="274" height="243" viewBox="0 0 274 243" fill="none" xmlns="http://www.w3.org/2000/svg">
<g clip-path="url(#clip0_53_4265)">
<g opacity="0.9">
<path d="M273.175 157.597C275.677 122.844 216.731 90.2537 141.517 84.8055C66.3023 79.3573 3.30099 103.114 0.79945 137.867C-1.70209 172.621 57.2435 205.21 132.458 210.659C207.673 216.107 270.674 192.35 273.175 157.597Z" stroke="#EFEFEF" stroke-width="0.8" stroke-miterlimit="10"/>
<path d="M268.169 150.341C269.151 116.363 210.322 87.0849 136.772 84.9467C63.2217 82.8084 2.80167 108.62 1.82007 142.598C0.838468 176.576 59.667 205.854 133.217 207.992C206.768 210.13 267.188 184.319 268.169 150.341Z" stroke="#EFEFEF" stroke-width="0.8" stroke-miterlimit="10"/>
<path d="M134.029 205.361C205.903 204.19 263.733 176.322 263.195 143.114C262.658 109.907 203.957 83.936 132.083 85.1064C60.2092 86.2769 2.37946 114.146 2.91681 147.353C3.45417 180.56 62.1551 206.531 134.029 205.361Z" stroke="#EFEFEF" stroke-width="0.8" stroke-miterlimit="10"/>
<path d="M134.806 202.707C205.011 198.227 260.256 168.3 258.199 135.863C256.142 103.427 197.562 80.764 127.357 85.2443C57.1515 89.7246 1.90627 119.652 3.96323 152.088C6.02019 184.524 64.6004 207.187 134.806 202.707Z" stroke="#EFEFEF" stroke-width="0.8" stroke-miterlimit="10"/>
<path d="M135.567 200.063C204.112 192.277 256.782 160.299 253.208 128.638C249.635 96.9774 191.171 77.6227 122.626 85.4085C54.0811 93.1943 1.4114 125.172 4.98503 156.833C8.55866 188.494 67.0224 207.849 135.567 200.063Z" stroke="#EFEFEF" stroke-width="0.8" stroke-miterlimit="10"/>
<path d="M136.314 197.441C203.186 186.347 253.268 152.308 248.174 121.412C243.081 90.5152 184.742 74.462 117.87 85.5556C50.9975 96.6492 0.915722 130.689 6.00892 161.585C11.1021 192.481 69.4416 208.535 136.314 197.441Z" stroke="#EFEFEF" stroke-width="0.8" stroke-miterlimit="10"/>
<path d="M137.099 194.784C202.306 180.378 249.807 144.284 243.195 114.167C236.583 84.049 178.362 71.3122 113.155 85.7182C47.948 100.124 0.447177 136.218 7.05909 166.336C13.671 196.453 71.8919 209.19 137.099 194.784Z" stroke="#EFEFEF" stroke-width="0.8" stroke-miterlimit="10"/>
<path d="M137.864 192.152C201.398 174.441 246.31 136.289 238.179 106.936C230.049 77.5844 171.953 68.1475 108.419 85.8586C44.8858 103.57 -0.0270165 141.722 8.10388 171.074C16.2348 200.426 74.3303 209.863 137.864 192.152Z" stroke="#EFEFEF" stroke-width="0.8" stroke-miterlimit="10"/>
<path d="M138.65 189.479C200.51 168.45 242.832 128.239 233.179 99.6648C223.527 71.0906 165.555 64.9736 103.696 86.0022C41.8363 107.031 -0.485691 147.242 9.16676 175.816C18.8192 204.39 76.7909 210.507 138.65 189.479Z" stroke="#EFEFEF" stroke-width="0.8" stroke-miterlimit="10"/>
<path d="M139.428 186.843C199.623 162.506 239.366 120.238 228.196 92.4333C217.026 64.6287 159.172 61.817 98.9767 86.1533C38.7811 110.49 -0.961806 152.758 10.2085 180.563C21.3787 208.367 79.2322 211.179 139.428 186.843Z" stroke="#EFEFEF" stroke-width="0.8" stroke-miterlimit="10"/>
<path d="M140.199 184.221C198.726 156.581 235.884 112.254 223.194 85.2141C210.505 58.1743 152.772 58.6609 94.2458 86.3011C35.7191 113.941 -1.4391 158.268 11.2505 185.308C23.9402 212.348 81.6723 211.861 140.199 184.221Z" stroke="#EFEFEF" stroke-width="0.8" stroke-miterlimit="10"/>
<path d="M140.983 181.558C197.837 150.604 232.406 104.217 218.195 77.9495C203.984 51.6823 146.375 55.4817 89.5202 86.4358C32.6659 117.39 -1.90324 163.777 12.3078 190.044C26.5189 216.311 84.1287 212.512 140.983 181.558Z" stroke="#EFEFEF" stroke-width="0.8" stroke-miterlimit="10"/>
<path d="M141.744 178.918C196.932 144.658 228.924 96.2207 213.199 70.7291C197.474 45.2375 139.987 52.3452 84.7993 86.6046C29.6113 120.864 -2.37985 169.302 13.3451 194.793C29.0701 220.285 86.5564 213.177 141.744 178.918Z" stroke="#EFEFEF" stroke-width="0.8" stroke-miterlimit="10"/>
<path d="M141.978 176.772C195.544 139.419 225.071 89.0831 207.928 64.3435C190.785 39.6038 133.464 49.8288 79.8982 87.1816C26.332 124.534 -3.195 174.87 13.9479 199.61C31.0907 224.35 88.4118 214.125 141.978 176.772Z" stroke="#EFEFEF" stroke-width="0.798919" stroke-miterlimit="10"/>
<path d="M143.284 173.586C195.133 132.7 221.952 80.1387 203.184 56.1883C184.417 32.2378 127.17 45.9673 75.3207 86.8538C23.4711 127.74 -3.34722 180.301 15.4203 204.252C34.1878 228.202 91.4342 214.473 143.284 173.586Z" stroke="#EFEFEF" stroke-width="0.8" stroke-miterlimit="10"/>
<path d="M144.035 170.96C194.219 126.763 218.46 72.1469 198.178 48.9712C177.897 25.7956 120.772 42.8365 70.5875 87.0331C20.4027 131.23 -3.83835 185.846 16.4435 209.021C36.7253 232.197 93.8498 215.156 144.035 170.96Z" stroke="#EFEFEF" stroke-width="0.8" stroke-miterlimit="10"/>
<path d="M144.809 168.306C193.318 120.801 214.971 64.1317 193.171 41.7302C171.372 19.3288 114.376 39.6785 65.8668 87.1826C17.3579 134.687 -4.29441 191.356 17.505 213.758C39.3044 236.159 96.3005 215.81 144.809 168.306Z" stroke="#EFEFEF" stroke-width="0.8" stroke-miterlimit="10"/>
<path d="M145.587 165.662C192.428 114.847 211.496 56.1165 188.175 34.4835C164.855 12.8506 107.978 36.5074 61.1361 87.3226C14.2947 138.138 -4.77277 196.869 18.5477 218.502C41.8681 240.135 98.7456 216.478 145.587 165.662Z" stroke="#EFEFEF" stroke-width="0.8" stroke-miterlimit="10"/>
<path d="M146.348 163.012C191.523 108.889 208.013 48.1043 183.179 27.245C158.346 6.38566 101.593 33.3509 56.4179 87.4734C11.2431 141.596 -5.24684 202.381 19.5867 223.24C44.4203 244.099 101.173 217.134 146.348 163.012Z" stroke="#EFEFEF" stroke-width="0.8" stroke-miterlimit="10"/>
<path d="M147.12 160.351C190.623 102.919 204.527 40.0774 178.174 19.9899C151.822 -0.0975321 95.1936 30.1759 51.6907 87.6075C8.1879 145.039 -5.71546 207.881 20.6367 227.968C46.9889 248.056 103.618 217.782 147.12 160.351Z" stroke="#EFEFEF" stroke-width="0.8" stroke-miterlimit="10"/>
<path d="M147.893 157.703C189.724 96.9654 201.041 32.0688 173.171 12.7527C145.3 -6.56336 88.7966 27.0157 46.9659 87.7536C5.13529 148.492 -6.18177 213.388 21.6886 232.704C49.5589 252.02 106.063 218.441 147.893 157.703Z" stroke="#EFEFEF" stroke-width="0.8" stroke-miterlimit="10"/>
<path d="M148.671 155.102C188.844 91.0571 197.586 24.0994 168.196 5.54761C138.806 -13.0042 82.4147 23.8752 42.2419 87.9199C2.06899 151.965 -6.67257 218.922 22.717 237.474C52.1067 256.026 108.498 219.147 148.671 155.102Z" stroke="#EFEFEF" stroke-width="0.8" stroke-miterlimit="10"/>
</g>
</g>
<defs>
<clipPath id="clip0_53_4265">
<rect width="274" height="243" fill="white"/>
</clipPath>
</defs>
</svg>
