<svg width="237" height="237" viewBox="0 0 237 237" fill="none" xmlns="http://www.w3.org/2000/svg">
<path d="M186.378 186.245L187.434 186.393H188.267H188.1L186.378 186.245Z" fill="#0873BA"/>
<path d="M206.284 184.802C205.525 185.024 204.747 185.209 203.969 185.376L206.284 184.802Z" fill="#0873BA"/>
<path d="M188.174 184.931C187.471 184.728 186.767 184.506 186.082 184.265C186.082 184.672 186.212 185.079 186.267 185.45C187.677 185.845 189.112 186.142 190.563 186.338C193.103 186.643 195.671 186.643 198.211 186.338L199.025 186.227C200.618 186.023 201.358 185.912 202.562 185.653L203.969 185.302C198.745 186.43 193.324 186.271 188.174 184.839V184.931Z" fill="#0873BA"/>
<path d="M185.138 179.694C185.286 180.379 185.434 181.082 185.564 181.804C190.959 184.192 196.88 185.146 202.753 184.572C208.626 183.998 214.25 181.916 219.08 178.529C220.024 177.844 220.524 177.474 221.191 176.9C221.857 176.327 222.709 175.549 224.357 174.032C224.82 173.569 225.32 172.996 225.838 172.422C220.719 177.817 214.007 181.433 206.684 182.742C199.361 184.05 191.811 182.983 185.138 179.694Z" fill="#0873BA"/>
<path d="M227.245 170.923C226.838 171.441 226.394 171.922 225.949 172.403L227.245 170.923Z" fill="#0873BA"/>
<path d="M233.541 159.135C232.75 160.691 231.846 162.188 230.838 163.613C229.779 165.076 228.603 166.45 227.32 167.722C224.016 171.049 220.073 173.674 215.728 175.438C211.443 177.186 206.874 178.133 202.248 178.233C197.597 178.321 192.969 177.575 188.582 176.03C186.884 175.415 185.231 174.679 183.638 173.828V173.939C183.638 174.106 183.731 174.272 183.768 174.439C184.009 175.142 184.212 175.845 184.397 176.53C185.601 177.141 186.823 177.677 188.101 178.159C192.441 179.807 197.049 180.641 201.692 180.62C206.29 180.606 210.845 179.727 215.117 178.029C220.635 175.839 225.481 172.24 229.171 167.592C229.929 166.644 230.633 165.656 231.282 164.631C231.916 163.62 232.497 162.576 233.023 161.504C233.375 160.782 233.708 160.042 234.004 159.283L234.393 158.265C234.428 158.127 234.471 157.991 234.523 157.858C234.893 156.729 235.282 155.341 235.597 154.268V154.157C235.745 153.491 235.893 152.732 236.041 151.974C235.856 152.788 235.634 153.602 235.393 154.416C234.891 156.032 234.272 157.609 233.541 159.135Z" fill="#0873BA"/>
<path d="M236.096 151.936C236.263 151.233 236.393 150.549 236.504 149.845V149.475V149.605C236.411 150.308 236.263 151.122 236.096 151.936Z" fill="#0873BA"/>
<path d="M180.805 166.186C181.249 167.259 181.731 168.443 182.138 169.516C204.747 181.508 237.8 168.277 236.985 138.668V138.205C236.856 136.836 236.615 135.134 236.393 133.616C236.393 133.116 236.245 132.635 236.17 132.21C236.17 132.524 236.17 132.857 236.319 133.172C239.781 161.485 206.673 180.064 180.805 166.186Z" fill="#0873BA"/>
<path d="M232.689 133.598C231.966 136.358 230.863 139.005 229.412 141.463C227.814 144.159 225.886 146.645 223.672 148.865C220.3 152.23 216.388 155.007 212.099 157.081C207.919 159.119 203.445 160.487 198.84 161.134C194.411 161.791 189.902 161.685 185.508 160.819C182.469 160.227 179.531 159.198 176.787 157.766C177.379 158.913 178.009 160.116 178.49 161.134L178.639 161.467C181.274 162.863 184.082 163.908 186.99 164.576C191.41 165.612 195.976 165.881 200.489 165.371C205.109 164.863 209.617 163.614 213.839 161.67C218.131 159.637 222.03 156.861 225.357 153.473C227.491 151.373 229.357 149.017 230.912 146.459C232.324 144.098 233.413 141.559 234.152 138.909C234.833 136.419 235.164 133.847 235.134 131.266C235.121 128.892 234.778 126.532 234.115 124.253C234.115 124.086 234.023 123.919 233.986 123.753C233.949 123.586 233.708 122.92 233.56 122.495C233.171 121.384 232.726 120.181 232.338 119.09C233.058 121.229 233.475 123.459 233.578 125.715C233.689 128.372 233.389 131.031 232.689 133.598Z" fill="#0873BA"/>
<path d="M228.245 112.761C228.464 115.391 228.226 118.039 227.542 120.588C226.776 123.467 225.591 126.216 224.023 128.749C222.284 131.63 220.194 134.284 217.802 136.651C214.421 140.026 210.574 142.899 206.377 145.182C202.301 147.396 197.939 149.04 193.415 150.067C189.238 151.048 184.931 151.354 180.657 150.974C177.453 150.699 174.321 149.873 171.398 148.531L172.213 149.845L173.75 152.455C176.616 153.847 179.685 154.778 182.842 155.212C187.155 155.783 191.532 155.652 195.804 154.823C200.353 153.955 204.75 152.427 208.858 150.289C213.102 148.106 216.981 145.278 220.357 141.907C222.677 139.59 224.704 136.999 226.394 134.19C227.889 131.664 229.023 128.942 229.764 126.103C230.438 123.52 230.682 120.844 230.486 118.183C230.315 116.001 229.802 113.859 228.967 111.835C228.838 111.502 228.69 111.188 228.542 110.873C227.875 109.485 226.931 107.709 226.19 106.265L226.394 106.691C227.352 108.594 227.978 110.647 228.245 112.761Z" fill="#0873BA"/>
<path d="M216.376 115.222C214.483 118.141 212.279 120.846 209.803 123.29C206.414 126.68 202.635 129.655 198.544 132.154C194.667 134.564 190.522 136.514 186.194 137.965C182.342 139.288 178.319 140.049 174.25 140.223C171.141 140.361 168.035 139.896 165.103 138.853C166.066 140.223 166.954 141.629 167.917 142.925C170.862 144.109 174.002 144.737 177.176 144.775C181.348 144.831 185.504 144.263 189.508 143.091C198.53 140.442 206.747 135.582 213.413 128.953C215.859 126.535 218.02 123.847 219.857 120.94C221.455 118.439 222.701 115.731 223.561 112.89C224.281 110.449 224.545 107.896 224.338 105.359C224.128 103.067 223.387 100.856 222.172 98.9003L219.468 94.6071L219.32 94.385L219.061 93.9779L219.191 94.1815C220.273 95.952 220.908 97.9588 221.042 100.029C221.199 102.483 220.891 104.944 220.135 107.283C219.256 110.091 217.991 112.763 216.376 115.222Z" fill="#0873BA"/>
<path d="M206.655 101.065C204.578 103.916 202.267 106.59 199.748 109.06C196.388 112.455 192.739 115.551 188.841 118.312C185.153 120.908 181.243 123.174 177.157 125.085C173.671 126.753 169.997 127.996 166.214 128.786C163.448 129.368 160.591 129.368 157.826 128.786L158.215 129.267C159.066 130.341 160.066 131.71 161.048 132.968C163.886 133.748 166.855 133.937 169.769 133.524C173.69 132.997 177.525 131.958 181.175 130.433C185.366 128.718 189.374 126.585 193.137 124.067C197.137 121.434 200.86 118.402 204.248 115.018C206.745 112.537 209.008 109.83 211.006 106.931C212.66 104.542 214.009 101.956 215.024 99.2333C215.852 97.0728 216.254 94.7731 216.209 92.4603C216.173 90.7457 215.695 89.0694 214.821 87.5934C214.727 87.4202 214.622 87.2533 214.506 87.0938L213.395 85.5578L212.395 84.1884L210.932 82.2269C211.936 83.6393 212.444 85.3441 212.376 87.0753C212.309 89.2802 211.825 91.4525 210.951 93.4781C209.81 96.1614 208.369 98.7067 206.655 101.065Z" fill="#0873BA"/>
<path d="M199.951 79.6918C198.545 82.1156 196.947 84.4237 195.174 86.5943C192.926 89.3698 190.528 92.02 187.99 94.5331C184.591 97.9188 181.012 101.119 177.268 104.119C173.788 106.906 170.153 109.495 166.38 111.873C163.272 113.864 160.001 115.591 156.603 117.036C154.336 118.105 151.885 118.733 149.382 118.886L149.715 119.275C150.678 120.385 151.882 121.81 152.956 123.105C155.602 123.28 158.255 122.908 160.751 122.013C164.325 120.854 167.769 119.328 171.028 117.461C174.949 115.268 178.705 112.794 182.268 110.059C186.094 107.169 189.72 104.022 193.119 100.64C195.647 98.1297 198.004 95.4527 200.174 92.627C201.91 90.3957 203.429 88.0038 204.71 85.484C205.664 83.6573 206.29 81.6784 206.562 79.6363C206.756 78.2806 206.454 76.9006 205.71 75.7502C205.663 75.6916 205.619 75.6298 205.581 75.5651L204.858 74.6954L204.303 74.0107L201.581 70.7537C201.936 71.2548 202.174 71.8295 202.276 72.4349C202.379 73.0404 202.344 73.6612 202.174 74.2512C201.73 76.1721 200.979 78.0091 199.951 79.6918Z" fill="#0873BA"/>
<path d="M142.179 110.725C142.845 111.465 143.549 112.224 144.216 112.927C146.47 112.311 148.622 111.369 150.604 110.133C153.726 108.301 156.737 106.287 159.622 104.1C162.918 101.658 166.455 98.8262 170.01 95.7544C173.565 92.6825 177.139 89.37 180.546 85.965C183.342 83.1707 185.805 80.543 187.953 78.1188C189.78 76.043 191.493 73.8685 193.082 71.6049C194.172 70.115 195.08 68.4997 195.785 66.7935C196.248 65.5352 196.267 64.6099 195.785 64.0917L195.6 63.8882L192.545 60.4832L191.508 59.3544C191.73 59.6875 191.508 60.3907 190.934 61.4455C190.028 62.9856 188.993 64.4466 187.842 65.8127C186.416 67.6633 184.601 69.6988 182.453 72.049C180.305 74.3992 177.787 77.0085 175.046 79.8028C171.639 83.2077 168.103 86.5757 164.64 89.7401C161.177 92.9045 157.77 95.8839 154.641 98.5116C151.511 101.139 148.512 103.508 146.067 105.211C144.272 106.565 142.356 107.755 140.346 108.764L140.698 109.06L141.197 109.596L142.179 110.725Z" fill="#0873BA"/>
<path d="M134.735 102.971C142.808 95.3102 182.638 55.7828 185.101 52.822L184.99 52.7109L181.286 49.0099L180.601 48.3622L180.49 48.2511C180.287 48.1031 179.676 48.3992 178.639 49.0839C177.602 49.7686 176.25 50.9344 174.528 52.4148C172.806 53.8953 170.824 55.7828 168.454 57.9664C166.084 60.1501 163.547 62.6668 160.733 65.4611C157.363 68.8846 153.937 72.3821 150.697 75.7501C147.456 79.118 144.401 82.449 141.66 85.4839C138.92 88.5187 136.531 91.276 134.624 93.5707C133.186 95.2599 131.851 97.0334 130.624 98.8817C130.739 99.0082 130.862 99.1258 130.995 99.2333L134.735 102.971Z" fill="#0873BA"/>
<path d="M153.66 44.55C150.924 46.7982 148.304 49.1822 145.808 51.6931C142.383 55.0981 139.105 58.7066 136.124 62.3337C133.272 65.755 130.596 69.3187 128.106 73.0112C126.023 76.0217 124.166 79.1825 122.551 82.4675C121.397 84.6474 120.645 87.0167 120.329 89.4625L120.718 89.7956C121.903 90.8319 123.347 92.1458 124.644 93.3301C125.384 91.1197 126.424 89.0213 127.736 87.0938C129.638 84.0176 131.696 81.0405 133.902 78.1742C136.383 74.9173 139.253 71.4198 142.346 67.8853C145.438 64.3507 148.771 60.7977 152.197 57.3927C154.993 54.5984 157.622 52.1372 160.029 49.9906C162.099 48.1587 164.262 46.4354 166.51 44.8276C167.98 43.731 169.571 42.8059 171.251 42.0703C172.491 41.5707 173.38 41.5152 173.861 41.9408L169.88 38.4063L168.936 37.5735L168.788 37.4625C168.328 37.2095 167.819 37.0572 167.295 37.0157C166.772 36.9742 166.245 37.0445 165.751 37.2219C163.917 37.7561 162.171 38.554 160.566 39.5906C158.146 41.073 155.838 42.7306 153.66 44.55Z" fill="#0873BA"/>
<path d="M123.44 92.2012L120.329 89.4809L123.458 92.2382L123.44 92.2012Z" fill="#0873BA"/>
<path d="M111.441 81.8753L114.256 84.1885C114.098 81.5675 114.476 78.942 115.367 76.4718C116.568 72.9194 118.112 69.4921 119.977 66.2383C122.185 62.3695 124.66 58.6595 127.384 55.1351C130.294 51.3096 133.462 47.6865 136.865 44.291C139.376 41.7641 142.055 39.4087 144.883 37.2405C147.106 35.5018 149.494 33.9834 152.012 32.7067C153.827 31.7564 155.795 31.1301 157.826 30.8561C159.183 30.6501 160.568 30.9533 161.714 31.7074L161.844 31.7999L161.511 31.5408L157.085 28.0433L156.715 27.7287L156.474 27.5622C155.177 26.7249 153.646 26.3229 152.104 26.4149C149.946 26.5288 147.828 27.0499 145.864 27.9508C143.246 29.1085 140.763 30.5481 138.457 32.244C135.595 34.3442 132.896 36.6578 130.384 39.165C127.004 42.5588 123.908 46.2227 121.125 50.1202C118.484 53.7542 116.155 57.6047 114.163 61.6305C112.429 65.0485 111.099 68.6567 110.2 72.3821C109.488 75.0621 109.355 77.8632 109.812 80.5985L110.145 80.876L111.274 81.7828L111.608 82.0419L111.441 81.8753Z" fill="#0873BA"/>
<path d="M131.069 17.8285C128.316 18.7565 125.695 20.038 123.273 21.6406C120.4 23.5363 117.731 25.7255 115.311 28.173C111.914 31.5484 108.919 35.3053 106.386 39.3687C103.945 43.2393 101.951 47.3739 100.442 51.6932C99.0736 55.5065 98.2507 59.4936 97.9974 63.5366C97.7937 66.6029 98.2028 69.6791 99.201 72.5857L101.442 74.2142L103.553 75.7872C102.743 72.9309 102.535 69.9378 102.941 66.9971C103.452 63.0713 104.486 59.2314 106.015 55.5793C107.718 51.3821 109.846 47.3701 112.367 43.6064C115.018 39.6157 118.057 35.8966 121.44 32.5032C123.905 30.0208 126.596 27.7721 129.476 25.7858C131.857 24.1483 134.432 22.8119 137.142 21.8071C139.307 20.9863 141.604 20.5723 143.919 20.5858C145.842 20.6078 147.718 21.1793 149.326 22.2327L145.271 19.4384L144.067 18.6057L143.605 18.3836C141.927 17.4791 140.065 16.9666 138.161 16.8847C135.759 16.7739 133.357 17.0935 131.069 17.8285Z" fill="#0873BA"/>
<path d="M91.424 59.2248C91.3313 55.0466 91.8745 50.8785 93.035 46.8633C95.6397 37.8242 100.494 29.5921 107.145 22.9359C109.516 20.5417 112.157 18.4304 115.015 16.6441C117.466 15.0743 120.128 13.8594 122.921 13.0356C125.321 12.3159 127.826 12.0154 130.328 12.1473C132.591 12.286 134.797 12.9176 136.79 13.9978H136.679L132.235 11.3331L131.939 11.148H131.809C129.697 10.1026 127.402 9.47423 125.051 9.29747C122.462 9.13627 119.864 9.41152 117.366 10.1117C114.558 10.899 111.873 12.0697 109.385 13.5907C106.561 15.3276 103.951 17.3896 101.608 19.7345C94.9625 26.4123 90.2636 34.7741 88.0169 43.9209C87.0111 48.0663 86.6674 52.3445 86.9985 56.5971C87.2346 59.837 88.0499 63.0084 89.4057 65.9608L93.3683 68.533C92.1432 65.5792 91.4837 62.4218 91.424 59.2248Z" fill="#0873BA"/>
<path d="M81.9619 61.575L83.9432 62.6853C82.5213 59.8069 81.5651 56.7214 81.1101 53.5437C80.5214 49.2361 80.634 44.8616 81.4434 40.5899C82.3001 36.0371 83.8225 31.6351 85.9616 27.5252C88.1535 23.2412 91.0025 19.3262 94.4053 15.9223C96.6822 13.6329 99.2319 11.6317 101.997 9.96363C104.501 8.48013 107.2 7.35278 110.015 6.61416C112.587 5.94294 115.251 5.69296 117.903 5.87395C120.39 6.05136 122.825 6.67836 125.088 7.72448H125.217H125.032L121.44 6.00349L120.44 5.57786L119.625 5.26327C117.473 4.46743 115.214 3.99956 112.922 3.87537C110.244 3.73421 107.56 3.99621 104.96 4.6526C102.166 5.37656 99.4862 6.48515 96.9976 7.94655C94.2969 9.56137 91.8087 11.5072 89.5909 13.7387C86.2288 17.1071 83.4393 21.0012 81.3323 25.2675C79.2634 29.4296 77.8518 33.8866 77.1475 38.4803C76.43 42.857 76.4488 47.3227 77.2031 51.6931C77.7773 54.7859 78.8003 57.7784 80.2398 60.5757L81.536 61.2789H81.6656L81.9619 61.575Z" fill="#0873BA"/>
<path d="M72.185 56.6895C73.0183 57.0596 73.9256 57.4667 74.7589 57.8738H74.9255H74.7959L75.3144 58.1144C62.1674 33.5949 82.6471 -4.8037 112.922 2.839C111.515 2.41338 109.682 1.93224 108.182 1.54363L107.682 1.41409L107.238 1.30306C106.515 1.15502 105.682 1.02548 105.015 0.932952C79.4807 -2.3795 57.6678 29.7643 72.185 56.6895Z" fill="#0873BA"/>
<path d="M70.9259 9.37143C67.592 12.6843 64.9432 16.6206 63.1303 20.9558C59.5702 29.6012 59.2481 39.2395 62.223 48.1031C62.8903 50.0179 63.714 51.8747 64.6857 53.6547L65.7227 54.0248L67.7966 54.8205C55.7235 32.1515 69.2224 -1.06557 98.9235 0.0262423H98.7753H97.2569C95.6645 0.0262423 93.5536 0.0262423 91.9796 0.0262423C90.1067 0.125638 88.2471 0.398214 86.4246 0.840477C84.5211 1.28978 82.662 1.90911 80.8695 2.69101C79.0526 3.45064 77.3054 4.36703 75.6477 5.4298C73.9556 6.59538 72.3749 7.91488 70.9259 9.37143Z" fill="#0873BA"/>
<path d="M54.6866 35.8341C54.7222 40.4659 55.6332 45.0492 57.3716 49.343C57.7085 50.2201 58.0917 51.0787 58.5196 51.9152L61.075 52.6184C51.0388 33.1878 59.0751 9.51951 80.4622 1.91382H80.5547H80.4066C78.6475 2.52449 76.3884 3.41275 74.6849 4.13446C73.7405 4.57859 72.5369 5.26328 71.5926 5.76293C71.0185 6.09602 70.4445 6.44762 69.889 6.83624C69.3335 7.22485 68.741 7.63197 68.1669 8.05759C67.5929 8.48321 67.0559 8.92734 66.5189 9.40848C65.9819 9.88962 65.3338 10.4633 64.7783 10.9814C61.463 14.2614 58.8652 18.1934 57.1494 22.5288C55.4872 26.7664 54.6512 31.2826 54.6866 35.8341Z" fill="#0873BA"/>
<path d="M53.6679 50.8789L55.5196 51.2305C52.9402 45.4648 51.9906 39.103 52.7741 32.8359C53.5576 26.5688 56.0441 20.6361 59.9637 15.6818L58.3342 17.7914L58.0935 18.143C57.4639 19.0312 57.1121 19.5679 56.6306 20.3636C56.1492 21.1593 55.6863 22.0846 54.7789 23.7871V23.8981L54.4271 24.6383C52.9545 27.8278 52.0042 31.233 51.6125 34.7237C51.2084 38.2036 51.3521 41.7253 52.0384 45.1607C52.4228 47.1085 52.9678 49.021 53.6679 50.8789Z" fill="#0873BA"/>
<path d="M50.7978 50.4903H50.8904L51.6681 50.6013C51.129 48.7895 50.7632 46.9306 50.5756 45.0497C50.2979 42.6706 50.2979 40.2673 50.5756 37.8882C50.5756 37.6476 50.5756 37.407 50.5756 37.1664V37.7216C50.4275 38.9615 50.3534 39.5721 50.2979 40.5159C50.2423 41.4597 50.2979 42.3664 50.2979 43.9949C50.2979 44.3095 50.2979 44.6426 50.2979 45.0127C50.2979 45.8639 50.2979 46.6967 50.4275 47.4924C50.4998 48.4974 50.6234 49.4979 50.7978 50.4903Z" fill="#0873BA"/>
<path d="M13.431 128.12C13.431 127.917 13.3014 127.713 13.2273 127.509V127.417C13.1347 127.195 13.0606 126.973 12.9866 126.751H12.931C12.931 126.547 12.7829 126.344 12.7273 126.14V126.048C12.7273 125.825 12.5977 125.603 12.5422 125.381C11.2496 124.365 10.0477 123.238 8.94989 122.013C7.90694 120.926 6.95333 119.756 6.09829 118.516C5.26825 117.277 4.54356 115.971 3.93181 114.611C3.40018 113.497 2.94846 112.347 2.58008 111.169C3.043 112.668 3.65406 114.463 4.11698 115.851L4.45028 116.702C6.31894 121.271 9.42983 125.226 13.431 128.12Z" fill="#0873BA"/>
<path d="M17.0231 136.17L16.6343 135.319L16.301 134.653V134.541C16.1899 134.282 16.0603 134.042 15.9492 133.783C15.8332 133.572 15.7281 133.356 15.6344 133.135V133.024C12.1112 130.772 9.304 127.562 7.54248 123.771C8.22761 125.27 9.22752 127.232 9.94968 128.712C10.1719 129.119 10.3941 129.545 10.6533 129.952C10.9126 130.359 11.0792 130.618 11.3014 130.951C11.8171 131.684 12.3865 132.376 13.005 133.024C13.6294 133.692 14.3042 134.31 15.0233 134.875C15.6635 135.346 16.3313 135.778 17.0231 136.17Z" fill="#0873BA"/>
<path d="M21.967 144.701L21.7448 144.349L21.5781 144.09C21.43 143.868 21.3004 143.646 21.1708 143.424L21.0041 143.183L20.4856 142.369V142.24L19.9857 141.407C19.2917 141.016 18.6181 140.59 17.9673 140.13C17.321 139.681 16.7026 139.193 16.1157 138.668C15.5677 138.092 15.0662 137.473 14.6158 136.818C14.2805 136.412 13.9712 135.986 13.6899 135.541L16.1342 139.593L16.3379 139.927C16.3766 139.991 16.4199 140.053 16.4675 140.112C16.7676 140.569 17.0953 141.008 17.4489 141.425C17.8646 141.909 18.3098 142.366 18.7821 142.795C19.2826 143.226 19.8082 143.628 20.356 143.998C20.9537 144.377 21.5719 144.723 22.2077 145.034L21.967 144.701Z" fill="#0873BA"/>
<path d="M28.0038 153.565L27.2816 152.566V152.455L27.0779 152.177L26.652 151.566L26.4298 151.252L26.1706 150.882L25.8928 150.493C25.3373 150.252 24.8189 150.012 24.3189 149.734C23.8515 149.458 23.4002 149.155 22.9672 148.828C22.5629 148.5 22.1795 148.148 21.8191 147.773C21.5286 147.474 21.2623 147.152 21.0229 146.81C20.9633 146.751 20.9133 146.682 20.8748 146.607L21.0414 146.866L24.2819 151.381C24.5406 151.724 24.8253 152.045 25.1336 152.344C25.4433 152.661 25.7846 152.946 26.1521 153.195C26.5373 153.461 26.9394 153.702 27.3557 153.917C27.8062 154.136 28.27 154.328 28.7444 154.49L28.2445 153.806L28.0038 153.565Z" fill="#0873BA"/>
<path d="M35.3917 163.132L35.1509 162.855L34.6325 162.207L34.3732 161.892L34.077 161.504L33.8177 161.189L33.2992 160.56L33.0585 160.264V160.153C32.6544 160.069 32.258 159.951 31.8734 159.801C31.519 159.675 31.1779 159.514 30.855 159.32C30.5499 159.155 30.2642 158.957 30.0032 158.728L29.6329 158.376L29.3181 157.988L30.6698 159.69L33.0585 162.725C33.8943 163.63 35.0499 164.175 36.2805 164.243C35.9842 163.909 35.7064 163.558 35.4287 163.225L35.3917 163.132Z" fill="#0873BA"/>
<path d="M44.595 173.828L43.984 173.144L43.7062 172.848L43.3544 172.459L43.0396 172.107C42.873 171.904 42.6878 171.719 42.5026 171.515L42.2434 171.201L42.1323 171.09L41.225 170.127H40.3732C40.135 170.107 39.8993 170.064 39.6695 169.998C39.4683 169.944 39.2752 169.863 39.0955 169.757L38.8548 169.406C38.8243 169.399 38.7927 169.399 38.7622 169.406L41.9471 172.977L42.947 174.069C43.0359 174.163 43.143 174.239 43.2618 174.291C43.4037 174.35 43.5534 174.387 43.7062 174.402C43.9033 174.42 44.1017 174.42 44.2988 174.402C44.5355 174.372 44.7704 174.329 45.0024 174.272V174.18L44.595 173.828Z" fill="#0873BA"/>
<path d="M53.6681 183.266L53.3163 182.914L52.7608 182.341L52.446 182.026L52.3164 181.915L51.335 180.897L51.1313 180.675L50.4091 179.954L49.8722 180.268L49.4833 180.472H49.187H49.0759L51.2424 182.711L53.3904 184.931L53.557 184.728L53.8348 184.413L54.2421 183.951L53.9459 183.673L53.6681 183.266Z" fill="#0873BA"/>
<path d="M64.3154 195.22C64.2378 195.062 64.1817 194.894 64.1487 194.721C64.1292 194.511 64.1292 194.301 64.1487 194.092C64.1328 193.839 64.1328 193.586 64.1487 193.333L63.5747 192.796L63.2414 192.5L63.0932 192.371L62.0378 191.408L61.8341 191.223L61.0749 190.483L60.8157 190.242L60.4268 189.872L60.038 189.521C59.9504 189.725 59.8762 189.936 59.8158 190.15C59.7932 190.316 59.7932 190.484 59.8158 190.65C59.7873 190.771 59.7873 190.898 59.8158 191.02C59.8361 191.105 59.8812 191.182 59.9454 191.242L60.2416 191.519L60.9453 192.167L63.3154 194.332L64.7042 195.59L64.5931 195.479C64.4785 195.42 64.3824 195.331 64.3154 195.22Z" fill="#0873BA"/>
<path d="M75.7034 204.991C75.5031 204.745 75.3293 204.478 75.1849 204.196C75.016 203.89 74.8795 203.567 74.7776 203.233C74.661 202.876 74.5682 202.511 74.4998 202.141L73.4258 201.253L73.2592 201.105L72.3889 200.402L72.1297 200.18L71.7408 199.847L71.3149 199.495L70.7594 199.033L70.4076 198.736L70.2224 198.588C70.2392 198.905 70.2763 199.22 70.3335 199.532C70.3976 199.808 70.478 200.08 70.5742 200.346C70.6753 200.58 70.7994 200.803 70.9446 201.013C71.0719 201.185 71.2144 201.346 71.3705 201.494L71.9074 201.956L72.9629 202.826L76.333 205.62L75.8886 205.287C75.8162 205.196 75.7541 205.096 75.7034 204.991Z" fill="#0873BA"/>
<path d="M88.2947 214.725L88.5169 214.892H88.6835L88.054 214.448L88.2947 214.725Z" fill="#0873BA"/>
<path d="M86.4802 212.93C86.1417 212.509 85.8441 212.057 85.5914 211.579C85.3065 211.083 85.0649 210.563 84.8692 210.025L84.573 209.821L84.0175 209.414L83.8138 209.266L83.536 209.062L82.9805 208.674L82.7583 208.489L82.4991 208.304L81.9436 207.897L81.6843 207.712L81.4436 207.527L80.8881 207.119L80.6104 206.897C80.7402 207.354 80.9074 207.8 81.1103 208.23C81.3033 208.631 81.5197 209.02 81.7584 209.396C81.9987 209.742 82.2649 210.07 82.5546 210.376C82.8256 210.675 83.1301 210.942 83.462 211.172L88.0541 214.54L87.4986 214.059C87.131 213.709 86.7906 213.332 86.4802 212.93Z" fill="#0873BA"/>
<path d="M98.9603 221.757C98.3625 221.293 97.7936 220.792 97.2568 220.258C96.1429 219.098 95.1844 217.798 94.4051 216.391L94.1274 216.206L93.6089 215.909L93.4423 215.798L93.183 215.632L92.6646 215.317L92.4794 215.206L92.2387 215.04L91.7202 214.707C91.6458 214.675 91.5771 214.631 91.5165 214.577C91.43 214.539 91.349 214.489 91.2758 214.429L90.7573 214.096L90.5166 213.948C90.8349 214.583 91.1872 215.201 91.5721 215.798C91.9406 216.368 92.3556 216.907 92.8127 217.408C93.2445 217.896 93.7152 218.348 94.22 218.759L94.5903 219.055C94.9726 219.348 95.3748 219.614 95.7939 219.851L99.3121 222.053L98.9603 221.757Z" fill="#0873BA"/>
<path d="M107.219 225.902C106.428 225.207 105.686 224.459 104.997 223.663C104.278 222.833 103.616 221.955 103.016 221.035L102.756 220.906L102.294 220.684H102.182L101.923 220.554L101.46 220.314H101.312L101.071 220.092L100.627 219.851H100.46L100.22 219.74L99.7567 219.499L99.5715 219.388C100.082 220.231 100.644 221.041 101.257 221.813C101.827 222.538 102.445 223.225 103.108 223.867C103.776 224.485 104.487 225.054 105.238 225.569C105.534 225.773 105.849 225.976 106.182 226.161C106.618 226.433 107.07 226.68 107.534 226.902L107.923 227.105L110.682 228.493L109.589 227.845C108.748 227.262 107.956 226.612 107.219 225.902Z" fill="#0873BA"/>
<path d="M111.404 228.715L112.237 229.122L110.7 228.345L111.404 228.715Z" fill="#0873BA"/>
<path d="M124.199 233.897L122.496 233.304C123.051 233.526 123.625 233.711 124.199 233.897Z" fill="#0873BA"/>
<path d="M116.755 230.232C115.575 229.401 114.466 228.473 113.441 227.457C112.361 226.399 111.365 225.261 110.459 224.052H110.219L109.83 223.922H109.608L109.2 223.793H108.96L108.571 223.645H108.441H108.237L107.83 223.496H107.682C108.433 224.54 109.249 225.535 110.126 226.476C110.971 227.381 111.887 228.216 112.867 228.974C113.802 229.72 114.793 230.394 115.829 230.991C116.717 231.487 117.632 231.932 118.57 232.324L119.014 232.49L120.644 233.101L122.681 233.804C121.958 233.526 121.255 233.23 120.551 232.879C119.214 232.104 117.944 231.219 116.755 230.232Z" fill="#0873BA"/>
<path d="M126.513 233.397C124.667 232.426 122.918 231.28 121.291 229.973C119.588 228.602 118.025 227.064 116.625 225.384H116.422H116.107H115.848H115.533H115.329H115.014H114.774H114.588H114.255H114.218C115.334 226.822 116.573 228.159 117.921 229.381C119.262 230.422 120.687 231.35 122.18 232.157C125.074 233.933 128.258 235.186 131.587 235.858C132.679 236.062 134.013 236.247 135.29 236.432C134.198 236.234 133.116 235.981 132.05 235.673C130.134 235.099 128.279 234.336 126.513 233.397Z" fill="#0873BA"/>
<path d="M135.365 236.395C135.957 236.395 136.55 236.58 137.216 236.635H138.049H137.883L135.365 236.395Z" fill="#0873BA"/>
<path d="M156.011 235.044C155.252 235.266 154.474 235.451 153.696 235.618L156.011 235.044Z" fill="#0873BA"/>
<path d="M137.901 235.155C134.823 234.336 131.875 233.09 129.143 231.454C126.266 229.719 123.654 227.582 121.384 225.107H121.236H120.995H120.847H120.588H120.44H120.18H119.977H119.718C121.562 227.199 123.65 229.063 125.939 230.658C128.116 232.167 130.466 233.41 132.939 234.359C135.355 235.273 137.873 235.894 140.438 236.21C142.972 236.506 145.533 236.506 148.067 236.21L148.882 236.099C150.474 235.895 151.215 235.784 152.418 235.525L153.826 235.173C148.601 236.301 143.18 236.143 138.031 234.711L137.901 235.155Z" fill="#0873BA"/>
<path d="M124.588 222.923V223.034L124.403 223.219C124.349 223.264 124.299 223.313 124.255 223.367H124.143L123.977 223.515C131.661 231.324 149.9 241.114 169.417 228.289C170.153 227.796 170.858 227.258 171.528 226.679C172.213 226.106 173.047 225.329 174.695 223.811C175.158 223.33 175.657 222.775 176.176 222.201V222.294C163.77 235.303 142.086 238.782 124.588 222.923Z" fill="#0873BA"/>
<path d="M176.972 221.165C176.565 221.683 176.12 222.164 175.676 222.645L176.972 221.165Z" fill="#0873BA"/>
<path d="M183.287 209.377C182.506 210.934 181.602 212.425 180.583 213.837C179.53 215.31 178.353 216.69 177.065 217.963C173.753 221.28 169.804 223.892 165.455 225.643C161.17 227.391 156.601 228.338 151.975 228.438C147.324 228.526 142.696 227.78 138.309 226.235C133.806 224.631 129.652 222.182 126.069 219.018V219.407C126.078 219.542 126.078 219.678 126.069 219.814V220.092L125.977 220.406V220.517L125.866 220.887C132.876 227.357 142.081 230.929 151.623 230.88C156.221 230.867 160.775 229.988 165.047 228.289C169.386 226.548 173.323 223.941 176.621 220.628C177.501 219.752 178.33 218.826 179.102 217.852C179.859 216.905 180.564 215.917 181.213 214.892C181.847 213.88 182.428 212.836 182.953 211.764C183.305 211.042 183.638 210.302 183.935 209.544L184.324 208.526L184.453 208.119C184.824 206.99 185.212 205.602 185.527 204.529V204.418C185.675 203.751 185.823 202.993 185.972 202.234C185.786 203.048 185.564 203.862 185.323 204.677C184.761 206.291 184.08 207.862 183.287 209.377Z" fill="#0873BA"/>
<path d="M185.823 202.178C185.99 201.475 186.12 200.791 186.231 200.087V199.717V199.847C186.138 200.55 185.99 201.364 185.823 202.178Z" fill="#0873BA"/>
<path d="M186.009 183.784C186.009 183.284 185.86 182.803 185.786 182.378C185.786 182.692 185.879 183.025 185.934 183.34C189.638 213.504 152.086 232.62 125.718 213.411L125.829 214.022C125.838 214.188 125.838 214.355 125.829 214.521V214.688V215.132V215.262V215.817C148.049 233.841 187.342 220.887 186.36 188.67V188.207C186.471 187.004 186.231 185.302 186.009 183.784Z" fill="#0873BA"/>
<path d="M183.638 173.828L183.286 172.699C182.897 171.589 182.453 170.386 182.064 169.294C182.778 171.435 183.189 173.665 183.286 175.919C183.413 178.588 183.125 181.259 182.435 183.84C181.708 186.599 180.605 189.245 179.157 191.704C177.559 194.401 175.631 196.887 173.417 199.107C170.045 202.472 166.133 205.249 161.844 207.323C157.665 209.361 153.191 210.729 148.586 211.376C144.156 212.033 139.647 211.926 135.254 211.061C131.028 210.249 127.013 208.58 123.458 206.157C123.569 206.398 123.662 206.638 123.755 206.86V206.971L123.977 207.564V207.675C123.977 207.915 124.143 208.137 124.217 208.359V208.47C124.217 208.655 124.366 208.859 124.421 209.044V209.136C128.004 211.779 132.086 213.668 136.42 214.688C140.841 215.724 145.407 215.993 149.919 215.484C154.54 214.978 159.048 213.728 163.27 211.783C167.586 209.792 171.517 207.054 174.88 203.696C177.019 201.601 178.886 199.245 180.435 196.682C181.846 194.321 182.936 191.782 183.675 189.132C184.382 186.621 184.731 184.024 184.712 181.415C184.701 179.042 184.358 176.681 183.694 174.402C183.694 174.235 183.694 174.069 183.564 173.902L183.638 173.828Z" fill="#0873BA"/>
<path d="M176.787 157.747L176.139 156.507L176.342 156.933C177.236 158.859 177.787 160.925 177.972 163.04C178.19 165.67 177.952 168.318 177.268 170.867C176.517 173.73 175.35 176.467 173.806 178.991C172.066 181.872 169.977 184.526 167.584 186.893C164.203 190.268 160.356 193.14 156.159 195.424C152.083 197.638 147.721 199.282 143.197 200.309C139.02 201.29 134.713 201.596 130.439 201.216C126.534 200.894 122.744 199.732 119.329 197.811V197.922L119.699 198.625C119.847 198.884 119.995 199.143 120.125 199.403V199.514L120.477 200.198L120.866 200.976C124.336 203.121 128.225 204.503 132.272 205.028C136.585 205.599 140.963 205.468 145.234 204.64C149.751 203.762 154.117 202.235 158.196 200.106C162.633 198.109 166.727 195.423 170.324 192.148C172.644 189.832 174.672 187.241 176.361 184.432C177.864 181.91 178.999 179.187 179.731 176.345C180.406 173.756 180.65 171.074 180.453 168.406C180.28 166.23 179.767 164.095 178.935 162.077C178.853 161.863 178.761 161.653 178.657 161.448L178.509 161.115C178.009 160.097 177.379 158.894 176.787 157.747Z" fill="#0873BA"/>
<path d="M114.441 189.539V189.669L115.07 190.65L115.219 190.853L115.663 191.556C115.705 191.647 115.755 191.733 115.811 191.816L116.033 192.167L116.255 192.519C119.538 194.121 123.138 194.969 126.792 194.998C130.963 195.054 135.12 194.487 139.124 193.314C148.146 190.665 156.363 185.805 163.029 179.176C165.479 176.756 167.642 174.061 169.473 171.145C171.074 168.652 172.32 165.949 173.176 163.114C173.915 160.695 174.204 158.161 174.028 155.638C173.852 153.341 173.142 151.117 171.954 149.142L169.214 144.849L169.066 144.627L168.806 144.22L168.936 144.423C170.018 146.194 170.654 148.201 170.788 150.271C170.945 152.725 170.637 155.186 169.88 157.525C169.019 160.33 167.773 163.001 166.177 165.464C164.284 168.383 162.08 171.088 159.604 173.532C156.21 176.916 152.432 179.891 148.345 182.396C144.473 184.803 140.334 186.752 136.013 188.207C132.149 189.536 128.115 190.303 124.033 190.483C120.566 190.64 117.108 190.008 113.922 188.633C114.052 188.818 114.163 189.003 114.293 189.169C114.329 189.298 114.378 189.422 114.441 189.539Z" fill="#0873BA"/>
<path d="M107.793 180.102C107.853 180.161 107.903 180.23 107.941 180.305L108.515 181.064L108.7 181.323L108.997 181.712L109.274 182.082L109.645 182.6L109.904 182.951L110.015 183.1C113.043 184.074 116.255 184.34 119.403 183.877C123.324 183.35 127.159 182.311 130.809 180.786C135 179.071 139.008 176.938 142.771 174.421C146.776 171.787 150.499 168.748 153.882 165.353C156.383 162.882 158.646 160.18 160.64 157.285C162.332 154.901 163.72 152.314 164.769 149.586C165.597 147.426 165.999 145.126 165.955 142.813C165.915 141.093 165.437 139.412 164.566 137.928C164.566 137.761 164.362 137.613 164.251 137.447L163.14 135.911L162.14 134.542L160.677 132.58C161.681 133.992 162.189 135.697 162.122 137.428C162.054 139.633 161.57 141.806 160.696 143.831C159.563 146.445 158.147 148.927 156.474 151.233C154.4 154.11 152.09 156.809 149.567 159.302C146.178 162.701 142.498 165.797 138.568 168.554C134.882 171.154 130.972 173.421 126.884 175.327C123.398 176.995 119.724 178.238 115.94 179.028C113.022 179.699 109.989 179.699 107.071 179.028L107.849 180.046L107.793 180.102Z" fill="#0873BA"/>
<path d="M149.715 129.934C148.308 132.351 146.71 134.653 144.938 136.818C142.69 139.593 140.292 142.243 137.753 144.757C134.355 148.142 130.776 151.342 127.032 154.342C123.551 157.129 119.916 159.718 116.144 162.096C113.035 164.087 109.765 165.814 106.367 167.259C104.046 168.362 101.528 168.991 98.9604 169.11L99.1086 169.295C99.3308 169.572 99.5715 169.85 99.8122 170.109L100.016 170.368L100.331 170.756L100.683 171.164L101.108 171.682C101.108 171.793 101.294 171.922 101.405 172.033L101.534 172.2L102.405 173.255C105.125 173.493 107.866 173.146 110.441 172.237C114.014 171.077 117.458 169.552 120.718 167.685C124.638 165.492 128.395 163.018 131.958 160.282C135.784 157.392 139.409 154.245 142.808 150.863C145.367 148.368 147.755 145.703 149.956 142.887C151.697 140.653 153.216 138.254 154.493 135.726C155.448 133.907 156.075 131.933 156.344 129.897C156.538 128.541 156.236 127.161 155.493 126.011C155.445 125.952 155.402 125.89 155.363 125.826L154.641 124.956L154.085 124.271L151.363 121.014C151.718 121.515 151.956 122.09 152.059 122.695C152.161 123.301 152.126 123.922 151.956 124.512C151.504 126.427 150.748 128.258 149.715 129.934Z" fill="#0873BA"/>
<path d="M90.9611 160.079L91.4241 160.56L91.7574 160.93L91.9425 161.115L92.8869 162.151L93.7387 163.095C96.0339 162.48 98.2245 161.525 100.238 160.264C103.36 158.432 106.371 156.417 109.256 154.231C112.552 151.788 116.089 148.957 119.644 145.885C123.199 142.813 126.773 139.501 130.18 136.096C132.976 133.302 135.439 130.674 137.587 128.25C139.415 126.174 141.127 123.999 142.716 121.736C143.806 120.246 144.714 118.631 145.419 116.924C145.882 115.648 145.901 114.741 145.419 114.223L145.216 114.019L142.179 110.725L141.142 109.596C141.364 109.929 141.142 110.633 140.568 111.687C139.657 113.225 138.623 114.685 137.476 116.055C136.05 117.905 134.235 119.941 132.087 122.291L130.55 123.938C128.699 125.788 126.847 127.88 124.625 130.045C123.44 131.229 122.236 132.413 120.921 133.579C118.662 135.763 116.385 137.928 114.126 139.982L111.885 142.018L111.533 142.332L108.552 144.96C107.034 146.292 105.552 147.551 104.127 148.661L102.701 149.827L100.553 151.566C98.7012 152.973 97.1458 154.231 95.6644 155.267C94.6275 156.008 93.6831 156.655 92.8128 157.211C91.8765 157.831 90.892 158.376 89.8687 158.839L90.0909 159.08L90.4427 159.468L90.9611 160.079Z" fill="#0873BA"/>
<path d="M81.1469 150.03L81.3506 150.215L82.3876 151.233L82.9986 151.825L83.3875 152.214L83.5912 152.418L83.9615 152.788L84.4059 153.232C92.4052 145.663 132.365 106.006 134.827 103.045V102.953L131.124 99.2518C130.992 99.1442 130.868 99.0267 130.754 98.9002L130.439 98.6041L130.328 98.4931C130.124 98.345 129.513 98.6411 128.476 99.3258C127.439 100.011 126.087 101.176 124.365 102.657C122.643 104.137 120.662 106.025 118.292 108.208C115.922 110.392 113.385 112.909 110.57 115.703C107.163 119.108 103.756 122.606 100.516 126.011C97.2751 129.415 94.2199 132.709 91.4794 135.744C88.7389 138.779 86.3502 141.536 84.4429 143.831C82.9909 145.537 81.6429 147.33 80.4062 149.198C80.5544 149.346 80.721 149.494 80.8692 149.66L81.1469 150.03Z" fill="#0873BA"/>
<path d="M83.5545 128.416C86.0358 125.159 88.8504 121.662 91.9982 118.127L94.1462 115.721C95.9979 113.612 98.0533 111.502 100.072 109.43L101.923 107.579C104.719 104.785 107.349 102.324 109.756 100.177C110.737 99.3073 111.608 98.53 112.589 97.7898C113.885 96.735 115.126 95.7912 116.292 95.014C116.922 94.5699 117.496 94.1998 118.144 93.8482C119.022 93.2905 119.944 92.8076 120.903 92.4048C121.568 92.0752 122.316 91.9527 123.051 92.0532C123.185 92.0923 123.31 92.155 123.421 92.2382L120.329 89.4809L119.533 88.7037L118.588 87.871L118.477 87.7599C118.017 87.5069 117.508 87.3546 116.985 87.3131C116.461 87.2717 115.935 87.342 115.441 87.5194C113.607 88.0535 111.86 88.8515 110.256 89.888C107.888 91.3586 105.63 92.9975 103.497 94.792C100.735 97.0622 98.0899 99.471 95.572 102.009C92.1093 105.358 88.8504 109.06 85.8506 112.65C82.9989 116.071 80.3229 119.635 77.8328 123.327C75.7421 126.333 73.8849 129.494 72.2777 132.783C71.1211 134.98 70.3744 137.37 70.0742 139.834L71.0926 140.741L72.1296 141.666L72.3333 141.851L72.7221 142.203L73.2221 142.647L73.6665 143.035L74.0553 143.405L74.2776 143.609C74.4719 142.929 74.7068 142.262 74.9812 141.61C75.6438 140.106 76.4047 138.648 77.2588 137.243L77.6847 136.595C78.8512 134.967 80.0733 133.116 81.4436 131.266C82.1472 130.304 82.8324 129.415 83.5545 128.416Z" fill="#0873BA"/>
<path d="M86.591 94.4773C89.1027 91.9505 91.7813 89.595 94.6088 87.4268C96.8559 85.6841 99.2685 84.1656 101.812 82.893C103.627 81.9427 105.595 81.3165 107.626 81.0425C108.983 80.8364 110.368 81.1396 111.515 81.8937H111.644L111.311 81.6346L106.811 78.2112L106.441 77.8966L106.2 77.73C104.898 76.8889 103.36 76.4868 101.812 76.5827C99.6535 76.6966 97.5361 77.2178 95.5717 78.1186C92.9539 79.2763 90.4703 80.7159 88.1649 82.4119C85.2984 84.5063 82.5991 86.8203 80.0916 89.3329C76.7121 92.7266 73.6157 96.3905 70.8331 100.288C68.1922 103.922 65.8631 107.772 63.8708 111.798C62.1368 115.216 60.807 118.825 59.9081 122.55C59.151 125.357 59.0434 128.3 59.5934 131.155L60.7044 132.025L60.9081 132.191L61.2969 132.487L61.8154 132.913L62.2598 133.265L62.6672 133.598L62.9079 133.783L63.8152 134.523L63.9819 134.652C63.772 131.946 64.1445 129.227 65.0744 126.677C66.2785 123.125 67.8355 119.703 69.7221 116.462C71.9223 112.588 74.3976 108.878 77.1288 105.358C80.0319 101.521 83.1933 97.8854 86.591 94.4773Z" fill="#0873BA"/>
<path d="M71.1664 82.6711C73.6366 80.1994 76.3264 77.9572 79.2027 75.9721C81.5867 74.354 84.1615 73.0363 86.8687 72.049C89.0332 71.2282 91.3309 70.8141 93.6459 70.8276C95.5686 70.8497 97.4448 71.4212 99.0528 72.4746L94.9976 69.6803L93.794 68.8476L93.3867 68.607C91.7087 67.7025 89.8474 67.19 87.9427 67.1081C85.5358 67.0283 83.134 67.3793 80.8507 68.1444C78.098 69.0724 75.4776 70.3539 73.0551 71.9565C70.1816 73.8522 67.5132 76.0414 65.0928 78.4889C61.6957 81.8643 58.7007 85.6212 56.1677 89.6846C53.7285 93.5299 51.7344 97.6398 50.2238 101.935C48.8557 105.748 48.0328 109.735 47.7796 113.779C47.5364 117.172 48.0682 120.576 49.335 123.734L49.6498 123.956L50.2053 124.327L50.3719 124.438L50.6682 124.641L51.2237 125.03L51.4089 125.159L51.6866 125.363L52.2421 125.751L52.4643 125.899L52.7236 126.085L53.2791 126.492L53.5383 126.658C52.5396 123.624 52.2607 120.399 52.7236 117.239C53.2344 113.313 54.2681 109.473 55.7974 105.821C57.4997 101.624 59.628 97.612 62.1487 93.8483C64.7783 89.8344 67.7989 86.0904 71.1664 82.6711Z" fill="#0873BA"/>
<path d="M40.2434 118.016L40.7063 118.312L41.0211 118.497L41.521 118.794H41.6507L41.9469 118.96L42.4469 119.275H42.595L42.8728 119.441L43.3913 119.756L43.5579 119.867C41.9298 116.565 41.057 112.943 41.0026 109.263C40.9098 105.085 41.453 100.917 42.6135 96.9017C45.2183 87.8626 50.0727 79.6306 56.7234 72.9743C59.1679 70.64 61.8702 68.5912 64.7783 66.8676C67.2352 65.3116 69.8961 64.1034 72.685 63.2775C75.0844 62.5579 77.5901 62.2574 80.0917 62.3893C82.3551 62.528 84.5607 63.1596 86.5541 64.2398H86.443L81.8694 61.6121L81.5731 61.427H81.4435C79.3306 60.3815 77.0358 59.7532 74.6848 59.5765C72.0957 59.4153 69.498 59.6905 67.0003 60.3907C64.1926 61.178 61.507 62.3487 59.0195 63.8697C56.1956 65.6066 53.5854 67.6686 51.2424 70.0135C47.8952 73.3562 45.0398 77.1568 42.7617 81.3017C40.5019 85.3689 38.8133 89.7278 37.7436 94.2555C36.7254 98.3988 36.3692 102.677 36.6881 106.932C36.952 110.788 38.058 114.54 39.9286 117.924L40.2434 118.016Z" fill="#0873BA"/>
<path d="M74.7772 57.8739L71.1664 56.2454L70.185 55.8198L69.3517 55.5052C67.1996 54.7094 64.94 54.2415 62.6486 54.1173C59.9705 53.9762 57.2865 54.2382 54.6863 54.8945C51.8924 55.6185 49.2126 56.7271 46.7241 58.1885C43.9909 59.7969 41.4713 61.7429 39.2247 63.9807C35.8627 67.349 33.0732 71.2431 30.9662 75.5095C28.8991 79.6657 27.4875 84.1164 26.7814 88.7038C26.0852 93.1041 26.1415 97.5906 26.948 101.972C27.6928 106.167 29.3007 110.162 31.6698 113.704H31.855L32.4476 113.964L32.7253 114.075L33.2253 114.297L33.503 114.426L33.9659 114.648H34.0585L34.3363 114.796L34.7992 115.018C32.6357 111.531 31.2289 107.629 30.6699 103.564C30.0812 99.2559 30.1938 94.8815 31.0032 90.6098C31.9178 86.0672 33.4963 81.6838 35.688 77.6006C37.8728 73.3596 40.7025 69.483 44.0762 66.1088C46.3975 63.8235 48.998 61.8401 51.8162 60.2056C54.3201 58.7221 57.0187 57.5947 59.834 56.8561C62.4068 56.1881 65.0692 55.932 67.7222 56.0974C70.2079 56.2839 72.6406 56.9105 74.9068 57.9479H75.0364L74.7772 57.8739Z" fill="#0873BA"/>
<path d="M62.6489 53.0809C61.2416 52.6553 59.4084 52.1742 57.9086 51.7855L57.3716 51.693L56.9272 51.582C56.205 51.4339 55.3718 51.3044 54.7052 51.2119C27.7445 47.6774 4.98728 83.6332 24.6337 111.299L25.0966 111.41H25.2818L25.9484 111.595L26.5595 111.78H26.7817L27.2446 111.928C26.8557 111.373 26.3187 110.614 25.9484 110.077C10.8757 85.7983 31.6146 45.2532 62.6489 53.0809Z" fill="#0873BA"/>
<path d="M20.6525 59.6134C17.3452 62.9329 14.7218 66.8687 12.9309 71.1977C11.1569 75.4764 10.1719 80.0405 10.0238 84.6696C9.873 89.3105 10.5502 93.9413 12.0236 98.345C13.5428 102.848 15.9197 107.014 19.023 110.614H20.671H21.1524C3.24661 88.2226 16.4306 48.9913 48.65 50.1941H48.5019H46.9835H46.8909C45.2985 50.1941 43.1876 50.1941 41.6321 50.1941C39.7593 50.2935 37.8996 50.5661 36.0771 51.0084C34.2052 51.4629 32.3772 52.0822 30.6146 52.8589C28.8116 53.6688 27.0829 54.6348 25.4484 55.7457C23.7337 56.8842 22.1282 58.1789 20.6525 59.6134Z" fill="#0873BA"/>
<path d="M4.41309 86.076C4.43103 90.7042 5.32312 95.2875 7.04249 99.5849C8.82134 104.062 11.4496 108.152 14.7825 111.632L14.9677 111.521H15.0788L15.2825 111.428H15.3936H15.6158H15.7454H15.9861H16.1158C-1.29012 90.5543 5.70927 60.9458 30.1886 52.1558H30.2812H30.1331C28.374 52.7664 26.1149 53.6547 24.4113 54.3764C23.467 54.8205 22.2634 55.5052 21.319 56.0049C20.745 56.338 20.171 56.6896 19.6155 57.0782C19.06 57.4668 18.4674 57.8739 17.8934 58.2995C17.3194 58.7252 16.7824 59.1693 16.2454 59.6504C15.7084 60.1316 15.1899 60.6127 14.6714 61.1123C11.3561 64.3923 8.75834 68.3244 7.04249 72.6597C5.30794 76.9203 4.41506 81.4762 4.41309 86.076Z" fill="#0873BA"/>
<path d="M5.33886 105.507C7.159 108.808 9.47596 111.81 12.2086 114.408C12.2086 114.408 12.2086 114.223 12.3568 114.149L12.4864 113.908L12.6901 113.612L12.8752 113.371C-0.0310389 99.2703 -1.38277 80.8575 9.57923 66.0718L9.69033 65.9237L9.4311 66.2568L8.26453 67.7927L8.06085 68.0333C8.06085 68.1629 7.89419 68.2739 7.82013 68.3849C7.19055 69.2732 6.83873 69.8098 6.35729 70.6056C5.87585 71.4013 5.41293 72.3266 4.5056 74.029V74.1401L4.15378 74.8803C2.64598 78.0761 1.6643 81.4942 1.24663 85.0027C0.842052 88.4887 0.985752 92.0166 1.67252 95.4582C2.37163 98.9758 3.60821 102.365 5.33886 105.507Z" fill="#0873BA"/>
<path d="M11.3941 118.923V118.312C11.3941 118.146 11.3941 117.998 11.3941 117.831C11.3941 117.702 11.3941 117.572 11.3941 117.461V117.313C11.385 117.202 11.385 117.091 11.3941 116.98V116.887C9.29171 114.941 7.43269 112.748 5.85751 110.355C4.3306 108.091 3.08688 105.649 2.15413 103.082C1.22133 100.577 0.599458 97.9669 0.302443 95.3102C0.0339601 92.9306 0.0339601 90.5283 0.302443 88.1486C0.302443 87.9081 0.302443 87.6675 0.302443 87.4269V87.9821C0.154307 89.222 0.0802399 89.8326 0.0246892 90.7764C-0.0308615 91.7202 0.0246892 92.6269 0.0246892 94.2554V95.2732C0.0246892 96.1244 0.0246892 96.9572 0.154307 97.7529C1.1357 109.356 8.78318 116.462 11.3941 118.923Z" fill="#0873BA"/>
<path d="M0.913292 104.285C1.02439 104.952 1.17253 105.618 1.33918 106.284L1.45028 106.691C1.2466 105.821 1.04291 104.97 0.894775 104.211L0.913292 104.285Z" fill="#0873BA"/>
<path d="M6.09837 118.479C6.95179 119.732 7.90544 120.914 8.94997 122.013C10.0284 123.15 11.1989 124.196 12.4497 125.141C12.377 124.928 12.3152 124.712 12.2645 124.493V124.364L12.0978 123.864V123.66C12.0453 123.504 12.0081 123.343 11.9867 123.179V123.068C11.9867 122.865 11.9867 122.68 11.8571 122.476C10.3829 121.288 9.0138 119.976 7.76489 118.553C6.58329 117.186 5.52377 115.719 4.5985 114.167C3.70073 112.655 2.9445 111.063 2.33944 109.411C2.02687 108.594 1.76103 107.76 1.54321 106.913C1.858 108.264 2.1913 109.652 2.48757 110.799L2.59868 111.169V111.373C2.96986 112.481 3.41527 113.563 3.93189 114.611C4.54548 115.958 5.27014 117.252 6.09837 118.479Z" fill="#0873BA"/>
</svg>
