<svg width="185" height="223" viewBox="0 0 185 223" fill="none" xmlns="http://www.w3.org/2000/svg">
<g opacity="0.9">
<path d="M92.4998 60.0515C108.874 60.0515 122.148 46.8324 122.148 30.5258C122.148 14.2191 108.874 1 92.4998 1C76.1257 1 62.8518 14.2191 62.8518 30.5258C62.8518 46.8324 76.1257 60.0515 92.4998 60.0515Z" stroke="white" stroke-width="0.6" stroke-miterlimit="10"/>
<path d="M123.983 35.4112C124.037 18.1034 109.992 4.02854 92.6124 3.97419C75.2324 3.91984 61.0989 17.9066 61.0442 35.2144C60.9896 52.5222 75.0346 66.597 92.4145 66.6514C109.795 66.7057 123.928 52.719 123.983 35.4112Z" stroke="white" stroke-width="0.6" stroke-miterlimit="10"/>
<path d="M92.5515 73.5424C111.081 73.5103 126.076 58.5189 126.044 40.0582C126.011 21.5976 110.964 6.65842 92.4343 6.69062C73.9046 6.72281 58.9095 21.7142 58.9419 40.1748C58.9743 58.6354 74.0218 73.5746 92.5515 73.5424Z" stroke="white" stroke-width="0.6" stroke-miterlimit="10"/>
<path d="M92.5765 80.61C112.383 80.5687 128.405 64.54 128.363 44.8088C128.322 25.0777 112.232 9.11588 92.4261 9.15717C72.62 9.19846 56.5976 25.2272 56.6391 44.9583C56.6807 64.6895 72.7704 80.6513 92.5765 80.61Z" stroke="white" stroke-width="0.6" stroke-miterlimit="10"/>
<path d="M92.5 87.8863C113.684 87.8863 130.857 70.7792 130.857 49.6765C130.857 28.5738 113.684 11.4667 92.5 11.4667C71.3159 11.4667 54.1428 28.5738 54.1428 49.6765C54.1428 70.7792 71.3159 87.8863 92.5 87.8863Z" stroke="white" stroke-width="0.6" stroke-miterlimit="10"/>
<path d="M92.5003 95.2905C115.138 95.2905 133.49 77.0102 133.49 54.4603C133.49 31.9103 115.138 13.63 92.5003 13.63C69.8623 13.63 51.5105 31.9103 51.5105 54.4603C51.5105 77.0102 69.8623 95.2905 92.5003 95.2905Z" stroke="white" stroke-width="0.6" stroke-miterlimit="10"/>
<path d="M92.5002 102.832C116.668 102.832 136.26 83.3168 136.26 59.2439C136.26 35.1711 116.668 15.6561 92.5002 15.6561C68.3321 15.6561 48.74 35.1711 48.74 59.2439C48.74 83.3168 68.3321 102.832 92.5002 102.832Z" stroke="white" stroke-width="0.6" stroke-miterlimit="10"/>
<path d="M138.924 63.9061C138.924 38.2598 118.05 17.4693 92.3012 17.4693C66.5523 17.4693 45.6787 38.2598 45.6787 63.9061C45.6787 89.5524 66.5523 110.343 92.3012 110.343C118.05 110.343 138.924 89.5524 138.924 63.9061Z" stroke="white" stroke-width="0.6" stroke-miterlimit="10"/>
<path d="M135.495 93.3707C130.615 101.834 123.325 108.668 114.545 113.008C105.764 117.347 95.8886 118.999 86.1656 117.753C76.4426 116.507 67.3088 112.42 59.919 106.009C52.5291 99.5972 47.2148 91.1487 44.6479 81.7313C42.081 72.314 42.3767 62.3506 45.4976 53.1005C48.6185 43.8504 54.4245 35.7289 62.1818 29.7626C69.939 23.7963 79.2991 20.2531 89.0791 19.5808C98.859 18.9085 108.62 21.1373 117.127 25.9856C122.784 29.2045 127.747 33.5023 131.732 38.633C135.718 43.7638 138.648 49.6266 140.354 55.8858C142.06 62.1451 142.509 68.6778 141.675 75.11C140.841 81.5422 138.741 87.7476 135.495 93.3707V93.3707Z" stroke="white" stroke-width="0.6" stroke-miterlimit="10"/>
<path d="M92.4999 125.974C121.537 125.974 145.076 102.53 145.076 73.6108C145.076 44.6914 121.537 21.2476 92.4999 21.2476C63.4627 21.2476 39.9233 44.6914 39.9233 73.6108C39.9233 102.53 63.4627 125.974 92.4999 125.974Z" stroke="white" stroke-width="0.6" stroke-miterlimit="10"/>
<path d="M92.4998 133.82C123.228 133.82 148.138 109.005 148.138 78.3947C148.138 47.784 123.228 22.9691 92.4998 22.9691C61.7719 22.9691 36.8621 47.784 36.8621 78.3947C36.8621 109.005 61.7719 133.82 92.4998 133.82Z" stroke="white" stroke-width="0.6" stroke-miterlimit="10"/>
<path d="M92.5 141.712C124.952 141.712 151.26 115.506 151.26 83.1784C151.26 50.8513 124.952 24.6449 92.5 24.6449C60.0476 24.6449 33.7397 50.8513 33.7397 83.1784C33.7397 115.506 60.0476 141.712 92.5 141.712Z" stroke="white" stroke-width="0.6" stroke-miterlimit="10"/>
<path d="M92.4999 149.65C126.702 149.65 154.428 122.031 154.428 87.9624C154.428 53.8935 126.702 26.2751 92.4999 26.2751C58.2977 26.2751 30.5713 53.8935 30.5713 87.9624C30.5713 122.031 58.2977 149.65 92.4999 149.65Z" stroke="white" stroke-width="0.6" stroke-miterlimit="10"/>
<path d="M92.4999 157.618C128.46 157.618 157.612 128.574 157.612 92.7462C157.612 56.9188 128.46 27.8749 92.4999 27.8749C56.5394 27.8749 27.3877 56.9188 27.3877 92.7462C27.3877 128.574 56.5394 157.618 92.4999 157.618Z" stroke="white" stroke-width="0.6" stroke-miterlimit="10"/>
<path d="M92.5001 165.601C130.244 165.601 160.842 135.124 160.842 97.53C160.842 59.9355 130.244 29.4592 92.5001 29.4592C54.7559 29.4592 24.1582 59.9355 24.1582 97.53C24.1582 135.124 54.7559 165.601 92.5001 165.601Z" stroke="white" stroke-width="0.6" stroke-miterlimit="10"/>
<path d="M92.5003 173.645C132.037 173.645 164.087 141.716 164.087 102.329C164.087 62.9424 132.037 31.0132 92.5003 31.0132C52.9641 31.0132 20.9136 62.9424 20.9136 102.329C20.9136 141.716 52.9641 173.645 92.5003 173.645Z" stroke="white" stroke-width="0.6" stroke-miterlimit="10"/>
<path d="M92.5002 181.689C133.845 181.689 167.362 148.3 167.362 107.113C167.362 65.9258 133.845 32.5369 92.5002 32.5369C51.1549 32.5369 17.6379 65.9258 17.6379 107.113C17.6379 148.3 51.1549 181.689 92.5002 181.689Z" stroke="white" stroke-width="0.6" stroke-miterlimit="10"/>
<path d="M92.4997 189.749C135.671 189.749 170.668 154.893 170.668 111.897C170.668 68.9005 135.671 34.045 92.4997 34.045C49.3285 34.045 14.3313 68.9005 14.3313 111.897C14.3313 154.893 49.3285 189.749 92.4997 189.749Z" stroke="white" stroke-width="0.6" stroke-miterlimit="10"/>
<path d="M92.5001 197.838C137.497 197.838 173.975 161.503 173.975 116.681C173.975 71.8584 137.497 35.5228 92.5001 35.5228C47.503 35.5228 11.0256 71.8584 11.0256 116.681C11.0256 161.503 47.503 197.838 92.5001 197.838Z" stroke="white" stroke-width="0.6" stroke-miterlimit="10"/>
<path d="M92.5003 205.928C139.332 205.928 177.296 168.113 177.296 121.465C177.296 74.8165 139.332 37.0007 92.5003 37.0007C45.6688 37.0007 7.70435 74.8165 7.70435 121.465C7.70435 168.113 45.6688 205.928 92.5003 205.928Z" stroke="white" stroke-width="0.6" stroke-miterlimit="10"/>
<path d="M92.5003 214.049C141.183 214.049 180.648 174.739 180.648 126.248C180.648 77.7577 141.183 38.4481 92.5003 38.4481C43.8175 38.4481 4.35229 77.7577 4.35229 126.248C4.35229 174.739 43.8175 214.049 92.5003 214.049Z" stroke="white" stroke-width="0.6" stroke-miterlimit="10"/>
<path d="M92.5 222.169C143.034 222.169 184 181.366 184 131.032C184 80.6987 143.034 39.8954 92.5 39.8954C41.9659 39.8954 1 80.6987 1 131.032C1 181.366 41.9659 222.169 92.5 222.169Z" stroke="white" stroke-width="0.6" stroke-miterlimit="10"/>
</g>
</svg>
