<svg width="47" height="47" viewBox="0 0 47 47" fill="none" xmlns="http://www.w3.org/2000/svg">
<path d="M31.229 23.736C31.229 24.09 31.111 24.444 30.816 24.798C28.574 27.04 26.273 29.341 24.031 31.583C22.674 32.94 20.609 30.875 21.966 29.518C23.441 28.043 24.857 26.627 26.332 25.152C18.249 25.152 10.107 25.152 2.02403 25.152C1.67003 25.152 1.31603 25.034 1.13903 24.857C0.785035 24.621 0.549034 24.208 0.608034 23.677C0.785035 15.594 4.85604 8.10101 11.877 3.91201C24.621 -3.75799 41.79 3.26301 45.684 17.659C49.578 32.232 38.309 46.333 23.5 46.628C21.612 46.687 21.612 43.737 23.5 43.678C31.642 43.501 39.076 38.722 42.085 31.111C45.035 23.736 43.206 15.122 37.66 9.51701C32.055 3.91201 23.441 2.14201 16.066 5.09201C8.92704 7.92401 4.20704 14.709 3.55804 22.202C11.11 22.202 18.603 22.202 26.155 22.202C24.68 20.727 23.264 19.311 21.789 17.836C20.432 16.479 22.556 14.414 23.854 15.771C26.155 18.072 28.456 20.373 30.816 22.733C31.111 23.028 31.229 23.382 31.229 23.736Z" fill="white"/>
</svg>
