<svg width="355" height="370" viewBox="0 0 355 370" fill="none" xmlns="http://www.w3.org/2000/svg">
<path d="M286.192 110.986L270.774 95.0212L262.145 95.6828L286.192 110.986Z" fill="#0873BA"/>
<path d="M286.193 110.986L273.584 94.1391L278.043 90.9366L286.193 110.986Z" fill="#0873BA"/>
<path d="M273.584 94.1391L272.865 97.1882L286.193 110.986L273.584 94.1391Z" fill="#0873BA"/>
<path opacity="0.3" d="M273.584 94.1391L272.865 97.1882L286.193 110.986L273.584 94.1391Z" fill="black"/>
<path d="M66.3789 136.692L84.8654 119.606L94.5784 120.91L66.3789 136.692Z" fill="#0873BA"/>
<path d="M66.3789 136.692L81.7299 118.436L76.8974 114.524L66.3789 136.692Z" fill="#0873BA"/>
<path d="M81.7299 118.436L82.3532 121.926L66.3789 136.692L81.7299 118.436Z" fill="#0873BA"/>
<path opacity="0.3" d="M81.7299 118.436L82.3532 121.926L66.3789 136.692L81.7299 118.436Z" fill="black"/>
<path d="M241.309 195.958L261.023 183.34L269.7 186.13L241.309 195.958Z" fill="#0873BA"/>
<path d="M241.309 195.958L258.348 181.758L254.56 177.386L241.309 195.958Z" fill="#0873BA"/>
<path d="M258.348 181.758V185.056L241.309 195.958L258.348 181.758Z" fill="#0873BA"/>
<path opacity="0.3" d="M258.348 181.758V185.056L241.309 195.958L258.348 181.758Z" fill="black"/>
<path d="M115.107 247.352L92.2101 232.691L82.123 235.923L115.107 247.352Z" fill="#0873BA"/>
<path d="M115.106 247.352L95.3159 230.851L99.717 225.769L115.106 247.352Z" fill="#0873BA"/>
<path d="M95.3159 230.851V234.676L115.106 247.352L95.3159 230.851Z" fill="#0873BA"/>
<path opacity="0.3" d="M95.3159 230.851V234.676L115.106 247.352L95.3159 230.851Z" fill="black"/>
<path d="M62.9841 192.075C62.8827 192.073 62.785 192.037 62.7067 191.973C62.6284 191.908 62.5741 191.819 62.5526 191.72L62.2937 190.407C62.2721 190.291 62.2973 190.171 62.3638 190.074C62.4304 189.977 62.5327 189.911 62.6485 189.889C62.7642 189.867 62.8837 189.893 62.9808 189.959C63.0779 190.026 63.1446 190.128 63.1662 190.244C63.2525 190.675 63.3292 191.107 63.4251 191.538C63.4479 191.654 63.4246 191.774 63.36 191.872C63.2955 191.971 63.195 192.04 63.0799 192.065L62.9841 192.075Z" fill="#E0E0E0"/>
<path d="M86.3801 227.753C86.2916 227.751 86.2053 227.725 86.1309 227.677C85.3702 227.159 84.6223 226.622 83.8872 226.066C83.8409 226.03 83.8021 225.986 83.7732 225.935C83.7442 225.884 83.7256 225.828 83.7185 225.77C83.7114 225.712 83.7158 225.654 83.7316 225.597C83.7474 225.541 83.7742 225.488 83.8105 225.443C83.8826 225.35 83.9881 225.289 84.1045 225.273C84.221 225.257 84.3391 225.287 84.4337 225.356C85.1432 225.903 85.8815 226.44 86.6294 226.938C86.7054 226.994 86.7622 227.071 86.792 227.16C86.8218 227.249 86.823 227.345 86.7956 227.435C86.7681 227.525 86.7133 227.604 86.6389 227.661C86.5644 227.718 86.4739 227.75 86.3801 227.753ZM82.0366 224.445C81.9315 224.444 81.83 224.407 81.7489 224.34C81.0586 223.755 80.3682 223.132 79.697 222.499C79.6461 222.461 79.6037 222.413 79.5728 222.357C79.5418 222.302 79.5229 222.24 79.5173 222.177C79.5118 222.114 79.5197 222.05 79.5405 221.99C79.5613 221.93 79.5945 221.875 79.6381 221.829C79.6816 221.782 79.7345 221.746 79.7931 221.722C79.8518 221.697 79.915 221.685 79.9785 221.687C80.042 221.689 80.1044 221.704 80.1617 221.732C80.2189 221.759 80.2697 221.798 80.3107 221.847C80.9723 222.48 81.6531 223.084 82.3243 223.659C82.3684 223.697 82.4047 223.743 82.4311 223.795C82.4574 223.847 82.4732 223.903 82.4777 223.961C82.4821 224.019 82.4751 224.077 82.457 224.132C82.4389 224.187 82.4101 224.238 82.3722 224.282C82.3316 224.333 82.2805 224.373 82.2225 224.401C82.1645 224.429 82.1011 224.444 82.0366 224.445ZM78.067 220.696C78.0071 220.696 77.9479 220.683 77.8933 220.659C77.8387 220.634 77.7901 220.598 77.7506 220.553C77.1273 219.91 76.5041 219.22 75.8904 218.52C75.8133 218.429 75.7751 218.312 75.7841 218.194C75.7931 218.075 75.8485 217.965 75.9384 217.887C75.9818 217.848 76.0327 217.818 76.0881 217.799C76.1434 217.78 76.202 217.773 76.2603 217.777C76.3186 217.782 76.3753 217.798 76.4271 217.825C76.4789 217.852 76.5247 217.89 76.5616 217.935C77.1657 218.616 77.7793 219.297 78.393 219.929C78.4762 220.014 78.5228 220.127 78.5228 220.246C78.5228 220.364 78.4762 220.478 78.393 220.562C78.3502 220.605 78.2993 220.639 78.2434 220.662C78.1874 220.685 78.1275 220.697 78.067 220.696ZM74.4905 216.573C74.4221 216.574 74.3543 216.559 74.2928 216.529C74.2312 216.499 74.1774 216.455 74.1357 216.401C73.5796 215.691 73.0235 214.953 72.4865 214.205C72.4515 214.159 72.4262 214.106 72.412 214.05C72.3979 213.994 72.3952 213.935 72.4041 213.878C72.4131 213.821 72.4335 213.766 72.4641 213.716C72.4948 213.667 72.535 213.625 72.5824 213.591C72.6294 213.556 72.683 213.531 72.7399 213.516C72.7969 213.502 72.8562 213.499 72.9142 213.508C72.9723 213.517 73.028 213.538 73.078 213.568C73.1281 213.599 73.1715 213.64 73.2057 213.687C73.733 214.426 74.2796 215.154 74.8357 215.854C74.872 215.9 74.8988 215.953 74.9146 216.009C74.9303 216.065 74.9348 216.124 74.9277 216.182C74.9205 216.24 74.9019 216.296 74.873 216.347C74.844 216.397 74.8053 216.442 74.759 216.478C74.6842 216.541 74.5887 216.575 74.4905 216.573ZM71.2976 212.134C71.2246 212.135 71.1527 212.117 71.0888 212.081C71.025 212.046 70.9714 211.995 70.9332 211.933C70.4346 211.175 69.9744 210.389 69.4854 209.593C69.4257 209.493 69.4084 209.373 69.4371 209.259C69.4659 209.146 69.5384 209.049 69.6388 208.989C69.6895 208.958 69.7459 208.938 69.8046 208.93C69.8632 208.921 69.923 208.925 69.9803 208.94C70.0375 208.955 70.0911 208.982 70.1379 209.018C70.1847 209.055 70.2236 209.1 70.2525 209.152C70.7127 209.929 71.2113 210.696 71.6715 211.453C71.7343 211.552 71.7565 211.671 71.7332 211.785C71.71 211.9 71.6431 212.001 71.5469 212.067C71.4719 212.113 71.3854 212.136 71.2976 212.134ZM68.5361 207.436C68.4549 207.436 68.3752 207.413 68.3058 207.371C68.2364 207.329 68.1801 207.268 68.143 207.196C67.7211 206.381 67.2992 205.556 66.9157 204.732C66.89 204.68 66.8751 204.623 66.8718 204.565C66.8686 204.507 66.877 204.449 66.8967 204.394C66.9164 204.34 66.9469 204.29 66.9864 204.247C67.0259 204.205 67.0736 204.17 67.1266 204.147C67.2336 204.097 67.3558 204.092 67.4669 204.131C67.5781 204.17 67.6693 204.252 67.7211 204.358C68.1046 205.163 68.5074 205.978 68.9293 206.784C68.9835 206.887 68.9949 207.007 68.9607 207.118C68.9266 207.23 68.8498 207.323 68.7471 207.378C68.6827 207.415 68.6102 207.434 68.5361 207.436ZM66.2157 202.488C66.1281 202.489 66.0421 202.464 65.9687 202.417C65.8952 202.369 65.8377 202.3 65.8034 202.22C65.4582 201.385 65.1226 200.522 64.8446 199.65C64.8248 199.595 64.8161 199.537 64.8189 199.479C64.8218 199.421 64.8361 199.364 64.861 199.311C64.886 199.259 64.9211 199.211 64.9643 199.172C65.0076 199.133 65.0582 199.103 65.1131 199.084C65.2238 199.047 65.3446 199.054 65.4502 199.104C65.5557 199.154 65.6377 199.243 65.6788 199.353C65.9856 200.206 66.3212 201.059 66.6376 201.874C66.683 201.983 66.6843 202.104 66.6414 202.214C66.5984 202.323 66.5145 202.411 66.4075 202.459C66.3458 202.48 66.2809 202.49 66.2157 202.488ZM64.3556 197.358C64.2606 197.358 64.1682 197.327 64.0921 197.27C64.0161 197.213 63.9605 197.133 63.9337 197.042C63.6652 196.169 63.4063 195.278 63.1762 194.405C63.1497 194.289 63.1688 194.168 63.2295 194.066C63.2903 193.964 63.3879 193.89 63.5022 193.858C63.6154 193.829 63.7355 193.846 63.8361 193.906C63.9368 193.965 64.0098 194.062 64.0392 194.175C64.2597 195.047 64.509 195.92 64.7775 196.783C64.7953 196.838 64.802 196.897 64.7972 196.955C64.7924 197.013 64.7762 197.069 64.7494 197.121C64.7227 197.173 64.686 197.218 64.6414 197.256C64.5969 197.293 64.5453 197.322 64.4898 197.339L64.3556 197.358Z" fill="#E0E0E0"/>
<path d="M89.8505 229.863C89.7762 229.863 89.7034 229.843 89.6395 229.805C89.2464 229.594 88.8533 229.374 88.4697 229.144C88.4183 229.116 88.373 229.078 88.3367 229.032C88.3004 228.986 88.2738 228.933 88.2586 228.877C88.2433 228.82 88.2397 228.761 88.248 228.703C88.2563 228.645 88.2763 228.59 88.3067 228.54C88.3356 228.489 88.3741 228.445 88.4201 228.409C88.4661 228.374 88.5187 228.348 88.5749 228.333C88.631 228.317 88.6896 228.314 88.7472 228.321C88.8049 228.329 88.8605 228.348 88.9108 228.377C89.2943 228.607 89.6779 228.818 90.0614 229.019C90.1477 229.067 90.2157 229.143 90.255 229.234C90.2942 229.324 90.3024 229.426 90.2784 229.522C90.2545 229.618 90.1996 229.703 90.1222 229.765C90.0449 229.826 89.9494 229.861 89.8505 229.863Z" fill="#E0E0E0"/>
<path d="M128.291 101.637C128.174 101.637 128.062 101.591 127.979 101.508C127.897 101.425 127.85 101.313 127.85 101.196C127.85 101.079 127.897 100.967 127.979 100.884C128.062 100.802 128.174 100.755 128.291 100.755C128.742 100.755 129.183 100.688 129.634 100.669C129.75 100.666 129.863 100.708 129.949 100.787C130.034 100.866 130.086 100.974 130.094 101.091C130.098 101.148 130.09 101.206 130.071 101.26C130.053 101.315 130.023 101.365 129.985 101.408C129.946 101.451 129.9 101.485 129.848 101.51C129.795 101.535 129.739 101.548 129.681 101.551L128.358 101.637H128.291Z" fill="#E0E0E0"/>
<path d="M89.6784 115.119C89.6077 115.119 89.5378 115.103 89.4745 115.071C89.4112 115.039 89.3562 114.993 89.3141 114.936C89.2464 114.839 89.2195 114.72 89.2392 114.603C89.259 114.487 89.3237 114.382 89.4196 114.313C90.1291 113.814 90.8482 113.354 91.5769 112.856C91.6754 112.793 91.7945 112.771 91.909 112.794C92.0234 112.817 92.1244 112.884 92.1906 112.98C92.2225 113.029 92.2443 113.084 92.2548 113.142C92.2654 113.199 92.2644 113.258 92.2519 113.315C92.2394 113.372 92.2156 113.426 92.1821 113.474C92.1485 113.522 92.1058 113.563 92.0564 113.594C91.3372 114.064 90.6277 114.553 89.9277 115.042C89.8533 115.09 89.767 115.116 89.6784 115.119ZM94.0124 112.3C93.914 112.302 93.8174 112.272 93.7381 112.214C93.6589 112.155 93.6014 112.072 93.5749 111.977C93.5485 111.882 93.5545 111.781 93.5921 111.69C93.6297 111.599 93.6966 111.523 93.7823 111.475C94.5302 111.024 95.2781 110.593 96.0356 110.171C96.1389 110.115 96.2598 110.102 96.3726 110.135C96.4854 110.167 96.5812 110.242 96.6396 110.343C96.6697 110.394 96.6892 110.45 96.6968 110.509C96.7044 110.567 96.6999 110.626 96.6838 110.683C96.6676 110.739 96.64 110.792 96.6028 110.838C96.5655 110.883 96.5193 110.921 96.467 110.948C95.7191 111.369 94.9712 111.791 94.2425 112.232C94.1739 112.277 94.094 112.3 94.0124 112.3ZM98.5381 109.797C98.4556 109.797 98.3747 109.774 98.3051 109.73C98.2354 109.686 98.1798 109.622 98.145 109.548C98.094 109.443 98.0854 109.323 98.1212 109.212C98.1569 109.101 98.2342 109.008 98.3368 108.953C99.1134 108.56 99.8901 108.186 100.686 107.822C100.792 107.773 100.912 107.767 101.022 107.807C101.131 107.846 101.221 107.927 101.271 108.033C101.32 108.14 101.326 108.262 101.287 108.373C101.247 108.484 101.166 108.575 101.06 108.627C100.283 108.982 99.5066 109.356 98.7395 109.749C98.6767 109.779 98.6079 109.796 98.5381 109.797ZM103.236 107.62C103.148 107.618 103.063 107.591 102.99 107.542C102.916 107.493 102.859 107.423 102.824 107.342C102.78 107.234 102.78 107.113 102.825 107.005C102.87 106.897 102.956 106.812 103.064 106.767C103.863 106.422 104.668 106.102 105.48 105.808C105.59 105.768 105.71 105.772 105.816 105.821C105.922 105.869 106.005 105.958 106.046 106.067C106.069 106.12 106.081 106.178 106.08 106.236C106.08 106.294 106.068 106.351 106.045 106.404C106.021 106.457 105.987 106.505 105.944 106.544C105.902 106.584 105.851 106.614 105.797 106.633C104.991 106.949 104.195 107.266 103.409 107.592C103.353 107.61 103.295 107.62 103.236 107.62ZM108.031 105.76C107.938 105.76 107.848 105.731 107.773 105.678C107.697 105.625 107.64 105.55 107.609 105.463C107.589 105.408 107.581 105.349 107.584 105.29C107.588 105.232 107.603 105.174 107.629 105.122C107.655 105.069 107.691 105.022 107.735 104.983C107.78 104.945 107.831 104.916 107.887 104.897C108.699 104.61 109.523 104.341 110.361 104.092C110.416 104.074 110.474 104.067 110.532 104.072C110.59 104.077 110.647 104.093 110.699 104.12C110.75 104.147 110.796 104.183 110.834 104.228C110.871 104.272 110.899 104.324 110.917 104.38C110.95 104.493 110.937 104.614 110.882 104.718C110.826 104.822 110.732 104.9 110.62 104.936C109.795 105.195 108.98 105.453 108.174 105.741L108.031 105.76ZM112.969 104.236C112.872 104.235 112.779 104.203 112.703 104.144C112.627 104.085 112.572 104.003 112.547 103.91C112.531 103.854 112.526 103.795 112.533 103.737C112.54 103.679 112.558 103.623 112.586 103.572C112.615 103.522 112.653 103.477 112.699 103.441C112.745 103.405 112.797 103.379 112.854 103.363C113.688 103.133 114.532 102.922 115.375 102.721C115.49 102.694 115.61 102.714 115.71 102.775C115.81 102.836 115.883 102.933 115.912 103.047C115.927 103.103 115.929 103.162 115.921 103.22C115.912 103.278 115.892 103.333 115.862 103.383C115.831 103.433 115.791 103.477 115.744 103.511C115.697 103.546 115.643 103.57 115.586 103.584C114.752 103.785 113.918 103.996 113.093 104.217L112.969 104.236ZM118.003 103.037C117.901 103.035 117.804 102.999 117.725 102.935C117.647 102.87 117.593 102.781 117.571 102.682C117.549 102.568 117.572 102.449 117.637 102.352C117.702 102.255 117.802 102.188 117.916 102.165C118.77 101.992 119.623 101.829 120.476 101.685C120.592 101.668 120.709 101.697 120.804 101.765C120.899 101.833 120.963 101.935 120.985 102.05C120.996 102.106 120.995 102.165 120.983 102.221C120.971 102.278 120.948 102.331 120.915 102.379C120.882 102.426 120.839 102.466 120.79 102.497C120.742 102.528 120.687 102.548 120.63 102.558C119.776 102.702 118.933 102.865 118.098 103.028L118.003 103.037ZM123.113 102.174C123.006 102.175 122.901 102.137 122.82 102.066C122.739 101.995 122.686 101.897 122.672 101.791C122.656 101.675 122.686 101.557 122.756 101.464C122.826 101.37 122.93 101.309 123.046 101.292C123.909 101.177 124.772 101.072 125.635 100.976C125.746 100.977 125.852 101.019 125.934 101.095C126.016 101.17 126.067 101.272 126.078 101.383C126.088 101.493 126.058 101.604 125.992 101.693C125.926 101.783 125.83 101.845 125.721 101.867C124.868 101.954 124.015 102.05 123.171 102.174H123.113Z" fill="#E0E0E0"/>
<path d="M86.4846 117.468C86.4188 117.467 86.3539 117.452 86.2943 117.424C86.2348 117.396 86.1819 117.355 86.1394 117.305C86.1019 117.259 86.074 117.207 86.0574 117.151C86.0409 117.094 86.0361 117.035 86.0433 116.976C86.0505 116.918 86.0695 116.862 86.0992 116.811C86.1289 116.76 86.1687 116.716 86.2161 116.681L87.2709 115.857C87.365 115.786 87.4835 115.755 87.6003 115.771C87.7172 115.787 87.8229 115.849 87.8941 115.943C87.9653 116.037 87.9962 116.156 87.98 116.273C87.9638 116.389 87.9019 116.495 87.8078 116.566L86.7627 117.372C86.6837 117.435 86.5855 117.468 86.4846 117.468Z" fill="#E0E0E0"/>
<path d="M263.698 179.15C263.629 179.149 263.561 179.132 263.499 179.1C263.438 179.069 263.384 179.023 263.343 178.968C263.308 178.921 263.282 178.867 263.268 178.81C263.254 178.753 263.251 178.694 263.26 178.636C263.269 178.578 263.289 178.522 263.32 178.472C263.351 178.422 263.391 178.379 263.439 178.344L264.072 177.875C264.118 177.839 264.172 177.814 264.228 177.799C264.285 177.784 264.344 177.781 264.401 177.789C264.459 177.797 264.515 177.816 264.565 177.846C264.616 177.875 264.66 177.914 264.695 177.961C264.73 178.008 264.756 178.061 264.771 178.117C264.786 178.174 264.789 178.233 264.781 178.29C264.773 178.348 264.754 178.404 264.724 178.454C264.695 178.505 264.655 178.549 264.609 178.584L263.966 179.064C263.888 179.12 263.794 179.151 263.698 179.15ZM266.45 177.05C266.383 177.05 266.317 177.034 266.257 177.004C266.197 176.975 266.145 176.931 266.105 176.877C266.033 176.785 266 176.669 266.012 176.552C266.025 176.436 266.082 176.329 266.172 176.254C266.862 175.708 267.552 175.152 268.224 174.576C268.268 174.538 268.32 174.51 268.376 174.492C268.432 174.474 268.49 174.468 268.549 174.473C268.607 174.477 268.664 174.494 268.716 174.521C268.768 174.547 268.814 174.584 268.852 174.629C268.889 174.674 268.918 174.725 268.936 174.781C268.954 174.837 268.96 174.896 268.955 174.954C268.951 175.012 268.934 175.069 268.907 175.121C268.88 175.173 268.844 175.219 268.799 175.257C268.121 175.832 267.431 176.398 266.728 176.954C266.647 177.014 266.55 177.047 266.45 177.05ZM270.525 173.608C270.461 173.607 270.399 173.593 270.341 173.566C270.283 173.54 270.232 173.502 270.189 173.454C270.107 173.372 270.06 173.26 270.06 173.143C270.06 173.026 270.107 172.914 270.189 172.831C270.841 172.237 271.484 171.642 272.107 171.029C272.148 170.986 272.197 170.951 272.252 170.928C272.306 170.905 272.365 170.893 272.424 170.892C272.484 170.892 272.542 170.904 272.597 170.927C272.652 170.95 272.701 170.984 272.742 171.026C272.784 171.069 272.816 171.119 272.837 171.175C272.859 171.23 272.869 171.289 272.867 171.348C272.864 171.408 272.851 171.466 272.825 171.52C272.8 171.574 272.765 171.622 272.721 171.661C272.078 172.285 271.426 172.898 270.803 173.493C270.726 173.562 270.628 173.602 270.525 173.608ZM274.36 169.907C274.303 169.907 274.247 169.896 274.194 169.875C274.142 169.854 274.094 169.822 274.053 169.782C273.971 169.699 273.924 169.587 273.924 169.47C273.924 169.354 273.971 169.241 274.053 169.159C274.667 168.526 275.281 167.874 275.875 167.241C275.954 167.155 276.064 167.103 276.181 167.098C276.298 167.092 276.412 167.134 276.498 167.212C276.585 167.291 276.637 167.401 276.642 167.518C276.647 167.635 276.606 167.749 276.527 167.836C275.923 168.497 275.309 169.149 274.696 169.753C274.657 169.807 274.607 169.852 274.549 169.885C274.491 169.918 274.427 169.939 274.36 169.945V169.907ZM277.946 165.956C277.894 165.959 277.841 165.951 277.792 165.933C277.742 165.915 277.697 165.887 277.659 165.851C277.614 165.814 277.577 165.768 277.549 165.717C277.522 165.665 277.506 165.609 277.5 165.551C277.495 165.493 277.501 165.435 277.518 165.379C277.536 165.324 277.564 165.272 277.601 165.228C278.176 164.556 278.733 163.866 279.269 163.176C279.342 163.083 279.448 163.023 279.565 163.008C279.682 162.994 279.8 163.026 279.893 163.099C279.986 163.171 280.046 163.278 280.06 163.395C280.075 163.512 280.042 163.629 279.969 163.722C279.423 164.422 278.857 165.122 278.282 165.803C278.241 165.852 278.19 165.892 278.132 165.918C278.074 165.945 278.01 165.958 277.946 165.956ZM281.216 161.757C281.123 161.755 281.033 161.725 280.957 161.67C280.863 161.601 280.801 161.498 280.783 161.383C280.765 161.268 280.793 161.151 280.861 161.057C281.379 160.341 281.878 159.612 282.357 158.87C282.425 158.773 282.528 158.706 282.644 158.683C282.76 158.66 282.88 158.682 282.98 158.746C283.076 158.812 283.143 158.913 283.167 159.027C283.19 159.142 283.168 159.261 283.105 159.359C282.606 160.107 282.098 160.846 281.58 161.574C281.538 161.631 281.483 161.677 281.42 161.709C281.357 161.741 281.287 161.757 281.216 161.757ZM284.15 157.308C284.068 157.308 283.988 157.285 283.92 157.24C283.82 157.181 283.747 157.083 283.718 156.97C283.689 156.857 283.707 156.737 283.766 156.636C284.217 155.879 284.658 155.112 285.08 154.335C285.108 154.284 285.145 154.239 285.19 154.203C285.235 154.166 285.287 154.139 285.343 154.122C285.399 154.106 285.457 154.1 285.515 154.107C285.572 154.113 285.628 154.13 285.679 154.158C285.73 154.185 285.775 154.223 285.812 154.268C285.848 154.313 285.876 154.365 285.892 154.421C285.909 154.476 285.914 154.535 285.908 154.592C285.902 154.65 285.884 154.706 285.857 154.757C285.435 155.543 284.994 156.32 284.534 157.087C284.495 157.154 284.439 157.21 284.371 157.249C284.304 157.288 284.228 157.308 284.15 157.308ZM286.681 152.619C286.607 152.617 286.534 152.597 286.47 152.561C286.405 152.525 286.35 152.473 286.311 152.41C286.271 152.348 286.247 152.276 286.241 152.202C286.236 152.128 286.249 152.054 286.279 151.986C286.662 151.19 287.036 150.375 287.372 149.57C287.42 149.463 287.508 149.379 287.617 149.336C287.727 149.293 287.848 149.294 287.957 149.34C288.011 149.362 288.061 149.394 288.103 149.436C288.145 149.477 288.178 149.527 288.2 149.581C288.222 149.636 288.233 149.694 288.233 149.753C288.232 149.812 288.22 149.87 288.196 149.924C287.842 150.739 287.468 151.564 287.084 152.369C287.046 152.444 286.988 152.506 286.917 152.55C286.846 152.594 286.765 152.618 286.681 152.619ZM288.762 147.719H288.609C288.499 147.676 288.41 147.592 288.362 147.484C288.313 147.377 288.309 147.255 288.35 147.144C288.657 146.31 288.944 145.475 289.203 144.641C289.239 144.529 289.317 144.436 289.422 144.382C289.473 144.356 289.53 144.339 289.588 144.334C289.645 144.329 289.704 144.336 289.759 144.354C289.815 144.371 289.866 144.4 289.91 144.437C289.955 144.475 289.991 144.52 290.018 144.572C290.045 144.624 290.061 144.68 290.066 144.738C290.071 144.796 290.064 144.854 290.047 144.91C289.788 145.753 289.491 146.607 289.184 147.451C289.151 147.526 289.097 147.591 289.03 147.639C288.962 147.686 288.883 147.714 288.8 147.719H288.762ZM290.354 142.628H290.239C290.126 142.594 290.031 142.519 289.972 142.417C289.913 142.316 289.895 142.195 289.922 142.081C290.143 141.228 290.335 140.365 290.507 139.511C290.53 139.396 290.598 139.294 290.696 139.228C290.794 139.163 290.914 139.139 291.03 139.161C291.145 139.184 291.247 139.252 291.313 139.35C291.379 139.448 291.403 139.568 291.38 139.684C291.207 140.557 291.006 141.429 290.785 142.302C290.757 142.395 290.7 142.476 290.622 142.535C290.545 142.593 290.451 142.626 290.354 142.628ZM291.399 137.412H291.341C291.283 137.405 291.228 137.386 291.177 137.357C291.127 137.328 291.083 137.289 291.048 137.242C291.013 137.196 290.988 137.142 290.974 137.086C290.96 137.029 290.958 136.97 290.967 136.913C291.092 136.04 291.197 135.158 291.274 134.295C291.291 134.179 291.35 134.074 291.441 133.999C291.531 133.925 291.646 133.887 291.763 133.893C291.879 133.905 291.986 133.962 292.061 134.051C292.137 134.14 292.174 134.256 292.166 134.372C292.08 135.254 291.974 136.155 291.84 137.038C291.824 137.143 291.77 137.238 291.689 137.307C291.608 137.376 291.505 137.413 291.399 137.412ZM291.897 132.109C291.84 132.107 291.783 132.093 291.73 132.068C291.677 132.044 291.63 132.009 291.591 131.967C291.552 131.924 291.521 131.874 291.502 131.819C291.482 131.765 291.473 131.707 291.476 131.649C291.476 130.968 291.476 130.287 291.476 129.597V129.012C291.473 128.954 291.482 128.896 291.503 128.841C291.523 128.787 291.555 128.737 291.595 128.695C291.635 128.652 291.684 128.619 291.737 128.596C291.791 128.573 291.849 128.561 291.907 128.561C292.023 128.564 292.134 128.611 292.216 128.693C292.298 128.776 292.346 128.886 292.348 129.003V129.587C292.348 130.297 292.348 130.997 292.3 131.687C292.298 131.795 292.255 131.898 292.181 131.977C292.106 132.055 292.005 132.102 291.897 132.109ZM291.84 126.788C291.727 126.788 291.618 126.746 291.534 126.669C291.451 126.593 291.399 126.488 291.389 126.375C291.341 125.503 291.265 124.611 291.159 123.739C291.151 123.622 291.187 123.507 291.259 123.417C291.332 123.326 291.437 123.266 291.552 123.25C291.61 123.243 291.669 123.248 291.725 123.264C291.781 123.28 291.833 123.307 291.879 123.344C291.924 123.381 291.962 123.426 291.99 123.477C292.018 123.528 292.035 123.585 292.041 123.643C292.147 124.525 292.223 125.426 292.281 126.318C292.286 126.434 292.246 126.548 292.17 126.636C292.093 126.723 291.985 126.778 291.869 126.788H291.84ZM291.245 121.495C291.139 121.496 291.036 121.459 290.955 121.39C290.874 121.322 290.821 121.226 290.804 121.121C290.67 120.268 290.498 119.395 290.315 118.522C290.293 118.407 290.316 118.287 290.38 118.188C290.445 118.09 290.545 118.02 290.661 117.995C290.718 117.982 290.777 117.981 290.835 117.992C290.893 118.003 290.948 118.025 290.997 118.057C291.046 118.089 291.088 118.131 291.121 118.179C291.154 118.228 291.176 118.283 291.188 118.34C291.37 119.222 291.543 120.114 291.677 120.977C291.686 121.034 291.685 121.093 291.672 121.15C291.658 121.206 291.634 121.26 291.6 121.307C291.566 121.354 291.524 121.394 291.474 121.425C291.425 121.455 291.37 121.476 291.313 121.485L291.245 121.495Z" fill="#E0E0E0"/>
<path d="M265.031 89.5654C264.946 89.5671 264.863 89.5437 264.791 89.4983C264.043 89.0285 263.286 88.5394 262.528 88.1367C262.477 88.1087 262.432 88.0708 262.395 88.0251C262.359 87.9795 262.332 87.927 262.316 87.8708C262.3 87.8146 262.295 87.7558 262.302 87.6977C262.309 87.6397 262.327 87.5836 262.356 87.5327C262.416 87.43 262.514 87.3553 262.629 87.3247C262.744 87.2942 262.866 87.3104 262.969 87.3697C263.736 87.8107 264.504 88.271 265.261 88.7504C265.36 88.8136 265.431 88.9132 265.458 89.0279C265.485 89.1426 265.466 89.2633 265.405 89.3641C265.364 89.4264 265.309 89.4775 265.244 89.5127C265.178 89.5479 265.105 89.566 265.031 89.5654ZM260.409 86.919C260.34 86.9322 260.268 86.9322 260.198 86.919C259.422 86.5067 258.626 86.1136 257.83 85.7396C257.725 85.6898 257.643 85.6003 257.604 85.4907C257.564 85.3811 257.57 85.2603 257.619 85.1547C257.671 85.0488 257.762 84.9668 257.872 84.9258C257.983 84.8847 258.105 84.8877 258.214 84.9342C259.019 85.3177 259.815 85.7205 260.611 86.1328C260.699 86.1777 260.77 86.2512 260.811 86.3413C260.853 86.4315 260.863 86.5329 260.839 86.6294C260.816 86.7258 260.761 86.8116 260.683 86.8729C260.605 86.9341 260.508 86.9673 260.409 86.967V86.919ZM255.615 84.6466C255.558 84.6557 255.5 84.6557 255.442 84.6466C254.627 84.3014 253.812 83.9658 252.988 83.6877C252.925 83.6736 252.866 83.6461 252.814 83.6071C252.763 83.5681 252.72 83.5185 252.689 83.4616C252.659 83.4048 252.641 83.342 252.637 83.2776C252.632 83.2131 252.642 83.1485 252.665 83.0881C252.688 83.0277 252.723 82.973 252.769 82.9275C252.815 82.8821 252.87 82.8471 252.931 82.8249C252.992 82.8026 253.056 82.7937 253.121 82.7986C253.185 82.8036 253.248 82.8223 253.304 82.8535C254.138 83.1699 254.973 83.5055 255.788 83.8124C255.886 83.8493 255.967 83.92 256.018 84.0116C256.068 84.1032 256.085 84.2098 256.064 84.3124C256.043 84.415 255.987 84.5069 255.905 84.5716C255.822 84.6364 255.72 84.6697 255.615 84.6657V84.6466ZM250.639 82.7289H250.495C249.661 82.4412 248.817 82.1823 247.973 81.933C247.917 81.9166 247.864 81.8891 247.819 81.8521C247.773 81.815 247.735 81.7693 247.708 81.7175C247.68 81.6657 247.663 81.6089 247.657 81.5504C247.652 81.4919 247.658 81.4329 247.676 81.3769C247.691 81.3209 247.718 81.2685 247.754 81.223C247.79 81.1775 247.835 81.1397 247.886 81.1119C247.937 81.0842 247.993 81.067 248.051 81.0615C248.109 81.0559 248.167 81.0621 248.222 81.0797C249.085 81.329 249.929 81.5974 250.783 81.8851C250.894 81.9243 250.985 82.0055 251.037 82.1112C251.089 82.217 251.097 82.3389 251.061 82.4508C251.029 82.5442 250.968 82.6247 250.887 82.6801C250.806 82.7355 250.708 82.7627 250.61 82.7576L250.639 82.7289ZM245.528 81.2235H245.423C244.569 81.003 243.706 80.8016 242.843 80.6194C242.728 80.592 242.628 80.5203 242.565 80.4198C242.503 80.3193 242.482 80.1981 242.508 80.0825C242.52 80.0258 242.544 79.972 242.577 79.9245C242.61 79.8769 242.653 79.8363 242.702 79.8051C242.751 79.7739 242.805 79.7528 242.863 79.7428C242.92 79.7328 242.978 79.7342 243.035 79.7469C243.908 79.9387 244.771 80.14 245.643 80.3605C245.756 80.3941 245.851 80.4694 245.91 80.571C245.969 80.6726 245.986 80.7928 245.96 80.9071C245.937 81.0102 245.878 81.1017 245.793 81.165C245.709 81.2284 245.605 81.2593 245.499 81.2523L245.528 81.2235ZM240.331 80.0825H240.245C239.382 79.9195 238.509 79.7852 237.637 79.6606C237.579 79.6524 237.523 79.6329 237.473 79.6032C237.422 79.5734 237.378 79.5341 237.343 79.4873C237.308 79.4406 237.282 79.3874 237.268 79.3307C237.253 79.2741 237.25 79.2151 237.258 79.1572C237.266 79.0993 237.286 79.0435 237.315 78.9931C237.345 78.9428 237.385 78.8987 237.431 78.8636C237.478 78.8284 237.531 78.8028 237.588 78.7882C237.645 78.7736 237.704 78.7703 237.761 78.7785C238.644 78.8999 239.526 79.0437 240.408 79.2099C240.465 79.2192 240.52 79.2397 240.569 79.2705C240.617 79.3012 240.66 79.3415 240.693 79.3889C240.726 79.4363 240.749 79.4899 240.761 79.5464C240.773 79.603 240.774 79.6614 240.763 79.7181C240.751 79.83 240.696 79.933 240.611 80.0061C240.525 80.0792 240.415 80.1168 240.302 80.1112L240.331 80.0825ZM235.058 79.3346H235.01C234.127 79.2387 233.245 79.162 232.373 79.0949C232.315 79.0912 232.258 79.0761 232.206 79.0505C232.154 79.0249 232.107 78.9893 232.069 78.9456C232.031 78.9019 232.001 78.8512 231.983 78.7961C231.964 78.7411 231.957 78.683 231.96 78.625C231.961 78.5662 231.975 78.5081 231.999 78.4547C232.024 78.4013 232.06 78.3536 232.104 78.3148C232.148 78.2759 232.2 78.2468 232.256 78.2292C232.313 78.2117 232.372 78.206 232.43 78.2127C233.325 78.2703 234.217 78.347 235.105 78.4429C235.212 78.4634 235.308 78.522 235.376 78.6078C235.443 78.6936 235.476 78.8008 235.471 78.9096C235.465 79.0184 235.42 79.1214 235.344 79.1995C235.268 79.2777 235.166 79.3256 235.058 79.3346Z" fill="#E0E0E0"/>
<path d="M328.7 99.0673L336.237 94.7142C336.388 94.6526 336.513 94.5409 336.591 94.3978L337.972 91.9815L333.494 89.4022L333.629 89.7953L328.7 99.0673Z" fill="#0873BA"/>
<g opacity="0.1">
<path d="M328.699 99.0674L336.236 94.7142C336.387 94.6527 336.512 94.5409 336.59 94.3978L337.971 91.9815L333.493 89.4022L333.628 89.7954L328.699 99.0674Z" fill="black"/>
</g>
<path d="M334.136 89.7665L328.92 98.7988C328.846 98.9286 328.736 99.0343 328.603 99.1031C328.47 99.1719 328.32 99.201 328.172 99.1869C328.023 99.1727 327.881 99.1159 327.764 99.0232C327.647 98.9306 327.559 98.806 327.51 98.6645L321.987 82.7574L334.136 89.7665Z" fill="#0873BA"/>
<path d="M280.585 25.1599C280.653 23.897 281.018 22.6678 281.649 21.5718C282.281 20.4758 283.161 19.5437 284.219 18.8508C285.348 18.2787 286.597 17.9806 287.863 17.9806C289.129 17.9806 290.377 18.2787 291.506 18.8508L350.494 52.8704C351.554 53.5623 352.436 54.494 353.069 55.59C353.702 56.6861 354.068 57.9158 354.138 59.1796V89.0571C354.069 90.321 353.703 91.551 353.07 92.6472C352.437 93.7434 351.554 94.6749 350.494 95.3662C349.365 95.9383 348.116 96.2363 346.85 96.2363C345.584 96.2363 344.336 95.9383 343.207 95.3662L283.883 61.0973C280.614 59.2275 280.585 57.3578 280.585 55.0374V25.1599Z" fill="#0873BA"/>
<path d="M334.529 69.0364L292.398 44.586C291.18 43.886 290.192 44.212 290.192 45.3051C290.281 45.9838 290.526 46.6326 290.909 47.2001C291.292 47.7676 291.802 48.2382 292.398 48.5747L334.529 73.0156C335.747 73.7251 336.735 73.3991 336.735 72.306C336.646 71.6273 336.4 70.9785 336.018 70.411C335.635 69.8435 335.125 69.3729 334.529 69.0364Z" fill="#455A64"/>
<path d="M321.767 70.1583L292.398 53.1293C291.18 52.4293 290.192 52.7553 290.192 53.8484C290.281 54.5272 290.526 55.176 290.909 55.7435C291.292 56.3109 291.802 56.7816 292.398 57.1181L321.767 74.1375C322.985 74.847 323.972 74.521 323.972 73.4279C323.884 72.7492 323.638 72.1004 323.255 71.5329C322.873 70.9654 322.363 70.4948 321.767 70.1583Z" fill="#455A64"/>
<path d="M334.529 60.4164L292.398 35.9756C291.18 35.266 290.192 35.592 290.192 36.6947C290.282 37.373 290.528 38.0212 290.911 38.5885C291.294 39.1558 291.803 39.6267 292.398 39.9644L334.529 64.4052C335.747 65.1052 336.735 64.7887 336.735 63.6861C336.644 63.0078 336.398 62.3596 336.016 61.7923C335.633 61.225 335.124 60.7541 334.529 60.4164Z" fill="#455A64"/>
<path opacity="0.1" d="M354.138 89.0475C354.069 90.3114 353.703 91.5414 353.07 92.6376C352.437 93.7338 351.555 94.6653 350.494 95.3566C349.462 95.8849 348.329 96.1856 347.171 96.2386C346.014 96.2915 344.858 96.0954 343.782 95.6635C345.499 96.3155 346.803 95.3375 346.803 93.2568V63.3697C346.761 62.1029 346.394 60.8682 345.738 59.7836L353.025 55.5839C353.677 56.6703 354.043 57.904 354.09 59.17L354.138 89.0475Z" fill="black"/>
<path opacity="0.3" d="M280.699 24.1052C281.121 22.5614 282.531 22.0724 284.218 23.0409L343.216 57.0701C344.292 57.7347 345.175 58.6705 345.776 59.7836L353.053 55.5935C352.45 54.4797 351.568 53.5415 350.493 52.8704L291.515 18.8411C290.383 18.2734 289.133 17.9778 287.867 17.9778C286.6 17.9778 285.351 18.2734 284.218 18.8411C283.305 19.434 282.523 20.2065 281.918 21.1114C281.313 22.0164 280.898 23.035 280.699 24.1052Z" fill="white"/>
<path d="M56.6391 76.2086L49.4286 72.0472C49.2864 71.9888 49.1681 71.8841 49.093 71.7499L47.7603 69.4296L52.0367 66.9653L51.9024 67.3393L56.6391 76.2086Z" fill="#0873BA"/>
<g opacity="0.55">
<path d="M56.6391 76.2086L49.4286 72.0472C49.2864 71.9888 49.1681 71.8841 49.093 71.7499L47.7603 69.4296L52.0367 66.9653L51.9024 67.3393L56.6391 76.2086Z" fill="white"/>
</g>
<path d="M51.394 67.3489L56.38 75.9784C56.45 76.1027 56.5544 76.204 56.6807 76.2702C56.8069 76.3363 56.9497 76.3645 57.0916 76.3514C57.2336 76.3382 57.3687 76.2842 57.4806 76.1959C57.5925 76.1076 57.6765 75.9888 57.7224 75.8538L62.996 60.637L51.394 67.3489Z" fill="#0873BA"/>
<path opacity="0.7" d="M51.394 67.3489L56.38 75.9784C56.45 76.1027 56.5544 76.204 56.6807 76.2702C56.8069 76.3363 56.9497 76.3645 57.0916 76.3514C57.2336 76.3382 57.3687 76.2842 57.4806 76.1959C57.5925 76.1076 57.6765 75.9888 57.7224 75.8538L62.996 60.637L51.394 67.3489Z" fill="white"/>
<path d="M70.3501 23.8751C70.2884 22.6648 69.9408 21.4864 69.3358 20.4364C68.7308 19.3864 67.8856 18.4947 66.8695 17.8344C65.7914 17.2854 64.5988 16.9992 63.389 16.9992C62.1791 16.9992 60.9865 17.2854 59.9084 17.8344L3.49018 50.387C2.4736 51.0454 1.62737 51.9351 1.02074 52.9834C0.414104 54.0316 0.0643137 55.2087 0 56.4181V84.9915C0.0643137 86.201 0.414104 87.378 1.02074 88.4263C1.62737 89.4746 2.4736 90.3643 3.49018 91.0227C4.56829 91.5716 5.76095 91.8578 6.97077 91.8578C8.18059 91.8578 9.37326 91.5716 10.4514 91.0227L67.1955 58.2399C70.3214 56.4565 70.3501 54.6634 70.3501 52.4869V23.8751Z" fill="#0873BA"/>
<path opacity="0.7" d="M70.3601 23.875V52.4388C70.3601 54.6634 70.3601 56.4564 67.196 58.1919L10.4518 91.0226C10.2594 91.1299 10.0609 91.226 9.8573 91.3103H9.78059H9.68471L9.55047 91.3582H9.608C8.09303 91.7897 6.97119 90.85 6.97119 88.9707V60.3972C7.01521 59.1856 7.36483 58.0048 7.98756 56.9646C8.56098 55.8936 9.40793 54.9937 10.4422 54.3565L66.87 21.8135C68.4808 20.8546 69.8232 21.3628 70.2355 22.8299C70.1258 22.2519 69.9488 21.6887 69.7081 21.1519C70.1227 22.0007 70.3454 22.9304 70.3601 23.875Z" fill="white"/>
<path opacity="0.55" d="M0.00976562 84.9915C0.0730149 86.2 0.421335 87.3765 1.02626 88.4247C1.63119 89.4729 2.47556 90.3631 3.49036 91.0226C4.47056 91.5185 5.5446 91.8013 6.6419 91.8525C7.7392 91.9038 8.83492 91.7222 9.85706 91.3198C8.21744 91.9431 6.98054 91.0034 6.98054 89.0186V60.4451C7.02455 59.2335 7.37417 58.0527 7.99691 57.0125L1.02613 52.9662C0.395968 54.0102 0.0458921 55.1991 0.00976562 56.418V84.9915Z" fill="white"/>
<path opacity="0.85" d="M70.2352 22.8778C69.8325 21.4012 68.4805 20.9601 66.8792 21.8614L10.4515 54.4045C9.42187 55.0433 8.576 55.9387 7.99683 57.003L1.03564 52.9662C1.61455 51.8992 2.4603 51.0006 3.49028 50.3582L59.8989 17.8151C60.9802 17.2713 62.1738 16.988 63.3843 16.988C64.5947 16.988 65.7883 17.2713 66.8696 17.8151C67.746 18.3851 68.4966 19.1282 69.0753 19.9988C69.6541 20.8694 70.0488 21.8491 70.2352 22.8778Z" fill="white"/>
<path d="M16.3292 67.2529L56.6005 43.8668C57.7703 43.1956 58.7099 43.5024 58.7099 44.5571C58.6256 45.2063 58.391 45.8268 58.0248 46.3695C57.6586 46.9121 57.1709 47.3618 56.6005 47.6829L16.3292 71.0595C15.169 71.7307 14.2197 71.4238 14.2197 70.3787C14.3062 69.7302 14.5417 69.1105 14.9076 68.5682C15.2736 68.0259 15.7602 67.5757 16.3292 67.2529Z" fill="#455A64"/>
<path d="M16.3292 75.5181L44.4232 59.2178C45.5834 58.5466 46.5327 58.8534 46.5327 59.9082C46.444 60.556 46.2077 61.1748 45.842 61.7168C45.4762 62.2587 44.9908 62.7094 44.4232 63.034L16.3292 79.3343C15.169 80.0151 14.2197 79.7082 14.2197 78.6535C14.3048 78.0033 14.5396 77.3817 14.9056 76.8377C15.2717 76.2936 15.759 75.8419 16.3292 75.5181Z" fill="#455A64"/>
<path d="M16.3292 59.007L56.6005 35.6305C57.7703 34.9593 58.7099 35.2661 58.7099 36.3208C58.6242 36.9695 58.389 37.5895 58.023 38.1319C57.6569 38.6743 57.17 39.1244 56.6005 39.4466L16.3292 62.8232C15.169 63.4944 14.2197 63.1875 14.2197 62.1328C14.3062 61.4843 14.5417 60.8647 14.9076 60.3224C15.2736 59.7801 15.7602 59.3298 16.3292 59.007Z" fill="#455A64"/>
<path d="M174.595 10.7773C174.448 10.6969 174.283 10.654 174.115 10.6527H165.38L161.775 12.695V25.1599L165.38 23.0792L168.496 19.474V29.0624L172.102 26.9817L181.556 16.0605C181.647 15.9542 181.713 15.8294 181.751 15.6947C181.788 15.56 181.796 15.4187 181.773 15.2808C181.75 15.1429 181.697 15.0116 181.618 14.8962C181.54 14.7807 181.436 14.684 181.316 14.6127L174.595 10.7773Z" fill="#455A64"/>
<path d="M168.497 29.0912L172.102 27.0105L181.556 16.0893C181.672 15.9504 181.746 15.7817 181.77 15.6025C181.794 15.4234 181.767 15.2411 181.691 15.0767C181.616 14.9123 181.496 14.7725 181.345 14.6735C181.194 14.5744 181.018 14.5201 180.837 14.5168H172.102L168.497 16.5975V29.0912Z" fill="#37474F"/>
<path d="M172.102 7.17205C172.042 6.05649 171.72 4.97083 171.162 4.003C170.603 3.03516 169.825 2.21235 168.89 1.60118C167.895 1.0951 166.794 0.831306 165.678 0.831306C164.562 0.831306 163.461 1.0951 162.466 1.60118L110.468 31.6033C109.533 32.213 108.756 33.0341 108.198 34.0003C107.64 34.9665 107.317 36.0505 107.256 37.1646V63.5135C107.316 64.6278 107.639 65.7121 108.197 66.6784C108.755 67.6447 109.533 68.4657 110.468 69.0748C111.465 69.5757 112.565 69.8366 113.68 69.8366C114.796 69.8366 115.896 69.5757 116.892 69.0748L169.197 38.8617C172.073 37.2125 172.073 35.5633 172.073 33.5114L172.102 7.17205Z" fill="#37474F"/>
<path d="M107.255 63.5135C107.316 64.6278 107.638 65.7121 108.196 66.6784C108.754 67.6447 109.533 68.4657 110.468 69.0748C111.373 69.5309 112.365 69.7905 113.378 69.8368C114.391 69.883 115.402 69.7149 116.345 69.3433C114.83 69.909 113.68 69.046 113.68 67.2147V40.8753C113.722 39.7557 114.052 38.6658 114.639 37.7111L108.166 34.0004C107.585 34.9575 107.255 36.0459 107.208 37.1646L107.255 63.5135Z" fill="#263238"/>
<path d="M171.997 6.25156C171.623 4.89 170.386 4.45853 168.899 5.29272L116.892 35.314C115.938 35.8977 115.157 36.7251 114.629 37.7111L108.167 34.01C108.703 33.0301 109.482 32.2046 110.429 31.6129L162.427 1.61077C163.426 1.10976 164.527 0.848862 165.644 0.848862C166.761 0.848862 167.863 1.10976 168.861 1.61077C169.673 2.12939 170.37 2.80868 170.909 3.60681C171.448 4.40493 171.818 5.30499 171.997 6.25156Z" fill="#455A64"/>
<path d="M124.159 46.2544L161.314 24.7093C162.388 24.086 163.232 24.3641 163.232 25.3421C163.155 25.9367 162.942 26.5055 162.609 27.0043C162.277 27.5032 161.834 27.9187 161.314 28.2186L124.159 49.7925C123.085 50.4062 122.242 50.1281 122.242 49.1597C122.315 48.5601 122.526 47.9855 122.859 47.4814C123.191 46.9772 123.637 46.5572 124.159 46.2544Z" fill="#0873BA"/>
<path d="M135.417 47.3666L161.305 32.3608C162.379 31.7375 163.223 32.0252 163.223 32.9936C163.147 33.5886 162.935 34.158 162.602 34.657C162.269 35.1561 161.825 35.5713 161.305 35.8701L135.417 50.876C134.343 51.4992 133.499 51.2212 133.499 50.2431C133.576 49.6486 133.789 49.0798 134.122 48.5809C134.455 48.0821 134.898 47.6666 135.417 47.3666Z" fill="#0873BA"/>
<path d="M124.159 38.6796L161.314 17.1248C162.388 16.5112 163.232 16.7892 163.232 17.7577C163.155 18.3522 162.942 18.921 162.609 19.4199C162.277 19.9187 161.834 20.3343 161.314 20.6342L124.159 42.1889C123.085 42.8122 122.242 42.5341 122.242 41.5561C122.319 40.9615 122.532 40.3928 122.865 39.8939C123.197 39.395 123.64 38.9795 124.159 38.6796Z" fill="#0873BA"/>
<path d="M205.018 152.437C209.956 151.334 215.565 153.395 219.295 161.315C222.9 168.871 233.332 191.107 233.572 196.438C233.821 201.97 211.298 219.201 211.931 218.903C212.123 218.807 206.897 208.251 206.897 208.251L218.355 194.012L211.873 181.25L205.018 152.437Z" fill="#0873BA"/>
<g opacity="0.35">
<path d="M205.018 152.437C209.956 151.334 215.565 153.395 219.295 161.315C222.9 168.871 233.332 191.107 233.572 196.438C233.821 201.97 211.298 219.201 211.931 218.903C212.123 218.807 206.897 208.251 206.897 208.251L218.355 194.012L211.873 181.25L205.018 152.437Z" fill="black"/>
</g>
<path d="M213.637 331.73C214.289 331.979 214.663 333.216 214.961 336.237C215.133 338.154 215.776 340.59 212.918 342.105C211.879 342.641 210.724 342.915 209.554 342.904C208.384 342.892 207.235 342.595 206.206 342.038C203.733 340.504 202.477 337.665 199.581 335.393C197.03 333.398 193.828 331.922 191.776 328.288C189.724 324.654 190.05 322.238 194.269 322.238C201.057 322.238 203.09 325.977 206.58 326.073C208.489 326.092 212.976 331.49 213.637 331.73Z" fill="#263238"/>
<path d="M213.627 330.244V333.293C213.627 334.779 207.289 337.004 205.516 333.6C205.381 333.303 204.691 329.122 204.691 329.122L213.627 330.244Z" fill="#FFA8A7"/>
<path d="M184.23 349.488C184.23 349.488 185.438 349.488 185.908 354.407C186.09 356.324 186.541 360.16 185.908 361.521C185.275 362.883 181.804 363.525 177.911 363.87C175.035 364.129 172.388 365.539 169.703 367.054C167.158 368.487 164.301 369.277 161.381 369.355C157.699 369.355 154.583 368.981 151.965 366.91C150.575 365.807 148.801 363.487 150.095 361.732C150.634 361.201 151.318 360.84 152.061 360.697C153.7 360.083 155.35 359.527 157.018 359C159.513 358.259 161.946 357.327 164.296 356.209C167.728 354.512 171.554 352.623 174.152 349.728L184.23 349.488Z" fill="#263238"/>
<path d="M184.21 346.947C184.21 346.947 184.21 349.21 184.21 350.504C184.21 351.799 182.714 353.726 178.754 353.611C175.983 353.525 174.037 352.786 174.133 350.495V347.206L184.21 346.947Z" fill="#FFA8A7"/>
<path d="M215.402 289.8C214.698 284.406 213.465 279.094 211.72 273.941C211.72 273.941 212.737 260.229 213.197 247.227C213.596 233.908 213.224 220.577 212.085 207.301C212.085 207.301 167.92 203.121 167.192 219.344C166.463 235.568 167.518 276.875 168.093 283.989C168.668 291.104 169.234 297.787 170.749 311.048C172.043 322.468 174.143 347.254 174.143 347.254C175.713 348.043 177.453 348.432 179.21 348.387C180.966 348.341 182.684 347.863 184.211 346.995C184.211 346.995 187.538 313.713 187.922 305.496C188.42 294.834 185.937 288.956 185.937 288.956C185.937 288.956 186.896 282.244 188.516 268.456C189.676 258.724 191.22 247.63 191.22 247.63C191.22 247.63 192.735 261.361 193.646 269.012C194.499 276.108 195.938 281.717 198.066 294.949C199.917 306.455 204.96 330.714 204.96 330.714C210.148 333.485 213.59 330.292 213.59 330.292C213.59 330.292 216.85 299.714 215.402 289.8Z" fill="#37474F"/>
<path d="M191.219 247.611L193.31 234.053C193.31 234.053 201.939 231.311 206.273 226.2C206.273 226.2 203.943 232.155 195.937 235.357L192.725 246.777L192.178 256.193L191.219 247.611Z" fill="black"/>
<path d="M183.971 148.486L186.033 162.974L199.073 162.524L197.817 145.59L183.971 148.486Z" fill="#FFA8A7"/>
<path d="M174.613 130.632C174.613 130.632 171.113 135.762 171.497 136.28C171.88 136.798 174.373 137.287 174.373 137.287L174.613 130.632Z" fill="#F28F8F"/>
<path d="M175.754 133.94C174.912 133.925 174.094 133.661 173.403 133.181C172.712 132.701 172.178 132.027 171.87 131.244C171.562 130.461 171.492 129.604 171.67 128.782C171.849 127.959 172.267 127.208 172.872 126.623C173.477 126.038 174.242 125.646 175.07 125.495C175.898 125.345 176.752 125.443 177.524 125.778C178.296 126.112 178.952 126.668 179.408 127.375C179.864 128.082 180.101 128.909 180.088 129.75C180.068 130.88 179.6 131.956 178.787 132.742C177.975 133.527 176.884 133.958 175.754 133.94ZM175.878 126.375C175.224 126.366 174.582 126.55 174.033 126.906C173.484 127.262 173.052 127.772 172.793 128.373C172.534 128.974 172.459 129.638 172.577 130.281C172.696 130.925 173.002 131.519 173.458 131.988C173.914 132.457 174.499 132.781 175.138 132.918C175.778 133.054 176.444 132.999 177.052 132.757C177.66 132.516 178.183 132.099 178.554 131.561C178.926 131.022 179.129 130.385 179.138 129.731C179.145 129.297 179.066 128.865 178.905 128.461C178.745 128.058 178.506 127.689 178.204 127.378C177.901 127.066 177.54 126.817 177.141 126.645C176.742 126.473 176.313 126.381 175.878 126.375Z" fill="#263238"/>
<path d="M184.325 116.403C177.383 117.755 175.341 120.756 174.517 131.745C173.654 143.203 174.766 146.827 176.252 148.4C177.259 149.454 182.906 149.732 185.773 148.994C189.359 148.035 197.471 145.331 201.345 139.626C205.899 132.914 207.213 123.719 202.505 119.865C195.899 114.438 187.144 115.857 184.325 116.403Z" fill="#FFA8A7"/>
<path d="M184.076 149.272C181.094 149.608 177.086 149.272 176.252 148.39C178.795 148.368 181.311 147.874 183.673 146.933L184.076 149.272Z" fill="#F28F8F"/>
<path d="M172.023 119.126C172.003 120.129 172.344 121.105 172.982 121.878C173.572 122.508 174.32 122.968 175.147 123.213C175.975 123.457 176.853 123.476 177.69 123.269C177.492 123.805 177.44 124.384 177.541 124.947C177.643 125.51 177.893 126.035 178.265 126.469C178.638 126.902 179.12 127.228 179.662 127.412C180.203 127.596 180.783 127.632 181.343 127.516C181.008 127.593 181.89 130.153 181.976 130.393C182.108 130.869 182.339 131.312 182.653 131.693C182.966 132.075 183.356 132.386 183.798 132.608C183.798 132.608 185.016 128.187 188.746 128.772C192.475 129.357 192.936 134.199 190.519 137.076C188.103 139.952 185.907 138.802 185.907 138.802C185.907 138.802 185.907 145.149 188.669 148.783C188.669 148.783 191.852 149.876 197.759 148.707C201.383 147.997 206.57 143.558 208.795 138.811C213.503 128.753 213.963 119.635 207.539 116.816C207.29 116.7 207.194 115.454 207.117 115.186C206.94 114.474 206.659 113.792 206.283 113.162C205.411 111.799 204.167 110.714 202.697 110.037C200.532 109.119 198.211 108.624 195.86 108.579C193.518 108.531 191.184 108.294 188.88 107.87C186.818 107.39 184.881 106.508 182.868 105.856C180.884 105.094 178.731 104.878 176.635 105.233C175.594 105.431 174.63 105.918 173.854 106.639C173.077 107.36 172.519 108.285 172.244 109.308C171.793 111.638 173.145 113.575 174.555 115.281C173.79 115.588 173.136 116.118 172.678 116.802C172.219 117.487 171.978 118.293 171.985 119.117L172.023 119.126Z" fill="#263238"/>
<path d="M206.656 119.126L210.827 116.748C210.671 116.475 210.463 116.234 210.214 116.041C209.965 115.848 209.68 115.705 209.376 115.622C209.072 115.539 208.754 115.516 208.442 115.556C208.129 115.595 207.827 115.696 207.553 115.852C207.279 116.008 207.039 116.217 206.845 116.466C206.652 116.715 206.51 116.999 206.427 117.303C206.343 117.607 206.321 117.925 206.36 118.238C206.4 118.551 206.5 118.852 206.656 119.126Z" fill="#263238"/>
<path d="M183.769 135.081L183.971 130.287C183.641 130.247 183.307 130.276 182.989 130.371C182.671 130.467 182.376 130.627 182.123 130.842C181.87 131.057 181.664 131.322 181.518 131.62C181.372 131.918 181.29 132.244 181.276 132.575C181.262 132.907 181.317 133.238 181.437 133.548C181.557 133.857 181.74 134.138 181.974 134.374C182.209 134.609 182.489 134.794 182.798 134.915C183.107 135.037 183.438 135.094 183.769 135.081Z" fill="#263238"/>
<path d="M171.975 128.734L184.814 130.604L184.277 131.495L171.966 129.702L171.975 128.734Z" fill="#263238"/>
<path d="M213.465 160.462C211.94 154.517 209.792 152.571 204.615 152.437C201.943 152.611 199.286 152.951 196.656 153.453C196.11 155.965 189.618 157.672 183.041 156.329C181.123 156.895 175.917 158.305 174.287 158.89C169.636 160.577 167.383 165.41 167.076 180.751C167.076 180.751 166.184 217.11 167.076 223.391C178.803 227.964 190.98 227.763 197.701 226.267C211.691 223.132 213.35 217.312 213.35 217.312C213.35 217.312 212.621 202.718 212.142 191.615C212.841 184.548 213.896 179.236 214.28 173.598C214.62 169.203 214.346 164.782 213.465 160.462Z" fill="#0873BA"/>
<g opacity="0.2">
<path d="M213.465 160.462C211.941 154.517 209.793 152.571 204.615 152.436C201.944 152.611 199.286 152.951 196.657 153.453C196.11 155.965 189.619 157.672 183.041 156.329C181.124 156.895 175.917 158.305 174.287 158.889C169.637 160.577 167.383 165.41 167.076 180.751C167.076 180.751 166.185 217.11 167.076 223.391C178.803 227.964 190.98 227.763 197.702 226.267C211.691 223.132 213.35 217.312 213.35 217.312C213.35 217.312 212.621 202.718 212.142 191.615C212.842 184.548 213.897 179.236 214.28 173.598C214.621 169.203 214.346 164.781 213.465 160.462Z" fill="black"/>
</g>
<path d="M198.123 149.685L198.219 151.085C198.219 151.085 197.538 153.002 193.578 153.788C186.933 155.025 184.603 152.954 184.603 152.954L184.44 151.756C184.44 151.756 183.798 151.497 182.714 152.331C181.075 154.032 179.541 155.832 178.122 157.72C178.122 157.72 179.387 157.346 183.539 159.11C187.685 160.73 192.256 160.902 196.512 159.599C197.699 159.206 198.762 158.509 199.595 157.577C200.428 156.645 201.001 155.51 201.258 154.287C201.421 153.069 199.264 149.196 198.123 149.685Z" fill="#0873BA"/>
<path opacity="0.35" d="M198.123 149.685L198.219 151.085C198.219 151.085 197.538 153.002 193.578 153.788C186.933 155.025 184.603 152.954 184.603 152.954L184.44 151.756C184.44 151.756 183.798 151.497 182.714 152.331C181.075 154.032 179.541 155.832 178.122 157.72C178.122 157.72 179.387 157.346 183.539 159.11C187.685 160.73 192.256 160.902 196.512 159.599C197.699 159.206 198.762 158.509 199.595 157.577C200.428 156.645 201.001 155.51 201.258 154.287C201.421 153.069 199.264 149.196 198.123 149.685Z" fill="black"/>
<path d="M172.82 159.474C167.268 160.548 162.397 163.08 162.493 169.657C162.526 178.059 161.128 186.405 158.36 194.338C156.635 199.794 142.415 216.113 138.906 217.129C135.396 218.146 130.362 215.95 129.145 217.714C127.927 219.479 132.759 221.636 132.98 222.509C133.2 223.381 127.045 225.797 123.315 225.155C119.585 224.513 120.496 229.077 126.115 231.589C131.733 234.101 138.685 231.215 145.349 226.229C152.013 221.243 165.35 210.6 168.793 203.217C172.964 194.319 175.294 185.958 175.802 179.533C176.684 166.368 172.82 159.474 172.82 159.474Z" fill="#FFA8A7"/>
<path d="M173.481 159.139C173.481 159.139 167.728 159.139 164.295 162.562C161.361 165.438 160.978 170.156 160.163 179.399C159.755 184.269 158.869 189.086 157.516 193.782C156.826 196.131 147.075 209.67 147.075 209.67C147.075 209.67 151.044 215.576 155.024 218.731C155.024 218.731 163.969 211.357 168.524 205.173C173.078 198.988 176.166 181.451 176.166 181.451C176.166 181.451 178.496 168.027 173.481 159.139Z" fill="#0873BA"/>
<path opacity="0.35" d="M173.481 159.139C173.481 159.139 167.728 159.139 164.295 162.562C161.361 165.438 160.978 170.156 160.163 179.399C159.755 184.269 158.869 189.086 157.516 193.782C156.826 196.131 147.075 209.67 147.075 209.67C147.075 209.67 151.044 215.576 155.024 218.731C155.024 218.731 163.969 211.357 168.524 205.173C173.078 198.988 176.166 181.451 176.166 181.451C176.166 181.451 178.496 168.027 173.481 159.139Z" fill="black"/>
<path d="M147.535 209.056C149.515 212.694 152.327 215.812 155.742 218.155C155.742 218.155 152.578 220.84 150.871 221.914C150.871 221.914 146.163 220.236 143.306 213.774L147.535 209.056Z" fill="#0873BA"/>
<path opacity="0.5" d="M147.535 209.056C149.515 212.694 152.327 215.812 155.742 218.155C155.742 218.155 152.578 220.84 150.871 221.914C150.871 221.914 146.163 220.236 143.306 213.774L147.535 209.056Z" fill="black"/>
<path d="M145.818 213.428C145.909 213.578 146.053 213.688 146.221 213.738C146.388 213.788 146.569 213.775 146.727 213.7C146.885 213.625 147.01 213.494 147.078 213.332C147.146 213.171 147.151 212.99 147.093 212.824C147.06 212.73 147.008 212.644 146.94 212.572C146.872 212.499 146.789 212.442 146.697 212.404C146.605 212.365 146.506 212.347 146.407 212.349C146.308 212.351 146.21 212.375 146.12 212.417C146.03 212.46 145.95 212.521 145.885 212.596C145.82 212.672 145.772 212.76 145.743 212.856C145.715 212.951 145.707 213.051 145.72 213.15C145.733 213.249 145.766 213.343 145.818 213.428Z" fill="#263238"/>
<path d="M174.847 38.4591H189.527C195.206 38.4591 200.651 36.2033 204.667 32.188C208.682 28.1727 210.938 22.7267 210.938 17.0482C210.938 12.5267 209.142 8.19045 205.945 4.9933C202.747 1.79614 198.411 0 193.89 0H191.895C187.374 0 183.038 1.79614 179.84 4.9933C176.643 8.19045 174.847 12.5267 174.847 17.0482V38.4591Z" fill="#263238"/>
<path d="M173.16 50.224C169.545 57.1085 166.122 65.508 163.447 68.2886C158.365 70.6569 146.763 75.0676 142.103 75.6813C141.279 75.7812 140.446 75.584 139.754 75.1251C137.922 73.9266 136.503 73.7252 134.567 73.0636C133.052 72.5363 132.409 71.8075 132.131 72.1048C131.836 72.4439 131.686 72.886 131.715 73.3349C131.743 73.7838 131.948 74.2032 132.285 74.5019C133.008 75.197 133.813 75.8023 134.682 76.3045C132.61 76.8102 130.451 76.8463 128.363 76.41C124.326 75.3457 122.418 77.2921 125.151 81.674C126.11 83.2465 129.945 85.7587 137.788 85.0875C140.57 84.9345 143.339 84.6143 146.082 84.1286C153.571 82.537 161.567 80.1974 166.688 78.6728C168.586 77.9181 170.285 76.737 171.654 75.221C180.284 65.4121 184.493 56.7154 188.262 50.3583L185.519 40.8753C179.421 40.6452 176.267 44.3368 173.16 50.224Z" fill="#B16668"/>
<path d="M185.52 40.8275C180.821 40.4823 179.038 41.3644 176.89 43.4643C171.76 48.5078 163.936 67.7038 163.812 67.8572C163.687 68.0106 158.001 70.5995 158.001 70.5995C158.001 70.5995 161.031 75.6717 160.331 80.4755C160.331 80.4755 165.883 79.2482 167.867 78.4907C169.852 77.7332 170.562 77.2059 172.432 75.0389C174.301 72.8719 184.753 60.4837 184.753 60.4837L185.52 40.8275Z" fill="#263238"/>
<path d="M175.432 62.2958C176.134 65.6547 176.405 69.0895 176.237 72.517C175.931 77.0236 172.728 85.2792 172.728 85.2792C172.728 85.2792 175.25 87.5708 182.115 86.4969C187.705 85.6244 185.73 68.768 182.518 65.4983C180.65 63.5673 178.116 62.4219 175.432 62.2958Z" fill="#37474F"/>
<path d="M214.121 206.103C214.515 208.319 214.727 210.564 214.754 212.815C214.84 216.909 215.588 218.357 215.713 221.713C215.828 225.548 215.166 226.986 213.613 229.144C212.059 231.301 207.965 233.257 206.239 229.604C204.513 225.951 204.734 223.573 205.28 219.814C205.827 216.055 205.923 213.773 206.239 210.811C206.527 208.193 206.872 206.208 206.872 206.208L214.121 206.103Z" fill="#263238"/>
<path d="M202.51 173.943L215.934 173.703C215.732 182.697 214.304 197.674 214.073 206.103C214.073 207.694 214.073 218.452 213.508 221.722C212.606 226.631 206.796 225.97 206.47 223.026C206.144 220.082 206.844 207.531 206.825 206.237C206.882 200.829 204.341 186.705 202.989 176.983C202.999 176.513 202.567 174.413 202.51 173.943Z" fill="#B16668"/>
<path d="M182.7 199.103C182.7 199.103 183.4 199.151 183.515 199.717C183.63 200.283 183.668 201.452 183.956 202.593C184.406 204.332 184.568 206.133 184.435 207.925C184.195 209.181 181.328 211.06 179.372 211.386C177.416 211.712 174.645 213.649 173.102 215.097C170.639 217.137 167.588 218.336 164.395 218.52C161.126 218.52 158.844 217.436 157.76 215.643C156.677 213.85 158.719 213.678 162.487 211.252L165.364 209.334C171.289 205.499 173.456 203.389 175.134 199.515L182.7 199.103Z" fill="#263238"/>
<path d="M175.115 197.003C175.211 194.213 173.792 173.703 173.792 173.703L185.374 175.007C182.642 191.356 182.412 196.936 182.728 199.314C182.786 199.536 182.812 199.765 182.805 199.995C182.805 203.178 179.199 204.885 176.409 207.004C175.297 207.838 172.459 210.417 169.132 211.558C166.984 212.287 162.995 212.565 162.487 211.261C165.891 208.663 170.522 205.259 173.235 202.296C174.52 200.877 175.019 199.784 175.115 197.003Z" fill="#B16668"/>
<path d="M206.335 76.8606C210.294 82.0628 213.175 88.0019 214.811 94.3307C218.647 109.778 212.625 142.829 212.625 142.829C212.817 145.063 215.377 149.474 216.336 159.34C217.458 170.99 214.255 202.191 214.255 202.191C214.255 202.191 211.168 204.492 206.709 202.344C206.709 202.344 198.549 156.512 197.121 144.929C195.846 134.813 193.285 113.805 193.285 113.805L187.369 144.871C187.369 144.871 188.184 150.538 188.597 154.853C189.258 161.66 182.623 195.872 182.623 195.872C181.428 196.368 180.142 196.61 178.848 196.583C177.554 196.557 176.28 196.262 175.106 195.719C175.106 195.719 172.172 151.535 171.549 143.327C170.916 134.88 173.111 115.185 174.732 99.5085C175.221 94.7814 177.465 82.2493 178.299 78.1647L206.335 76.8606Z" fill="#455A64"/>
<path opacity="0.6" d="M193.218 113.805L191.828 104.216C187.826 103.975 183.95 102.725 180.562 100.582C182.901 103.5 186.285 105.392 189.997 105.856L190.869 114.409L188.088 141.093L193.218 113.805Z" fill="#263238"/>
<path d="M177.781 66.6585C177.925 69.4679 178.328 78.1646 178.328 78.1646C189.834 85.9312 206.355 76.8606 206.355 76.8606L208.742 60.5603C208.742 60.5603 202.75 52.18 208.368 43.3011L199.403 41.5273L188.712 40.6452L185.538 40.789C182.029 43.3683 176.65 49.0063 175.519 51.8924C174.387 54.7785 172.661 60.637 177.781 66.6585Z" fill="#0873BA"/>
<g opacity="0.6">
<path d="M177.782 66.6585C177.926 69.4679 178.329 78.1645 178.329 78.1645C189.835 85.9312 206.355 76.8605 206.355 76.8605L208.743 60.5602C208.743 60.5602 202.75 52.18 208.369 43.3011L199.404 41.5272L188.713 40.6451L185.539 40.7889C182.03 43.3682 176.651 49.0062 175.519 51.8923C174.388 54.7784 172.662 60.6369 177.782 66.6585Z" fill="white"/>
</g>
<path d="M199.969 41.6807C199.969 41.6807 210.123 42.1314 212.05 43.0518C213.977 43.9723 217.189 49.5144 214.313 57.5879C211.436 65.6613 208.838 75.1251 209.135 77.0331C209.432 78.9412 216.279 88.7885 216.279 88.7885C214.385 90.1872 212.245 91.2153 209.969 91.8185L206.46 84.1477L207.285 92.3075C207.285 92.3075 200.956 93.8416 196.44 93.4485C196.44 93.4389 192.797 62.5547 199.969 41.6807Z" fill="#37474F"/>
<path d="M205.894 0L204.725 4.4682C205.016 4.56469 205.324 4.60043 205.629 4.57319C205.935 4.54595 206.232 4.45632 206.501 4.30984C206.771 4.16336 207.008 3.96314 207.197 3.72155C207.386 3.47997 207.524 3.20216 207.601 2.90529C207.746 2.2944 207.649 1.65118 207.331 1.10986C207.013 0.56853 206.499 0.170919 205.894 0Z" fill="#263238"/>
<path d="M209.73 4.06548L205.118 4.22848C205.113 4.53164 205.169 4.83274 205.284 5.11341C205.398 5.39408 205.569 5.64847 205.785 5.86107C206.001 6.07367 206.259 6.24004 206.541 6.35005C206.824 6.46005 207.126 6.51139 207.429 6.50093C208.052 6.46888 208.639 6.1979 209.067 5.74433C209.496 5.29076 209.733 4.68948 209.73 4.06548Z" fill="#263238"/>
<path d="M181.54 8.10217C179.622 9.22402 177.283 14.0182 177.513 24.0669C177.714 32.5814 180.466 34.6908 181.856 35.2949C183.247 35.899 185.912 35.5346 188.511 35.0935V40.2042C188.511 40.2042 184.925 44.3751 185.145 46.7243C185.366 49.0734 190.333 49.6008 193.698 47.3283C195.875 45.7673 197.744 43.8167 199.211 41.5753V28.3145C199.211 28.3145 200.63 29.8199 203.152 28.094C203.69 27.7472 204.15 27.2932 204.504 26.7603C204.858 26.2275 205.099 25.6273 205.21 24.9973C205.322 24.3674 205.302 23.7211 205.153 23.0991C205.003 22.477 204.727 21.8925 204.341 21.3821C203.976 21.0401 203.54 20.7821 203.064 20.6262C202.589 20.4703 202.085 20.4203 201.588 20.4797C201.091 20.5391 200.613 20.7064 200.188 20.97C199.762 21.2335 199.4 21.5869 199.125 22.0054C199.125 22.0054 195.635 21.6985 190.112 18.6686C185.969 16.4201 182.886 12.6202 181.54 8.10217Z" fill="#B16668"/>
<path d="M187.974 21.9287C187.972 22.1394 188.033 22.346 188.148 22.5226C188.263 22.6993 188.427 22.8382 188.62 22.9222C188.813 23.0062 189.027 23.0314 189.235 22.9948C189.442 22.9582 189.634 22.8613 189.787 22.7163C189.94 22.5713 190.047 22.3845 190.094 22.1792C190.142 21.9739 190.128 21.7592 190.054 21.5617C189.98 21.3643 189.85 21.1929 189.68 21.0689C189.51 20.945 189.307 20.8738 189.096 20.8644C188.952 20.8606 188.81 20.8851 188.675 20.9365C188.541 20.9879 188.419 21.0653 188.315 21.1641C188.21 21.2629 188.127 21.3813 188.068 21.5125C188.01 21.6437 187.978 21.7852 187.974 21.9287Z" fill="#263238"/>
<path d="M186.737 29.1488L184.244 29.9351C184.289 30.1019 184.367 30.2579 184.474 30.394C184.58 30.5301 184.713 30.6435 184.864 30.7275C185.015 30.8115 185.181 30.8644 185.353 30.8831C185.525 30.9018 185.699 30.8859 185.864 30.8364C186.199 30.7222 186.477 30.4828 186.64 30.1682C186.803 29.8536 186.837 29.4884 186.737 29.1488Z" fill="#9A4A4D"/>
<path d="M178.482 18.6398L180.659 17.1344C180.567 16.9895 180.446 16.8646 180.305 16.7673C180.163 16.67 180.003 16.6024 179.835 16.5683C179.667 16.5343 179.493 16.5346 179.325 16.5693C179.157 16.604 178.997 16.6722 178.856 16.7701C178.567 16.9753 178.368 17.2832 178.298 17.6307C178.228 17.9782 178.294 18.3392 178.482 18.6398Z" fill="#263238"/>
<path d="M178.98 21.1521C178.977 21.3632 179.035 21.5706 179.149 21.7485C179.263 21.9264 179.426 22.0668 179.619 22.1522C179.812 22.2377 180.026 22.2643 180.235 22.2288C180.443 22.1932 180.636 22.0972 180.789 21.9526C180.943 21.808 181.051 21.6212 181.099 21.4157C181.148 21.2102 181.134 20.995 181.061 20.797C180.987 20.599 180.857 20.4271 180.687 20.3026C180.516 20.1782 180.313 20.1068 180.102 20.0973C179.814 20.0896 179.534 20.1961 179.324 20.3936C179.114 20.5912 178.99 20.8638 178.98 21.1521Z" fill="#263238"/>
<path d="M184.925 20.5384L184.752 26.9914L181.358 25.9367L184.925 20.5384Z" fill="#9A4A4D"/>
<path d="M188.511 35.0936C191.253 34.7388 196.891 33.1184 197.764 30.8939C197.419 32.0341 196.729 33.0392 195.788 33.7704C194.11 35.2183 188.511 36.8387 188.511 36.8387V35.0936Z" fill="#9A4A4D"/>
<path d="M230.518 78.4811C228.744 71.5679 221.227 56.4278 219.089 50.8857C216.653 44.5382 212.454 42.2561 207.918 42.2561C206.25 44.4039 205.55 55.2101 210.689 61.4329C212.875 66.045 219.434 78.9318 219.434 78.9318C219.271 80.1783 214.688 96.1909 212.722 100.448C212.371 101.192 211.756 101.78 210.996 102.097C208.973 102.98 206.595 105.194 204.984 106.451C203.719 107.409 202.75 107.572 202.836 107.965C202.99 108.397 203.299 108.756 203.704 108.971C204.109 109.186 204.579 109.241 205.023 109.126C206.396 108.684 207.736 108.142 209.031 107.505C207.824 109.424 206.485 111.257 205.023 112.99C202.299 116.135 202.395 118.82 207.698 118.906C211.706 118.963 213.825 116.71 217.382 109.835C218.398 107.86 219.53 104.878 220.757 102.337C223.854 95.9033 225.81 93.2281 227.469 89.1147C230.192 82.5658 231.208 81.1467 230.518 78.4811Z" fill="#B16668"/>
<path d="M205.895 42.0739C210.919 42.0739 214.63 42.4766 217.526 46.7243C220.422 50.9719 229.377 73.3225 230.374 76.2182C231.372 79.1139 232.024 81.4822 227.853 88.2612C224.287 87.9247 220.859 86.7162 217.871 84.7423L218.878 78.9317L210.104 61.9315C206.484 55.9836 204.999 48.9792 205.895 42.0739Z" fill="#263238"/>
<path d="M171.765 128.494C177.518 130.412 178.87 130.805 182.821 136.951C186.656 142.848 190.491 153.76 193.914 162.504C200.195 160.721 213.513 157.624 217.885 155.073C222.258 152.523 221.845 150.749 223.638 149.119C225.71 147.201 227.876 142.656 229.564 145.159C230.695 146.847 228.346 147.978 228.49 150.116C228.634 152.254 235.097 147.24 237.81 145.322C239.603 144.066 243.764 148.007 242.096 152.274C240.619 156.109 238.261 158.458 234.003 160.251C229.526 162.169 227.186 163.128 221.539 165.621C215.661 168.267 191.431 178.987 189.034 177.491C183.578 174.797 178.582 157.912 175.274 150.644C171.966 143.376 174.162 135.782 171.765 128.494Z" fill="#FFA8A7"/>
<path d="M170.394 127.756C172.839 130.968 171.832 129.674 172.58 134.64C173.193 138.639 181.602 177.175 189.225 178.747C192.562 179.447 216.677 168.411 222.526 165.189C220.317 162.139 218.746 158.676 217.904 155.006C210.895 157.739 198.814 160.443 194.48 161.795C192.466 156.195 190.011 150.442 187.71 144.795C183.328 134.104 180.845 126.452 170.394 127.756Z" fill="#37474F"/>
<path d="M137.687 318.479H147.084V302.399H137.687V318.479Z" fill="#FFA8A7"/>
<path d="M172.599 308.488L182.849 308.843L183.358 290.26L171.746 289.877L172.599 308.488Z" fill="#FFA8A7"/>
<path d="M138.839 192.957C138.839 201.51 138.244 251.226 138.244 251.226C138.043 253.69 135.675 258.062 135.483 266.922C135.224 279.78 137.199 310.07 137.199 310.07C138.746 310.83 140.441 311.242 142.164 311.275C143.887 311.308 145.596 310.962 147.171 310.262C147.171 310.262 154.199 267.44 155.801 254.726C157.201 243.622 161.209 214.569 161.209 214.569L167.249 252.309C166.591 256.829 166.424 261.407 166.751 265.963C167.173 271.841 171.622 301.095 171.622 301.095C175.5 302.37 179.678 302.407 183.578 301.201C183.578 301.201 184.537 255.627 184.614 250.229C184.729 244.073 182.044 191.126 182.044 191.126L138.839 192.957Z" fill="#263238"/>
<path d="M147.075 313.848V312.505C147.583 312.505 147.89 312.994 148.082 314.203C148.225 315.075 148.35 315.727 148.638 316.868C149.053 318.508 149.601 320.112 150.277 321.662C151.601 324.932 152.722 326.159 155.762 329.975C156.787 331.039 157.748 332.163 158.638 333.341C159.204 334.348 159.405 337.176 158.437 337.809C154.899 340.168 149.51 340.235 145.694 339.123C144.284 338.725 143.018 337.933 142.044 336.839C141.071 335.744 140.431 334.394 140.2 332.948C140.066 332.075 140.114 331.193 140.018 330.321C139.683 328.34 138.878 326.469 137.669 324.865C136.96 323.942 136.353 322.945 135.856 321.892C135.07 319.975 135.703 317.789 136.211 315.871C136.643 314.202 137.112 312.381 137.678 312.534C137.678 312.735 137.678 313.56 137.678 313.56C139.016 314.611 140.675 315.17 142.376 315.142C143.757 315.171 147.084 314.902 147.075 313.848Z" fill="#263238"/>
<path d="M182.954 305.679C183.491 305.679 183.913 306.446 185.092 307.721C186.852 309.49 188.893 310.955 191.133 312.055C194.968 313.972 202.438 316.935 205.822 318.46C207.932 319.419 207.826 321.96 205.65 323.417C203.473 324.874 198.2 325.91 191.871 324.501C188.419 323.724 183.942 320.541 181.094 320.713C178.246 320.886 172.944 320.847 170.844 319.4C168.744 317.952 169.588 314.864 170.182 312.218C170.825 309.341 171.477 304.816 172.435 305.007V306.091C173.672 307.951 180.106 308.632 182.858 307.261L182.954 305.679Z" fill="#263238"/>
<path d="M161.208 214.569C161.208 214.569 169.195 211.961 174.507 206.832C174.507 206.832 172.1 211.338 164.919 215.528L166.664 248.57L161.208 214.569Z" fill="black"/>
<path d="M154.276 127.641C152.358 128.101 147.784 128.657 144.419 129.626C141.945 130.335 140.9 133.356 140.382 135.638C138.723 142.925 138.465 158.218 138.465 158.218L138.369 193.83C144.544 198.317 169.886 200.599 182.859 191.126C182.859 191.126 181.277 148.707 181.277 142.11C181.277 135.513 177.604 127.574 167.479 126.989L154.276 127.641Z" fill="#455A64"/>
<path d="M127.218 177.712C127.218 177.712 135.08 189.649 136.432 191.202C137.784 192.756 138.705 192.248 140.162 191.557C141.932 190.788 143.756 190.147 145.618 189.639C148.025 188.997 148.494 191.375 146.164 193.063C144.439 194.28 142.473 194.817 143.288 195.824C144.951 197.429 146.903 198.704 149.041 199.583C154.794 202.028 155.043 203.514 153.969 205.527C153.011 207.273 149.588 212.048 139.213 207.599C134.936 205.758 129.001 199.266 126.163 195.901C122.059 191.039 116.44 181.585 116.44 181.585L127.218 177.712Z" fill="#FFA8A7"/>
<path d="M144.419 129.674C134.965 128.859 132.529 133.72 125.817 145.629C119.892 156.023 112.221 168.986 111.972 174.394C111.905 176.139 119.489 188.259 124.916 194.415C129.614 194.194 133.018 192.382 135.243 189.62C133.948 187.463 126.968 174.825 126.968 174.825L139.433 155.591C141.874 152.631 143.611 149.156 144.515 145.427C146.126 138.303 145.493 131.265 144.419 129.674Z" fill="#37474F"/>
<path d="M156.442 99.2304C156.44 101.582 157.136 103.882 158.441 105.839C159.747 107.795 161.603 109.32 163.775 110.222C165.948 111.123 168.339 111.36 170.646 110.902C172.953 110.445 175.072 109.313 176.736 107.651C178.4 105.988 179.533 103.87 179.992 101.563C180.452 99.2565 180.217 96.8654 179.317 94.6923C178.418 92.5192 176.894 90.6617 174.939 89.3548C172.983 88.048 170.684 87.3504 168.332 87.3504C165.18 87.3504 162.158 88.6017 159.928 90.8294C157.699 93.0571 156.445 96.0788 156.442 99.2304Z" fill="#263238"/>
<path d="M147.784 107.678C147.784 107.678 149.702 116.729 150.479 118.225C150.993 119.145 151.841 119.831 152.847 120.143L152.713 113.776L147.784 107.678Z" fill="#263238"/>
<path d="M150.086 93.4103C149.424 93.4136 148.771 93.5512 148.164 93.815C147.557 94.0787 147.011 94.463 146.557 94.9444C144.975 96.5649 145.809 102.711 147.785 107.678L151.409 108.1L150.086 93.4103Z" fill="#263238"/>
<path d="M152.492 108.1C151.763 108.541 150.728 107.141 149.827 106.182C148.925 105.223 145.991 103.958 144.543 107.035C143.096 110.113 145.828 114.323 148.139 115.042C152.109 116.288 152.703 113.738 152.703 113.738L153 128.513C155.743 132.032 161.918 136.184 165.245 135.58C167.891 135.11 168.476 130.633 165.935 127.698V123.336C167.707 123.619 169.504 123.709 171.295 123.604C174.172 123.154 176.089 120.852 176.943 117.688C178.362 112.606 178.86 108.503 177.691 98.5114C176.367 87.5614 163.634 87.4464 156.759 91.7995C149.884 96.1526 152.492 108.1 152.492 108.1Z" fill="#FFA8A7"/>
<path d="M178.976 94.0815C178.401 95.0948 177.55 95.9231 176.521 96.469C173.958 97.8709 171.026 98.4532 168.122 98.1374C165.101 97.8018 162.369 96.3444 159.665 94.9924C159.5 96.1137 159.025 97.1666 158.293 98.0319C157.374 98.9718 156.262 99.7013 155.033 100.17C154.784 102.136 154.794 104.667 154.669 106.652C154.669 107.323 154.669 110.804 153.049 109.806C152.522 109.352 152.057 108.83 151.668 108.253C151.096 107.545 150.484 106.87 149.836 106.23C149.367 105.799 149.395 104.811 149.376 104.245C149.338 103.058 149.376 101.87 149.491 100.688C149.597 99.4606 149.798 98.2429 149.904 97.0251C149.871 96.3226 149.705 95.6327 149.415 94.9924C149.188 94.2405 149.084 93.4569 149.108 92.672C149.242 90.2174 151.121 88.1367 153.327 87.0532C156.527 85.668 160.037 85.1552 163.5 85.567C166.511 85.8163 169.617 86.1615 172.484 85.2218C173.587 84.8574 174.632 84.263 175.754 83.9945C176.306 83.8038 176.89 83.7243 177.472 83.7605C178.055 83.7967 178.624 83.9479 179.148 84.2054C181.315 85.4615 181.449 89.3256 179.311 90.6392C179.167 90.7255 178.995 90.8214 178.947 90.9844C178.914 91.1746 178.955 91.3701 179.062 91.531C179.245 91.9341 179.332 92.3739 179.317 92.8163C179.302 93.2587 179.185 93.6917 178.976 94.0815Z" fill="#263238"/>
<path d="M149.366 94.6856L144.965 92.3268C145.107 92.0307 145.307 91.7661 145.553 91.5492C145.799 91.3322 146.087 91.1673 146.399 91.0643C146.71 90.9613 147.04 90.9224 147.367 90.9498C147.694 90.9773 148.012 91.0706 148.302 91.2242C148.89 91.5544 149.328 92.0979 149.526 92.7422C149.724 93.3865 149.667 94.0822 149.366 94.6856Z" fill="#263238"/>
<path d="M165.916 123.355C165.916 123.355 159.396 122.041 157.114 120.823C155.773 120.125 154.674 119.039 153.959 117.707C154.306 119.042 154.916 120.293 155.753 121.389C157.421 123.518 165.916 125.09 165.916 125.09V123.355Z" fill="#F28F8F"/>
<path d="M165.274 105.789C165.262 106.063 165.171 106.328 165.01 106.55C164.85 106.773 164.627 106.943 164.371 107.041C164.114 107.138 163.835 107.157 163.567 107.097C163.299 107.037 163.055 106.899 162.865 106.701C162.675 106.503 162.548 106.254 162.498 105.984C162.449 105.714 162.479 105.436 162.587 105.183C162.694 104.931 162.874 104.715 163.102 104.564C163.331 104.413 163.599 104.332 163.874 104.331C164.062 104.334 164.247 104.374 164.42 104.449C164.592 104.523 164.748 104.632 164.879 104.767C165.009 104.903 165.111 105.063 165.179 105.239C165.247 105.414 165.279 105.601 165.274 105.789Z" fill="#263238"/>
<path d="M163.873 101.043L160.997 102.644C160.791 102.248 160.746 101.787 160.871 101.359C160.996 100.93 161.282 100.566 161.668 100.343C161.858 100.242 162.067 100.18 162.281 100.16C162.496 100.141 162.712 100.164 162.918 100.23C163.123 100.295 163.313 100.4 163.477 100.54C163.641 100.679 163.776 100.85 163.873 101.043Z" fill="#263238"/>
<path d="M165.388 115.291L168.62 116.499C168.55 116.716 168.437 116.917 168.287 117.09C168.138 117.262 167.955 117.403 167.75 117.503C167.545 117.603 167.322 117.661 167.094 117.673C166.866 117.685 166.638 117.651 166.424 117.573C165.989 117.401 165.638 117.067 165.445 116.641C165.252 116.216 165.231 115.731 165.388 115.291Z" fill="#F28F8F"/>
<path d="M176.818 102.212L174.181 100.18C174.305 100.002 174.464 99.8506 174.647 99.7357C174.831 99.6208 175.037 99.5444 175.251 99.5112C175.465 99.4781 175.684 99.4888 175.894 99.5427C176.104 99.5966 176.301 99.6926 176.473 99.8249C176.827 100.102 177.06 100.505 177.124 100.949C177.189 101.394 177.079 101.847 176.818 102.212Z" fill="#263238"/>
<path d="M176.223 105.52C176.212 105.785 176.123 106.041 175.968 106.255C175.813 106.47 175.598 106.634 175.35 106.728C175.102 106.821 174.832 106.84 174.574 106.781C174.316 106.723 174.08 106.59 173.897 106.399C173.713 106.208 173.59 105.967 173.543 105.706C173.495 105.446 173.525 105.177 173.629 104.933C173.732 104.689 173.906 104.482 174.126 104.335C174.347 104.189 174.606 104.111 174.871 104.111C175.053 104.115 175.231 104.154 175.397 104.227C175.564 104.3 175.714 104.405 175.839 104.536C175.965 104.666 176.063 104.821 176.129 104.99C176.195 105.159 176.227 105.339 176.223 105.52Z" fill="#263238"/>
<path d="M168.975 104.408L169.444 112.932L173.893 111.417L168.975 104.408Z" fill="#F28F8F"/>
<path d="M170.586 134.669C169.751 136.587 168.217 137.44 165.446 137.757C164.053 137.854 162.655 137.667 161.336 137.207C160.017 136.747 158.806 136.024 157.775 135.082L161.227 131.639L165.609 134.947L165.983 131.265L170.586 134.669Z" fill="#0873BA"/>
<path opacity="0.2" d="M170.586 134.669C169.751 136.587 168.217 137.44 165.446 137.757C164.053 137.854 162.655 137.667 161.336 137.207C160.017 136.747 158.806 136.024 157.775 135.082L161.227 131.639L165.609 134.947L165.983 131.265L170.586 134.669Z" fill="black"/>
<path d="M168.409 133.586C168.81 134.776 168.963 136.035 168.86 137.287C168.733 138.404 168.309 139.467 167.632 140.365C167.192 140.644 166.693 140.819 166.174 140.875C165.656 140.932 165.131 140.869 164.641 140.691C163.744 139.928 163.023 138.981 162.526 137.913C162.03 136.846 161.77 135.684 161.764 134.506L165.6 134.947L168.409 133.586Z" fill="#0873BA"/>
<path d="M167.632 140.365C167.632 140.365 172.129 165.17 172.311 167.212C172.493 169.255 169.722 176.321 168.016 176.388C166.309 176.456 162.934 170.012 162.886 168.19C162.838 166.368 164.64 140.729 164.64 140.729L167.632 140.365Z" fill="#0873BA"/>
<path d="M164.641 140.691C165.124 140.904 165.655 140.986 166.18 140.928C166.705 140.871 167.206 140.677 167.632 140.365L167.699 140.758C167.27 141.103 166.763 141.34 166.222 141.447C165.681 141.554 165.122 141.528 164.593 141.372L164.641 140.691Z" fill="#37474F"/>
<path d="M165.599 134.947L152.943 125.292V122.77C152.943 122.77 149.98 123.556 149.318 128.744C151.352 133.256 154.825 136.966 159.194 139.291L161.85 134.497L165.599 134.947Z" fill="#37474F"/>
<path d="M165.916 123.978C167.597 124.771 169.056 125.966 170.163 127.459C171.429 129.549 171.419 136.338 171.419 136.338L168.389 133.586L165.58 134.947C165.849 132.282 165.925 127.718 165.925 127.718L165.916 123.978Z" fill="#37474F"/>
</svg>
