<svg width="36" height="36" viewBox="0 0 36 36" fill="none" xmlns="http://www.w3.org/2000/svg">
<path d="M1.3586 11.0014C2.10889 11.0014 2.71721 10.3931 2.71721 9.64277V4.08299C2.71721 3.33406 3.32643 2.72439 4.07581 2.72439H9.64931C10.3996 2.72439 11.0079 2.11607 11.0079 1.36579C11.0079 0.615501 10.3996 0.00718833 9.64931 0.00718833H4.07581C1.82829 0.00718833 0 1.83547 0 4.08299V9.64277C0 10.3931 0.608315 11.0014 1.3586 11.0014ZM24.9921 34.6348C24.9921 33.8845 25.6004 33.2762 26.3507 33.2762H31.9242C32.6736 33.2762 33.2828 32.6665 33.2828 31.9176V26.3578C33.2828 25.6075 33.8911 24.9992 34.6414 24.9992C35.3917 24.9992 36 25.6075 36 26.3578V31.9176C36 34.1651 34.1717 35.9934 31.9242 35.9934H26.3507C25.6004 35.9934 24.9921 35.3851 24.9921 34.6348ZM0.00622559 31.9242V26.3505C0.00622559 25.6002 0.61454 24.9919 1.36483 24.9919C2.11512 24.9919 2.72343 25.6002 2.72343 26.3505V31.9242C2.72343 32.6731 3.33265 33.2828 4.08204 33.2828H9.64229C10.3926 33.2828 11.0009 33.8911 11.0009 34.6414C11.0009 35.3917 10.3926 36 9.64229 36H4.08204C1.83451 36 0.00622559 34.1717 0.00622559 31.9242ZM33.2756 9.64883V4.0758C33.2756 3.32687 32.6664 2.7172 31.917 2.7172H26.3567C25.6065 2.7172 24.9981 2.10889 24.9981 1.3586C24.9981 0.608313 25.6065 0 26.3567 0H31.917C34.1645 0 35.9928 1.82828 35.9928 4.0758V9.64883C35.9928 10.3991 35.3845 11.0074 34.6342 11.0074C33.8839 11.0074 33.2756 10.3991 33.2756 9.64883Z" fill="#A0A0A0"/>
</svg>
