<svg width="52" height="52" viewBox="0 0 52 52" fill="none" xmlns="http://www.w3.org/2000/svg">
<path d="M20.9655 10.0793C20.6985 9.71827 20.1899 9.64328 19.8291 9.9095C17.3932 11.7126 13.5818 13.8605 9.25702 13.8605C9.24808 13.8605 9.23857 13.8605 9.22927 13.8605C8.7278 13.8605 8.2537 14.0505 7.89267 14.3961C7.52213 14.7511 7.31604 15.2256 7.31266 15.7315C7.31088 15.9687 7.29162 21.6126 9.35383 27.9761C10.7436 32.2671 12.7647 35.8869 15.3611 38.735C15.5214 38.9107 15.7412 39 15.9617 39C16.1571 39 16.3531 38.9298 16.509 38.7877C16.8405 38.4854 16.8643 37.9717 16.562 37.64C14.1227 34.9645 12.2176 31.5447 10.8999 27.4754C8.91764 21.3591 8.93588 15.9703 8.93766 15.7434C8.93828 15.6577 8.98743 15.5978 9.0168 15.5696C9.04975 15.5383 9.12096 15.4855 9.23423 15.4855C9.24016 15.4859 9.24593 15.4859 9.25206 15.4855C14.0245 15.4855 18.1634 13.1642 20.7959 11.2155C21.1565 10.9485 21.2325 10.4399 20.9655 10.0793Z" fill="white"/>
<path d="M25.9757 0.521706C25.6853 0.199144 25.2686 0.010725 24.8266 0.0008125C24.8098 0 24.7927 0 24.7758 0C24.3613 0 23.9487 0.17615 23.6569 0.473688C23.57 0.561763 14.9029 9.2783 4.1261 9.2783C3.84741 9.2783 3.56909 9.27233 3.28764 9.26043C3.26164 9.25925 3.23548 9.25844 3.20968 9.25844C2.38447 9.25844 1.69218 9.89601 1.65192 10.7061C1.63587 11.035 1.27561 18.8486 3.76332 27.8384C7.10595 39.9208 14.0475 48.241 23.8378 51.8988C24.0181 51.9663 24.2103 52 24.4007 52C24.5364 52 24.6693 51.9837 24.8012 51.9492C25.0264 51.8917 30.1277 50.5377 35.5064 45.3766C34.8343 45.2905 34.1765 45.1596 33.536 44.985C28.7749 49.2158 24.4473 50.3627 24.4065 50.3766C15.1244 46.9088 8.52762 38.9651 5.32941 27.4052C3.03967 19.1302 3.23268 11.8566 3.27058 10.8862C3.55402 10.8973 3.84148 10.9033 4.1261 10.9033C15.3523 10.9033 24.1536 2.27801 24.7927 1.63609C31.734 9.31795 45.3262 11.4885 46.3105 11.6361C46.2565 14.2318 46.0736 16.6523 45.7884 18.9128C46.3021 19.2758 46.7964 19.6722 47.266 20.1042C47.6391 17.4798 47.8769 14.6441 47.937 11.5702C47.9517 10.8045 47.3753 10.1459 46.5933 10.0352C46.4556 10.0162 32.7074 8.00121 25.9757 0.521706Z" fill="white"/>
<path d="M50.375 30.8754C50.3758 23.6962 44.5548 17.875 37.3764 17.875C37.376 17.875 37.3754 17.875 37.375 17.875C30.1952 17.8746 24.375 23.6954 24.375 30.875C24.375 38.0542 30.194 43.875 37.375 43.875C44.554 43.875 50.375 38.0542 50.375 30.8754ZM45.7803 38.1308L44.2134 36.5649C43.8964 36.2487 43.3819 36.2483 43.0645 36.5653C42.7473 36.8827 42.7475 37.3972 43.0649 37.7146L44.6318 39.2805C44.6982 39.3467 44.7744 39.3959 44.8543 39.4344C43.0324 41.0285 40.7002 42.0509 38.1373 42.2214C38.1679 42.1361 38.1875 42.0453 38.1875 41.9493V39.7347C38.1875 39.286 37.8237 38.9222 37.375 38.9222C36.9263 38.9222 36.5625 39.286 36.5625 39.7347V41.9493C36.5625 42.0453 36.5821 42.1361 36.6127 42.2214C34.0498 42.0509 31.7176 41.0285 29.8957 39.4344C29.9758 39.3959 30.0522 39.3467 30.1186 39.2801L31.6847 37.7134C32.0019 37.396 32.0019 36.8815 31.6845 36.5645C31.3671 36.2475 30.8528 36.2475 30.5354 36.5645L28.9693 38.1312C28.9029 38.1974 28.8537 38.274 28.8152 38.3537C27.2213 36.5319 26.1989 34.2 26.0284 31.6371C26.1139 31.6677 26.2047 31.6875 26.3009 31.6875H28.5155C28.9642 31.6875 29.328 31.3237 29.328 30.875C29.328 30.4263 28.9642 30.0625 28.5155 30.0625H26.3009C26.2047 30.0625 26.1137 30.0823 26.0282 30.1129C26.1924 27.6143 27.162 25.2736 28.8124 23.3907C28.8513 23.4728 28.9017 23.5514 28.9697 23.6192L30.5362 25.1847C30.6947 25.343 30.9026 25.4224 31.1105 25.4224C31.3185 25.4224 31.5264 25.343 31.6851 25.1843C32.0023 24.8669 32.0021 24.3524 31.6847 24.035L30.1182 22.4695C30.0504 22.4017 29.9724 22.3517 29.8903 22.3128C31.7732 20.662 34.1143 19.6924 36.6129 19.5282C36.5821 19.6139 36.5625 19.7047 36.5625 19.8007V22.0157C36.5625 22.4644 36.9263 22.8282 37.375 22.8282C37.8237 22.8282 38.1875 22.4644 38.1875 22.0157V19.8007C38.1875 19.7047 38.1679 19.6135 38.1371 19.5282C40.7234 19.698 43.142 20.7298 45.0576 22.4882L37.5986 29.3039L34.0576 26.2126C33.7192 25.9175 33.2062 25.952 32.911 26.2904C32.616 26.6284 32.6508 27.1418 32.9888 27.4369L37.0764 31.0055C37.2298 31.1392 37.4204 31.2059 37.6109 31.2059C37.8074 31.2059 38.004 31.1348 38.1589 30.9932L46.1764 23.6672C47.6834 25.5009 48.5659 27.7361 48.722 30.1129C48.6363 30.0823 48.5453 30.0625 48.4489 30.0625H46.2341C45.7854 30.0625 45.4216 30.4263 45.4216 30.875C45.4216 31.3237 45.7854 31.6875 46.2341 31.6875H48.4489C48.5451 31.6875 48.6359 31.6677 48.7216 31.6371C48.5512 34.2 47.5287 36.5319 45.9348 38.3541C45.8961 38.2736 45.8467 38.1974 45.7803 38.1308Z" fill="white"/>
<path d="M18.2812 41.4375C18.73 41.4375 19.0938 41.0737 19.0938 40.625C19.0938 40.1763 18.73 39.8125 18.2812 39.8125C17.8325 39.8125 17.4688 40.1763 17.4688 40.625C17.4688 41.0737 17.8325 41.4375 18.2812 41.4375Z" fill="white"/>
</svg>
