<svg width="28" height="26" viewBox="0 0 28 26" fill="none" xmlns="http://www.w3.org/2000/svg">
<path d="M27.1749 0.749221C27.0251 0.770872 26.8867 0.841916 26.7818 0.951096L23.1799 4.55297V2.79985C23.1799 2.6195 23.1083 2.44655 22.9808 2.31903C22.8532 2.19151 22.6803 2.11986 22.4999 2.11985H0.739943C0.718705 2.11885 0.697431 2.11885 0.676193 2.11985C0.507118 2.13578 0.350123 2.2144 0.236083 2.34024C0.122043 2.46607 0.0592106 2.63002 0.0599429 2.79985V24.5598C0.0599609 24.7402 0.131609 24.9131 0.25913 25.0407C0.386651 25.1682 0.559601 25.2398 0.739943 25.2398H22.4999C22.6803 25.2398 22.8532 25.1682 22.9808 25.0407C23.1083 24.9131 23.1799 24.7402 23.1799 24.5598V6.4761L27.7381 1.91797C27.8435 1.81893 27.9146 1.68883 27.9411 1.5466C27.9675 1.40436 27.948 1.2574 27.8852 1.12706C27.8224 0.99673 27.7196 0.889819 27.5919 0.821868C27.4642 0.753917 27.3181 0.728469 27.1749 0.749221ZM1.41994 3.47985H21.8199V5.91297L10.9399 16.793L5.29807 11.1511C5.23503 11.0863 5.1597 11.0347 5.07647 10.9993C4.99325 10.9639 4.9038 10.9455 4.81338 10.9451C4.72295 10.9447 4.63336 10.9624 4.54983 10.997C4.46631 11.0317 4.39054 11.0827 4.32695 11.147C4.26336 11.2113 4.21323 11.2876 4.1795 11.3715C4.14577 11.4554 4.12911 11.5452 4.13049 11.6356C4.13188 11.726 4.15128 11.8152 4.18756 11.8981C4.22385 11.9809 4.27629 12.0557 4.34182 12.118L10.4618 18.238C10.5891 18.3638 10.7609 18.4344 10.9399 18.4344C11.119 18.4344 11.2908 18.3638 11.4181 18.238L21.8199 7.8361V23.8798H1.41994V3.47985Z" fill="#676767"/>
</svg>
