<svg width="38" height="38" viewBox="0 0 38 38" fill="none" xmlns="http://www.w3.org/2000/svg">
<path d="M37.8498 22.64L24.8198 0.46C24.6498 0.17 24.3498 0 24.0098 0C23.6698 0 23.3698 0.18 23.1998 0.46L18.9998 7.62L14.7898 0.47C14.6198 0.18 14.3198 0.0100002 13.9798 0.0100002C13.6398 0.0100002 13.3398 0.19 13.1698 0.47L0.149754 22.64C-0.0702456 23.01 -0.0102453 23.47 0.289755 23.77L13.3198 36.8C13.4998 36.98 13.7398 37.07 13.9798 37.07C14.2198 37.07 14.4598 36.98 14.6398 36.8L18.9998 32.45L23.3498 36.8C23.5298 36.98 23.7698 37.07 24.0098 37.07C24.2498 37.07 24.4898 36.98 24.6698 36.8L37.6998 23.77C38.0098 23.47 38.0698 23 37.8498 22.64ZM13.9898 34.82L2.12975 22.96L13.9898 2.78L17.9198 9.46L10.1698 22.64C9.94975 23.01 10.0098 23.47 10.3098 23.77L17.6698 31.13L13.9898 34.82ZM18.9998 11.31L25.8498 22.96L18.9998 29.81L12.1498 22.96L18.9998 11.31ZM24.0098 34.82L20.3198 31.13L27.6798 23.77C27.9798 23.47 28.0398 23 27.8198 22.64L20.0798 9.47L24.0098 2.79L35.8698 22.97L24.0098 34.82Z" fill="white"/>
</svg>
