<svg width="33" height="39" viewBox="0 0 33 39" fill="none" xmlns="http://www.w3.org/2000/svg">
<g clip-path="url(#clip0_61_1114)">
<path fill-rule="evenodd" clip-rule="evenodd" d="M11.7499 4.55L16.4999 7.6687L21.2506 4.55L16.4999 1.4313L11.7499 4.55ZM16.4999 9.1C16.3725 9.1 16.2451 9.0636 16.1343 8.9908L10.1943 5.0908C10.0101 4.9699 9.8999 4.7671 9.8999 4.55C9.8999 4.3329 10.0101 4.1301 10.1943 4.0092L16.1343 0.109199C16.356 -0.0370508 16.6444 -0.0370508 16.8662 0.109199L22.8062 4.0092C22.9897 4.1301 23.0999 4.3329 23.0999 4.55C23.0999 4.7671 22.9897 4.9699 22.8062 5.0908L16.8662 8.9908C16.7553 9.0636 16.6279 9.1 16.4999 9.1Z" fill="white"/>
<path fill-rule="evenodd" clip-rule="evenodd" d="M11.7499 15.6L16.4999 18.7187L21.2506 15.6L16.4999 12.4813L11.7499 15.6ZM16.4999 20.15C16.3725 20.15 16.2451 20.1136 16.1343 20.0408L10.1943 16.1408C10.0101 16.0199 9.8999 15.8171 9.8999 15.6C9.8999 15.3829 10.0101 15.1801 10.1943 15.0592L16.1343 11.1592C16.356 11.013 16.6444 11.013 16.8662 11.1592L22.8062 15.0592C22.9897 15.1801 23.0999 15.3829 23.0999 15.6C23.0999 15.8171 22.9897 16.0199 22.8062 16.1408L16.8662 20.0408C16.7553 20.1136 16.6279 20.15 16.4999 20.15Z" fill="white"/>
<path fill-rule="evenodd" clip-rule="evenodd" d="M1.84998 10.4L6.6 13.5187L11.3507 10.4L6.6 7.28127L1.84998 10.4ZM6.6 14.95C6.47262 14.95 6.34524 14.9136 6.23436 14.8408L0.29436 10.9408C0.11022 10.8199 0 10.6171 0 10.4C0 10.1829 0.11022 9.98007 0.29436 9.85917L6.23436 5.95917C6.45612 5.81292 6.74454 5.81292 6.9663 5.95917L12.9063 9.85917C13.0898 9.98007 13.2 10.1829 13.2 10.4C13.2 10.6171 13.0898 10.8199 12.9063 10.9408L6.9663 14.8408C6.85542 14.9136 6.72804 14.95 6.6 14.95Z" fill="white"/>
<path fill-rule="evenodd" clip-rule="evenodd" d="M21.6498 10.4L26.3998 13.5187L31.1505 10.4L26.3998 7.28127L21.6498 10.4ZM26.3998 14.95C26.2724 14.95 26.145 14.9136 26.0342 14.8408L20.0942 10.9408C19.91 10.8199 19.7998 10.6171 19.7998 10.4C19.7998 10.1829 19.91 9.98007 20.0942 9.85917L26.0342 5.95917C26.2559 5.81292 26.5443 5.81292 26.7661 5.95917L32.7061 9.85917C32.8896 9.98007 32.9998 10.1829 32.9998 10.4C32.9998 10.6171 32.8896 10.8199 32.7061 10.9408L26.7661 14.8408C26.6552 14.9136 26.5278 14.95 26.3998 14.95Z" fill="white"/>
<path fill-rule="evenodd" clip-rule="evenodd" d="M22.4404 34.45H22.447H22.4404ZM11.2204 34.1023L16.5004 37.5688L21.7804 34.1023V16.8143L16.8667 20.0409C16.6449 20.1871 16.3559 20.1871 16.1341 20.0409L11.2204 16.8143V34.1023ZM16.5004 39C16.373 39 16.245 38.9636 16.1341 38.8909L10.1941 34.9908C10.0106 34.8699 9.90039 34.6671 9.90039 34.45V15.6001C9.90039 15.3602 10.0344 15.1399 10.2489 15.0268C10.4634 14.9137 10.7241 14.9266 10.9267 15.0592L16.5004 18.7188L22.0741 15.0592C22.2767 14.9266 22.5374 14.9137 22.7519 15.0268C22.9664 15.1399 23.1004 15.3602 23.1004 15.6001V34.45C23.1004 34.6671 22.9902 34.8699 22.8067 34.9908L16.8667 38.8909C16.7558 38.9636 16.6278 39 16.5004 39Z" fill="white"/>
<path fill-rule="evenodd" clip-rule="evenodd" d="M26.4003 33.8C26.2729 33.8 26.1449 33.7636 26.034 33.6908L22.074 31.0908C21.7704 30.8912 21.6886 30.4882 21.8912 30.1892C22.0925 29.8909 22.5017 29.8103 22.8066 30.0092L26.4003 32.3687L31.6803 28.9022V11.6142L26.7666 14.8408C26.5448 14.987 26.2558 14.987 26.034 14.8408L21.1203 11.6142V14.3C21.1203 14.6594 20.8253 14.95 20.4603 14.95C20.0953 14.95 19.8003 14.6594 19.8003 14.3V10.4C19.8003 10.1601 19.9343 9.93978 20.1488 9.82668C20.3633 9.71358 20.624 9.72658 20.8266 9.85918L26.4003 13.5187L31.974 9.85918C32.176 9.72658 32.4373 9.71358 32.6518 9.82668C32.8663 9.93978 33.0003 10.1601 33.0003 10.4V29.25C33.0003 29.4671 32.8901 29.6699 32.7066 29.7908L26.7666 33.6908C26.6557 33.7636 26.5277 33.8 26.4003 33.8Z" fill="white"/>
<path fill-rule="evenodd" clip-rule="evenodd" d="M6.6 33.8C6.47262 33.8 6.34458 33.7636 6.2337 33.6908L0.2937 29.7908C0.11022 29.6699 0 29.4671 0 29.25V10.4C0 10.1601 0.13398 9.93978 0.34848 9.82668C0.56298 9.71358 0.82368 9.72658 1.0263 9.85918L6.6 13.5187L12.1737 9.85918C12.3763 9.72658 12.637 9.71358 12.8515 9.82668C13.066 9.93978 13.2 10.1601 13.2 10.4V14.3C13.2 14.6594 12.905 14.95 12.54 14.95C12.175 14.95 11.88 14.6594 11.88 14.3V11.6142L6.9663 14.8408C6.74454 14.987 6.45546 14.987 6.2337 14.8408L1.32 11.6142V28.9022L6.6 32.3687L10.1937 30.0092C10.4973 29.8103 10.9072 29.8909 11.1091 30.1892C11.3117 30.4882 11.2299 30.8912 10.9263 31.0908L6.9663 33.6908C6.85542 33.7636 6.72738 33.8 6.6 33.8Z" fill="white"/>
<path fill-rule="evenodd" clip-rule="evenodd" d="M22.4404 9.75C22.0754 9.75 21.7804 9.45945 21.7804 9.1V5.7642L16.8667 8.9908C16.6449 9.13705 16.3559 9.13705 16.1341 8.9908L11.2204 5.7642V9.1C11.2204 9.45945 10.9254 9.75 10.5604 9.75C10.1954 9.75 9.90039 9.45945 9.90039 9.1V4.55C9.90039 4.31015 10.0344 4.0898 10.2489 3.9767C10.4634 3.8636 10.7241 3.8766 10.9267 4.0092L16.5004 7.6687L22.0741 4.0092C22.2767 3.8766 22.5374 3.8636 22.7519 3.9767C22.9664 4.0898 23.1004 4.31015 23.1004 4.55V9.1C23.1004 9.45945 22.8054 9.75 22.4404 9.75Z" fill="white"/>
</g>
<defs>
<clipPath id="clip0_61_1114">
<rect width="33" height="39" fill="white"/>
</clipPath>
</defs>
</svg>
