<svg width="32" height="32" viewBox="0 0 32 32" fill="none" xmlns="http://www.w3.org/2000/svg">
<path d="M6.99993 8.994C8.24091 8.994 9.24693 7.98798 9.24693 6.747C9.24693 5.50602 8.24091 4.5 6.99993 4.5C5.75895 4.5 4.75293 5.50602 4.75293 6.747C4.75293 7.98798 5.75895 8.994 6.99993 8.994Z" fill="white"/>
<path d="M2.49993 18.0019C3.74091 18.0019 4.74693 16.9959 4.74693 15.7549C4.74693 14.514 3.74091 13.5079 2.49993 13.5079C1.25895 13.5079 0.25293 14.514 0.25293 15.7549C0.25293 16.9959 1.25895 18.0019 2.49993 18.0019Z" fill="white"/>
<path d="M6.99993 26.994C8.24091 26.994 9.24693 25.988 9.24693 24.747C9.24693 23.506 8.24091 22.5 6.99993 22.5C5.75895 22.5 4.75293 23.506 4.75293 24.747C4.75293 25.988 5.75895 26.994 6.99993 26.994Z" fill="white"/>
<path d="M15.9999 31.494C17.2409 31.494 18.2469 30.488 18.2469 29.247C18.2469 28.006 17.2409 27 15.9999 27C14.7589 27 13.7529 28.006 13.7529 29.247C13.7529 30.488 14.7589 31.494 15.9999 31.494Z" fill="white"/>
<path d="M15.9999 4.494C17.2409 4.494 18.2469 3.48798 18.2469 2.247C18.2469 1.00602 17.2409 0 15.9999 0C14.7589 0 13.7529 1.00602 13.7529 2.247C13.7529 3.48798 14.7589 4.494 15.9999 4.494Z" fill="white"/>
<path d="M24.9999 9.00193C26.2409 9.00193 27.2469 7.99592 27.2469 6.75493C27.2469 5.51395 26.2409 4.50793 24.9999 4.50793C23.7589 4.50793 22.7529 5.51395 22.7529 6.75493C22.7529 7.99592 23.7589 9.00193 24.9999 9.00193Z" fill="white"/>
<path d="M29.4999 18.0019C30.7409 18.0019 31.7469 16.9959 31.7469 15.7549C31.7469 14.514 30.7409 13.5079 29.4999 13.5079C28.2589 13.5079 27.2529 14.514 27.2529 15.7549C27.2529 16.9959 28.2589 18.0019 29.4999 18.0019Z" fill="white"/>
<path d="M24.9999 27.0019C26.2409 27.0019 27.2469 25.9959 27.2469 24.7549C27.2469 23.514 26.2409 22.5079 24.9999 22.5079C23.7589 22.5079 22.7529 23.514 22.7529 24.7549C22.7529 25.9959 23.7589 27.0019 24.9999 27.0019Z" fill="white"/>
</svg>
