<svg width="638" height="796" viewBox="0 0 638 796" fill="none" xmlns="http://www.w3.org/2000/svg">
<g opacity="0.2" clip-path="url(#clip0_53_28)">
<path d="M359.941 475.795C359.941 563.843 324.267 643.554 266.598 701.253C208.929 758.953 129.247 794.636 41.2361 794.636C-46.7747 794.636 64.9243 752.09 198.619 687.533C332.313 622.977 488.014 536.398 488.014 448.361C488.014 360.325 332.319 287.466 198.619 236.629C64.9184 185.792 -46.757 156.966 41.2361 156.966C129.229 156.966 208.923 192.643 266.61 250.343C324.297 308.042 359.941 387.753 359.941 475.795Z" stroke="url(#paint0_linear_53_28)" stroke-width="4" stroke-miterlimit="10"/>
<path d="M41.9556 156.086C-44.6926 155.195 65.632 184.228 197.675 234.268C329.8 284.208 483.679 355.893 483.997 442.572C484.316 529.252 331.098 614.556 199.586 678.174C67.9442 741.81 -41.9911 783.754 45.0464 783.754C90.0811 783.754 132.674 777.228 169.734 764.281C188.4 757.777 206.212 749.041 222.784 738.264C239.135 727.571 253.722 714.66 267.318 700.403C322.515 642.414 358.225 564.722 357.711 477.689C357.198 390.656 321.513 311.683 264.251 254.373C234.479 224.495 199.496 200.319 161.028 183.036C123.938 166.46 83.7933 156.523 41.9556 156.086Z" stroke="url(#paint1_linear_53_28)" stroke-width="3.96" stroke-miterlimit="10"/>
<path d="M42.6752 155.225C-42.5987 153.425 66.3457 182.67 196.725 231.861C327.311 280.886 479.338 351.414 479.975 436.778C480.612 522.141 329.877 606.136 200.559 668.81C70.9642 731.531 -37.2134 772.873 48.845 772.873C95.6964 772.873 139.681 768.418 176.252 758.08C195.127 752.662 212.079 745.209 227.273 735.556C242.609 725.819 255.586 713.362 268.055 699.518C320.652 641.223 356.532 565.637 355.5 479.578C354.467 393.518 318.758 315.324 261.856 258.403C231.726 228.261 196.654 203.058 158.769 184.93C122.222 167.357 83.1681 156.087 42.6752 155.225Z" stroke="url(#paint2_linear_53_28)" stroke-width="3.92" stroke-miterlimit="10"/>
<path d="M43.389 154.357C-40.4988 151.584 67.0536 181.118 195.781 229.477C324.804 277.623 475.002 346.965 475.958 430.989C476.913 515.013 328.662 597.715 201.532 659.45C73.9902 721.251 -32.4415 761.992 52.6496 761.992C101.324 761.992 146.718 759.72 182.728 751.901C201.349 747.853 217.529 741.568 231.685 732.864C245.977 724.078 257.314 712.075 268.722 698.639C318.558 639.965 354.762 566.522 353.217 481.454C351.671 396.385 315.998 318.971 259.491 262.434C228.966 231.908 193.888 205.944 156.533 186.819C120.499 168.254 82.5075 155.65 43.389 154.357Z" stroke="url(#paint3_linear_53_28)" stroke-width="3.88" stroke-miterlimit="10"/>
<path d="M44.1086 153.49C-38.3813 149.731 67.7672 179.561 194.832 227.099C322.303 274.342 470.661 342.516 471.935 425.194C473.209 507.873 327.423 589.294 202.494 650.092C77.0101 710.972 -27.6579 751.11 56.454 751.11C106.945 751.11 153.731 750.951 189.228 745.717C207.578 743.008 223.038 737.934 236.18 730.174C249.445 722.337 259.119 710.819 269.465 697.783C316.381 638.679 353.075 567.431 351.017 483.36C348.958 399.289 313.267 322.612 257.119 266.464C226.211 235.543 191.11 208.806 154.303 188.707C118.783 169.151 81.8881 155.196 44.1086 153.49Z" stroke="url(#paint4_linear_53_28)" stroke-width="3.84" stroke-miterlimit="10"/>
<path d="M44.8282 152.623C-36.2519 147.837 68.4751 177.997 193.888 224.715C319.796 271.061 466.326 338.06 467.912 419.405C469.499 500.75 326.214 580.873 203.461 640.727C80.0302 700.692 -22.8742 740.229 60.2645 740.229C112.572 740.229 160.739 742.182 195.728 739.533C213.813 738.164 228.53 734.293 240.645 727.489C252.884 720.596 260.865 709.603 270.184 696.916C313.975 637.316 351.359 568.334 348.781 485.248C346.204 402.163 310.483 326.253 254.748 270.494C223.457 239.19 188.308 211.768 152.068 190.601C117.019 170.131 81.2807 154.771 44.8282 152.623Z" stroke="url(#paint5_linear_53_28)" stroke-width="3.79" stroke-miterlimit="10"/>
<path d="M45.5419 151.755C-34.0872 145.913 69.0826 176.74 192.938 222.33C317.183 268.069 461.984 333.611 463.889 413.61C465.795 493.61 325.005 572.452 204.428 631.368C83.0501 690.377 -18.0965 729.324 64.0453 729.324C118.169 729.324 167.722 733.85 202.205 733.331C220.012 733.059 234.003 730.634 245.086 724.774C256.294 718.832 262.546 708.399 270.88 696.031C311.338 635.971 349.613 569.207 346.528 487.136C343.325 405.001 307.704 329.899 252.359 274.525C220.696 242.83 185.53 214.653 149.821 192.489C115.291 171.039 80.6907 154.334 45.5419 151.755Z" stroke="url(#paint6_linear_53_28)" stroke-width="3.75" stroke-miterlimit="10"/>
<path d="M46.2616 150.888C-31.9342 143.942 69.7728 175.229 191.995 219.929C314.682 264.812 457.649 329.138 459.873 407.798C462.096 486.458 323.772 564.008 205.396 622.003C86.0761 680.127 -13.3187 718.466 67.8735 718.466C123.82 718.466 174.736 724.644 208.728 727.17C226.259 728.474 239.518 727.017 249.581 722.107C259.762 717.115 266.74 708.535 271.618 695.187C319.619 643.016 347.92 570.128 344.316 489.031C340.582 407.875 304.95 333.54 250.012 278.561C217.942 246.471 182.769 217.539 147.609 194.378C113.563 171.948 80.1187 153.897 46.2616 150.888Z" stroke="url(#paint7_linear_53_28)" stroke-width="3.71" stroke-miterlimit="10"/>
<path d="M46.9811 150.02C-29.7459 141.936 70.4687 173.719 191.045 217.569C312.14 261.608 453.308 324.713 455.85 402.027C458.392 479.341 322.545 555.611 206.345 612.644C89.096 669.848 -8.54102 707.585 71.6779 707.585C129.441 707.585 181.719 715.846 215.229 720.986C232.481 723.624 245.01 723.382 254.046 719.416C263.201 715.38 268.863 707.443 272.331 694.319C318.929 642.94 346.198 571.025 342.081 490.919C337.81 410.755 302.207 337.181 247.635 282.615C215.193 250.16 179.973 220.448 145.367 196.296C111.835 172.857 79.57 153.455 46.9811 150.02Z" stroke="url(#paint8_linear_53_28)" stroke-width="3.67" stroke-miterlimit="10"/>
<path d="M47.6949 149.153C-27.528 139.882 71.159 172.214 190.101 215.185C309.621 258.374 448.966 320.257 451.821 396.232C454.676 472.207 321.324 547.191 207.331 603.285C92.1161 659.569 -3.76317 696.703 75.5002 696.703C135.075 696.703 188.75 707.089 221.746 714.807C238.716 718.773 250.519 719.741 258.529 716.725C266.657 713.639 271.004 706.375 273.075 693.452C318.31 642.863 344.505 571.892 339.875 492.819C335.032 413.658 299.453 340.828 245.275 286.622C212.427 253.741 177.201 223.31 143.144 198.16C110.106 173.766 79.0393 153.018 47.6949 149.153Z" stroke="url(#paint9_linear_53_28)" stroke-width="3.63" stroke-miterlimit="10"/>
<path d="M48.4145 148.291C-25.2749 137.782 71.8549 170.715 189.157 212.806C307.126 255.14 444.631 315.808 447.81 390.425C450.99 465.043 320.103 538.758 208.304 593.92C95.1361 649.289 1.0204 685.822 79.2869 685.822C140.69 685.822 195.687 698.302 228.229 708.623C244.915 713.934 255.999 716.123 262.976 714.04C270.055 711.916 273.116 705.307 273.777 692.584C317.626 642.792 342.788 572.795 337.621 494.701C332.313 416.502 296.698 344.469 242.904 290.652C209.666 257.4 174.423 226.196 140.908 200.043C108.378 174.668 78.5496 152.587 48.4145 148.291Z" stroke="url(#paint10_linear_53_28)" stroke-width="3.59" stroke-miterlimit="10"/>
<path d="M49.134 147.424C-22.9922 135.622 72.5509 169.198 188.208 210.423C304.584 251.906 440.29 311.359 443.788 384.649C447.285 457.939 318.882 530.349 209.271 584.561C98.162 639.004 5.77452 674.941 83.0914 674.941C146.317 674.941 202.665 689.51 234.729 702.439C251.132 709.06 261.49 712.471 267.448 711.35C273.517 710.169 275.239 704.268 274.49 691.717C316.959 642.739 341.054 573.698 335.392 496.59C329.493 419.376 293.943 348.11 240.533 294.682C206.912 261.047 171.645 229.076 138.678 201.943C106.65 175.577 78.0777 152.151 49.134 147.424Z" stroke="url(#paint11_linear_53_28)" stroke-width="3.55" stroke-miterlimit="10"/>
<path d="M49.8537 146.556C-20.6681 133.439 73.247 167.688 187.288 208.039C302.066 248.673 435.955 306.903 439.765 378.842C443.575 450.781 317.773 522.147 210.238 575.197C101.288 628.949 10.576 664.059 86.896 664.059C151.938 664.059 209.643 680.706 241.229 696.261C257.349 704.198 266.982 708.859 271.901 708.653C276.944 708.446 277.351 703.159 275.198 690.844C316.287 642.633 339.326 574.595 333.145 498.472C326.774 422.25 291.183 351.757 238.168 298.713C204.151 264.688 168.867 231.961 136.449 203.831C104.922 176.48 77.6413 151.726 49.8537 146.556Z" stroke="url(#paint12_linear_53_28)" stroke-width="3.51" stroke-miterlimit="10"/>
<path d="M50.5675 145.689C-19.7775 143.7 73.943 166.177 186.314 205.661C299.565 245.439 431.613 302.436 435.748 373.065C439.883 443.694 316.558 513.744 211.206 565.838C104.32 618.687 15.3773 653.172 90.7005 653.172C157.565 653.172 216.621 671.896 247.723 690.071C263.566 699.324 272.467 705.225 276.378 705.962C280.383 706.718 279.492 702.091 275.93 689.977C315.638 642.556 337.616 575.498 330.927 500.367C323.99 425.129 288.434 355.398 235.797 302.72C201.397 268.329 166.089 234.859 134.213 205.72C103.188 177.383 75.8128 155.963 50.5675 145.689Z" stroke="url(#paint13_linear_53_28)" stroke-width="3.47" stroke-miterlimit="10"/>
<path d="M51.3166 144.822C-17.6953 142.679 74.6626 164.666 185.4 203.276C297.022 242.205 427.278 297.999 431.725 367.276C436.173 436.553 315.349 505.341 212.173 556.461C107.352 608.39 20.1315 642.285 94.505 642.285C163.187 642.285 223.604 663.08 254.223 683.881C269.783 694.449 277.935 701.584 280.843 703.265C283.751 704.947 281.616 701.017 276.643 689.103C314.983 642.485 335.899 576.395 328.697 502.249C321.224 427.991 285.668 359.027 233.425 306.762C198.624 271.946 163.31 237.72 131.972 207.625C101.453 178.286 75.1522 155.886 51.3166 144.822Z" stroke="url(#paint14_linear_53_28)" stroke-width="3.42" stroke-miterlimit="10"/>
<path d="M52.0066 143.983C-15.625 141.688 75.3291 163.191 184.421 200.922C294.504 238.989 422.919 293.555 427.703 361.481C432.486 429.407 314.14 496.938 213.14 547.114C110.384 598.163 24.915 631.403 98.3095 631.403C168.814 631.403 230.588 654.257 260.723 677.696C276 689.581 283.409 697.936 285.308 700.58C287.207 703.224 283.739 699.949 277.363 688.241C314.305 642.397 334.183 577.303 326.461 504.131C318.457 430.876 282.913 362.679 231.06 310.804C195.882 275.616 160.538 240.594 129.766 209.484C99.731 179.183 74.4856 155.785 52.0066 143.983Z" stroke="url(#paint15_linear_53_28)" stroke-width="3.38" stroke-miterlimit="10"/>
<path d="M52.7204 143.087C-13.5487 140.638 76.0252 161.651 183.477 198.515C291.973 235.744 418.601 289.1 423.686 355.693C428.859 422.238 312.925 488.535 214.114 537.755C113.421 587.913 29.6988 620.534 102.12 620.534C174.441 620.534 237.584 645.454 267.229 671.53C282.229 684.719 288.9 694.284 289.785 697.901C290.67 701.519 285.874 698.893 278.088 687.386C313.65 642.332 332.472 578.218 324.238 506.043C315.697 433.751 280.159 366.326 228.683 314.852C193.121 279.275 157.754 243.492 127.513 211.408C98.0087 180.086 73.8251 155.733 52.7204 143.087Z" stroke="url(#paint16_linear_53_28)" stroke-width="3.34" stroke-miterlimit="10"/>
<path d="M53.4399 142.213C-11.443 139.611 76.727 160.134 182.528 196.124C289.472 232.504 414.26 284.639 419.645 349.892C425.143 415.097 311.704 480.126 215.063 528.384C116.429 577.64 34.4528 609.646 105.907 609.646C180.044 609.646 244.55 636.626 273.706 665.34C288.452 679.838 294.35 690.625 294.226 695.205C294.103 699.784 287.974 697.819 278.784 686.512C312.96 642.255 330.879 579.079 321.979 507.926C313.078 436.606 277.398 369.99 226.318 318.865C190.367 282.898 154.982 246.348 125.289 213.284C96.2804 180.983 73.1408 155.656 53.4399 142.213Z" stroke="url(#paint17_linear_53_28)" stroke-width="3.3" stroke-miterlimit="10"/>
<path d="M54.1596 141.352C-9.39624 138.602 77.423 158.63 181.566 193.746C286.954 229.276 409.942 280.201 415.64 344.103C421.462 407.969 310.506 471.729 216.048 519.031C119.479 567.384 39.2483 598.771 109.711 598.771C185.666 598.771 251.545 627.804 280.176 659.161C294.622 674.97 299.848 686.99 298.662 692.52C297.477 698.049 290.068 696.757 279.469 685.651C312.27 642.179 329.139 579.982 319.72 509.802C310.282 439.463 274.596 373.59 223.899 322.877C187.565 286.527 152.162 249.21 123.036 215.155C94.5521 181.88 72.4978 155.579 54.1596 141.352Z" stroke="url(#paint18_linear_53_28)" stroke-width="3.26" stroke-miterlimit="10"/>
<path d="M54.8556 140.49C-7.34354 137.581 78.0955 157.119 180.611 191.368C284.423 226.042 405.56 275.752 411.6 338.302C417.764 400.835 309.291 463.332 217.016 509.666C122.511 557.122 44.0261 587.889 113.533 587.889C191.31 587.889 258.565 618.976 286.724 652.983C300.88 670.096 305.398 683.349 303.174 689.829C300.951 696.308 292.245 695.688 280.235 684.783C311.651 642.101 327.482 580.873 317.537 511.714C307.563 442.354 271.883 377.254 221.581 326.913C184.852 290.174 149.431 252.089 120.824 217.049C92.8239 182.776 71.8314 155.502 54.8556 140.49Z" stroke="url(#paint19_linear_53_28)" stroke-width="3.22" stroke-miterlimit="10"/>
<path d="M55.5928 139.623C-5.24378 136.56 78.815 155.608 179.69 188.984C281.946 222.808 401.248 271.297 407.583 332.519C414.071 393.695 308.064 454.929 217.965 500.307C125.525 546.86 48.7919 577.02 117.32 577.02C196.914 577.02 265.548 610.165 293.206 646.81C307.109 665.233 310.901 679.72 307.622 687.155C304.413 694.496 294.35 694.632 280.937 683.928C310.972 642.031 325.765 581.782 315.284 513.614C304.785 445.234 269.111 380.907 219.192 330.967C182.079 293.838 146.641 254.986 118.571 218.967C91.1015 183.673 71.1647 155.431 55.5928 139.623Z" stroke="url(#paint20_linear_53_28)" stroke-width="3.18" stroke-miterlimit="10"/>
<path d="M56.3125 138.755C-3.1675 135.539 79.517 154.098 178.741 186.6C279.404 219.575 396.907 266.854 403.578 326.731C410.373 386.561 306.843 446.52 218.956 490.943C128.586 536.604 53.5874 566.127 121.142 566.127C202.541 566.127 272.573 601.326 299.724 640.615C313.355 660.342 316.393 676.068 312.111 684.453C307.87 692.75 296.491 693.552 281.669 683.049C310.323 641.948 324.061 582.667 313.072 515.491C302.042 448.096 266.368 384.537 216.839 334.992C179.342 297.474 143.887 257.872 116.359 220.844C89.3733 184.571 70.5042 155.355 56.3125 138.755Z" stroke="url(#paint21_linear_53_28)" stroke-width="3.14" stroke-miterlimit="10"/>
<path d="M57.0322 137.888C-1.09115 134.542 80.219 152.587 177.797 184.222C276.891 216.341 392.571 262.398 399.579 320.936C406.675 379.432 305.664 438.123 219.918 481.584C131.606 526.366 58.3947 555.246 124.947 555.246C208.18 555.246 279.587 592.498 306.224 634.437C319.584 655.468 321.884 672.433 316.576 681.762C311.267 691.092 298.621 692.478 282.365 682.181C309.669 641.872 322.35 583.558 310.848 517.385C299.287 450.97 263.614 388.183 214.474 339.022C176.582 301.115 141.115 260.723 114.129 222.732C87.651 185.468 69.8377 155.278 57.0322 137.888Z" stroke="url(#paint22_linear_53_28)" stroke-width="3.1" stroke-miterlimit="10"/>
<path d="M57.7458 137.02C0.98506 133.48 80.915 151.076 176.847 181.838C274.372 213.113 388.23 257.961 395.538 315.147C402.976 372.292 304.449 429.726 220.885 472.225C134.644 516.087 63.1429 544.364 128.751 544.364C213.807 544.364 286.594 583.676 312.724 628.252C325.819 650.593 327.399 668.804 321.041 679.071C314.682 689.339 300.744 691.41 283.108 681.314C308.996 641.777 320.64 584.455 308.607 519.273C296.527 453.837 260.829 391.812 212.102 343.053C173.827 304.755 138.372 263.59 111.894 224.626C85.9286 186.364 69.177 155.195 57.7458 137.02Z" stroke="url(#paint23_linear_53_28)" stroke-width="3.05" stroke-miterlimit="10"/>
<path d="M58.4654 136.153C3.06129 132.483 81.611 149.566 175.904 179.454C271.86 209.874 383.895 253.494 391.521 309.352C399.278 365.152 303.239 421.329 221.853 462.86C137.676 505.825 67.903 533.483 132.556 533.483C219.428 533.483 293.584 574.849 319.224 622.068C332.053 645.719 332.891 665.145 325.506 676.357C318.121 687.569 302.868 690.319 283.822 680.429C308.33 641.695 318.929 585.323 306.377 521.138C293.766 456.688 258.098 395.447 209.731 347.06C171.055 308.402 135.57 266.464 109.664 226.515C84.2063 187.255 68.5105 155.125 58.4654 136.153Z" stroke="url(#paint24_linear_53_28)" stroke-width="3.01" stroke-miterlimit="10"/>
<path d="M59.185 135.286C5.13749 131.462 82.3128 148.055 174.954 177.076C269.329 206.64 379.553 249.068 387.499 303.563C395.58 358.017 302.03 412.92 222.826 453.501C140.707 495.569 72.7042 522.601 136.36 522.601C225.055 522.601 300.626 566.026 325.701 615.89C338.264 640.845 338.365 661.528 329.947 673.719C321.625 685.822 304.973 689.298 284.529 679.62C307.657 641.677 317.207 586.279 304.13 523.091C291 459.62 255.326 399.171 207.354 351.149C168.312 312.043 132.798 269.338 107.428 228.403C82.4839 188.152 67.8321 155.048 59.185 135.286Z" stroke="url(#paint25_linear_53_28)" stroke-width="2.97" stroke-miterlimit="10"/>
<path d="M59.8987 134.418C7.21376 130.441 83.0147 146.545 174.004 174.669C266.828 203.406 375.212 244.595 383.476 297.769C391.887 350.877 300.821 404.523 223.793 444.113C143.739 485.284 77.5115 511.696 140.165 511.696C230.677 511.696 307.64 557.181 332.224 609.682C344.523 635.947 343.88 657.869 334.442 670.981C325.005 684.093 307.12 688.182 285.261 678.694C307.003 641.518 315.508 587.111 301.912 524.92C288.251 462.429 252.583 402.729 204.995 355.12C165.552 315.702 130.031 272.206 105.199 230.297C80.7615 189.043 67.1833 154.971 59.8987 134.418Z" stroke="url(#paint26_linear_53_28)" stroke-width="2.93" stroke-miterlimit="10"/>
<path d="M60.6183 133.551C9.30182 129.42 83.7167 145.034 173.061 172.308C264.321 200.173 370.877 240.169 379.459 291.974C388.189 343.749 299.612 396.12 224.76 434.777C146.777 475.051 82.2598 500.868 143.952 500.868C236.286 500.868 314.641 548.412 338.701 603.545C350.74 631.126 349.353 654.293 338.89 668.338C328.426 682.382 309.226 687.162 285.963 677.874C306.318 641.512 313.78 588.055 299.659 526.856C285.485 465.327 249.829 406.394 202.624 359.174C162.797 319.325 127.259 275.079 102.969 232.185C79.0392 189.94 66.5168 154.895 60.6183 133.551Z" stroke="url(#paint27_linear_53_28)" stroke-width="2.89" stroke-miterlimit="10"/>
<path d="M61.3438 132.689C11.3722 128.399 84.4186 143.518 172.117 169.948C261.809 196.957 366.536 235.708 375.436 286.197C384.49 336.609 298.403 387.694 225.728 425.413C149.821 464.796 87.0375 489.957 147.774 489.957C241.925 489.957 321.678 539.561 345.219 597.355C357.015 626.27 354.863 650.623 343.372 665.635C331.882 680.647 311.367 686.082 286.694 676.994C305.675 641.435 312.081 588.917 297.447 528.727C282.73 468.195 247.068 410.035 200.258 363.205C160.037 322.972 124.493 277.936 100.734 234.074C77.3168 190.832 65.8561 154.818 61.3438 132.689Z" stroke="url(#paint28_linear_53_28)" stroke-width="2.85" stroke-miterlimit="10"/>
<path d="M62.0576 131.822C13.4485 127.378 85.1205 142.007 171.179 167.546C259.302 193.705 362.206 231.241 371.42 280.39C380.798 329.474 297.199 379.32 226.701 416.053C152.847 454.534 91.8153 479.076 151.59 479.076C247.564 479.076 328.709 530.744 351.73 591.159C363.238 621.354 360.366 646.976 347.849 662.932C335.333 678.888 313.509 685.002 287.426 676.115C305.021 641.34 310.382 589.819 295.223 530.615C279.97 471.068 244.314 413.658 197.887 367.235C157.282 326.612 121.72 280.815 98.5041 235.968C75.6004 191.722 65.1897 154.741 62.0576 131.822Z" stroke="url(#paint29_linear_53_28)" stroke-width="2.81" stroke-miterlimit="10"/>
<path d="M62.7713 130.954C15.5247 126.363 85.8224 140.49 170.223 165.18C256.783 190.472 357.859 226.786 367.397 274.602C377.094 322.34 295.984 370.917 227.68 406.695C155.896 444.278 96.6166 468.195 155.406 468.195C253.191 468.195 335.734 521.923 358.236 584.975C369.485 616.486 365.869 643.335 352.338 660.247C338.878 677.101 315.656 683.934 288.169 675.248C304.384 641.264 308.695 590.71 293.017 532.503C277.227 473.936 241.553 417.322 195.516 371.265C154.539 330.254 118.954 283.689 96.2686 237.856C73.878 192.62 64.5231 154.665 62.7713 130.954Z" stroke="url(#paint30_linear_53_28)" stroke-width="2.77" stroke-miterlimit="10"/>
<path d="M63.491 130.087C17.601 125.366 86.5244 138.98 169.28 162.784C254.276 187.232 353.524 222.337 363.374 268.807C373.401 315.206 294.775 362.52 228.63 397.33C158.916 434.022 101.377 457.325 159.193 457.325C258.8 457.325 342.735 513.119 364.719 578.808C375.702 611.624 371.343 639.712 356.774 657.568C342.205 675.425 317.744 682.872 288.847 674.392C303.682 641.199 306.944 591.613 290.752 534.409C274.449 476.798 238.799 420.963 193.151 375.302C151.767 333.901 116.2 286.557 94.039 239.745C72.1617 193.511 63.8626 154.606 63.491 130.087Z" stroke="url(#paint31_linear_53_28)" stroke-width="2.73" stroke-miterlimit="10"/>
<path d="M64.2106 129.231C19.6773 124.333 87.2145 137.492 168.33 160.412C251.77 184.016 349.088 217.917 359.351 263.029C369.615 308.142 293.572 354.129 229.585 387.982C161.954 423.766 106.172 446.431 162.998 446.431C264.451 446.431 349.76 504.261 371.213 572.612C381.937 606.743 376.828 636.059 361.233 654.865C345.637 673.672 319.867 681.791 289.561 673.512C303.009 641.11 305.227 592.498 288.511 536.285C271.683 479.677 236.015 424.61 190.774 379.32C149.013 337.535 113.421 289.424 91.8094 241.638C70.4452 194.401 63.196 154.511 64.2106 129.231Z" stroke="url(#paint32_linear_53_28)" stroke-width="2.68" stroke-miterlimit="10"/>
<path d="M64.9242 128.352C21.7535 123.301 87.9282 135.946 167.386 158.016C249.257 180.764 344.747 213.485 355.334 257.223C365.922 300.961 292.363 345.737 230.57 378.606C164.986 413.51 110.932 435.55 166.802 435.55C270.025 435.55 356.78 495.469 377.719 566.428C388.177 601.898 382.326 632.424 365.704 652.175C349.082 671.925 321.996 680.724 290.286 672.651C302.355 641.034 303.517 593.389 286.287 538.174C268.922 482.545 233.284 428.251 188.408 383.356C146.282 341.182 110.655 292.298 89.5739 243.527C68.7229 195.322 62.5236 154.434 64.9242 128.352Z" stroke="url(#paint33_linear_53_28)" stroke-width="2.64" stroke-miterlimit="10"/>
<path d="M65.6439 127.461C23.8298 122.256 88.6478 134.412 166.437 155.614C246.75 177.524 340.406 209.012 351.312 251.434C362.218 293.856 291.148 337.317 231.538 369.247C168.023 403.26 115.71 424.669 170.607 424.669C275.67 424.669 363.805 486.629 384.219 560.249C394.418 597 387.817 628.783 370.169 649.484C352.521 670.184 324.12 679.655 291.006 671.783C301.688 640.957 301.806 594.28 284.052 540.068C266.162 485.419 230.529 431.891 186.043 387.392C143.498 344.829 107.894 295.166 87.3443 245.415C67.0064 196.189 61.8689 154.357 65.6439 127.461Z" stroke="url(#paint34_linear_53_28)" stroke-width="2.6" stroke-miterlimit="10"/>
<path d="M66.3635 126.617C25.906 121.265 89.3675 132.919 165.493 153.254C244.243 174.291 336.064 204.592 347.289 245.64C358.514 286.687 289.95 328.92 232.505 359.882C171.055 393.004 120.494 413.788 174.411 413.788C281.297 413.788 370.83 477.837 390.719 554.065C400.652 592.132 393.315 625.148 374.64 646.799C355.966 668.45 326.273 678.587 291.72 670.916C301.027 640.88 300.09 595.177 281.822 541.957C263.401 488.287 227.769 435.539 183.672 391.423C140.737 348.47 105.128 298.034 85.1088 247.31C65.29 197.092 61.2024 154.281 66.3635 126.617Z" stroke="url(#paint35_linear_53_28)" stroke-width="2.56" stroke-miterlimit="10"/>
<path d="M67.0831 125.75C27.9823 120.244 90.087 131.397 164.543 150.87C241.742 171.051 331.723 200.114 343.266 239.845C354.809 279.576 288.741 320.523 233.472 350.517C174.099 382.743 125.271 402.9 178.216 402.9C286.918 402.9 377.849 468.991 397.219 547.875C406.893 587.258 398.806 621.501 379.105 644.102C359.404 666.703 328.379 677.513 292.439 670.066C300.361 640.821 298.379 596.086 279.592 543.862C260.635 491.173 225.014 439.197 181.301 395.471C137.982 352.111 102.362 300.908 82.8791 249.198C63.5735 197.971 60.5417 154.204 67.0831 125.75Z" stroke="url(#paint36_linear_53_28)" stroke-width="2.52" stroke-miterlimit="10"/>
<path d="M67.7968 124.888C30.0467 119.223 90.7654 129.88 163.599 148.492C239.235 167.818 327.382 195.664 339.249 234.056C351.117 272.448 287.538 312.126 234.44 341.165C177.142 372.499 130.037 392.025 182.02 392.025C292.563 392.025 384.874 460.211 403.719 541.709C413.127 582.425 404.309 617.878 383.57 641.435C362.831 664.992 330.484 676.469 293.159 669.17C299.694 640.715 296.663 596.948 277.357 545.727C257.874 494.029 222.254 442.82 178.935 399.496C135.222 355.769 99.6013 303.788 80.6495 251.098C61.863 198.863 59.8752 154.128 67.7968 124.888Z" stroke="url(#paint37_linear_53_28)" stroke-width="2.48" stroke-miterlimit="10"/>
<path d="M68.5164 124.021C32.1348 118.202 91.4791 128.364 162.65 146.108C236.734 164.578 323.046 191.191 335.227 228.261C347.407 265.331 286.334 303.723 235.407 331.799C180.18 362.248 134.827 381.143 185.801 381.143C298.167 381.143 391.893 451.424 410.22 535.518C419.368 577.522 409.789 614.231 388.036 638.726C366.282 663.221 332.625 675.383 293.873 668.314C299.051 640.65 294.923 597.856 275.127 547.61C255.108 496.861 219.499 446.449 176.564 403.496C132.467 359.381 96.8349 306.626 78.414 252.963C60.1642 199.759 59.2146 154.056 68.5164 124.021Z" stroke="url(#paint38_linear_53_28)" stroke-width="2.44" stroke-miterlimit="10"/>
<path d="M69.2361 123.153C34.2111 117.181 92.1869 126.871 161.706 143.724C234.257 161.338 318.705 186.766 331.21 222.472C343.715 258.179 285.131 295.326 236.375 322.441C183.224 351.999 139.64 370.238 189.629 370.238C303.77 370.262 398.918 442.572 416.72 529.317C425.603 572.636 415.28 610.573 392.501 636.024C369.721 661.475 334.749 674.297 294.586 667.429C298.361 640.556 293.224 598.73 272.886 549.498C252.342 499.747 216.733 450.09 174.187 407.527C129.707 363.022 94.0685 309.5 76.1785 254.851C58.4301 200.633 58.5481 153.98 69.2361 123.153Z" stroke="url(#paint39_linear_53_28)" stroke-width="2.4" stroke-miterlimit="10"/>
<path d="M69.9498 122.286C36.2873 116.16 92.9006 125.325 160.786 141.346C231.732 158.104 314.387 182.34 327.187 216.677C339.987 251.015 283.928 286.928 237.348 313.076C186.267 341.748 144.388 359.369 193.434 359.369C309.415 359.369 405.943 433.756 423.214 523.138C431.843 567.773 420.778 606.932 396.972 633.339C373.166 659.746 336.872 673.235 295.312 666.567C297.707 640.485 291.513 599.626 270.662 551.398C249.581 502.626 213.984 453.737 171.828 411.545C126.952 366.65 91.314 312.356 73.9489 256.727C56.7196 201.541 57.8815 153.903 69.9498 122.286Z" stroke="url(#paint40_linear_53_28)" stroke-width="2.36" stroke-miterlimit="10"/>
<path d="M70.6693 121.418C38.3635 115.146 93.6143 123.779 159.813 138.962C229.231 154.865 310.023 177.873 323.164 210.889C336.306 243.905 282.725 278.526 238.297 303.717C189.293 331.505 149.148 348.499 197.221 348.499C315.024 348.499 412.945 424.952 429.696 516.972C438.066 562.917 426.251 603.315 401.419 630.66C376.587 658.005 338.984 672.173 296.008 665.712C297.022 640.42 289.779 600.53 268.415 553.298C246.797 505.501 211.2 457.39 169.439 415.605C124.18 370.327 88.5357 315.253 71.7015 258.64C55.003 202.439 57.2149 153.827 70.6693 121.418Z" stroke="url(#paint41_linear_53_28)" stroke-width="2.32" stroke-miterlimit="10"/>
<path d="M71.3713 120.551C40.4221 114.125 94.3103 122.28 158.845 136.578C226.736 151.655 305.681 173.424 319.147 205.094C332.614 236.765 281.527 270.14 239.282 294.352C192.354 321.255 153.944 337.618 201.049 337.618C320.663 337.618 419.987 416.142 436.214 510.788C444.318 558.049 431.761 599.68 405.902 627.969C380.043 656.258 341.125 671.105 296.745 664.85C296.374 640.343 288.074 601.427 266.197 555.187C244.048 508.374 208.469 461.037 167.103 419.636C121.455 373.968 85.8048 318.139 69.5015 260.54C53.2925 203.33 56.5544 153.75 71.3713 120.551Z" stroke="url(#paint42_linear_53_28)" stroke-width="2.27" stroke-miterlimit="10"/>
<path d="M72.1027 119.683C42.516 113.104 95.0477 120.751 157.919 134.2C224.241 148.362 301.34 168.98 315.125 199.305C328.909 229.63 280.324 261.743 240.25 285.017C195.422 311.034 158.721 326.76 204.859 326.76C326.296 326.76 427.018 407.355 442.72 504.627C450.565 553.204 437.258 596.092 410.373 625.302C383.488 654.512 343.254 670.061 297.471 664.006C295.701 640.29 286.364 602.341 263.973 557.098C241.282 511.248 205.714 464.677 164.72 423.689C118.712 377.632 83.0266 321.013 67.2541 262.451C51.5761 204.221 55.8937 153.673 72.1027 119.683Z" stroke="url(#paint43_linear_53_28)" stroke-width="2.23" stroke-miterlimit="10"/>
<path d="M72.8222 118.816C44.5922 112.083 95.7672 119.229 156.97 131.798C221.746 145.164 297.005 164.531 311.102 193.511C325.199 222.49 279.126 253.346 241.247 275.634C198.483 300.772 163.534 315.855 208.687 315.855C331.965 315.855 434.061 398.516 449.244 498.425C456.829 548.312 442.755 592.404 414.862 622.593C386.968 652.783 345.401 668.969 298.214 663.115C295.076 640.19 284.647 603.209 261.761 558.969C238.545 514.122 202.983 468.319 162.378 427.696C115.952 381.256 80.2956 323.869 65.054 264.322C49.8655 205.118 55.2271 153.596 72.8222 118.816Z" stroke="url(#paint44_linear_53_28)" stroke-width="2.19" stroke-miterlimit="10"/>
<path d="M73.5418 117.948C46.6685 111.062 96.4868 117.7 156.026 129.432C219.257 141.894 292.663 160.117 307.085 187.715C321.507 215.314 277.935 244.955 242.202 266.269C201.503 290.534 168.3 304.974 212.48 304.974C337.557 304.974 441.074 389.706 455.732 492.241C463.052 543.443 448.259 588.763 419.321 619.902C390.383 651.042 347.519 667.901 298.916 662.248C294.403 640.113 282.937 604.099 259.52 560.857C235.743 516.983 200.199 471.965 159.978 431.726C113.168 384.896 77.5056 326.736 62.789 266.21C48.1549 206.008 54.5606 153.519 73.5418 117.948Z" stroke="url(#paint45_linear_53_28)" stroke-width="2.15" stroke-miterlimit="10"/>
<path d="M74.2614 117.087C48.7448 110.041 97.2064 116.172 155.07 127.054C216.762 138.649 288.316 155.638 303.056 181.933C317.797 208.227 276.732 236.564 243.146 256.916C204.552 280.302 173.055 294.092 216.261 294.092C343.154 294.092 448.07 380.895 462.226 486.057C469.304 538.575 453.744 585.128 423.78 617.211C393.816 649.295 349.625 666.809 299.641 661.38C293.743 640.042 281.22 604.996 257.296 562.745C232.989 519.875 197.439 475.618 157.612 435.757C110.425 388.549 74.7451 329.61 60.5593 268.098C46.4444 206.905 53.9 153.425 74.2614 117.087Z" stroke="url(#paint46_linear_53_28)" stroke-width="2.11" stroke-miterlimit="10"/>
<path d="M74.9752 116.249C50.8211 109.056 97.932 114.668 154.132 124.699C214.297 135.433 283.987 151.254 299.04 176.162C314.093 201.07 275.546 228.196 244.125 247.563C207.625 270.064 177.838 283.211 220.071 283.211C348.787 283.211 455.107 372.085 468.715 479.878C475.51 533.713 459.224 581.487 428.233 614.521C397.243 647.554 351.748 665.765 300.337 660.513C293.053 639.966 279.48 605.888 255.037 564.64C230.211 522.743 194.684 479.247 155.241 439.793C107.653 392.184 71.9611 332.478 58.3239 269.993C44.728 207.797 53.2335 153.366 74.9752 116.249Z" stroke="url(#paint47_linear_53_28)" stroke-width="2.07" stroke-miterlimit="10"/>
<path d="M75.6949 115.352C52.8973 108.006 98.6575 113.104 153.189 122.286C211.79 132.182 279.646 146.751 295.023 170.343C310.4 193.935 274.378 219.77 245.092 238.204C210.681 259.849 182.616 272.347 223.858 272.347C354.391 272.347 462.326 363.264 475.197 473.712C481.839 528.851 464.698 577.864 432.681 611.848C400.664 645.831 353.86 664.714 301.033 659.646C292.374 639.889 277.74 606.785 252.79 566.528C227.427 525.599 191.906 482.894 152.852 443.824C104.898 395.825 69.2302 335.352 56.0943 271.881C43.0174 208.694 52.5729 153.29 75.6949 115.352Z" stroke="url(#paint48_linear_53_28)" stroke-width="2.03" stroke-miterlimit="10"/>
<path d="M76.4145 114.479C54.9736 106.979 99.383 111.564 152.239 119.902C209.307 128.901 275.31 142.326 291 164.543C306.69 186.76 273.175 211.373 246.06 228.816C213.754 249.611 187.4 261.448 227.68 261.448C360.036 261.448 469.357 354.442 481.715 467.51C488.091 523.965 470.207 574.211 437.164 609.133C404.121 644.055 356.001 663.617 301.771 658.766C291.743 639.8 276.036 607.664 250.572 568.405C224.666 528.467 189.169 486.535 150.505 447.883C102.138 399.495 66.4697 338.249 53.8647 273.805C41.2892 209.585 51.9064 153.213 76.4145 114.479Z" stroke="url(#paint49_linear_53_28)" stroke-width="1.99" stroke-miterlimit="10"/>
<path d="M77.1281 113.617C57.0734 105.946 100.132 110.029 151.295 117.524C206.829 125.655 270.975 137.858 286.96 158.759C302.944 179.661 271.995 202.993 247.027 219.463C216.827 239.39 192.172 250.567 231.485 250.567C365.657 250.567 476.377 345.631 488.215 461.331C494.326 519.096 475.704 570.57 441.617 606.454C407.53 642.338 358.107 662.554 302.473 657.91C291.047 639.735 274.29 608.572 248.325 570.31C221.876 531.364 186.391 490.175 148.116 451.884C99.383 403.113 63.7033 341.076 51.6291 275.663C39.5963 210.481 51.2398 153.136 77.1281 113.617Z" stroke="url(#paint50_linear_53_28)" stroke-width="1.95" stroke-miterlimit="10"/>
<path d="M77.8595 112.75C59.1378 104.943 100.863 108.489 150.357 115.139C204.364 122.404 266.651 133.432 282.972 152.965C299.293 172.497 270.833 194.596 248.006 210.104C219.924 229.176 196.967 239.685 235.301 239.685C371.296 239.685 483.402 336.821 494.727 455.147C500.572 514.234 481.207 566.935 446.112 603.763C411.016 640.591 360.266 661.486 303.222 657.049C290.41 639.659 272.597 609.469 246.125 572.199C219.122 534.214 183.654 493.822 145.762 455.914C96.6225 406.753 60.9487 343.967 49.3995 277.552C37.8857 211.372 50.5792 153.059 77.8595 112.75Z" stroke="url(#paint51_linear_53_28)" stroke-width="1.9" stroke-miterlimit="10"/>
<path d="M78.5674 111.882C61.2023 103.928 101.571 106.943 149.402 112.762C201.898 119.146 262.304 128.966 278.938 147.176C295.571 165.386 269.654 186.205 248.962 200.739C223.009 218.967 201.733 228.804 239.094 228.804C376.905 228.804 490.403 328.017 501.215 448.963C506.795 509.366 486.687 563.294 450.565 601.072C414.443 638.85 362.377 660.418 303.924 656.187C289.732 639.588 270.863 610.366 243.877 574.093C216.349 537.088 180.9 497.451 143.397 459.945C93.8503 410.377 58.1941 346.835 47.164 279.44C36.1752 212.27 49.9127 152.983 78.5674 111.882Z" stroke="url(#paint52_linear_53_28)" stroke-width="1.86" stroke-miterlimit="10"/>
<path d="M79.287 111.015C63.2786 102.907 102.291 105.391 148.452 110.377C199.403 115.883 257.969 124.54 274.921 141.381C291.95 158.329 268.498 177.814 249.929 191.38C226.117 208.776 206.511 217.934 242.898 217.934C382.532 217.934 497.416 319.219 507.739 442.797C513.047 504.515 492.202 559.671 455.054 598.393C417.905 637.115 364.524 659.362 304.643 655.326C289.071 639.517 269.135 611.269 241.648 575.993C213.577 539.938 178.133 501.104 141.026 463.975C91.1075 414.035 55.4455 349.709 44.9344 281.328C34.4647 213.161 49.2521 152.906 79.287 111.015Z" stroke="url(#paint53_linear_53_28)" stroke-width="1.82" stroke-miterlimit="10"/>
<path d="M80.0007 110.148C65.3549 101.886 103.052 103.84 147.508 107.994C196.932 112.62 253.639 120.073 270.898 135.587C288.263 151.195 267.359 169.423 250.897 182.016C229.249 198.591 211.294 207.041 246.709 207.041C388.159 207.041 504.43 310.397 514.209 436.589C519.264 499.623 497.694 556.007 459.495 595.685C421.297 635.363 366.63 658.271 305.363 654.435C288.405 639.417 267.412 612.143 239.412 577.858C210.805 542.824 175.385 504.733 138.655 467.994C88.3529 417.682 52.6791 352.583 42.7048 283.247C32.7601 214.058 48.5856 152.835 80.0007 110.148Z" stroke="url(#paint54_linear_53_28)" stroke-width="1.78" stroke-miterlimit="10"/>
<path d="M80.7203 109.286C67.4311 100.865 103.813 102.276 146.559 105.627C194.466 109.363 249.304 115.659 266.887 129.821C284.583 144.09 266.238 161.049 251.882 172.68C232.417 188.442 216.084 196.184 250.525 196.184C393.792 196.184 511.461 301.616 520.721 430.452C525.505 494.802 503.179 552.419 463.978 593.041C424.777 633.664 368.765 657.25 306.088 653.615C287.756 639.388 265.696 613.087 237.194 579.794C208.038 545.745 172.636 508.427 136.331 472.072C85.5983 421.329 49.9186 355.457 40.4693 285.111C31.0494 214.955 47.919 152.753 80.7203 109.286Z" stroke="url(#paint55_linear_53_28)" stroke-width="1.74" stroke-miterlimit="10"/>
<path d="M81.4399 108.418C69.5074 99.8443 104.538 100.712 145.615 103.231C192 106.076 244.974 111.18 262.859 124.003C280.878 136.932 265.118 152.628 252.831 163.297C235.596 178.268 220.85 185.29 254.318 185.29C399.419 185.29 518.462 292.794 527.209 424.25C531.728 489.916 508.659 548.76 468.431 590.327C428.204 631.893 370.877 656.158 306.814 652.723C287.095 639.287 263.973 613.96 234.971 581.664C205.266 548.583 169.875 512.033 133.895 476.066C82.8379 424.964 47.1876 358.324 38.2397 286.999C29.3389 215.851 47.2584 152.682 81.4399 108.418Z" stroke="url(#paint56_linear_53_28)" stroke-width="1.7" stroke-miterlimit="10"/>
<path d="M82.1537 107.551C71.5895 98.8234 105.329 103.302 144.677 100.847C189.505 98.0563 240.657 106.748 258.848 118.214C277.204 129.798 264.056 144.214 253.816 153.933C238.852 168.136 225.639 174.397 258.134 174.397C405.041 174.397 525.487 283.972 533.721 418.054C537.939 485.059 514.15 545.102 472.896 587.624C431.643 630.146 373.006 655.078 307.516 651.844C286.411 639.198 262.233 614.851 232.717 583.54C202.476 551.457 167.109 515.679 131.547 480.097C80.0833 428.611 44.5451 361.18 35.9924 288.905C27.77 216.731 46.5978 152.605 82.1537 107.551Z" stroke="url(#paint57_linear_53_28)" stroke-width="1.66" stroke-miterlimit="10"/>
<path d="M82.8732 106.684C73.6657 97.8321 106.16 101.668 143.722 98.4694C186.945 94.7813 236.327 102.281 254.813 112.419C273.505 122.663 263.018 135.769 254.772 144.574C242.167 158.028 230.405 163.516 261.927 163.516C410.656 163.516 532.488 275.168 540.21 411.87C544.197 480.173 519.653 541.467 477.362 584.933C435.07 628.4 375.141 654.01 308.229 650.977C285.75 639.122 260.505 615.748 230.488 585.429C199.704 554.337 164.354 519.32 129.176 484.127C77.3227 432.252 41.7787 364.09 33.7745 290.782C26.0534 217.628 45.9312 152.528 82.8732 106.684Z" stroke="url(#paint58_linear_53_28)" stroke-width="1.62" stroke-miterlimit="10"/>
<path d="M83.5929 105.816C75.742 96.7876 107.004 100.015 142.772 96.0854C184.386 91.5181 231.986 97.8557 250.796 106.63C269.819 115.529 260.269 126.139 255.739 135.209C243.187 145.541 235.189 152.634 265.731 152.634C416.277 152.634 539.502 266.358 546.71 405.691C550.432 475.323 525.133 537.826 481.827 582.248C438.52 626.671 377.247 652.942 308.943 650.109C285.084 639.075 258.777 616.651 228.27 587.323C196.943 557.228 161.618 522.961 126.817 488.187C74.5682 435.892 39.0124 366.934 31.5449 292.688C24.337 218.525 45.2647 152.451 83.5929 105.816Z" stroke="url(#paint59_linear_53_28)" stroke-width="1.58" stroke-miterlimit="10"/>
<path d="M84.3065 104.949C77.8182 95.7668 107.853 98.3278 141.828 93.7014C181.826 88.2607 227.662 93.3769 246.773 100.836C266.132 108.389 259.048 117.718 256.706 125.85C246.213 135.262 239.967 141.753 269.536 141.753C421.904 141.753 546.521 257.548 553.21 399.507C556.666 470.437 530.63 534.191 486.298 579.557C441.965 624.924 377.867 663.941 309.669 649.248C283.025 643.506 257.049 617.554 226.023 589.211C194.171 560.096 158.839 526.602 124.44 492.188C71.8077 439.539 36.2459 369.808 29.3094 294.564C22.6205 219.421 44.5982 152.375 84.3065 104.949Z" stroke="url(#paint60_linear_53_28)" stroke-width="1.53" stroke-miterlimit="10"/>
<path d="M85.0262 104.081C79.8945 94.7457 108.703 96.6045 140.879 91.3231C179.26 85.0209 223.333 88.9214 242.751 95.0467C262.446 101.249 257.827 109.292 257.674 116.485C249.233 124.976 244.744 130.871 273.34 130.871C427.526 130.871 553.517 248.743 559.71 393.323C562.901 465.574 536.116 530.55 490.763 576.843C445.41 623.136 380.291 661.663 310.388 648.357C282.618 643.046 255.32 618.433 223.793 591.076C191.369 562.952 156.085 530.249 122.098 496.224C69.0532 443.162 33.4796 372.681 27.0798 296.453C20.9041 220.318 43.9376 152.298 85.0262 104.081Z" stroke="url(#paint61_linear_53_28)" stroke-width="1.49" stroke-miterlimit="10"/>
<path d="M85.7457 103.214C81.9707 93.725 109.062 91.1463 139.935 88.9393C177.29 86.2662 219.004 84.4664 238.734 89.252C258.753 94.1085 256.606 100.871 258.647 107.126C252.253 114.697 249.522 119.99 277.145 119.99C433.153 119.99 560.547 239.933 566.21 387.145C569.159 460.706 541.613 526.915 495.228 574.176C448.843 621.437 382.668 659.486 311.102 647.513C282.2 642.674 253.586 619.359 221.558 592.994C188.591 565.849 153.324 533.89 119.703 500.254C66.2986 446.821 30.7191 375.555 24.8442 298.341C19.1817 221.215 43.271 152.245 85.7457 103.214Z" stroke="url(#paint62_linear_53_28)" stroke-width="1.45" stroke-miterlimit="10"/>
<path d="M86.4654 102.346C84.047 92.704 109.823 89.5116 138.962 86.5552C174.824 82.9261 214.651 80.0051 234.688 83.4572C255.043 86.9683 255.362 92.4503 259.591 97.767C255.25 104.417 254.282 109.109 280.926 109.109C438.75 109.109 567.537 231.123 572.686 380.96C575.341 455.844 547.081 523.274 499.67 571.485C452.258 619.696 384.986 657.332 311.798 646.645C281.681 642.249 251.834 620.262 219.304 594.882C185.801 568.741 150.57 537.531 117.332 504.285C63.5381 450.468 27.9528 378.435 22.6147 300.235C17.4653 222.112 42.6104 152.144 86.4654 102.346Z" stroke="url(#paint63_linear_53_28)" stroke-width="1.41" stroke-miterlimit="10"/>
<path d="M87.1791 101.497C86.1174 91.6894 110.584 87.8656 138.024 84.1775C172.388 79.5629 210.327 75.5503 230.671 77.6864C251.363 79.8403 254.147 84.0477 260.564 88.4203C258.281 94.156 259.066 98.2454 284.748 98.2454C444.395 98.2454 574.568 222.337 579.204 374.794C581.564 450.993 552.59 519.657 504.158 568.818C455.726 617.979 387.304 655.238 312.535 645.796C281.197 641.836 250.124 621.189 217.087 596.818C183.035 571.668 147.803 541.225 114.961 508.362C60.7835 454.109 25.1864 381.309 20.385 302.13C15.7489 223.01 41.9439 152.068 87.1791 101.497Z" stroke="url(#paint64_linear_53_28)" stroke-width="1.37" stroke-miterlimit="10"/>
<path d="M87.8869 100.617C88.1877 90.6684 111.327 86.1955 137.08 81.7933C169.946 76.1756 205.997 71.089 226.66 71.8738C247.676 72.6763 252.931 75.6091 261.537 79.0435C261.301 83.8587 263.861 87.3343 288.558 87.3343C450.052 87.3343 581.587 213.509 585.716 368.592C587.84 446.107 558.1 515.998 508.635 566.109C459.171 616.22 389.587 653.154 313.261 644.911C280.684 641.37 248.378 622.08 214.869 598.665C180.268 574.506 145.061 544.818 112.601 512.345C58.023 457.75 22.4141 384.182 18.1495 304.012C14.0324 223.912 41.2891 151.991 87.8869 100.617Z" stroke="url(#paint65_linear_53_28)" stroke-width="1.33" stroke-miterlimit="10"/>
<path d="M88.6183 99.7261C90.2758 89.6236 112.088 84.4898 136.148 79.3854C167.516 72.7646 201.68 66.6276 222.649 66.0906C243.995 65.5359 251.722 67.1941 262.516 69.6843C264.339 73.5848 268.639 76.4704 292.363 76.4704C455.649 76.4704 588.606 204.71 592.21 362.419C594.068 441.25 563.585 512.363 513.094 563.424C462.604 614.485 391.822 651.136 313.975 644.049C280.123 640.969 246.673 622.994 212.633 600.559C177.484 577.397 142.3 548.465 110.224 516.381C55.2685 461.39 19.6536 387.056 15.9258 305.906C12.316 224.827 40.6167 151.914 88.6183 99.7261Z" stroke="url(#paint66_linear_53_28)" stroke-width="1.29" stroke-miterlimit="10"/>
<path d="M89.332 98.8823C92.3521 88.6265 112.837 82.8022 135.204 77.0488C165.039 69.3421 197.344 62.1842 218.626 60.3077C240.303 58.4017 250.478 58.7853 263.484 60.3077C267.359 63.2582 273.417 65.5714 296.173 65.5714C461.259 65.5832 595.62 195.912 598.693 356.229C600.285 436.376 569.059 508.722 517.542 560.727C466.025 612.732 394.016 649.147 314.694 643.205C279.551 640.561 244.945 623.927 210.398 602.488C174.706 580.324 139.54 552.147 107.859 520.465C52.4962 465.037 16.8873 389.93 13.6844 307.794C10.6172 225.706 39.9502 151.838 89.332 98.8823Z" stroke="url(#paint67_linear_53_28)" stroke-width="1.25" stroke-miterlimit="10"/>
<path d="M90.0516 98.0153C94.4283 87.606 113.569 81.0736 134.255 74.6474C162.567 65.855 193.009 57.6999 214.609 54.5015C236.604 51.2383 249.534 48.1344 264.451 50.961C270.621 52.1411 278.194 54.7081 299.977 54.7081C466.904 54.7081 602.633 187.09 605.205 350.051C606.538 431.52 574.568 505.087 522.036 558.043C469.505 610.998 396.252 647.212 315.425 642.32C278.973 640.113 243.228 624.812 208.18 604.342C171.94 583.175 136.809 555.753 105.5 524.443C49.7534 468.678 14.1209 392.81 11.4548 309.683C8.88303 226.597 39.2895 151.761 90.0516 98.0153Z" stroke="url(#paint68_linear_53_28)" stroke-width="1.21" stroke-miterlimit="10"/>
<path d="M90.7713 97.1477C97.8494 87.4407 114.283 79.3268 133.311 72.2634C160.049 62.3438 188.662 53.1973 210.581 48.7067C232.894 44.0509 248.478 37.7722 265.436 41.596C273.305 43.3663 282.996 43.8207 303.776 43.8207C472.513 43.8207 609.64 178.28 611.675 343.867C612.743 426.646 580.036 501.423 526.466 555.352C472.897 609.281 398.423 645.294 316.157 641.435C278.407 639.665 241.483 625.774 205.962 606.212C169.115 586.125 134.025 559.412 103.117 528.467C46.993 472.319 11.3546 395.683 9.22523 311.571C7.09589 227.459 46.3029 158.146 90.7713 97.1477Z" stroke="url(#paint69_linear_53_28)" stroke-width="1.16" stroke-miterlimit="10"/>
<path d="M91.4908 96.2804C99.5363 86.2487 114.973 77.5507 132.361 69.8854C157.489 58.7974 184.321 48.7481 206.564 42.912C229.202 36.9167 246.838 30.9567 266.392 32.2372C276.419 32.8922 287.756 32.9394 307.586 32.9394C478.146 32.9394 616.665 169.47 618.205 337.683C619.001 421.778 585.557 497.806 530.961 552.661C476.365 607.516 400.605 643.418 316.847 640.585C277.728 639.258 239.737 626.689 203.703 608.13C166.348 589.017 131.27 563.047 100.751 532.515C44.2383 475.984 8.594 398.563 6.96603 313.483C5.33806 228.403 43.271 156.299 91.4908 96.2804Z" stroke="url(#paint70_linear_53_28)" stroke-width="1.12" stroke-miterlimit="10"/>
<path d="M92.2046 95.4128C101.259 85.0448 115.627 75.7626 131.417 67.5013C154.917 55.2037 179.985 44.2987 202.547 37.1231C225.504 29.7764 245.576 24.6071 267.359 22.8723C279.427 21.9104 292.534 22.0579 311.391 22.0579C483.767 22.0579 623.679 160.66 624.705 331.499C625.236 416.915 591.025 494.171 535.426 549.97C479.827 605.77 402.711 641.577 317.567 639.712C277.097 638.827 238.02 627.58 201.473 610.007C163.582 591.873 128.51 566.676 98.3802 536.528C41.4838 479.607 5.82764 401.431 4.76002 315.354C3.6924 229.276 40.5695 154.558 92.2046 95.4128Z" stroke="url(#paint71_linear_53_28)" stroke-width="1.08" stroke-miterlimit="10"/>
<path d="M92.9242 94.5512C103.022 83.7878 116.241 73.9627 130.468 65.1172C152.257 51.5744 175.644 39.8492 198.524 31.3282C221.811 22.642 244.373 16.4578 268.326 13.5132C282.453 11.7724 297.311 11.1528 315.196 11.1528C489.394 11.1528 630.692 151.832 631.205 325.297C631.407 366.499 623.44 407.333 607.766 445.435C592.092 483.538 569.023 518.153 539.891 547.279C483.266 604.029 404.876 639.765 318.28 638.844C276.449 638.402 236.292 628.476 199.238 611.895C160.769 594.613 125.786 570.436 96.015 540.558C38.7234 483.248 3.06133 404.305 2.52457 317.248C1.98781 230.191 38.1453 152.918 92.9242 94.5512Z" stroke="url(#paint72_linear_53_28)" stroke-width="1.04" stroke-miterlimit="10"/>
<path d="M637.705 319.136C637.705 407.184 602.031 486.894 544.356 544.588C486.681 602.282 406.993 637.977 319 637.977C231.007 637.977 151.313 602.288 93.6438 544.588C35.9746 486.889 0.294922 407.166 0.294922 319.136C0.294922 231.105 35.9805 151.377 93.6438 93.6836C151.307 35.9899 230.995 0.294922 319 0.294922C495.016 0.294922 637.705 143.045 637.705 319.136Z" stroke="url(#paint73_linear_53_28)" stroke-miterlimit="10"/>
</g>
<defs>
<linearGradient id="paint0_linear_53_28" x1="8.71793" y1="475.795" x2="489.194" y2="475.795" gradientUnits="userSpaceOnUse">
<stop stop-color="#F2774B"/>
<stop offset="0.99" stop-color="#514CF2"/>
</linearGradient>
<linearGradient id="paint1_linear_53_28" x1="9.99192" y1="469.911" x2="485.165" y2="469.911" gradientUnits="userSpaceOnUse">
<stop stop-color="#F1764D"/>
<stop offset="0.99" stop-color="#504BF0"/>
</linearGradient>
<linearGradient id="paint2_linear_53_28" x1="11.2719" y1="464.011" x2="481.131" y2="464.011" gradientUnits="userSpaceOnUse">
<stop stop-color="#F07650"/>
<stop offset="0.99" stop-color="#4F4AED"/>
</linearGradient>
<linearGradient id="paint3_linear_53_28" x1="12.5578" y1="458.086" x2="477.102" y2="458.086" gradientUnits="userSpaceOnUse">
<stop stop-color="#EF7552"/>
<stop offset="0.99" stop-color="#4E49EB"/>
</linearGradient>
<linearGradient id="paint4_linear_53_28" x1="13.8495" y1="452.144" x2="473.073" y2="452.144" gradientUnits="userSpaceOnUse">
<stop stop-color="#EE7554"/>
<stop offset="0.99" stop-color="#4E48E8"/>
</linearGradient>
<linearGradient id="paint5_linear_53_28" x1="15.1472" y1="446.526" x2="469.045" y2="446.526" gradientUnits="userSpaceOnUse">
<stop stop-color="#ED7456"/>
<stop offset="0.99" stop-color="#4D47E6"/>
</linearGradient>
<linearGradient id="paint6_linear_53_28" x1="16.433" y1="442.218" x2="465.016" y2="442.218" gradientUnits="userSpaceOnUse">
<stop stop-color="#ED7459"/>
<stop offset="0.99" stop-color="#4C46E3"/>
</linearGradient>
<linearGradient id="paint7_linear_53_28" x1="17.7425" y1="438.772" x2="460.993" y2="438.772" gradientUnits="userSpaceOnUse">
<stop stop-color="#EC735B"/>
<stop offset="0.99" stop-color="#4B45E1"/>
</linearGradient>
<linearGradient id="paint8_linear_53_28" x1="19.0637" y1="435.745" x2="456.971" y2="435.745" gradientUnits="userSpaceOnUse">
<stop stop-color="#EB735D"/>
<stop offset="0.99" stop-color="#4A44DE"/>
</linearGradient>
<linearGradient id="paint9_linear_53_28" x1="20.391" y1="433.025" x2="452.948" y2="433.025" gradientUnits="userSpaceOnUse">
<stop stop-color="#EA7260"/>
<stop offset="0.99" stop-color="#4943DC"/>
</linearGradient>
<linearGradient id="paint10_linear_53_28" x1="21.7358" y1="430.564" x2="448.925" y2="430.564" gradientUnits="userSpaceOnUse">
<stop stop-color="#E97262"/>
<stop offset="0.99" stop-color="#4842DA"/>
</linearGradient>
<linearGradient id="paint11_linear_53_28" x1="23.0865" y1="428.298" x2="444.908" y2="428.298" gradientUnits="userSpaceOnUse">
<stop stop-color="#E87164"/>
<stop offset="0.99" stop-color="#4841D7"/>
</linearGradient>
<linearGradient id="paint12_linear_53_28" x1="24.4609" y1="426.185" x2="440.892" y2="426.185" gradientUnits="userSpaceOnUse">
<stop stop-color="#E77166"/>
<stop offset="0.99" stop-color="#4740D5"/>
</linearGradient>
<linearGradient id="paint13_linear_53_28" x1="25.2395" y1="425.808" x2="436.875" y2="425.808" gradientUnits="userSpaceOnUse">
<stop stop-color="#E67069"/>
<stop offset="0.99" stop-color="#4640D2"/>
</linearGradient>
<linearGradient id="paint14_linear_53_28" x1="26.5077" y1="424.167" x2="432.858" y2="424.167" gradientUnits="userSpaceOnUse">
<stop stop-color="#E5706B"/>
<stop offset="0.99" stop-color="#453FD0"/>
</linearGradient>
<linearGradient id="paint15_linear_53_28" x1="27.7758" y1="422.621" x2="428.847" y2="422.621" gradientUnits="userSpaceOnUse">
<stop stop-color="#E46F6D"/>
<stop offset="0.99" stop-color="#443ECD"/>
</linearGradient>
<linearGradient id="paint16_linear_53_28" x1="29.044" y1="421.146" x2="424.836" y2="421.146" gradientUnits="userSpaceOnUse">
<stop stop-color="#E46E70"/>
<stop offset="0.99" stop-color="#433DCB"/>
</linearGradient>
<linearGradient id="paint17_linear_53_28" x1="30.3121" y1="419.736" x2="420.831" y2="419.736" gradientUnits="userSpaceOnUse">
<stop stop-color="#E36E72"/>
<stop offset="0.99" stop-color="#423CC9"/>
</linearGradient>
<linearGradient id="paint18_linear_53_28" x1="31.5803" y1="418.384" x2="416.826" y2="418.384" gradientUnits="userSpaceOnUse">
<stop stop-color="#E26D74"/>
<stop offset="0.99" stop-color="#413BC6"/>
</linearGradient>
<linearGradient id="paint19_linear_53_28" x1="32.8426" y1="417.086" x2="412.821" y2="417.086" gradientUnits="userSpaceOnUse">
<stop stop-color="#E16D76"/>
<stop offset="0.99" stop-color="#413AC4"/>
</linearGradient>
<linearGradient id="paint20_linear_53_28" x1="34.1107" y1="415.823" x2="408.822" y2="415.823" gradientUnits="userSpaceOnUse">
<stop stop-color="#E06C79"/>
<stop offset="0.99" stop-color="#4039C1"/>
</linearGradient>
<linearGradient id="paint21_linear_53_28" x1="35.3789" y1="414.596" x2="404.822" y2="414.596" gradientUnits="userSpaceOnUse">
<stop stop-color="#DF6C7B"/>
<stop offset="0.99" stop-color="#3F38BF"/>
</linearGradient>
<linearGradient id="paint22_linear_53_28" x1="36.6412" y1="413.404" x2="400.829" y2="413.404" gradientUnits="userSpaceOnUse">
<stop stop-color="#DE6B7D"/>
<stop offset="0.99" stop-color="#3E37BC"/>
</linearGradient>
<linearGradient id="paint23_linear_53_28" x1="37.9035" y1="412.236" x2="396.836" y2="412.236" gradientUnits="userSpaceOnUse">
<stop stop-color="#DD6B80"/>
<stop offset="0.99" stop-color="#3D36BA"/>
</linearGradient>
<linearGradient id="paint24_linear_53_28" x1="39.1716" y1="411.091" x2="392.849" y2="411.091" gradientUnits="userSpaceOnUse">
<stop stop-color="#DC6A82"/>
<stop offset="0.99" stop-color="#3C35B7"/>
</linearGradient>
<linearGradient id="paint25_linear_53_28" x1="40.4338" y1="409.964" x2="388.867" y2="409.964" gradientUnits="userSpaceOnUse">
<stop stop-color="#DB6A84"/>
<stop offset="0.99" stop-color="#3B34B5"/>
</linearGradient>
<linearGradient id="paint26_linear_53_28" x1="41.6961" y1="408.854" x2="384.886" y2="408.854" gradientUnits="userSpaceOnUse">
<stop stop-color="#DA6986"/>
<stop offset="0.99" stop-color="#3B33B3"/>
</linearGradient>
<linearGradient id="paint27_linear_53_28" x1="42.9584" y1="407.763" x2="380.904" y2="407.763" gradientUnits="userSpaceOnUse">
<stop stop-color="#DA6989"/>
<stop offset="0.99" stop-color="#3A32B0"/>
</linearGradient>
<linearGradient id="paint28_linear_53_28" x1="44.2147" y1="406.683" x2="376.935" y2="406.683" gradientUnits="userSpaceOnUse">
<stop stop-color="#D9688B"/>
<stop offset="0.99" stop-color="#3931AE"/>
</linearGradient>
<linearGradient id="paint29_linear_53_28" x1="45.477" y1="405.615" x2="372.965" y2="405.615" gradientUnits="userSpaceOnUse">
<stop stop-color="#D8688D"/>
<stop offset="0.99" stop-color="#3830AB"/>
</linearGradient>
<linearGradient id="paint30_linear_53_28" x1="46.7334" y1="404.559" x2="369.007" y2="404.559" gradientUnits="userSpaceOnUse">
<stop stop-color="#D76790"/>
<stop offset="0.99" stop-color="#372FA9"/>
</linearGradient>
<linearGradient id="paint31_linear_53_28" x1="47.9957" y1="403.508" x2="371.679" y2="403.508" gradientUnits="userSpaceOnUse">
<stop stop-color="#D66692"/>
<stop offset="0.99" stop-color="#362EA6"/>
</linearGradient>
<linearGradient id="paint32_linear_53_28" x1="49.2521" y1="402.469" x2="377.684" y2="402.469" gradientUnits="userSpaceOnUse">
<stop stop-color="#D56694"/>
<stop offset="0.99" stop-color="#352DA4"/>
</linearGradient>
<linearGradient id="paint33_linear_53_28" x1="50.5084" y1="401.437" x2="383.73" y2="401.437" gradientUnits="userSpaceOnUse">
<stop stop-color="#D46596"/>
<stop offset="0.99" stop-color="#352CA2"/>
</linearGradient>
<linearGradient id="paint34_linear_53_28" x1="51.7589" y1="400.41" x2="389.805" y2="400.41" gradientUnits="userSpaceOnUse">
<stop stop-color="#D36599"/>
<stop offset="0.99" stop-color="#342B9F"/>
</linearGradient>
<linearGradient id="paint35_linear_53_28" x1="53.0153" y1="399.389" x2="395.91" y2="399.389" gradientUnits="userSpaceOnUse">
<stop stop-color="#D2649B"/>
<stop offset="0.99" stop-color="#332A9D"/>
</linearGradient>
<linearGradient id="paint36_linear_53_28" x1="54.2658" y1="398.368" x2="402.044" y2="398.368" gradientUnits="userSpaceOnUse">
<stop stop-color="#D1649D"/>
<stop offset="0.99" stop-color="#32299A"/>
</linearGradient>
<linearGradient id="paint37_linear_53_28" x1="55.5162" y1="397.354" x2="408.208" y2="397.354" gradientUnits="userSpaceOnUse">
<stop stop-color="#D163A0"/>
<stop offset="0.99" stop-color="#312998"/>
</linearGradient>
<linearGradient id="paint38_linear_53_28" x1="56.7608" y1="396.338" x2="414.39" y2="396.338" gradientUnits="userSpaceOnUse">
<stop stop-color="#D063A2"/>
<stop offset="0.99" stop-color="#302895"/>
</linearGradient>
<linearGradient id="paint39_linear_53_28" x1="58.0113" y1="395.329" x2="420.595" y2="395.329" gradientUnits="userSpaceOnUse">
<stop stop-color="#CF62A4"/>
<stop offset="0.99" stop-color="#2F2793"/>
</linearGradient>
<linearGradient id="paint40_linear_53_28" x1="59.2559" y1="394.32" x2="426.824" y2="394.32" gradientUnits="userSpaceOnUse">
<stop stop-color="#CE62A7"/>
<stop offset="0.99" stop-color="#2E2690"/>
</linearGradient>
<linearGradient id="paint41_linear_53_28" x1="59.1968" y1="393.305" x2="433.07" y2="393.305" gradientUnits="userSpaceOnUse">
<stop stop-color="#CD61A9"/>
<stop offset="0.99" stop-color="#2E258E"/>
</linearGradient>
<linearGradient id="paint42_linear_53_28" x1="58.0526" y1="392.296" x2="439.328" y2="392.296" gradientUnits="userSpaceOnUse">
<stop stop-color="#CC61AB"/>
<stop offset="0.99" stop-color="#2D248C"/>
</linearGradient>
<linearGradient id="paint43_linear_53_28" x1="56.8198" y1="391.281" x2="445.604" y2="391.281" gradientUnits="userSpaceOnUse">
<stop stop-color="#CB60AD"/>
<stop offset="0.99" stop-color="#2C2389"/>
</linearGradient>
<linearGradient id="paint44_linear_53_28" x1="55.5044" y1="390.266" x2="451.898" y2="390.266" gradientUnits="userSpaceOnUse">
<stop stop-color="#CA5FB0"/>
<stop offset="0.99" stop-color="#2B2287"/>
</linearGradient>
<linearGradient id="paint45_linear_53_28" x1="54.1241" y1="389.245" x2="458.203" y2="389.245" gradientUnits="userSpaceOnUse">
<stop stop-color="#C95FB2"/>
<stop offset="0.99" stop-color="#2A2184"/>
</linearGradient>
<linearGradient id="paint46_linear_53_28" x1="52.6731" y1="388.219" x2="464.521" y2="388.219" gradientUnits="userSpaceOnUse">
<stop stop-color="#C85EB4"/>
<stop offset="0.99" stop-color="#292082"/>
</linearGradient>
<linearGradient id="paint47_linear_53_28" x1="51.1573" y1="387.186" x2="470.856" y2="387.186" gradientUnits="userSpaceOnUse">
<stop stop-color="#C85EB7"/>
<stop offset="0.99" stop-color="#281F7F"/>
</linearGradient>
<linearGradient id="paint48_linear_53_28" x1="49.5883" y1="386.148" x2="477.232" y2="386.148" gradientUnits="userSpaceOnUse">
<stop stop-color="#C75DB9"/>
<stop offset="0.99" stop-color="#281E7D"/>
</linearGradient>
<linearGradient id="paint49_linear_53_28" x1="47.9721" y1="385.103" x2="483.579" y2="385.103" gradientUnits="userSpaceOnUse">
<stop stop-color="#C65DBB"/>
<stop offset="0.99" stop-color="#271D7B"/>
</linearGradient>
<linearGradient id="paint50_linear_53_28" x1="46.3028" y1="384.041" x2="489.937" y2="384.041" gradientUnits="userSpaceOnUse">
<stop stop-color="#C55CBD"/>
<stop offset="0.99" stop-color="#261C78"/>
</linearGradient>
<linearGradient id="paint51_linear_53_28" x1="44.5923" y1="382.972" x2="496.307" y2="382.972" gradientUnits="userSpaceOnUse">
<stop stop-color="#C45CC0"/>
<stop offset="0.99" stop-color="#251B76"/>
</linearGradient>
<linearGradient id="paint52_linear_53_28" x1="42.8405" y1="381.881" x2="502.684" y2="381.881" gradientUnits="userSpaceOnUse">
<stop stop-color="#C35BC2"/>
<stop offset="0.99" stop-color="#241A73"/>
</linearGradient>
<linearGradient id="paint53_linear_53_28" x1="41.0474" y1="380.772" x2="509.072" y2="380.772" gradientUnits="userSpaceOnUse">
<stop stop-color="#C25BC4"/>
<stop offset="0.99" stop-color="#231971"/>
</linearGradient>
<linearGradient id="paint54_linear_53_28" x1="39.2248" y1="379.639" x2="515.466" y2="379.639" gradientUnits="userSpaceOnUse">
<stop stop-color="#C15AC7"/>
<stop offset="0.99" stop-color="#22186E"/>
</linearGradient>
<linearGradient id="paint55_linear_53_28" x1="37.3608" y1="378.47" x2="521.865" y2="378.47" gradientUnits="userSpaceOnUse">
<stop stop-color="#C05AC9"/>
<stop offset="0.99" stop-color="#22176C"/>
</linearGradient>
<linearGradient id="paint56_linear_53_28" x1="35.4733" y1="377.266" x2="528.271" y2="377.266" gradientUnits="userSpaceOnUse">
<stop stop-color="#BF59CB"/>
<stop offset="0.99" stop-color="#211669"/>
</linearGradient>
<linearGradient id="paint57_linear_53_28" x1="33.5976" y1="376.222" x2="534.689" y2="376.222" gradientUnits="userSpaceOnUse">
<stop stop-color="#BE59CD"/>
<stop offset="0.99" stop-color="#201567"/>
</linearGradient>
<linearGradient id="paint58_linear_53_28" x1="31.6451" y1="374.369" x2="541.106" y2="374.369" gradientUnits="userSpaceOnUse">
<stop stop-color="#BE58D0"/>
<stop offset="0.99" stop-color="#1F1465"/>
</linearGradient>
<linearGradient id="paint59_linear_53_28" x1="29.6692" y1="372.439" x2="547.536" y2="372.439" gradientUnits="userSpaceOnUse">
<stop stop-color="#BD57D2"/>
<stop offset="0.99" stop-color="#1E1362"/>
</linearGradient>
<linearGradient id="paint60_linear_53_28" x1="27.6696" y1="371.914" x2="553.971" y2="371.914" gradientUnits="userSpaceOnUse">
<stop stop-color="#BC57D4"/>
<stop offset="0.99" stop-color="#1D1260"/>
</linearGradient>
<linearGradient id="paint61_linear_53_28" x1="25.6465" y1="369.577" x2="560.406" y2="369.577" gradientUnits="userSpaceOnUse">
<stop stop-color="#BB56D7"/>
<stop offset="0.99" stop-color="#1C125D"/>
</linearGradient>
<linearGradient id="paint62_linear_53_28" x1="23.5997" y1="368.002" x2="566.847" y2="368.002" gradientUnits="userSpaceOnUse">
<stop stop-color="#BA56D9"/>
<stop offset="0.99" stop-color="#1B115B"/>
</linearGradient>
<linearGradient id="paint63_linear_53_28" x1="21.5353" y1="365.193" x2="573.3" y2="365.193" gradientUnits="userSpaceOnUse">
<stop stop-color="#B955DB"/>
<stop offset="0.99" stop-color="#1B1058"/>
</linearGradient>
<linearGradient id="paint64_linear_53_28" x1="19.4531" y1="362.166" x2="579.753" y2="362.166" gradientUnits="userSpaceOnUse">
<stop stop-color="#B855DD"/>
<stop offset="0.99" stop-color="#1A0F56"/>
</linearGradient>
<linearGradient id="paint65_linear_53_28" x1="17.3473" y1="358.932" x2="586.206" y2="358.932" gradientUnits="userSpaceOnUse">
<stop stop-color="#B754E0"/>
<stop offset="0.99" stop-color="#190E54"/>
</linearGradient>
<linearGradient id="paint66_linear_53_28" x1="15.2298" y1="355.45" x2="592.67" y2="355.45" gradientUnits="userSpaceOnUse">
<stop stop-color="#B654E2"/>
<stop offset="0.99" stop-color="#180D51"/>
</linearGradient>
<linearGradient id="paint67_linear_53_28" x1="13.0946" y1="351.408" x2="599.135" y2="351.408" gradientUnits="userSpaceOnUse">
<stop stop-color="#B553E4"/>
<stop offset="0.99" stop-color="#170C4F"/>
</linearGradient>
<linearGradient id="paint68_linear_53_28" x1="10.9475" y1="346.304" x2="605.6" y2="346.304" gradientUnits="userSpaceOnUse">
<stop stop-color="#B553E7"/>
<stop offset="0.99" stop-color="#160B4C"/>
</linearGradient>
<linearGradient id="paint69_linear_53_28" x1="8.80054" y1="341.07" x2="612.076" y2="341.07" gradientUnits="userSpaceOnUse">
<stop stop-color="#B452E9"/>
<stop offset="0.99" stop-color="#150A4A"/>
</linearGradient>
<linearGradient id="paint70_linear_53_28" x1="6.61212" y1="336.397" x2="618.553" y2="336.397" gradientUnits="userSpaceOnUse">
<stop stop-color="#B352EB"/>
<stop offset="0.99" stop-color="#150947"/>
</linearGradient>
<linearGradient id="paint71_linear_53_28" x1="4.41791" y1="330.914" x2="625.029" y2="330.914" gradientUnits="userSpaceOnUse">
<stop stop-color="#B251ED"/>
<stop offset="0.99" stop-color="#140845"/>
</linearGradient>
<linearGradient id="paint72_linear_53_28" x1="2.21195" y1="325.019" x2="631.512" y2="325.019" gradientUnits="userSpaceOnUse">
<stop stop-color="#B151F0"/>
<stop offset="0.99" stop-color="#130742"/>
</linearGradient>
<linearGradient id="paint73_linear_53_28" x1="-6.44932e-07" y1="319.136" x2="638" y2="319.136" gradientUnits="userSpaceOnUse">
<stop stop-color="#B050F2"/>
<stop offset="0.99" stop-color="#120640"/>
</linearGradient>
<clipPath id="clip0_53_28">
<rect width="638" height="795.816" fill="white"/>
</clipPath>
</defs>
</svg>
